<?xml version="1.0" encoding="utf-8"?>
<!-- Generator: Adobe Illustrator 21.0.0, SVG Export Plug-In . SVG Version: 6.00 Build 0)  -->
<svg version="1.1" id="Layer_1" xmlns="http://www.w3.org/2000/svg" xmlns:xlink="http://www.w3.org/1999/xlink" x="0px" y="0px"
	 viewBox="0 0 358.7 358.7" style="enable-background:new 0 0 358.7 358.7;" xml:space="preserve">
<style type="text/css">
	.st0{fill:#BCD632;}
</style>
<g>
	<g>
		<path class="st0" d="M46.4,221.2c-1.1,2.2-3.1,3.5-5.4,3.6c-1.3-2-1.5-4.7-0.3-6.9c1.1-2.2,3.3-3.3,5.6-3.3
			C47.3,216.6,47.5,219.1,46.4,221.2z"/>
		<path class="st0" d="M33.6,225.2c2.2,1.4,4.6,1.2,6.5-0.1c-0.2-2.4-1.4-4.7-3.6-6.1c-2.1-1.4-4.6-1.4-6.5-0.2
			C30.1,221.3,31.4,223.9,33.6,225.2z"/>
		<path class="st0" d="M49.5,230.1c-0.9,2.2-2.9,3.7-5.1,4c-1.4-2-1.8-4.6-0.8-6.9c1-2.3,3.1-3.6,5.3-3.7
			C50.1,225.4,50.4,227.9,49.5,230.1z"/>
		<path class="st0" d="M37,235c2.3,1.2,4.7,0.8,6.5-0.6c-0.4-2.4-1.8-4.6-4-5.8c-2.2-1.2-4.7-1.1-6.5,0.2
			C33.2,231.4,34.7,233.9,37,235z"/>
		<path class="st0" d="M53.3,238.8c-0.8,2.3-2.6,3.9-4.8,4.3c-1.6-1.8-2.2-4.5-1.3-6.8c0.8-2.3,2.8-3.8,5-4
			C53.5,234.1,54,236.5,53.3,238.8z"/>
		<path class="st0" d="M41.2,244.6c2.4,1,4.8,0.5,6.4-1c-0.5-2.4-2.1-4.5-4.4-5.5c-2.3-1-4.7-0.8-6.5,0.7
			C37.1,241.2,38.8,243.6,41.2,244.6z"/>
		<path class="st0" d="M57.7,247.2c-0.6,2.4-2.3,4.1-4.5,4.7c-1.7-1.7-2.5-4.3-1.8-6.7c0.6-2.4,2.5-4,4.7-4.4
			C57.6,242.4,58.2,244.8,57.7,247.2z"/>
		<path class="st0" d="M46,253.8c2.4,0.9,4.8,0.1,6.3-1.5c-0.7-2.3-2.4-4.3-4.8-5.2c-2.4-0.9-4.8-0.4-6.4,1.2
			C41.7,250.8,43.6,253,46,253.8z"/>
		<path class="st0" d="M62.7,255.2c-0.4,2.4-2,4.3-4.1,5c-1.8-1.6-2.8-4.1-2.3-6.6c0.5-2.4,2.2-4.1,4.4-4.7
			C62.2,250.5,63.1,252.8,62.7,255.2z"/>
		<path class="st0" d="M51.5,262.7c2.5,0.7,4.8-0.2,6.2-1.9c-0.9-2.3-2.8-4.2-5.2-4.9c-2.4-0.7-4.8-0.1-6.3,1.6
			C47,260,49,262,51.5,262.7z"/>
		<path class="st0" d="M68.2,262.9c-0.2,2.4-1.7,4.4-3.7,5.3c-1.9-1.5-3.1-4-2.8-6.4c0.3-2.5,1.9-4.3,4-5
			C67.5,258.2,68.5,260.5,68.2,262.9z"/>
		<path class="st0" d="M57.7,271.2c2.5,0.5,4.8-0.5,6-2.4c-1-2.2-3.1-4-5.5-4.5c-2.5-0.5-4.8,0.3-6.2,2.1
			C53,268.8,55.1,270.7,57.7,271.2z"/>
		<path class="st0" d="M74.4,270.2c0,2.4-1.3,4.5-3.3,5.5c-2.1-1.3-3.4-3.7-3.3-6.2c0.1-2.5,1.6-4.4,3.6-5.3
			C73.3,265.6,74.5,267.8,74.4,270.2z"/>
		<path class="st0" d="M64.5,279.3c2.6,0.3,4.7-0.9,5.9-2.8c-1.2-2.2-3.4-3.8-5.9-4.1c-2.5-0.4-4.8,0.6-6,2.5
			C59.6,277.2,61.9,278.9,64.5,279.3z"/>
	</g>
	<g>
		<path class="st0" d="M313.4,221.2c1.1,2.2,3.1,3.5,5.4,3.6c1.3-2,1.5-4.7,0.3-6.9c-1.1-2.2-3.3-3.3-5.6-3.3
			C312.4,216.6,312.3,219.1,313.4,221.2z"/>
		<path class="st0" d="M326.2,225.2c-2.2,1.4-4.6,1.2-6.5-0.1c0.2-2.4,1.4-4.7,3.6-6.1c2.1-1.4,4.6-1.4,6.5-0.2
			C329.7,221.3,328.4,223.9,326.2,225.2z"/>
		<path class="st0" d="M310.2,230.1c0.9,2.2,2.9,3.7,5.1,4c1.4-2,1.8-4.6,0.8-6.9c-1-2.3-3.1-3.6-5.3-3.7
			C309.6,225.4,309.3,227.9,310.2,230.1z"/>
		<path class="st0" d="M322.7,235c-2.3,1.2-4.7,0.8-6.5-0.6c0.4-2.4,1.8-4.6,4-5.8c2.2-1.2,4.7-1.1,6.5,0.2
			C326.5,231.4,325,233.9,322.7,235z"/>
		<path class="st0" d="M306.5,238.8c0.8,2.3,2.6,3.9,4.8,4.3c1.6-1.8,2.2-4.5,1.3-6.8c-0.8-2.3-2.8-3.8-5-4
			C306.2,234.1,305.7,236.5,306.5,238.8z"/>
		<path class="st0" d="M318.6,244.6c-2.4,1-4.8,0.5-6.4-1c0.5-2.4,2.1-4.5,4.4-5.5c2.3-1,4.7-0.8,6.5,0.7
			C322.6,241.2,320.9,243.6,318.6,244.6z"/>
		<path class="st0" d="M302.1,247.2c0.6,2.4,2.3,4.1,4.5,4.7c1.7-1.7,2.5-4.3,1.8-6.7c-0.6-2.4-2.5-4-4.7-4.4
			C302.2,242.4,301.5,244.8,302.1,247.2z"/>
		<path class="st0" d="M313.8,253.8c-2.4,0.9-4.8,0.1-6.3-1.5c0.7-2.3,2.4-4.3,4.8-5.2c2.4-0.9,4.8-0.4,6.4,1.2
			C318,250.8,316.2,253,313.8,253.8z"/>
		<path class="st0" d="M297.1,255.2c0.4,2.4,2,4.3,4.1,5c1.8-1.6,2.8-4.1,2.3-6.6c-0.5-2.4-2.2-4.1-4.4-4.7
			C297.5,250.5,296.7,252.8,297.1,255.2z"/>
		<path class="st0" d="M308.2,262.7c-2.5,0.7-4.8-0.2-6.2-1.9c0.9-2.3,2.8-4.2,5.2-4.9c2.4-0.7,4.8-0.1,6.3,1.6
			C312.7,260,310.7,262,308.2,262.7z"/>
		<path class="st0" d="M291.5,262.9c0.2,2.4,1.7,4.4,3.7,5.3c1.9-1.5,3.1-4,2.8-6.4c-0.3-2.5-1.9-4.3-4-5
			C292.3,258.2,291.3,260.5,291.5,262.9z"/>
		<path class="st0" d="M302.1,271.2c-2.5,0.5-4.8-0.5-6-2.4c1-2.2,3.1-4,5.5-4.5c2.5-0.5,4.8,0.3,6.2,2.1
			C306.8,268.8,304.6,270.7,302.1,271.2z"/>
		<path class="st0" d="M285.3,270.2c0,2.4,1.3,4.5,3.3,5.5c2.1-1.3,3.4-3.7,3.3-6.2c-0.1-2.5-1.6-4.4-3.6-5.3
			C286.5,265.6,285.3,267.8,285.3,270.2z"/>
		<path class="st0" d="M295.3,279.3c-2.6,0.3-4.7-0.9-5.9-2.8c1.2-2.2,3.4-3.8,5.9-4.1c2.5-0.4,4.8,0.6,6,2.5
			C300.1,277.2,297.8,278.9,295.3,279.3z"/>
	</g>
</g>
<path class="st0" d="M179.3,300c-9.8,0-19.6-1.2-29-3.5c-2.1-0.5-4.1-1.1-6.1-1.7c-5.3-1.6-10.6-3.6-15.7-6.1
	c-1.2-0.5-2.3-1.1-3.5-1.7c-3.6-1.8-7.2-3.8-10.6-6.1c-0.9-0.5-1.7-1.1-2.6-1.7c-2.8-1.9-5.5-3.9-8.2-6.1c-0.7-0.5-1.4-1.1-2.1-1.7
	c-2.2-1.9-4.5-3.9-6.6-6c-0.6-0.5-1.1-1.1-1.7-1.7c-1.9-1.9-3.8-3.9-5.5-6c-0.5-0.5-1-1.1-1.4-1.7c-1.6-1.9-3.2-4-4.7-6
	c-0.4-0.5-0.8-1.1-1.2-1.7c-1.4-1.9-2.7-4-4-6c-0.3-0.6-0.7-1.1-1-1.7c-1.2-1.9-2.3-4-3.3-6c-0.3-0.6-0.6-1.1-0.9-1.7
	c-1-1.9-1.9-3.9-2.8-6c-0.2-0.6-0.5-1.1-0.7-1.7c-0.8-2-1.6-4-2.3-6c-0.2-0.5-0.4-1.1-0.6-1.7c-0.7-1.9-1.3-4-1.8-6
	c-0.2-0.5-0.3-1.1-0.5-1.7c-0.5-2.1-1-4.1-1.4-6.1c-0.1-0.6-0.2-1.2-0.3-1.7c-0.4-1.9-0.7-3.9-1-6c-0.1-0.5-0.2-1.1-0.2-1.6
	c-0.2-1.9-0.4-4-0.6-6.1c0-0.6-0.1-1.1-0.1-1.7c-0.1-2.1-0.2-4.1-0.2-6.1c0-0.3,0-0.6,0-0.9c0-0.3,0-0.5,0-0.8c0-1.9,0.1-3.8,0.2-6
	c0-0.6,0.1-1.2,0.1-1.7c0.1-2,0.3-4.1,0.6-6c0.1-0.5,0.1-1.1,0.2-1.7c0.3-2,0.6-4.1,1-6.1c0.1-0.5,0.2-1.1,0.3-1.6
	c0.4-2,0.8-3.9,1.4-6.1c0.2-0.6,0.3-1.2,0.5-1.7c0.5-1.9,1.1-4,1.8-6l0.6-1.7c0.7-2.1,1.5-4.1,2.3-6.1c0.2-0.5,0.4-1.1,0.7-1.6
	c1-2.3,1.9-4.3,2.8-6.1c0.2-0.4,0.4-0.7,0.5-1.1l0.3-0.6c1.1-2.2,2.2-4.2,3.4-6.1c0.3-0.5,0.6-1.1,1-1.7c1.2-2,2.6-4.1,4-6
	c0.4-0.6,0.8-1.1,1.2-1.7c1.5-2.1,3.1-4.1,4.6-6c0.5-0.6,0.9-1.1,1.4-1.7c1.8-2.1,3.6-4.1,5.5-6c0.5-0.6,1.1-1.1,1.7-1.7
	c2.2-2.2,4.4-4.2,6.6-6.1c0.6-0.6,1.3-1.1,2-1.7c2.5-2.1,5.2-4.1,8.1-6c0.8-0.6,1.7-1.1,2.5-1.7c3.3-2.2,6.9-4.2,10.5-6.1
	c1.2-0.6,2.3-1.2,3.4-1.7c5-2.4,10.2-4.4,15.5-6l0,0c2-0.6,4-1.2,6-1.7c19.5-5,40.3-5,59.8,0c2,0.5,4,1.1,6,1.7
	c5.3,1.6,10.5,3.7,15.5,6.1c1.1,0.5,2.3,1.1,3.4,1.7c3.6,1.9,7.2,3.9,10.5,6.1c0.9,0.6,1.7,1.1,2.5,1.7c2.8,1.9,5.6,4,8.1,6.1
	c0.7,0.5,1.4,1.1,2,1.7c2.2,1.8,4.4,3.9,6.6,6c0.6,0.5,1.1,1.1,1.7,1.7c1.9,1.9,3.7,3.9,5.5,6c0.5,0.5,1,1.1,1.4,1.7
	c1.6,2,3.2,4,4.7,6c0.4,0.5,0.8,1.1,1.2,1.7c1.3,1.8,2.6,3.9,3.9,6l0.2,0.4c0.3,0.4,0.5,0.9,0.8,1.4c1.1,1.9,2.2,3.9,3.3,6
	c0.3,0.6,0.6,1.1,0.9,1.7c0.9,1.8,1.8,3.8,2.8,6c0.2,0.6,0.5,1.1,0.7,1.7c0.8,2,1.6,4,2.3,6.1c0.2,0.6,0.4,1.1,0.6,1.7
	c0.7,2,1.3,4,1.8,6c0.2,0.6,0.3,1.1,0.4,1.7c0.5,2,1,4,1.4,6.1c0.1,0.5,0.2,1.1,0.3,1.7c0.4,2,0.7,4,1,6.1c0.1,0.6,0.2,1.1,0.2,1.7
	c0.2,2,0.4,4,0.6,6c0,0.5,0.1,1.1,0.1,1.6c0.1,2.2,0.2,4.2,0.2,6.1c0,0.2,0,0.5,0,0.7c0,0.3,0,0.7,0,1c0,1.9-0.1,4-0.2,6
	c0,0.6-0.1,1.1-0.1,1.7c-0.1,1.9-0.3,3.9-0.6,6c-0.1,0.6-0.1,1.1-0.2,1.7c-0.3,2-0.6,4.1-1,6c-0.1,0.5-0.2,1.1-0.3,1.6
	c-0.4,2-0.9,4-1.4,6.1c-0.2,0.6-0.3,1.2-0.5,1.7c-0.6,2.2-1.2,4.1-1.8,6.1c-0.2,0.6-0.4,1.1-0.6,1.7c-0.7,2-1.5,4-2.3,6
	c-0.2,0.6-0.5,1.1-0.7,1.7c-0.9,2.1-1.8,4.1-2.8,6.1c-0.2,0.5-0.5,1.1-0.8,1.7c-1,2-2.2,4-3.3,6l-1,1.7c-1.4,2.3-2.7,4.3-4,6.1
	c-0.4,0.6-0.8,1.1-1.2,1.7c-1.4,2-3,4.1-4.7,6c-0.5,0.6-1,1.1-1.4,1.7c-1.8,2.1-3.6,4.1-5.6,6.1c-0.6,0.6-1.1,1.1-1.7,1.7
	c-2.2,2.1-4.4,4.2-6.6,6c-0.7,0.6-1.4,1.1-2.1,1.7c-2.6,2.1-5.3,4.1-8.2,6.1c-0.8,0.6-1.7,1.1-2.6,1.7c-3.4,2.2-7,4.3-10.6,6.1
	c-1.1,0.6-2.3,1.2-3.5,1.7c-5.1,2.4-10.4,4.4-15.7,6.1c-2,0.6-4.1,1.2-6.1,1.7C198.9,298.8,189.2,300,179.3,300z M179.3,61.7
	c-9.8,0-19.6,1.2-29.1,3.7c-1.9,0.5-3.9,1-5.8,1.6l0,0c-5.2,1.6-10.2,3.6-15.1,5.9c-1.1,0.5-2.2,1-3.3,1.6c-3.5,1.8-7,3.8-10.2,5.9
	c-0.8,0.5-1.7,1.1-2.5,1.6c-2.8,1.9-5.4,3.9-7.9,5.9c-0.7,0.5-1.3,1.1-2,1.6c-2.2,1.8-4.3,3.8-6.5,5.9c-0.6,0.5-1.1,1.1-1.6,1.6
	c-1.8,1.9-3.7,3.9-5.4,5.9c-0.5,0.5-0.9,1.1-1.4,1.6c-1.5,1.9-3.1,3.8-4.6,5.9c-0.4,0.6-0.8,1.1-1.1,1.6c-1.4,2-2.7,4-3.9,5.9
	c-0.3,0.5-0.7,1.1-1,1.6c-1.1,1.9-2.2,3.9-3.3,5.9l-0.3,0.6c-0.2,0.4-0.4,0.7-0.5,1.1c-0.9,1.8-1.8,3.7-2.7,5.9
	c-0.2,0.6-0.5,1.1-0.7,1.6c-0.8,1.9-1.5,3.9-2.2,5.9l-0.6,1.7c-0.7,2-1.3,4-1.8,5.9c-0.2,0.6-0.3,1.1-0.5,1.7
	c-0.5,2.1-1,4.1-1.3,5.9c-0.1,0.6-0.2,1.1-0.3,1.6c-0.4,2-0.7,4-1,5.9c-0.1,0.6-0.2,1.1-0.2,1.6c-0.2,2-0.4,4-0.6,5.9
	c0,0.5-0.1,1.1-0.1,1.6c-0.1,2.2-0.2,4.1-0.2,6c0,0.3,0,0.5,0,0.7c0,0.3,0,0.6,0,0.9c0,1.9,0.1,3.9,0.2,6c0,0.5,0.1,1.1,0.1,1.6
	c0.1,2.1,0.3,4.1,0.6,5.9c0.1,0.6,0.1,1.1,0.2,1.6c0.3,2.1,0.6,4,1,5.9c0.1,0.6,0.2,1.1,0.3,1.7c0.4,1.9,0.8,3.8,1.4,5.9
	c0.1,0.5,0.3,1.1,0.4,1.6c0.6,2.1,1.2,4,1.8,5.9c0.2,0.6,0.4,1.1,0.6,1.6c0.7,2,1.4,4,2.2,5.9c0.2,0.6,0.4,1.1,0.7,1.6
	c0.9,2.1,1.8,4.1,2.7,5.9c0.3,0.6,0.5,1.1,0.8,1.6c1,2,2.1,4,3.3,5.9c0.3,0.6,0.6,1.1,1,1.6c1.2,2,2.5,4,3.9,5.9
	c0.4,0.6,0.8,1.1,1.2,1.6c1.5,2.1,3,4,4.6,5.9c0.5,0.6,0.9,1.1,1.4,1.6c1.8,2.1,3.6,4,5.4,5.9c0.5,0.6,1.1,1.1,1.6,1.6
	c2.1,2.1,4.3,4.1,6.5,5.9c0.7,0.6,1.3,1.1,2,1.6c2.6,2.1,5.3,4.1,8,5.9c0.8,0.6,1.7,1.1,2.5,1.6c3.3,2.2,6.8,4.1,10.3,5.9
	c1.1,0.6,2.3,1.1,3.4,1.6c5,2.3,10.2,4.3,15.4,5.9c1.9,0.6,3.9,1.2,5.9,1.6c18.4,4.6,38.2,4.6,56.7,0c2-0.5,4-1,5.9-1.6
	c5.2-1.6,10.4-3.6,15.4-5.9c1.1-0.5,2.3-1.1,3.4-1.6c3.5-1.8,6.9-3.7,10.3-5.9c0.8-0.5,1.7-1.1,2.5-1.6c2.8-1.9,5.5-3.9,8-5.9
	c0.7-0.5,1.3-1.1,2-1.6c2.2-1.8,4.4-3.8,6.5-5.9c0.6-0.5,1.1-1.1,1.6-1.6c1.9-1.9,3.7-3.9,5.4-5.9c0.5-0.5,0.9-1.1,1.4-1.6
	c1.6-1.9,3.1-3.9,4.5-5.9c0.4-0.6,0.8-1.1,1.2-1.6c1.3-1.8,2.5-3.7,3.9-5.9l1-1.7c1.1-1.9,2.2-3.9,3.3-5.9c0.3-0.5,0.6-1.1,0.8-1.6
	c1-1.9,1.9-3.9,2.8-5.9c0.2-0.6,0.5-1.1,0.7-1.6c0.8-2,1.6-3.9,2.2-5.9c0.2-0.5,0.4-1.1,0.6-1.6c0.6-1.9,1.2-3.8,1.8-5.9
	c0.1-0.5,0.3-1,0.4-1.6c0.6-2.1,1-4.1,1.4-6c0.1-0.6,0.2-1.1,0.3-1.6c0.4-1.9,0.7-3.9,1-5.9c0.1-0.6,0.2-1.1,0.2-1.6
	c0.3-2.1,0.4-4,0.6-5.9c0-0.6,0.1-1.1,0.1-1.7c0.1-2,0.2-4,0.2-5.9c0-0.3,0-0.6,0-0.9c0-0.2,0-0.4,0-0.7c0-1.9-0.1-3.9-0.2-6
	c0-0.6-0.1-1.1-0.1-1.6c-0.1-2-0.3-4-0.6-5.9c-0.1-0.6-0.1-1.1-0.2-1.6c-0.3-2-0.6-4-1-5.9c-0.1-0.6-0.2-1.1-0.3-1.6
	c-0.4-2-0.9-4-1.4-5.9c-0.1-0.5-0.3-1.1-0.4-1.6c-0.5-2-1.1-4-1.8-5.9c-0.2-0.6-0.4-1.1-0.6-1.6c-0.7-2-1.5-4-2.2-5.9
	c-0.2-0.6-0.4-1.1-0.7-1.6c-0.9-2.2-1.8-4.1-2.7-5.9c-0.3-0.6-0.5-1.1-0.8-1.6c-1.1-2-2.2-4-3.3-5.9c-0.3-0.5-0.5-0.9-0.8-1.3
	l-0.2-0.3c-1.3-2.1-2.6-4.1-3.9-5.9c-0.4-0.6-0.8-1.1-1.2-1.6c-1.4-2-2.9-4-4.6-5.9c-0.5-0.6-0.9-1.1-1.4-1.6
	c-1.8-2.1-3.6-4-5.4-5.9c-0.5-0.6-1.1-1.1-1.6-1.6c-2.2-2.1-4.3-4.1-6.5-5.9c-0.7-0.6-1.3-1.1-2-1.6c-2.5-2-5.1-4-7.9-5.9
	c-0.8-0.6-1.6-1.1-2.5-1.6c-3.2-2.1-6.7-4.1-10.2-5.9c-1.1-0.6-2.2-1.1-3.3-1.6c-4.9-2.3-10-4.3-15.1-5.9c-1.9-0.6-3.9-1.2-5.8-1.6
	C199,62.9,189.2,61.7,179.3,61.7z"/>
<path class="st0" d="M356.6,151.9c-0.1-0.4-0.1-0.8-0.2-1.2c-1.4-9-3.5-17.7-6.3-26.2c-0.1-0.4-0.2-0.8-0.4-1.1
	c-2.8-8.6-6.3-16.9-10.3-24.9c-0.2-0.4-0.4-0.7-0.5-1.1c-4.1-8-8.9-15.7-14.1-23c-0.2-0.3-0.5-0.6-0.7-1
	c-5.3-7.3-11.2-14.1-17.5-20.5c-0.3-0.3-0.6-0.6-0.8-0.8c-6.4-6.3-13.2-12.2-20.5-17.5c-0.3-0.2-0.6-0.5-1-0.7h0
	c-7.3-5.3-14.9-10-23-14.1c-0.4-0.2-0.7-0.4-1.1-0.5c-8-4-16.3-7.5-24.9-10.3c-0.4-0.1-0.8-0.3-1.1-0.4C225.7,5.8,217,3.7,208,2.3
	c-0.4-0.1-0.8-0.1-1.2-0.2C198,0.7,189.1,0,179.9,0h-1.2c-9.1,0-18.1,0.7-26.9,2.1c-0.4,0.1-0.8,0.1-1.2,0.2
	c-9,1.4-17.7,3.5-26.2,6.3c-0.4,0.1-0.8,0.2-1.1,0.4c-8.6,2.8-16.9,6.3-24.9,10.3c-0.4,0.2-0.7,0.4-1.1,0.5c-8,4.1-15.7,8.9-23,14.1
	c-0.3,0.2-0.6,0.5-1,0.7c-7.3,5.3-14.1,11.2-20.5,17.5c-0.3,0.3-0.6,0.6-0.8,0.8c-6.3,6.4-12.2,13.2-17.5,20.5
	c-0.2,0.3-0.5,0.6-0.7,1c-5.2,7.3-10,14.9-14.1,23c-0.2,0.4-0.4,0.7-0.5,1.1c-4,8-7.5,16.3-10.3,24.9c-0.1,0.4-0.3,0.8-0.4,1.1
	c-2.7,8.5-4.8,17.2-6.3,26.2c-0.1,0.4-0.1,0.8-0.2,1.2C0.7,160.6,0,169.6,0,178.7v1.2c0,9.1,0.7,18.1,2.1,26.9
	c0.1,0.4,0.1,0.8,0.2,1.2c1.4,9,3.5,17.7,6.3,26.2c0.1,0.4,0.2,0.8,0.4,1.1c2.8,8.6,6.3,16.9,10.3,24.9c0.2,0.4,0.4,0.7,0.5,1.1
	c4.1,8,8.9,15.7,14.1,23c0.2,0.3,0.5,0.6,0.7,1c5.3,7.3,11.2,14.1,17.5,20.5c0.3,0.3,0.6,0.6,0.8,0.8c6.4,6.3,13.2,12.2,20.5,17.5
	c0.3,0.2,0.6,0.5,1,0.7c7.3,5.2,14.9,10,23,14.1c0.3,0.2,0.7,0.4,1.1,0.5c8,4,16.3,7.5,24.9,10.3c0.4,0.1,0.8,0.3,1.1,0.4
	c8.5,2.7,17.2,4.8,26.2,6.3c0.4,0.1,0.8,0.1,1.2,0.2c8.8,1.3,17.7,2.1,26.9,2.1h1.2c9.1,0,18.1-0.7,26.9-2.1
	c0.4-0.1,0.8-0.1,1.2-0.2c9-1.4,17.7-3.5,26.2-6.3c0.4-0.1,0.8-0.2,1.1-0.4c8.6-2.8,16.9-6.3,24.9-10.3c0.4-0.2,0.7-0.4,1.1-0.5
	c8-4.1,15.7-8.9,23-14.1c0.3-0.2,0.6-0.5,1-0.7c7.3-5.3,14.1-11.2,20.5-17.5c0.3-0.3,0.6-0.6,0.8-0.8c6.3-6.4,12.2-13.2,17.5-20.5
	c0.2-0.3,0.5-0.6,0.7-1c5.3-7.3,10-14.9,14.1-23c0.2-0.3,0.4-0.7,0.5-1.1c4-8,7.5-16.3,10.3-24.9c0.1-0.4,0.3-0.8,0.4-1.1
	c2.7-8.5,4.8-17.2,6.3-26.2c0.1-0.4,0.1-0.8,0.2-1.2c1.3-8.8,2.1-17.7,2.1-26.9v-1.2C358.6,169.6,357.9,160.6,356.6,151.9z
	 M352.6,180c0,8.8-0.7,17.4-2,25.9c-0.1,0.4-0.1,0.8-0.2,1.2c-1.4,8.6-3.4,17.1-6,25.3c-0.1,0.4-0.3,0.8-0.4,1.2
	c-2.7,8.3-6.1,16.3-9.9,24c-0.2,0.4-0.4,0.7-0.6,1.1c-4,7.7-8.5,15.1-13.6,22.1c-0.2,0.3-0.5,0.7-0.7,1c-5.1,7-10.8,13.6-16.9,19.7
	l-0.9,0.9c-6.1,6.1-12.7,11.7-19.7,16.9c-0.3,0.3-0.7,0.5-1,0.7c-7,5.1-14.4,9.6-22.1,13.6c-0.4,0.2-0.7,0.4-1.1,0.6
	c-7.7,3.9-15.7,7.2-24,9.9c-0.4,0.1-0.8,0.3-1.2,0.4c-8.2,2.6-16.6,4.7-25.2,6c-0.4,0.1-0.8,0.1-1.2,0.2c-8.4,1.3-17.1,2-25.9,2
	h-1.2c-8.8,0-17.4-0.7-25.9-2c-0.4-0.1-0.8-0.1-1.2-0.2c-8.6-1.4-17.1-3.4-25.3-6c-0.4-0.1-0.8-0.2-1.2-0.4c-8.3-2.7-16.3-6-24-9.9
	c-0.4-0.2-0.7-0.4-1.1-0.6c-7.7-4-15.1-8.5-22.1-13.6c-0.3-0.2-0.7-0.5-1-0.7c-7-5.1-13.6-10.8-19.7-16.9c-0.3-0.3-0.6-0.6-0.9-0.9
	c-6.1-6.1-11.7-12.7-16.9-19.7c-0.3-0.3-0.5-0.7-0.7-1c-5.1-7-9.6-14.4-13.6-22.1c-0.2-0.4-0.4-0.7-0.6-1.1
	c-3.9-7.7-7.2-15.7-9.9-24c-0.1-0.4-0.3-0.8-0.4-1.2c-2.6-8.2-4.7-16.6-6-25.3c-0.1-0.4-0.1-0.8-0.2-1.2c-1.3-8.5-2-17.1-2-25.9
	v-1.2c0-8.8,0.7-17.4,2-25.9c0.1-0.4,0.1-0.8,0.2-1.2c1.4-8.6,3.4-17.1,6-25.2c0.1-0.4,0.2-0.8,0.4-1.2c2.7-8.3,6-16.3,9.9-24
	c0.2-0.4,0.4-0.7,0.6-1.1c4-7.7,8.5-15.1,13.6-22.1c0.2-0.3,0.5-0.7,0.7-1c5.1-7,10.8-13.6,16.9-19.7c0.3-0.3,0.6-0.6,0.9-0.9
	C63.4,50.3,70,44.6,77,39.5c0.3-0.3,0.7-0.5,1-0.7c7-5.1,14.4-9.6,22.1-13.6c0.4-0.2,0.7-0.4,1.1-0.6c7.7-3.9,15.7-7.2,24-9.9
	c0.4-0.1,0.8-0.3,1.2-0.4c8.2-2.6,16.6-4.6,25.3-6c0.4-0.1,0.8-0.1,1.2-0.2c8.4-1.3,17.1-2,25.9-2h1.2c8.8,0,17.4,0.7,25.9,2
	c0.4,0.1,0.8,0.1,1.2,0.2c8.6,1.4,17.1,3.4,25.3,6c0.4,0.1,0.8,0.3,1.2,0.4c8.3,2.7,16.3,6.1,24,9.9c0.4,0.2,0.7,0.4,1.1,0.6
	c7.7,4,15.1,8.5,22.1,13.6c0.3,0.2,0.7,0.5,1,0.7c7,5.1,13.6,10.8,19.7,16.9c0.3,0.3,0.6,0.6,0.9,0.9C308.4,63.4,314,70,319.2,77
	c0.2,0.3,0.5,0.7,0.7,1c5.1,7,9.6,14.4,13.6,22.1c0.2,0.4,0.4,0.7,0.6,1.1c3.9,7.7,7.2,15.7,9.9,24c0.1,0.4,0.3,0.8,0.4,1.2
	c2.6,8.2,4.6,16.6,6,25.3c0.1,0.4,0.1,0.8,0.2,1.2c1.3,8.4,2,17.1,2,25.9V180z"/>
<g>
	<path class="st0" d="M95.3,288.8l8.4,6l-2.2,3.1l-5.1-3.6l-1.2,1.7l4.9,3.5l-2.1,3l-4.9-3.5l-1.4,1.9l5.1,3.6l-2.1,3l-8.4-6
		L95.3,288.8z"/>
	<path class="st0" d="M103.8,311.5l3.3-1.8c0.5,1,1.6,2.2,3.2,3c1.4,0.7,1.9,0.5,2.2-0.1c0.5-1,0-1.2-2-3c-2.4-2.1-2.9-3.8-1.7-6.2
		c1.6-3,4.2-3.4,7.5-1.7c2.1,1.1,3.2,2.1,4.1,3.3l-3.2,2.3c-0.5-0.6-1.2-1.4-2.6-2.2c-1.2-0.6-1.8-0.7-2.1,0
		c-0.4,0.7,0.1,1.1,1.3,2.2c3,2.7,3.8,4.1,2.3,7c-1.3,2.6-3.7,3.4-7.4,1.5C106.4,314.6,104.7,313.3,103.8,311.5z"/>
	<path class="st0" d="M130.7,312.5l-3.8-1.3l1.3-3.6l11.7,4.1l-1.3,3.6l-3.8-1.3l-3.9,11.1l-4-1.4L130.7,312.5z"/>
	<path class="st0" d="M147.8,313.7l5.1,1c4.9,0.9,7,2.7,5.8,9c-1.2,6.4-3.7,7.2-8.6,6.3l-5.1-1L147.8,313.7z M151.1,326.5
		c1.5,0.3,2.7,0.2,3.4-3.6c0.7-3.8-0.3-4.1-2-4.5l-1.3-0.2l-1.5,8L151.1,326.5z"/>
	<path class="st0" d="M179.5,322.3l4.5-0.1l0.1,4.6l-4.5,0.1L179.5,322.3z"/>
	<path class="st0" d="M205.6,327.5l3.3-5c1.4-2.1,1.7-2.7,1.5-3.5c-0.2-1-0.7-1.4-2.1-1.1c-1,0.2-2.1,0.8-2.8,1.4l-2.4-2.9
		c1.1-0.9,2.5-1.8,5.1-2.3c3.5-0.8,5.3,0.4,5.9,3.3c0.5,2.5-0.1,3.8-2.1,6.8l-1.3,1.9l5.3-1.1l0.7,3.4l-10.5,2.3L205.6,327.5z"/>
	<path class="st0" d="M224.8,318c-1.6-4.3-2.2-7.7,3-9.7c5.2-2,7,1,8.6,5.3c1.7,4.5,2.2,7.7-3,9.6
		C228.2,325.2,226.4,322.4,224.8,318z M232.5,315.1c-1-2.8-1.7-3.8-3.4-3.1c-1.7,0.6-1.5,1.8-0.5,4.6c1,2.8,1.7,3.9,3.4,3.3
		C233.8,319.1,233.5,317.8,232.5,315.1z"/>
	<path class="st0" d="M244.9,304.9l-1.8,1l-1.7-3.2l5.3-2.9l7.3,13.7l-3.5,1.9L244.9,304.9z"/>
	<path class="st0" d="M259.9,301.8c-3.3-4.6-4.3-7.4,1.3-11.4l1.8-1.3l2.1,3l-2,1.4c-2.2,1.6-2.3,2.4-1.5,3.7
		c0.1-0.8,0.7-1.7,2.3-2.9c3.1-2.2,5-0.8,6.8,1.7c2.2,3.1,2.1,5.4-1.6,8C264.6,307.3,262.4,305.4,259.9,301.8z M267.5,298.4
		c-1-1.3-1.7-1.4-2.7-0.7c-1.1,0.8-1.5,1.7-0.6,2.9c0.9,1.2,1.6,1.5,3,0.5C268.3,300.3,268.3,299.6,267.5,298.4z"/>
</g>
<g>
	<path class="st0" d="M17.8,183.6l0.5-18.2l6.7,0.2l-0.3,10.9l4.2,0.1l0.3-10.4l6.5,0.2l-0.3,10.4l10,0.3l-0.2,7.3L17.8,183.6z"/>
	<path class="st0" d="M39.6,151.6l-0.5,2.4l8.3,1.7l-1.4,7.1l-26.8-5.4l2.2-11.1c1.4-7,5.4-8.7,10.8-7.6c3.7,0.7,6.6,2.5,7.6,5.9
		l10.3-2.2l-1.5,7.5L39.6,151.6z M34,149c0.4-2-0.4-2.8-2.6-3.3c-2.3-0.5-3.4,0-3.8,2l-0.8,3.8l6.4,1.3L34,149z"/>
	<path class="st0" d="M38,134.8c-6.8-2.8-12.3-7-8.5-16.4s10.7-8.6,17.5-5.8c6.8,2.8,12.3,7,8.5,16.4
		C51.7,138.4,44.8,137.6,38,134.8z M44.5,119.6c-4.1-1.7-6.9-2.2-8.4,1.5c-1.5,3.7,0.8,5.3,5,7c4.2,1.7,7,2.2,8.5-1.5
		C51,122.8,48.7,121.3,44.5,119.6z"/>
	<path class="st0" d="M58.1,116l-2.7-6.1c1.8-0.8,4-2.6,5.7-5.2c1.5-2.4,1.2-3.3,0.2-4c-1.6-1-2.1-0.2-5.5,3
		c-4,3.8-7.2,4.6-11.1,2.1c-5.1-3.2-5.3-7.9-1.8-13.4c2.3-3.6,4.3-5.3,6.5-6.7l3.5,6c-1.2,0.7-2.7,2-4.2,4.2c-1.3,2-1.5,3-0.4,3.8
		c1.2,0.8,2,0,4.1-2c5.1-4.9,7.8-6.1,12.6-3c4.3,2.7,5.4,7,1.5,13.2C63.8,111.9,61.3,114.6,58.1,116z"/>
	<path class="st0" d="M61.7,78.8l-4.8,5.3l-5-4.5l14.5-16.2l5,4.5l-4.8,5.3L82,87.1l-4.9,5.5L61.7,78.8z"/>
	<path class="st0" d="M78.5,52.9l5.9-4.1l5.7,8.2l0.1-12.2l6.8-4.7l-0.5,13.5l16.2,8.9l-6.6,4.6l-9.9-5.5l0,4l4,5.7l-5.9,4.1
		L78.5,52.9z"/>
	<path class="st0" d="M107.2,49.8c-3.1-6.7-4.2-13.5,5.1-17.8c9.3-4.2,13.7,1.1,16.7,7.8c3,6.7,4.2,13.5-5.1,17.7
		C114.7,61.8,110.3,56.5,107.2,49.8z M122.4,43.2c-1.9-4.1-3.5-6.4-7.1-4.7c-3.7,1.7-3,4.4-1.2,8.5c1.9,4.1,3.5,6.4,7.2,4.7
		C124.9,50.1,124.3,47.3,122.4,43.2z"/>
	<path class="st0" d="M131.7,24.4l9.2-2l7.3,13.4l1.2-15.3l9.2-2l5.8,26.8l-7,1.5l-3.2-15l-1.2,15.9l-4.6,1l-7.8-14l3.2,15l-6.3,1.4
		L131.7,24.4z"/>
	<path class="st0" d="M168.9,17.7l9.4,0.2l4,14.8L187,18l9.4,0.2l-0.5,27.4l-7.1-0.1l0.3-15.3l-4.9,15.2l-4.7-0.1l-4.4-15.4
		l-0.3,15.3l-6.5-0.1L168.9,17.7z"/>
	<path class="st0" d="M201.9,36.6l4-16.9l7.2,1.7l-3.9,16.2c-0.8,3.2-0.3,4.6,2.7,5.3c3,0.7,4.1-0.1,4.9-3.5l3.9-16.2l6.9,1.6
		l-4,16.9c-1.6,6.7-5.1,9.5-13.3,7.6C202.3,47.4,200.3,43.3,201.9,36.6z"/>
	<path class="st0" d="M236.5,27.9l7,3.2l1.5,14.6l5.3-11.5l6.3,2.9L245.2,62l-6.1-2.8l-1.8-16.5l-5.9,12.9l-6.3-2.9L236.5,27.9z"/>
	<path class="st0" d="M264.1,41.8l6.1,4l-14.9,23l-6.1-4L264.1,41.8z"/>
	<path class="st0" d="M277.5,50.7l5.5,4.8l-6.6,7.5l11.9-2.9l6.2,5.4l-13.2,2.8l-4.7,17.9l-6.1-5.3l3-11l-3.9,0.9l-4.6,5.3l-5.5-4.8
		L277.5,50.7z"/>
	<path class="st0" d="M304.1,76.5l4.9,6.2l-16.4,23.8l-4.7-6l2-2.7l-5.2-6.6l-3.1,1.3l-4.5-5.8L304.1,76.5z M293.8,92.6l5-7l-8,3.1
		L293.8,92.6z"/>
	<path class="st0" d="M313,101.2l-3.5-6.3l5.8-3.2l10.5,19l-5.8,3.2l-3.5-6.3l-18.1,10l-3.6-6.5L313,101.2z"/>
	<path class="st0" d="M328.4,117l2.7,6.8l-25.5,10l-2.7-6.8L328.4,117z"/>
	<path class="st0" d="M320.5,134.1c7.2-1.7,14.1-1.4,16.4,8.5s-3.8,13.2-11,14.8c-7.1,1.7-14.1,1.4-16.3-8.5
		C307.3,139.1,313.4,135.8,320.5,134.1z M324,150.3c4.4-1,6.9-2.2,6-6.1c-0.9-3.9-3.7-3.8-8.1-2.8c-4.4,1-7,2.2-6.1,6.1
		C316.8,151.4,319.6,151.4,324,150.3z"/>
	<path class="st0" d="M340.3,162.8l0.3,7.7l-12.4,7.9l12.7-0.4l0.2,7l-27.4,0.9l-0.2-6.7l13.9-9l-14.2,0.5l-0.2-6.9L340.3,162.8z"/>
</g>
<g>
	<path class="st0" d="M243.7,199.5c-0.7-1.7-1.2-2.9-1.2-4.4v-19.9c0-3.3-2.7-6.1-6.1-6.1c-0.7,0-1.3,0.1-2,0.3v-7.4
		c0-3.3-2.7-6.1-6.1-6.1c-0.7,0-1.5,0.1-2.2,0.4c-0.4-3-3-5.2-6-5.2h-0.1c-3.3,0-6.1,2.7-6.1,6.1v1.3c-0.7-0.3-1.4-0.4-2.1-0.4
		c-3.3,0-6.1,2.7-6.1,6.1v0.2h4v-0.2c0-1.2,1-2.1,2.1-2.1s2.1,1,2.1,2.1v30.6h4v-37.7c0-1.2,1-2.1,2.1-2.1h0.1c1.2,0,2.1,1,2.1,2.1
		v38h4v-33.2c0-1.2,1-2.1,2.1-2.1c1.2,0,2.1,1,2.1,2.1v11.9c-0.1,0.4-0.1,0.8-0.1,1.2v22.7h4.1v-23.5c0.3-0.8,1.1-1.4,2-1.4
		c1.2,0,2.1,1,2.1,2.1v19.9c0,2.3,0.7,4,1.5,5.9c1.2,3,2.7,6.7,2.7,14.9c0,7.3-2.1,11.4-3.9,15.1c-1.5,3.1-3,6.1-3,10.2v0.2h4v-0.2
		c0-3.2,1.1-5.5,2.6-8.4c1.9-3.9,4.3-8.7,4.3-16.9C246.7,206.9,244.9,202.7,243.7,199.5z"/>
	<path class="st0" d="M195.6,224.5c-0.5,0-0.9,0-1.2-0.1c-1.2-0.1-2.9-0.2-5-0.2c-1.7,0-3.5,0-4.7,0.1c0.1-0.4,0.3-0.6,0.5-0.9
		c0.5-0.5,1.2-0.8,2.2-0.8h0.1c1.8,0,3.6,0,5.4,0c2.8,0,4.7,0,5.1,0h0.2l-0.1-4H198c0,0-2,0-5,0c-1.8,0-3.6,0-5.4,0h-0.1
		c-2.7,0-4.3,1.1-5.2,2c-2.1,2.3-1.9,5.5-1.9,5.8c0.1,1.1,1,1.9,2.1,1.8c0,0,3.6-0.2,7-0.2c1.9,0,3.5,0.1,4.5,0.2
		c0.4,0,0.9,0.1,1.5,0.1c4.6,0.2,12.4,0.6,13.2,12.8l0,0.2l4-0.3l0-0.2C211.5,225.3,200.4,224.8,195.6,224.5z"/>
	<path class="st0" d="M176.7,162l2.3,3.2l0.1-0.1c3.3-2.4,6.8-3.6,10.5-3.6c3.3,0,5.5,1,5.6,1l0.2,0.1l1.7-3.6l-0.2-0.1
		c-0.3-0.1-3.2-1.4-7.3-1.4c-4.6,0-8.9,1.5-12.9,4.4L176.7,162z"/>
	<path class="st0" d="M189,161.9c-1.8-0.2-3.4,1.1-3.6,2.8c-0.1,0.9,0.1,1.7,0.7,2.4c0.5,0.7,1.3,1.1,2.2,1.2c0.1,0,0.3,0,0.4,0
		c1.6,0,3-1.2,3.2-2.9C192.1,163.7,190.8,162.1,189,161.9z"/>
	<path class="st0" d="M148.1,154.5c-6.3,0-11.4,5.1-11.4,11.4v6.1c0,6.3,5.1,11.4,11.4,11.4v-4c-4.1,0-7.4-3.3-7.4-7.4v-6.1
		c0-4.1,3.3-7.4,7.4-7.4c4.1,0,7.4,3.3,7.4,7.4h4C159.5,159.6,154.3,154.5,148.1,154.5z"/>
	<path class="st0" d="M212.7,179.6c0-4.1-7.9-13.8-10.8-17.2c0.9-2.2,1.3-5.1,0-9.9c-1.7-6-4.5-11.5-6.9-15.8
		c-0.3-0.6-0.6-1.1-1-1.6c3-2.8,8.2-3.8,8.3-3.8c0.7-0.1,1.2-0.6,1.5-1.2c0.3-0.6,0.2-1.3-0.2-1.9c-0.1-0.2-2.6-4-7.3-6
		c2.8-3.5,6.9-5.8,8.7-6.3c0.7-0.2,1.3-0.9,1.4-1.6c0.1-0.8-0.2-1.5-0.9-1.9c-3.1-2.1-8.7-0.9-11.5,0c-4.9-7.5-12.1-7.2-12.4-7.2
		c-0.8,0-1.4,0.5-1.7,1.2c0,0,0,0,0,0c-0.3,0.7-0.3,1.5,0.2,2.1c0.2,0.3,0.4,0.6,0.6,0.9c-2.3-0.8-5.1-2.5-7.4-6.1
		c-0.5-0.7-1.4-1.1-2.2-0.8c-0.8,0.2-1.4,1-1.5,1.8c-0.1,2.1,0.1,4,0.3,5.5c-1.4-0.2-3.1-0.4-5.1-0.4c-1.9,0-3.9,0.2-5.9,0.6
		c-1.4-1.5-1.8-2.8-1.8-2.8c-0.1-0.4-0.3-0.7-0.6-0.9c-0.3-0.2-0.6-0.4-1-0.5c-0.8-0.1-1.5,0.2-2,0.8c-0.6,0.8-1.1,1.8-1.6,2.7
		c-1.4-0.7-2.9-1-4.5-1c-4.5,0-7.8,3-8,3.2c-0.6,0.5-0.8,1.4-0.5,2.2c0.3,0.8,1,1.2,1.8,1.2c0,0,0,0,0,0h0.1c1.1,0,2,0.1,2.8,0.2
		c-0.6,0.2-1.4,0.3-2.8,0.3c-0.3,0-0.6,0-0.9,0c-0.7,0-1.4-0.1-2.1-0.2c-0.9-0.1-1.8-0.2-2.8-0.2c-2.8,0-5.1,1-7.4,3.1
		c-0.7,0.6-0.8,1.6-0.4,2.4c0.4,0.8,1.3,1.2,2.2,1c0.3-0.1,0.5-0.1,0.7,0c-0.4,0.2-1,0.6-2,0.9c-6.6,2.2-11.1,9.8-11.7,14.6
		c-5.2,6-7.5,22.9,1.1,36.7c7.8,12.6,6.8,21.6,6.7,21.6c-0.1,0.7,0.2,1.4,0.7,1.8c0.5,0.4,1.3,0.5,1.9,0.3l0.4-0.2
		c-0.1,2.1-0.3,4.1-0.5,6.3c-0.3,0.1-0.5,0.4-0.7,0.7l-8.5,12.2c-0.6,0.9-0.4,2.1,0.5,2.8l53.4,37c0.3,0.2,0.7,0.4,1.1,0.4
		c0.6,0,1.2-0.3,1.6-0.8l8.5-12.2c0.6-0.9,0.4-2.1-0.5-2.8l-4.4-3.1c0.2-2.2,0.6-6.1,0.9-10.9c0.6-8,4.3-9.1,7.8-9.1h10.4
		c3.2,0,10.6,0,10.6-7.6c0-4-0.9-6.2-1.6-7.7c-0.4-0.9-0.6-1.4-0.6-1.9c0-0.7,0.2-0.9,0.7-1.3c0.5-0.5,1.2-1.2,1.2-2.5
		c0-0.9-0.5-1.9-1.1-2.8c1.8-2,1.8-2.6,1.8-3.1c0-0.7-0.3-1.2-0.8-2.1c-0.4-0.8-1-1.9-1.2-2.9c0.3-0.1,0.7-0.2,1-0.3
		C209,184.7,212.7,183.6,212.7,179.6z M205.9,181.5c-1.5,0.5-3.9,1.2-3.9,3.5c0,1.9,1.1,4,1.8,5.3c0,0,0,0.1,0.1,0.1
		c-0.4,0.5-1,1.2-1.7,1.8c-0.4,0.4-0.6,0.9-0.6,1.4c0,0.5,0.2,1,0.6,1.4c0.3,0.3,0.7,0.8,1,1.2c-0.7,0.7-1.7,1.8-1.7,4
		c0,1.4,0.5,2.5,0.9,3.5c0.6,1.4,1.3,3,1.3,6.2c0,2.8-1.5,3.7-6.6,3.7h-10.4c-7.1,0-11.1,4.3-11.7,12.8c-0.3,3.4-0.5,6.4-0.7,8.6
		l0,0l0,0v0l0,0l0,0v0L140,212.1l-2.2,3.3l36.9,24.7l0,0l0,0l0,0l0,0l3.7,2.6l-6.2,9l-50.1-34.8l6.4-9.2c0.4,0,0.7,0,1.1-0.2
		c0.6-0.3,1.1-0.9,1.1-1.6c0.4-4.1,0.7-8,0.9-11.7c0-0.7-0.3-1.3-0.8-1.7c-0.5-0.4-1.2-0.5-1.9-0.3l-0.6,0.2
		c-0.2-4-1.5-11.7-7.4-21.1c-8-13-5.3-28.3-1.1-32.3c0.4-0.4,0.6-0.9,0.6-1.4c0.1-3,3.6-10,9-11.8c4.9-1.6,5.3-4.1,5.1-5.4
		c-0.1-0.6-0.4-1.2-0.8-1.7c0.5-0.1,1-0.1,1.4-0.1c0.7,0,1.5,0.1,2.3,0.2c0.7,0.1,1.5,0.2,2.3,0.2c0.4,0,0.7,0,1.1,0
		c6.8,0,7.5-3.2,7.5-4.6c0-1-0.5-1.9-1.4-2.5c0.1,0,0.2,0,0.4,0c1.5,0,3,0.6,4.4,1.7c0.7,0.5,1.6,0.6,2.3,0.2c0.7-0.4,1-1.2,0.9-1.9
		c0-0.1,0.1-0.2,0.1-0.4c0.5,0.6,1,1.2,1.7,1.8c0.5,0.4,1.1,0.6,1.8,0.4c2-0.5,4.1-0.7,6.1-0.7c4.2,0,7,1,7,1
		c0.7,0.3,1.5,0.1,2.1-0.4c0.6-0.5,0.8-1.3,0.5-2.1c0,0-0.2-0.7-0.4-1.8c4.3,3.6,8.7,3.9,10.3,3.9c0.4,0,0.6,0,0.7,0
		c0.7-0.1,1.3-0.5,1.6-1c0.3-0.6,0.3-1.3,0-1.9c0,0-0.1-0.3-0.4-0.7c1.7,0.9,3.6,2.5,5.2,5.4c0.5,0.9,1.5,1.2,2.4,0.9
		c1.1-0.4,2.6-0.8,4-1c-2.3,1.7-4.6,4-6.2,6.8c-0.3,0.5-0.3,1.2-0.1,1.8c0.3,0.6,0.8,1,1.4,1.1c2.4,0.6,4.3,1.9,5.6,3
		c-2.6,0.9-6.1,2.5-8.3,5.3c-0.1,0.1-0.2,0.2-0.2,0.4c-0.2,0.3-0.2,0.6-0.2,0.9c0,0.4,0.1,0.7,0.3,1c2.6,4.2,6.1,10.7,8.1,17.7
		c1.3,4.7,0.6,6.7-0.3,8.2c-0.4,0.8-0.3,1.8,0.4,2.4c2.7,2.6,10.6,13.1,10.6,15.4C208.7,180.5,208.2,180.8,205.9,181.5z"/>
</g>
</svg>
