<?xml version="1.0" encoding="utf-8"?>
<!-- Generator: Adobe Illustrator 21.0.0, SVG Export Plug-In . SVG Version: 6.00 Build 0)  -->
<svg version="1.1" id="Layer_1" xmlns="http://www.w3.org/2000/svg" xmlns:xlink="http://www.w3.org/1999/xlink" x="0px" y="0px"
	 viewBox="0 0 396.1 395.1" style="enable-background:new 0 0 396.1 395.1;" xml:space="preserve">
<style type="text/css">
	.st0{fill:#BCD632;}
</style>
<g>
	<g>
		<path class="st0" d="M58.7,234.7c-1.1,2.2-3.2,3.6-5.5,3.7c-1.3-2.1-1.5-4.9-0.4-7.2c1.2-2.3,3.4-3.4,5.7-3.4
			C59.6,229.9,59.8,232.4,58.7,234.7z"/>
		<path class="st0" d="M45.4,238.8c2.3,1.4,4.8,1.2,6.7-0.1c-0.2-2.5-1.5-4.9-3.7-6.3c-2.2-1.4-4.7-1.5-6.7-0.3
			C41.8,234.8,43.1,237.4,45.4,238.8z"/>
		<path class="st0" d="M61.9,243.9c-1,2.3-3,3.8-5.3,4.1c-1.5-2-1.9-4.8-0.9-7.1c1-2.4,3.2-3.7,5.5-3.8
			C62.5,239,62.8,241.6,61.9,243.9z"/>
		<path class="st0" d="M49,248.9c2.4,1.2,4.9,0.9,6.7-0.6c-0.4-2.5-1.8-4.8-4.1-6c-2.3-1.3-4.8-1.1-6.7,0.2
			C45.1,245.2,46.6,247.7,49,248.9z"/>
		<path class="st0" d="M65.8,252.8c-0.8,2.4-2.7,4.1-5,4.5c-1.6-1.9-2.2-4.6-1.4-7c0.8-2.4,2.9-3.9,5.2-4.2
			C66,247.9,66.6,250.4,65.8,252.8z"/>
		<path class="st0" d="M53.3,258.8c2.4,1.1,4.9,0.5,6.6-1.1c-0.5-2.5-2.2-4.6-4.5-5.7c-2.4-1.1-4.9-0.8-6.7,0.7
			C49.1,255.3,50.8,257.8,53.3,258.8z"/>
		<path class="st0" d="M70.3,261.5c-0.6,2.4-2.4,4.2-4.6,4.8c-1.8-1.8-2.6-4.5-1.9-6.9c0.7-2.5,2.6-4.1,4.9-4.5
			C70.2,256.6,70.9,259,70.3,261.5z"/>
		<path class="st0" d="M58.3,268.4c2.5,0.9,4.9,0.2,6.5-1.5c-0.7-2.4-2.5-4.5-5-5.4c-2.4-0.9-4.9-0.4-6.6,1.2
			C53.9,265.2,55.7,267.5,58.3,268.4z"/>
		<path class="st0" d="M75.5,269.8c-0.4,2.5-2.1,4.4-4.3,5.1c-1.9-1.7-2.9-4.3-2.4-6.8c0.5-2.5,2.3-4.3,4.5-4.9
			C75,264.9,75.9,267.3,75.5,269.8z"/>
		<path class="st0" d="M63.9,277.5c2.6,0.7,4.9-0.2,6.4-2c-0.9-2.4-2.8-4.3-5.3-5c-2.5-0.7-5-0.1-6.5,1.7
			C59.3,274.7,61.4,276.8,63.9,277.5z"/>
		<path class="st0" d="M81.2,277.8c-0.2,2.5-1.7,4.6-3.9,5.4c-2-1.5-3.2-4.1-2.9-6.6c0.3-2.6,2-4.5,4.2-5.2
			C80.4,272.9,81.5,275.2,81.2,277.8z"/>
		<path class="st0" d="M70.3,286.3c2.6,0.5,4.9-0.6,6.2-2.5c-1.1-2.3-3.2-4.1-5.7-4.7c-2.5-0.6-5,0.3-6.4,2.1
			C65.5,283.8,67.7,285.8,70.3,286.3z"/>
		<path class="st0" d="M87.6,285.3c0,2.5-1.4,4.7-3.4,5.7c-2.1-1.4-3.5-3.9-3.4-6.4c0.1-2.6,1.6-4.6,3.8-5.5
			C86.4,280.5,87.7,282.8,87.6,285.3z"/>
		<path class="st0" d="M77.4,294.6c2.7,0.3,4.9-0.9,6-2.9c-1.3-2.2-3.5-3.9-6.1-4.3c-2.6-0.4-4.9,0.6-6.2,2.6
			C72.3,292.5,74.7,294.3,77.4,294.6z"/>
	</g>
	<g>
		<path class="st0" d="M340.5,234.7c1.1,2.2,3.2,3.6,5.5,3.7c1.3-2.1,1.5-4.9,0.4-7.2c-1.2-2.3-3.4-3.4-5.7-3.4
			C339.5,229.9,339.4,232.4,340.5,234.7z"/>
		<path class="st0" d="M353.7,238.8c-2.3,1.4-4.8,1.2-6.7-0.1c0.2-2.5,1.5-4.9,3.7-6.3c2.2-1.4,4.7-1.5,6.7-0.3
			C357.4,234.8,356,237.4,353.7,238.8z"/>
		<path class="st0" d="M337.3,243.9c1,2.3,3,3.8,5.3,4.1c1.5-2,1.9-4.8,0.9-7.1c-1-2.4-3.2-3.7-5.5-3.8
			C336.6,239,336.3,241.6,337.3,243.9z"/>
		<path class="st0" d="M350.2,248.9c-2.4,1.2-4.9,0.9-6.7-0.6c0.4-2.5,1.8-4.8,4.1-6c2.3-1.3,4.8-1.1,6.7,0.2
			C354.1,245.2,352.5,247.7,350.2,248.9z"/>
		<path class="st0" d="M333.4,252.8c0.8,2.4,2.7,4.1,5,4.5c1.6-1.9,2.2-4.6,1.4-7c-0.8-2.4-2.9-3.9-5.2-4.2
			C333.1,247.9,332.6,250.4,333.4,252.8z"/>
		<path class="st0" d="M345.9,258.8c-2.4,1.1-4.9,0.5-6.6-1.1c0.5-2.5,2.2-4.6,4.5-5.7c2.4-1.1,4.9-0.8,6.7,0.7
			C350,255.3,348.3,257.8,345.9,258.8z"/>
		<path class="st0" d="M328.8,261.5c0.6,2.4,2.4,4.2,4.6,4.8c1.8-1.8,2.6-4.5,1.9-6.9c-0.7-2.5-2.6-4.1-4.9-4.5
			C328.9,256.6,328.2,259,328.8,261.5z"/>
		<path class="st0" d="M340.9,268.4c-2.5,0.9-4.9,0.2-6.5-1.5c0.7-2.4,2.5-4.5,5-5.4c2.4-0.9,4.9-0.4,6.6,1.2
			C345.3,265.2,343.4,267.5,340.9,268.4z"/>
		<path class="st0" d="M323.7,269.8c0.4,2.5,2.1,4.4,4.3,5.1c1.9-1.7,2.9-4.3,2.4-6.8c-0.5-2.5-2.3-4.3-4.5-4.9
			C324.1,264.9,323.3,267.3,323.7,269.8z"/>
		<path class="st0" d="M335.2,277.5c-2.6,0.7-4.9-0.2-6.4-2c0.9-2.4,2.8-4.3,5.3-5c2.5-0.7,5-0.1,6.5,1.7
			C339.8,274.7,337.8,276.8,335.2,277.5z"/>
		<path class="st0" d="M317.9,277.8c0.2,2.5,1.7,4.6,3.9,5.4c2-1.5,3.2-4.1,2.9-6.6c-0.3-2.6-2-4.5-4.2-5.2
			C318.7,272.9,317.7,275.2,317.9,277.8z"/>
		<path class="st0" d="M328.8,286.3c-2.6,0.5-4.9-0.6-6.2-2.5c1.1-2.3,3.2-4.1,5.7-4.7c2.5-0.6,5,0.3,6.4,2.1
			C333.7,283.8,331.4,285.8,328.8,286.3z"/>
		<path class="st0" d="M311.5,285.3c0,2.5,1.4,4.7,3.4,5.7c2.1-1.4,3.5-3.9,3.4-6.4c-0.1-2.6-1.6-4.6-3.8-5.5
			C312.7,280.5,311.5,282.8,311.5,285.3z"/>
		<path class="st0" d="M321.8,294.6c-2.7,0.3-4.9-0.9-6-2.9c1.3-2.2,3.5-3.9,6.1-4.3c2.6-0.4,4.9,0.6,6.2,2.6
			C326.8,292.5,324.4,294.3,321.8,294.6z"/>
	</g>
</g>
<path class="st0" d="M199.1,309.9c-9.1,0-18.2-1.1-26.9-3.3c-1.9-0.5-3.8-1-5.7-1.6c-4.9-1.5-9.8-3.4-14.6-5.6
	c-1.1-0.5-2.2-1-3.2-1.6c-3.3-1.7-6.6-3.6-9.8-5.6c-0.8-0.5-1.6-1-2.4-1.6c-2.6-1.7-5.1-3.6-7.6-5.6c-0.6-0.5-1.3-1-1.9-1.6
	c-2.1-1.7-4.1-3.6-6.2-5.6c-0.5-0.5-1.1-1-1.6-1.6c-1.7-1.8-3.5-3.7-5.1-5.6c-0.4-0.5-0.9-1-1.3-1.6c-1.5-1.8-2.9-3.7-4.3-5.6
	c-0.4-0.5-0.7-1-1.1-1.6c-1.3-1.8-2.5-3.7-3.7-5.6c-0.3-0.5-0.6-1-0.9-1.6c-1.1-1.8-2.1-3.7-3.1-5.6c-0.3-0.5-0.5-1-0.8-1.6
	c-0.9-1.8-1.8-3.6-2.6-5.6c-0.2-0.5-0.5-1-0.7-1.6c-0.8-1.8-1.5-3.7-2.1-5.6c-0.2-0.5-0.4-1-0.5-1.6c-0.6-1.8-1.2-3.7-1.7-5.6
	c-0.1-0.5-0.3-1-0.4-1.5c-0.5-2-0.9-3.8-1.3-5.6c-0.1-0.5-0.2-1.1-0.3-1.6c-0.3-1.8-0.7-3.7-0.9-5.6c-0.1-0.5-0.1-1-0.2-1.5
	c-0.2-1.8-0.4-3.7-0.5-5.6c0-0.5-0.1-1-0.1-1.6c-0.1-1.9-0.2-3.8-0.2-5.6c0-0.3,0-0.6,0-0.9c0-0.2,0-0.5,0-0.7
	c0-1.7,0.1-3.6,0.2-5.6c0-0.6,0.1-1.1,0.1-1.6c0.1-1.9,0.3-3.8,0.5-5.6c0-0.5,0.1-1,0.2-1.5c0.3-1.9,0.6-3.8,0.9-5.6
	c0.1-0.5,0.2-1,0.3-1.5c0.4-1.8,0.8-3.7,1.3-5.7c0.1-0.5,0.3-1.1,0.4-1.6c0.5-1.8,1-3.7,1.7-5.6l0.5-1.6c0.7-1.9,1.4-3.8,2.1-5.6
	c0.2-0.5,0.4-1,0.6-1.5c0.9-2.1,1.7-3.9,2.6-5.7c0.2-0.3,0.3-0.7,0.5-1l0.3-0.5c1-2,2.1-3.9,3.1-5.6c0.3-0.5,0.6-1,0.9-1.6
	c1.1-1.9,2.4-3.8,3.7-5.6c0.3-0.5,0.7-1.1,1.1-1.6c1.4-1.9,2.8-3.8,4.3-5.6c0.4-0.5,0.9-1.1,1.3-1.6c1.6-1.9,3.4-3.8,5.1-5.6
	c0.5-0.5,1-1.1,1.6-1.6c2-2,4.1-3.9,6.1-5.6c0.6-0.5,1.2-1.1,1.9-1.6c2.3-1.9,4.9-3.8,7.5-5.6c0.8-0.5,1.6-1.1,2.4-1.6
	c3.1-2,6.4-3.9,9.7-5.6c1.1-0.6,2.2-1.1,3.2-1.6c4.6-2.2,9.5-4.1,14.4-5.6l0,0c1.8-0.6,3.7-1.1,5.5-1.6c18.1-4.6,37.4-4.6,55.4,0
	c1.8,0.5,3.7,1,5.5,1.6c4.9,1.5,9.7,3.4,14.4,5.6c1.1,0.5,2.1,1,3.2,1.6c3.4,1.7,6.6,3.6,9.7,5.6c0.8,0.5,1.6,1,2.4,1.6
	c2.6,1.8,5.2,3.7,7.5,5.6c0.6,0.5,1.3,1,1.9,1.6c2,1.7,4.1,3.6,6.1,5.6c0.5,0.5,1.1,1,1.6,1.6c1.7,1.8,3.5,3.6,5.1,5.6
	c0.4,0.5,0.9,1,1.3,1.6c1.5,1.8,3,3.7,4.3,5.6c0.4,0.5,0.8,1,1.1,1.6c1.2,1.7,2.4,3.6,3.7,5.6l0.2,0.3c0.3,0.4,0.5,0.8,0.7,1.3
	c1,1.8,2.1,3.7,3.1,5.6c0.3,0.5,0.5,1.1,0.8,1.6c0.8,1.7,1.7,3.5,2.6,5.6c0.2,0.6,0.4,1.1,0.7,1.6c0.7,1.8,1.5,3.7,2.1,5.6
	c0.2,0.5,0.4,1,0.5,1.6c0.6,1.8,1.2,3.7,1.7,5.6c0.1,0.5,0.3,1,0.4,1.6c0.5,1.8,0.9,3.7,1.3,5.6c0.1,0.5,0.2,1,0.3,1.6
	c0.4,1.9,0.7,3.7,0.9,5.6c0.1,0.5,0.1,1.1,0.2,1.6c0.2,1.8,0.4,3.7,0.5,5.6c0,0.5,0.1,1,0.1,1.5c0.1,2.1,0.2,3.9,0.2,5.7
	c0,0.2,0,0.4,0,0.7c0,0.3,0,0.6,0,0.9c0,1.8-0.1,3.7-0.2,5.6c0,0.5-0.1,1.1-0.1,1.6c-0.1,1.8-0.3,3.6-0.5,5.6
	c-0.1,0.5-0.1,1.1-0.2,1.6c-0.2,1.9-0.6,3.8-0.9,5.6c-0.1,0.5-0.2,1-0.3,1.5c-0.4,1.9-0.8,3.7-1.3,5.7c-0.1,0.6-0.3,1.1-0.4,1.6
	c-0.6,2-1.1,3.8-1.7,5.6c-0.2,0.5-0.3,1.1-0.5,1.6c-0.6,1.8-1.4,3.7-2.1,5.6c-0.2,0.5-0.4,1-0.7,1.6c-0.8,1.9-1.7,3.8-2.6,5.6
	c-0.2,0.5-0.5,1-0.8,1.6c-1,1.9-2,3.8-3.1,5.6l-0.9,1.6c-1.3,2.1-2.5,3.9-3.7,5.6c-0.3,0.5-0.7,1.1-1.1,1.6
	c-1.3,1.9-2.8,3.8-4.3,5.6c-0.4,0.5-0.9,1.1-1.3,1.6c-1.6,1.9-3.4,3.8-5.2,5.6c-0.5,0.5-1,1.1-1.6,1.6c-2,2-4.1,3.9-6.1,5.6
	c-0.6,0.5-1.3,1.1-1.9,1.6c-2.4,1.9-4.9,3.8-7.6,5.6c-0.8,0.5-1.6,1.1-2.4,1.6c-3.2,2.1-6.5,3.9-9.8,5.6c-1.1,0.5-2.1,1.1-3.2,1.6
	c-4.7,2.2-9.7,4.1-14.6,5.6c-1.9,0.6-3.8,1.1-5.7,1.6C217.2,308.8,208.2,309.9,199.1,309.9z M199.1,89c-9.1,0-18.2,1.1-27,3.4
	c-1.8,0.5-3.6,1-5.4,1.5l0,0c-4.8,1.5-9.5,3.3-14,5.5c-1,0.5-2,1-3.1,1.5c-3.3,1.7-6.5,3.5-9.5,5.5c-0.8,0.5-1.5,1-2.3,1.5
	c-2.6,1.8-5,3.6-7.3,5.5c-0.6,0.5-1.2,1-1.8,1.5c-2,1.7-4,3.5-6,5.5c-0.5,0.5-1,1-1.5,1.5c-1.7,1.7-3.4,3.6-5,5.5
	c-0.4,0.5-0.9,1-1.3,1.5c-1.4,1.7-2.8,3.6-4.2,5.5c-0.4,0.5-0.7,1-1.1,1.5c-1.3,1.8-2.5,3.7-3.6,5.5c-0.3,0.5-0.6,1-0.9,1.5
	c-1,1.7-2.1,3.6-3.1,5.5l-0.3,0.5c-0.2,0.3-0.3,0.7-0.5,1c-0.8,1.7-1.7,3.5-2.5,5.5c-0.2,0.5-0.4,1-0.6,1.5
	c-0.7,1.8-1.4,3.6-2.1,5.5l-0.5,1.5c-0.6,1.8-1.2,3.7-1.6,5.4c-0.2,0.5-0.3,1-0.4,1.5c-0.5,2-0.9,3.8-1.2,5.5
	c-0.1,0.6-0.2,1-0.3,1.5c-0.3,1.8-0.6,3.7-0.9,5.5c-0.1,0.5-0.1,1-0.2,1.5c-0.2,1.8-0.4,3.7-0.5,5.5c0,0.5-0.1,1-0.1,1.5
	c-0.1,2-0.2,3.8-0.2,5.5c0,0.3,0,0.5,0,0.7c0,0.3,0,0.5,0,0.8c0,1.8,0.1,3.6,0.2,5.5c0,0.5,0.1,1,0.1,1.5c0.1,1.9,0.3,3.8,0.5,5.5
	c0.1,0.5,0.1,1,0.2,1.5c0.3,1.9,0.6,3.7,0.9,5.5c0.1,0.5,0.2,1,0.3,1.5c0.4,1.8,0.8,3.6,1.3,5.5c0.1,0.5,0.3,1,0.4,1.5
	c0.5,1.9,1.1,3.7,1.7,5.5c0.2,0.5,0.3,1,0.5,1.5c0.6,1.8,1.3,3.7,2.1,5.5c0.2,0.5,0.4,1,0.6,1.5c0.8,1.9,1.7,3.8,2.5,5.5
	c0.3,0.5,0.5,1,0.8,1.5c1,1.9,2,3.7,3,5.5c0.3,0.5,0.6,1,0.9,1.5c1.1,1.9,2.4,3.7,3.6,5.5c0.4,0.5,0.7,1,1.1,1.5
	c1.4,1.9,2.8,3.7,4.2,5.5c0.4,0.5,0.8,1,1.3,1.5c1.6,1.9,3.3,3.7,5,5.5c0.5,0.5,1,1,1.5,1.5c2,1.9,4,3.8,6,5.5
	c0.6,0.5,1.2,1,1.8,1.5c2.4,2,4.9,3.8,7.4,5.5c0.8,0.5,1.5,1,2.3,1.5c3.1,2,6.3,3.8,9.6,5.5c1,0.5,2.1,1,3.1,1.5
	c4.6,2.2,9.4,4,14.2,5.5c1.8,0.6,3.6,1.1,5.5,1.5c17.1,4.3,35.5,4.3,52.5,0c1.8-0.4,3.7-1,5.5-1.5c4.8-1.5,9.6-3.3,14.2-5.5
	c1.1-0.5,2.1-1,3.1-1.5c3.2-1.6,6.4-3.5,9.6-5.5c0.8-0.5,1.6-1,2.3-1.5c2.6-1.7,5.1-3.6,7.4-5.5c0.6-0.5,1.2-1,1.8-1.5
	c2-1.7,4.1-3.5,6-5.5c0.5-0.5,1-1,1.5-1.5c1.7-1.8,3.4-3.6,5-5.5c0.4-0.5,0.9-1,1.3-1.5c1.5-1.8,2.9-3.6,4.2-5.5
	c0.4-0.5,0.7-1,1.1-1.5c1.2-1.7,2.4-3.5,3.6-5.5l0.9-1.5c1.1-1.8,2.1-3.6,3-5.5c0.3-0.5,0.5-1,0.7-1.5c0.9-1.8,1.8-3.6,2.6-5.5
	c0.2-0.5,0.4-1,0.6-1.5c0.8-1.8,1.4-3.7,2.1-5.5c0.2-0.5,0.4-1,0.5-1.5c0.6-1.7,1.1-3.5,1.7-5.5c0.1-0.5,0.3-1,0.4-1.4
	c0.5-2,0.9-3.8,1.3-5.5c0.1-0.5,0.2-1,0.3-1.5c0.4-1.8,0.7-3.6,0.9-5.5c0.1-0.5,0.1-1,0.2-1.5c0.2-1.9,0.4-3.8,0.5-5.5
	c0-0.5,0.1-1,0.1-1.5c0.1-1.9,0.2-3.7,0.2-5.5c0-0.3,0-0.6,0-0.9c0-0.2,0-0.4,0-0.6c0-1.8-0.1-3.6-0.2-5.5c0-0.5-0.1-1-0.1-1.5
	c-0.1-1.9-0.3-3.7-0.5-5.5c-0.1-0.5-0.1-1-0.2-1.5c-0.2-1.8-0.5-3.7-0.9-5.5c-0.1-0.5-0.2-1-0.3-1.5c-0.4-1.9-0.8-3.7-1.3-5.5
	c-0.1-0.5-0.3-1-0.4-1.5c-0.5-1.8-1-3.7-1.6-5.5c-0.2-0.5-0.3-1-0.5-1.5c-0.6-1.9-1.3-3.7-2.1-5.5c-0.2-0.5-0.4-1-0.6-1.5
	c-0.9-2-1.7-3.8-2.5-5.5c-0.3-0.5-0.5-1-0.8-1.5c-1-1.9-2-3.7-3-5.5c-0.2-0.4-0.5-0.8-0.7-1.2l-0.2-0.3c-1.2-1.9-2.4-3.8-3.6-5.5
	c-0.4-0.5-0.7-1-1.1-1.5c-1.3-1.9-2.7-3.7-4.2-5.5c-0.4-0.5-0.8-1-1.3-1.5c-1.6-1.9-3.3-3.8-5-5.5c-0.5-0.5-1-1-1.5-1.5
	c-2-2-4-3.8-6-5.5c-0.6-0.5-1.2-1-1.8-1.5c-2.3-1.9-4.8-3.7-7.3-5.5c-0.8-0.5-1.5-1-2.3-1.5c-3-2-6.2-3.8-9.5-5.5
	c-1-0.5-2.1-1-3.1-1.5c-4.5-2.1-9.2-4-14-5.5c-1.8-0.6-3.6-1.1-5.4-1.5C217.3,90.1,208.2,89,199.1,89z"/>
<path class="st0" d="M393.8,167.9c-0.1-0.4-0.1-0.9-0.2-1.3c-1.6-9.9-3.9-19.5-6.9-28.8c-0.1-0.4-0.3-0.8-0.4-1.3
	c-3.1-9.5-6.9-18.6-11.3-27.4c-0.2-0.4-0.4-0.8-0.6-1.2c-4.5-8.8-9.7-17.3-15.5-25.2c-0.3-0.4-0.5-0.7-0.8-1.1
	c-5.8-8-12.3-15.5-19.2-22.5c-0.3-0.3-0.6-0.6-0.9-0.9c-7-7-14.5-13.4-22.5-19.2c-0.3-0.3-0.7-0.5-1.1-0.8h0
	c-8-5.8-16.4-11-25.2-15.5c-0.4-0.2-0.8-0.4-1.2-0.6c-8.8-4.4-17.9-8.2-27.4-11.3c-0.4-0.1-0.8-0.3-1.3-0.4
	c-9.3-3-18.9-5.3-28.8-6.9c-0.4-0.1-0.9-0.1-1.3-0.2C219.6,1.8,209.7,1,199.7,1h-1.3c-10,0-19.9,0.8-29.5,2.3
	c-0.4,0.1-0.9,0.1-1.3,0.2c-9.9,1.6-19.5,3.9-28.8,6.9c-0.4,0.1-0.8,0.3-1.3,0.4c-9.5,3.1-18.6,6.9-27.4,11.3
	c-0.4,0.2-0.8,0.4-1.2,0.6c-8.8,4.5-17.3,9.7-25.2,15.5c-0.4,0.3-0.7,0.5-1.1,0.8c-8,5.8-15.5,12.3-22.5,19.2
	c-0.3,0.3-0.6,0.6-0.9,0.9c-7,7-13.4,14.5-19.2,22.5c-0.3,0.4-0.5,0.7-0.8,1.1c-5.8,8-10.9,16.4-15.5,25.2c-0.2,0.4-0.4,0.8-0.6,1.2
	c-4.4,8.8-8.2,17.9-11.3,27.4c-0.1,0.4-0.3,0.8-0.4,1.3c-3,9.3-5.3,18.9-6.9,28.8c-0.1,0.4-0.1,0.9-0.2,1.3
	c-1.5,9.6-2.3,19.5-2.3,29.5v1.3c0,10,0.8,19.9,2.3,29.5c0.1,0.4,0.1,0.9,0.2,1.3c1.6,9.9,3.9,19.5,6.9,28.8
	c0.1,0.4,0.3,0.8,0.4,1.3c3.1,9.5,6.9,18.6,11.3,27.4c0.2,0.4,0.4,0.8,0.6,1.2c4.5,8.8,9.7,17.2,15.5,25.2c0.3,0.4,0.5,0.7,0.8,1.1
	c5.8,8,12.3,15.5,19.2,22.5c0.3,0.3,0.6,0.6,0.9,0.9c7,7,14.5,13.4,22.5,19.2c0.4,0.3,0.7,0.5,1.1,0.8c8,5.8,16.4,10.9,25.2,15.5
	c0.4,0.2,0.8,0.4,1.2,0.6c8.8,4.4,17.9,8.2,27.4,11.3c0.4,0.1,0.8,0.3,1.3,0.4c9.3,3,18.9,5.3,28.8,6.9c0.4,0.1,0.9,0.1,1.3,0.2
	c9.6,1.5,19.5,2.3,29.5,2.3h1.3c10,0,19.9-0.8,29.5-2.3c0.4-0.1,0.9-0.1,1.3-0.2c9.9-1.6,19.5-3.9,28.8-6.9c0.4-0.1,0.8-0.3,1.3-0.4
	c9.5-3.1,18.6-6.9,27.4-11.3c0.4-0.2,0.8-0.4,1.2-0.6c8.8-4.5,17.2-9.7,25.2-15.5c0.4-0.3,0.7-0.5,1.1-0.8
	c8-5.8,15.5-12.3,22.5-19.2c0.3-0.3,0.6-0.6,0.9-0.9c7-7,13.4-14.5,19.2-22.5c0.3-0.4,0.5-0.7,0.8-1.1c5.8-8,11-16.4,15.5-25.2
	c0.2-0.4,0.4-0.8,0.6-1.2c4.4-8.8,8.2-17.9,11.3-27.4c0.1-0.4,0.3-0.8,0.4-1.3c3-9.3,5.3-18.9,6.9-28.8c0.1-0.4,0.1-0.9,0.2-1.3
	c1.5-9.6,2.3-19.5,2.3-29.5v-1.3C396,187.3,395.3,177.5,393.8,167.9z M389.4,198.7c0,9.7-0.8,19.2-2.2,28.4
	c-0.1,0.4-0.1,0.9-0.2,1.3c-1.5,9.5-3.8,18.8-6.6,27.8c-0.1,0.4-0.3,0.9-0.4,1.3c-3,9.1-6.7,17.9-10.9,26.3
	c-0.2,0.4-0.4,0.8-0.6,1.2c-4.4,8.5-9.4,16.6-14.9,24.3c-0.3,0.4-0.5,0.7-0.8,1.1c-5.6,7.7-11.8,14.9-18.5,21.7l-1,1
	c-6.7,6.7-14,12.9-21.7,18.5c-0.4,0.3-0.7,0.5-1.1,0.8c-7.7,5.6-15.8,10.6-24.3,14.9c-0.4,0.2-0.8,0.4-1.2,0.6
	c-8.4,4.3-17.2,7.9-26.3,10.9c-0.4,0.1-0.9,0.3-1.3,0.4c-9,2.9-18.2,5.1-27.7,6.6c-0.4,0.1-0.9,0.1-1.3,0.2
	c-9.3,1.4-18.8,2.2-28.4,2.2h-1.4c-9.7,0-19.2-0.8-28.4-2.2c-0.4-0.1-0.9-0.1-1.3-0.2c-9.5-1.5-18.8-3.7-27.7-6.6
	c-0.4-0.1-0.9-0.3-1.3-0.4c-9.1-3-17.9-6.6-26.3-10.9c-0.4-0.2-0.8-0.4-1.2-0.6c-8.5-4.4-16.6-9.4-24.3-14.9
	c-0.4-0.3-0.7-0.5-1.1-0.8c-7.7-5.6-14.9-11.8-21.7-18.5c-0.3-0.3-0.6-0.6-1-1c-6.7-6.7-12.9-14-18.5-21.7c-0.3-0.4-0.5-0.7-0.8-1.1
	c-5.6-7.7-10.5-15.8-14.9-24.3c-0.2-0.4-0.4-0.8-0.6-1.2c-4.3-8.4-7.9-17.2-10.9-26.3c-0.2-0.4-0.3-0.9-0.4-1.3
	c-2.9-9-5.1-18.2-6.6-27.7c-0.1-0.4-0.1-0.9-0.2-1.3c-1.4-9.3-2.2-18.8-2.2-28.4v-1.4c0-9.7,0.8-19.2,2.2-28.4
	c0.1-0.4,0.1-0.9,0.2-1.3c1.5-9.5,3.7-18.8,6.6-27.7c0.1-0.4,0.3-0.9,0.4-1.3c3-9.1,6.6-17.9,10.9-26.3c0.2-0.4,0.4-0.8,0.6-1.2
	c4.4-8.5,9.4-16.6,14.9-24.3c0.3-0.4,0.5-0.7,0.8-1.1c5.6-7.7,11.8-14.9,18.5-21.7c0.3-0.3,0.6-0.6,1-1c6.7-6.7,14-12.9,21.7-18.5
	c0.4-0.3,0.7-0.5,1.1-0.8C95.4,38,103.5,33,112,28.7c0.4-0.2,0.8-0.4,1.2-0.6c8.4-4.3,17.2-7.9,26.3-10.9c0.4-0.1,0.9-0.3,1.3-0.4
	c9-2.9,18.3-5.1,27.8-6.6c0.4-0.1,0.9-0.2,1.3-0.2c9.3-1.4,18.8-2.2,28.4-2.2h1.4c9.7,0,19.2,0.8,28.4,2.2c0.4,0.1,0.9,0.1,1.3,0.2
	c9.5,1.5,18.8,3.8,27.7,6.6c0.4,0.1,0.9,0.3,1.3,0.4c9.1,3,17.9,6.7,26.3,10.9c0.4,0.2,0.8,0.4,1.2,0.6c8.5,4.4,16.6,9.4,24.3,14.9
	c0.4,0.3,0.7,0.5,1.1,0.8c7.7,5.6,14.9,11.8,21.7,18.5c0.3,0.3,0.7,0.6,1,1c6.7,6.7,12.9,14,18.5,21.7c0.3,0.4,0.5,0.7,0.8,1.1
	c5.6,7.7,10.6,15.8,14.9,24.3c0.2,0.4,0.4,0.8,0.6,1.2c4.3,8.4,7.9,17.2,10.9,26.3c0.1,0.4,0.3,0.9,0.4,1.3c2.9,9,5.1,18.2,6.6,27.7
	c0.1,0.4,0.2,0.9,0.2,1.3c1.4,9.3,2.2,18.8,2.2,28.4V198.7z"/>
<g>
	<path class="st0" d="M108.6,310l9.1,6.5l-2.4,3.4l-5.5-3.9l-1.3,1.8l5.3,3.8l-2.3,3.3l-5.3-3.8l-1.5,2.1l5.5,3.9l-2.3,3.3l-9.1-6.5
		L108.6,310z"/>
	<path class="st0" d="M117.6,334.6l3.6-2c0.6,1.1,1.8,2.3,3.5,3.2c1.5,0.8,2.1,0.6,2.4-0.1c0.5-1,0-1.3-2.1-3.2
		c-2.5-2.2-3.2-4.2-1.9-6.7c1.7-3.3,4.5-3.7,8-1.8c2.3,1.2,3.5,2.3,4.4,3.6l-3.5,2.5c-0.5-0.7-1.3-1.6-2.8-2.3
		c-1.3-0.7-1.9-0.8-2.3,0c-0.4,0.8,0.1,1.2,1.4,2.4c3.3,2.9,4.1,4.5,2.5,7.6c-1.4,2.8-4,3.7-8,1.6
		C120.4,337.9,118.7,336.5,117.6,334.6z"/>
	<path class="st0" d="M146.7,335.6l-4.1-1.5l1.3-3.9l12.6,4.4l-1.3,3.9l-4.1-1.5l-4.2,12l-4.3-1.5L146.7,335.6z"/>
	<path class="st0" d="M165.1,337l5.5,1c5.2,1,7.5,2.9,6.2,9.7c-1.3,7-4,7.8-9.2,6.8l-5.5-1L165.1,337z M168.6,350.8
		c1.6,0.3,2.9,0.3,3.7-3.9c0.8-4.2-0.3-4.5-2.2-4.8l-1.4-0.3l-1.6,8.7L168.6,350.8z"/>
	<path class="st0" d="M199.2,346.3l4.8-0.1l0.1,5l-4.8,0.1L199.2,346.3z"/>
	<path class="st0" d="M227.4,351.9l3.5-5.4c1.5-2.3,1.8-2.9,1.6-3.8c-0.2-1.1-0.7-1.5-2.3-1.2c-1,0.2-2.3,0.9-3,1.5l-2.6-3.2
		c1.2-0.9,2.7-1.9,5.5-2.5c3.8-0.8,5.7,0.5,6.4,3.5c0.6,2.7-0.1,4.1-2.3,7.4l-1.4,2.1l5.7-1.2l0.8,3.7l-11.3,2.4L227.4,351.9z"/>
	<path class="st0" d="M248,341.6c-1.7-4.7-2.4-8.3,3.3-10.5c5.7-2.1,7.5,1.1,9.2,5.7c1.8,4.9,2.4,8.3-3.2,10.4
		C251.7,349.4,249.8,346.4,248,341.6z M256.4,338.4c-1.1-3-1.8-4.1-3.6-3.4c-1.8,0.7-1.7,2-0.5,5c1.1,3,1.9,4.2,3.7,3.5
		C257.7,342.8,257.5,341.4,256.4,338.4z"/>
	<path class="st0" d="M269.7,327.4l-2,1.1l-1.9-3.5l5.7-3.1l7.9,14.8l-3.8,2L269.7,327.4z"/>
	<path class="st0" d="M285.9,324.1c-3.6-5-4.7-8,1.4-12.4l2-1.4l2.3,3.2l-2.2,1.6c-2.4,1.7-2.5,2.6-1.6,4c0.1-0.9,0.8-1.9,2.5-3.1
		c3.3-2.4,5.4-0.9,7.3,1.9c2.4,3.3,2.3,5.8-1.7,8.7C291,330,288.6,327.9,285.9,324.1z M294,320.4c-1-1.4-1.9-1.5-2.9-0.8
		c-1.2,0.8-1.6,1.8-0.6,3.2c0.9,1.3,1.7,1.6,3.2,0.5C294.9,322.5,294.9,321.7,294,320.4z"/>
</g>
<g>
	<path class="st0" d="M33.6,202.9l0.5-18.7l6.8,0.2l-0.3,11.2l4.3,0.1l0.3-10.7l6.7,0.2l-0.3,10.7l10.3,0.3l-0.2,7.5L33.6,202.9z"/>
	<path class="st0" d="M55.9,170.1l-0.5,2.5l8.5,1.7l-1.5,7.2L35,176l2.3-11.4c1.4-7.2,5.5-8.9,11.1-7.8c3.8,0.8,6.8,2.6,7.8,6
		l10.5-2.2l-1.5,7.7L55.9,170.1z M50.2,167.4c0.4-2-0.4-2.9-2.7-3.4c-2.4-0.5-3.4,0-3.8,2l-0.8,3.9l6.5,1.3L50.2,167.4z"/>
	<path class="st0" d="M54.3,152.9c-7-2.8-12.6-7.1-8.7-16.8s11-8.8,17.9-5.9c6.9,2.8,12.6,7.1,8.7,16.8
		C68.3,156.6,61.2,155.7,54.3,152.9z M60.9,137.3c-4.2-1.7-7.1-2.3-8.6,1.5c-1.6,3.8,0.9,5.4,5.1,7.1c4.3,1.7,7.1,2.3,8.7-1.5
		C67.6,140.6,65.2,139,60.9,137.3z"/>
	<path class="st0" d="M74.9,133.7l-2.8-6.3c1.9-0.8,4.1-2.6,5.8-5.3c1.6-2.5,1.3-3.4,0.2-4c-1.6-1-2.2-0.2-5.6,3.1
		c-4.1,3.9-7.4,4.7-11.4,2.2c-5.2-3.3-5.4-8-1.9-13.7c2.3-3.6,4.4-5.5,6.7-6.9l3.6,6.1c-1.2,0.8-2.8,2-4.3,4.3
		c-1.3,2.1-1.6,3.1-0.4,3.8c1.2,0.8,2,0,4.2-2.1c5.3-5,8-6.2,12.9-3.1c4.4,2.8,5.5,7.2,1.5,13.5C80.8,129.5,78.1,132.2,74.9,133.7z"
		/>
	<path class="st0" d="M78.6,95.5l-4.9,5.5l-5.1-4.6l14.9-16.6l5.1,4.6l-4.9,5.5l15.8,14.1l-5.1,5.6L78.6,95.5z"/>
	<path class="st0" d="M95.8,69l6.1-4.2l5.9,8.4l0.1-12.5l7-4.8l-0.5,13.8l16.6,9.1l-6.8,4.7l-10.2-5.7l-0.1,4.1l4.1,5.9l-6.1,4.2
		L95.8,69z"/>
	<path class="st0" d="M125.2,65.9c-3.1-6.9-4.3-13.9,5.2-18.2c9.5-4.3,14,1.1,17.1,8c3.1,6.8,4.3,13.8-5.2,18.1
		C132.9,78.2,128.3,72.7,125.2,65.9z M140.7,59.1c-1.9-4.2-3.6-6.5-7.3-4.8c-3.8,1.7-3.1,4.5-1.2,8.7c1.9,4.2,3.6,6.5,7.4,4.8
		C143.3,66.1,142.7,63.3,140.7,59.1z"/>
	<path class="st0" d="M150.3,39.9l9.4-2l7.5,13.7l1.2-15.6l9.4-2l5.9,27.4l-7.1,1.5l-3.3-15.3L172,63.9l-4.7,1l-8-14.3l3.3,15.3
		l-6.5,1.4L150.3,39.9z"/>
	<path class="st0" d="M188.4,32.9l9.6,0.2l4.1,15.1l4.8-14.9l9.6,0.2l-0.6,28l-7.3-0.1l0.3-15.7l-5,15.6l-4.8-0.1l-4.5-15.8
		l-0.3,15.7l-6.6-0.1L188.4,32.9z"/>
	<path class="st0" d="M222.2,52.3l4.1-17.3l7.3,1.7l-3.9,16.6c-0.8,3.3-0.3,4.7,2.8,5.4c3.1,0.7,4.2-0.1,5-3.6l3.9-16.6l7.1,1.7
		l-4.1,17.3c-1.6,6.8-5.3,9.7-13.6,7.7C222.6,63.4,220.6,59.1,222.2,52.3z"/>
	<path class="st0" d="M257.6,43.4l7.2,3.3l1.6,15l5.4-11.8l6.5,3l-11.7,25.5l-6.3-2.9l-1.8-16.9l-6.1,13.2l-6.5-3L257.6,43.4z"/>
	<path class="st0" d="M285.8,57.7l6.3,4.1l-15.3,23.5l-6.3-4.1L285.8,57.7z"/>
	<path class="st0" d="M299.6,66.8l5.6,4.9l-6.7,7.7l12.2-3L317,82l-13.5,2.9l-4.8,18.3l-6.2-5.4l3-11.3l-4,0.9l-4.7,5.4l-5.6-4.9
		L299.6,66.8z"/>
	<path class="st0" d="M326.8,93.1l5,6.4L315,123.9l-4.8-6.1l2-2.8l-5.3-6.7l-3.2,1.3l-4.6-5.9L326.8,93.1z M316.3,109.6l5.1-7.2
		l-8.2,3.2L316.3,109.6z"/>
	<path class="st0" d="M335.9,118.4l-3.6-6.4l6-3.3l10.8,19.5l-6,3.3l-3.6-6.4l-18.5,10.3l-3.7-6.6L335.9,118.4z"/>
	<path class="st0" d="M351.7,134.7l2.7,7l-26.1,10.2l-2.7-7L351.7,134.7z"/>
	<path class="st0" d="M343.7,152.2c7.3-1.7,14.4-1.4,16.8,8.7s-3.9,13.5-11.2,15.2c-7.3,1.7-14.4,1.4-16.7-8.7
		C330.1,157.3,336.4,153.9,343.7,152.2z M347.2,168.8c4.5-1,7.1-2.2,6.2-6.2c-0.9-4-3.8-3.9-8.3-2.9c-4.5,1-7.1,2.2-6.2,6.3
		C339.9,169.9,342.8,169.8,347.2,168.8z"/>
	<path class="st0" d="M363.9,181.5l0.3,7.9l-12.7,8.1l13-0.4l0.2,7.1l-28,0.9l-0.2-6.9l14.3-9.2l-14.6,0.5l-0.2-7.1L363.9,181.5z"/>
</g>
<g>
	<path class="st0" d="M263.4,218.2c-0.7-1.7-1.2-2.9-1.2-4.4v-19.9c0-3.3-2.7-6.1-6.1-6.1c-0.7,0-1.3,0.1-2,0.3v-7.4
		c0-3.3-2.7-6.1-6.1-6.1c-0.7,0-1.5,0.1-2.2,0.4c-0.4-3-3-5.2-6-5.2h-0.1c-3.3,0-6.1,2.7-6.1,6.1v1.3c-0.7-0.3-1.4-0.4-2.1-0.4
		c-3.3,0-6.1,2.7-6.1,6.1v0.2h4V183c0-1.2,1-2.1,2.1-2.1c1.2,0,2.1,1,2.1,2.1v30.6h4v-37.7c0-1.2,1-2.1,2.1-2.1h0.1
		c1.2,0,2.1,1,2.1,2.1v38h4v-33.2c0-1.2,1-2.1,2.1-2.1s2.1,1,2.1,2.1v11.9c-0.1,0.4-0.1,0.8-0.1,1.2v22.7h4.1v-23.5
		c0.3-0.8,1.1-1.4,2-1.4c1.2,0,2.1,1,2.1,2.1v19.9c0,2.3,0.7,4,1.5,5.9c1.2,3,2.7,6.7,2.7,14.9c0,7.3-2.1,11.4-3.9,15.1
		c-1.5,3.1-3,6.1-3,10.2v0.2h4v-0.2c0-3.2,1.1-5.5,2.6-8.4c1.9-3.9,4.3-8.7,4.3-16.9C266.4,225.7,264.7,221.4,263.4,218.2z"/>
	<path class="st0" d="M215.3,243.2c-0.5,0-0.9,0-1.2-0.1c-1.2-0.1-2.9-0.2-5-0.2c-1.7,0-3.5,0-4.7,0.1c0.1-0.4,0.3-0.6,0.5-0.9
		c0.5-0.5,1.2-0.8,2.2-0.8h0.1c1.8,0,3.6,0,5.4,0c2.8,0,4.7,0,5.1,0h0.2l-0.1-4h-0.2c0,0-2,0-5,0c-1.8,0-3.6,0-5.4,0h-0.1
		c-2.7,0-4.3,1.1-5.2,2c-2.1,2.3-1.9,5.5-1.9,5.8c0.1,1.1,1,1.9,2.1,1.8c0,0,3.6-0.2,7-0.2c1.9,0,3.5,0.1,4.5,0.2
		c0.4,0,0.9,0.1,1.5,0.1c4.6,0.2,12.4,0.6,13.2,12.8l0,0.2l4-0.3l0-0.2C231.3,244,220.1,243.5,215.3,243.2z"/>
	<path class="st0" d="M196.5,180.7l2.3,3.2l0.1-0.1c3.3-2.4,6.8-3.6,10.5-3.6c3.3,0,5.5,1,5.6,1l0.2,0.1l1.7-3.6l-0.2-0.1
		c-0.3-0.1-3.2-1.4-7.3-1.4c-4.6,0-8.9,1.5-12.9,4.4L196.5,180.7z"/>
	<path class="st0" d="M208.7,180.6c-1.8-0.2-3.4,1.1-3.6,2.8c-0.1,0.9,0.1,1.7,0.7,2.4c0.5,0.7,1.3,1.1,2.2,1.2c0.1,0,0.3,0,0.4,0
		c1.6,0,3-1.2,3.2-2.9C211.8,182.4,210.5,180.8,208.7,180.6z"/>
	<path class="st0" d="M167.8,173.2c-6.3,0-11.4,5.1-11.4,11.4v6.1c0,6.3,5.1,11.4,11.4,11.4v-4c-4.1,0-7.4-3.3-7.4-7.4v-6.1
		c0-4.1,3.3-7.4,7.4-7.4c4.1,0,7.4,3.3,7.4,7.4h4C179.2,178.3,174.1,173.2,167.8,173.2z"/>
	<path class="st0" d="M232.4,198.3c0-4.1-7.9-13.8-10.8-17.2c0.9-2.2,1.3-5.1,0-9.9c-1.7-6-4.5-11.5-6.9-15.8
		c-0.3-0.6-0.6-1.1-1-1.6c3-2.8,8.2-3.8,8.3-3.8c0.7-0.1,1.2-0.6,1.5-1.2c0.3-0.6,0.2-1.3-0.2-1.9c-0.1-0.2-2.6-4-7.3-6
		c2.8-3.5,6.9-5.8,8.7-6.3c0.7-0.2,1.3-0.9,1.4-1.6c0.1-0.8-0.2-1.5-0.9-1.9c-3.1-2.1-8.7-0.9-11.5,0c-4.9-7.5-12.1-7.2-12.4-7.2
		c-0.8,0-1.4,0.5-1.7,1.2c0,0,0,0,0,0c-0.3,0.7-0.3,1.5,0.2,2.1c0.2,0.3,0.4,0.6,0.6,0.9c-2.3-0.8-5.1-2.5-7.4-6.1
		c-0.5-0.7-1.4-1.1-2.2-0.8c-0.8,0.2-1.4,1-1.5,1.8c-0.1,2.1,0.1,4,0.3,5.5c-1.4-0.2-3.1-0.4-5.1-0.4c-1.9,0-3.9,0.2-5.9,0.6
		c-1.4-1.5-1.8-2.8-1.8-2.8c-0.1-0.4-0.3-0.7-0.6-0.9c-0.3-0.2-0.6-0.4-1-0.5c-0.8-0.1-1.5,0.2-2,0.8c-0.6,0.8-1.1,1.8-1.6,2.7
		c-1.4-0.7-2.9-1-4.5-1c-4.5,0-7.8,3-8,3.2c-0.6,0.5-0.8,1.4-0.5,2.2c0.3,0.8,1,1.2,1.8,1.2c0,0,0,0,0,0h0.1c1.1,0,2,0.1,2.8,0.2
		c-0.6,0.2-1.4,0.3-2.8,0.3c-0.3,0-0.6,0-0.9,0c-0.7,0-1.4-0.1-2.1-0.2c-0.9-0.1-1.8-0.2-2.8-0.2c-2.8,0-5.1,1-7.4,3.1
		c-0.7,0.6-0.8,1.6-0.4,2.4c0.4,0.8,1.3,1.2,2.2,1c0.3-0.1,0.5-0.1,0.7,0c-0.4,0.2-1,0.6-2,0.9c-6.6,2.2-11.1,9.8-11.7,14.6
		c-5.2,6-7.5,22.9,1.1,36.7c7.8,12.6,6.8,21.6,6.7,21.6c-0.1,0.7,0.2,1.4,0.7,1.8c0.5,0.4,1.3,0.5,1.9,0.3l0.4-0.2
		c-0.1,2.1-0.3,4.1-0.5,6.3c-0.3,0.1-0.5,0.4-0.7,0.7l-8.5,12.2c-0.6,0.9-0.4,2.1,0.5,2.8l53.4,37c0.3,0.2,0.7,0.4,1.1,0.4
		c0.6,0,1.2-0.3,1.6-0.8l8.5-12.2c0.6-0.9,0.4-2.1-0.5-2.8l-4.4-3.1c0.2-2.2,0.6-6.1,0.9-10.9c0.6-8,4.3-9.1,7.8-9.1h10.4
		c3.2,0,10.6,0,10.6-7.6c0-4-0.9-6.2-1.6-7.7c-0.4-0.9-0.6-1.4-0.6-1.9c0-0.7,0.2-0.9,0.7-1.3c0.5-0.5,1.2-1.2,1.2-2.5
		c0-0.9-0.5-1.9-1.1-2.8c1.8-2,1.8-2.6,1.8-3.1c0-0.7-0.3-1.2-0.8-2.1c-0.4-0.8-1-1.9-1.2-2.9c0.3-0.1,0.7-0.2,1-0.3
		C228.7,203.4,232.4,202.3,232.4,198.3z M225.6,200.2c-1.5,0.5-3.9,1.2-3.9,3.5c0,1.9,1.1,4,1.8,5.3c0,0,0,0.1,0.1,0.1
		c-0.4,0.5-1,1.2-1.7,1.8c-0.4,0.4-0.6,0.9-0.6,1.4c0,0.5,0.2,1,0.6,1.4c0.3,0.3,0.7,0.8,1,1.2c-0.7,0.7-1.7,1.8-1.7,4
		c0,1.4,0.5,2.5,0.9,3.5c0.6,1.4,1.3,3,1.3,6.2c0,2.8-1.5,3.7-6.6,3.7h-10.4c-7.1,0-11.1,4.3-11.7,12.8c-0.3,3.4-0.5,6.4-0.7,8.6
		l0,0l0,0v0l0,0l0,0v0l-34.2-22.9l-2.2,3.3l36.9,24.7l0,0l0,0l0,0l0,0l3.7,2.6l-6.2,9l-50.1-34.8l6.4-9.2c0.4,0,0.7,0,1.1-0.2
		c0.6-0.3,1.1-0.9,1.1-1.6c0.4-4.1,0.7-8,0.9-11.7c0-0.7-0.3-1.3-0.8-1.7c-0.5-0.4-1.2-0.5-1.9-0.3l-0.6,0.2
		c-0.2-4-1.5-11.7-7.4-21.1c-8-13-5.3-28.3-1.1-32.3c0.4-0.4,0.6-0.9,0.6-1.4c0.1-3,3.6-10,9-11.8c4.9-1.6,5.3-4.1,5.1-5.4
		c-0.1-0.6-0.4-1.2-0.8-1.7c0.5-0.1,1-0.1,1.4-0.1c0.7,0,1.5,0.1,2.3,0.2c0.7,0.1,1.5,0.2,2.3,0.2c0.4,0,0.7,0,1.1,0
		c6.8,0,7.5-3.2,7.5-4.6c0-1-0.5-1.9-1.4-2.5c0.1,0,0.2,0,0.4,0c1.5,0,3,0.6,4.4,1.7c0.7,0.5,1.6,0.6,2.3,0.2c0.7-0.4,1-1.2,0.9-1.9
		c0-0.1,0.1-0.2,0.1-0.4c0.5,0.6,1,1.2,1.7,1.8c0.5,0.4,1.1,0.6,1.8,0.4c2-0.5,4.1-0.7,6.1-0.7c4.2,0,7,1,7,1
		c0.7,0.3,1.5,0.1,2.1-0.4c0.6-0.5,0.8-1.3,0.5-2.1c0,0-0.2-0.7-0.4-1.8c4.3,3.6,8.7,3.9,10.3,3.9c0.4,0,0.6,0,0.7,0
		c0.7-0.1,1.3-0.5,1.6-1c0.3-0.6,0.3-1.3,0-1.9c0,0-0.1-0.3-0.4-0.7c1.7,0.9,3.6,2.5,5.2,5.4c0.5,0.9,1.5,1.2,2.4,0.9
		c1.1-0.4,2.6-0.8,4-1c-2.3,1.7-4.6,4-6.2,6.8c-0.3,0.5-0.3,1.2-0.1,1.8c0.3,0.6,0.8,1,1.4,1.1c2.4,0.6,4.3,1.9,5.6,3
		c-2.6,0.9-6.1,2.5-8.3,5.3c-0.1,0.1-0.2,0.2-0.2,0.4c-0.2,0.3-0.2,0.6-0.2,0.9c0,0.4,0.1,0.7,0.3,1c2.6,4.2,6.1,10.7,8.1,17.7
		c1.3,4.7,0.6,6.7-0.3,8.2c-0.4,0.8-0.3,1.8,0.4,2.4c2.7,2.6,10.6,13.1,10.6,15.4C228.4,199.2,227.9,199.6,225.6,200.2z"/>
</g>
</svg>
