<svg xmlns="http://www.w3.org/2000/svg" width="350" height="401" viewBox="0 0 350 401">
  <title>
    Slice 1
  </title>
  <g fill-rule="evenodd">
    <path d="M342.276 252.643c-1.78-4.448-3.073-7.643-3.073-11.525v-51.68c0-8.696-7.077-15.793-15.792-15.793-1.73 0-3.47.304-5.13.87v-19.168c0-8.695-7.07-15.792-15.79-15.792-1.94 0-3.84.344-5.64 1.052-1.05-7.825-7.66-13.65-15.63-13.65h-.18c-8.69 0-15.79 7.078-15.79 15.793v3.457c-1.76-.647-3.6-.99-5.48-.99-8.69 0-15.79 7.076-15.79 15.79v.466h10.29v-.465c0-3.033 2.47-5.48 5.48-5.48 3.04 0 5.48 2.467 5.48 5.48v79.604h10.29V142.75c0-3.033 2.47-5.48 5.48-5.48h.19c3.04 0 5.48 2.467 5.48 5.48v98.853h10.29v-86.236c0-3.033 2.47-5.48 5.48-5.48 3.04 0 5.48 2.467 5.48 5.48v30.814c-.22 1.1-.34 2.19-.34 3.26v59.06h10.63v-60.96c.79-2.14 2.85-3.6 5.14-3.6 3.04 0 5.48 2.47 5.48 5.48v51.68c0 5.87 1.78 10.27 3.82 15.37 3.14 7.79 7.04 17.49 7.04 38.76 0 18.89-5.4 29.77-10.17 39.35-4.04 8.13-7.84 15.79-7.84 26.39v.47h10.3v-.46c0-8.17 2.99-14.19 6.77-21.8 5.01-10.09 11.24-22.62 11.24-43.93.1-23.23-4.41-34.41-7.68-42.58zM217.218 317.65c-1.253-.062-2.345-.123-3.194-.203-3.094-.304-7.42-.465-12.88-.465-4.51 0-9.038.1-12.233.202.37-.91.83-1.68 1.4-2.285 1.26-1.34 3.16-1.99 5.79-1.99h.27c4.67.08 9.4.1 14.12.1 7.36 0 12.32-.08 13.27-.1h.47l-.23-10.29-.46.02c-.04 0-5.11.1-13.02.1-4.65 0-9.36-.04-13.97-.1h-.28c-7.03 0-11.18 2.85-13.42 5.23-5.52 5.86-5.05 14.17-4.97 15.1.23 2.79 2.57 4.89 5.38 4.75.1 0 9.28-.43 18.08-.43 5.05 0 8.99.14 11.72.4 1.11.1 2.33.16 3.76.24 12.07.6 32.25 1.59 34.33 33.38l.04.46 10.27-.67-.02-.46c-2.69-40.97-31.7-42.4-44.18-43.03zm-15.144-174.112c-11.85 0-23.09 3.842-33.403 11.424l-.38.284 6.11 8.29.39-.284c8.51-6.268 17.73-9.442 27.4-9.442 8.56 0 14.38 2.608 14.64 2.71l.43.18 4.35-9.34-.42-.202c-.82-.324-8.2-3.62-19.08-3.62z"/>
    <path d="M200.194 154.942c-4.67-.546-8.816 2.83-9.362 7.4-.263 2.245.364 4.45 1.76 6.208 1.394 1.76 3.396 2.89 5.64 3.154.324.04.667.06.99.06 4.267 0 7.866-3.194 8.372-7.46.546-4.63-2.77-8.816-7.4-9.362zM93.738 135.754c-16.338 0-29.642 13.284-29.642 29.642v15.852c0 16.337 13.284 29.642 29.642 29.642v-10.292c-10.656 0-19.33-8.674-19.33-19.33v-15.872c0-10.656 8.674-19.33 19.33-19.33 10.655 0 19.33 8.674 19.33 19.33h10.29c.022-16.338-13.283-29.642-29.62-29.642z"/>
    <path d="M233.333 130.497c-4.53-15.53-11.585-29.986-17.833-41.026-.81-1.45-1.68-2.87-2.508-4.2 7.927-7.3 21.453-9.93 21.595-9.97 1.698-.32 3.114-1.45 3.8-3.05.668-1.57.507-3.39-.423-4.85-.324-.48-6.855-10.25-18.926-15.55 7.4-9.2 18.036-15 22.504-16.41 1.88-.6 3.276-2.22 3.54-4.18.282-1.96-.587-3.9-2.245-5.01-8.048-5.38-22.565-2.26-30.026-.12-12.69-19.63-31.34-18.8-32.17-18.74-2 .12-3.68 1.38-4.42 3.1 0 .02-.02.02-.02.04-.91 1.76-.71 3.89.49 5.46.59.79 1.16 1.52 1.66 2.25-5.86-2.04-13.14-6.43-19.2-15.85-1.23-1.89-3.53-2.78-5.7-2.19-2.16.59-3.7 2.53-3.78 4.77-.22 5.56.24 10.52.87 14.42-3.51-.62-7.96-1.15-13.16-1.15-5.07 0-10.21.49-15.32 1.48-3.54-3.8-4.63-7.26-4.63-7.26-.54-1.92-2.14-3.37-4.12-3.7-1.98-.32-3.96.53-5.09 2.17-1.43 2.1-2.95 4.55-4.14 7.02-3.7-1.8-7.58-2.73-11.62-2.73-11.71 0-20.32 7.85-20.68 8.19-1.56 1.46-2.08 3.72-1.27 5.68.79 1.96 2.69 3.24 4.79 3.24h.29c2.73 0 5.3.27 7.16.65-1.45.45-3.76.83-7.19.83-.77 0-1.53-.02-2.34-.06-1.8-.08-3.62-.3-5.36-.52-2.343-.28-4.75-.57-7.28-.57-7.175 0-13.14 2.46-19.35 8-1.74 1.55-2.22 4.1-1.15 6.18 1.076 2.09 3.42 3.2 5.706 2.67.665-.14 1.39-.16 1.94-.1-.91.63-2.49 1.48-5.137 2.35-17.17 5.64-28.86 25.437-30.31 38.03-13.63 15.61-19.39 59.588 2.73 95.256 20.34 32.814 17.57 56.03 17.53 56.23-.26 1.8.462 3.62 1.88 4.75 1.412 1.13 3.333 1.435 5.052.79l1.15-.45c-.363 5.316-.81 10.775-1.333 16.356-.77.385-1.46.95-1.94 1.68l-22.1 31.85c-1.62 2.35-1.035 5.54 1.29 7.16l138.66 96.18c.89.63 1.92.91 2.93.91 1.64 0 3.233-.77 4.224-2.222l22.06-31.782c1.62-2.35 1.03-5.54-1.29-7.16l-11.482-7.96c.524-5.7 1.43-15.974 2.32-28.23 1.52-20.804 11.16-23.614 20.38-23.614h26.956c8.21 0 27.44 0 27.44-19.815 0-10.36-2.45-16-4.23-20.1-1.01-2.35-1.557-3.64-1.557-5.02 0-1.74.54-2.266 1.76-3.46 1.21-1.193 3.23-3.174 3.23-6.39 0-2.425-1.32-4.973-2.87-7.137 4.63-5.097 4.63-6.694 4.63-8.01 0-1.72-.75-3.15-1.96-5.52-1.04-1.98-2.63-5.07-3.2-7.5.764-.28 1.78-.58 2.543-.804 5.092-1.536 14.58-4.367 14.58-14.88 0-10.536-20.42-35.85-28.19-44.626 2.345-5.72 3.44-13.24-.1-25.74zm17.975 70.404c0 2.33-1.354 3.26-7.238 5.04-4.024 1.22-10.09 3.02-10.09 9.18 0 5 2.73 10.27 4.55 13.75.06.1.1.2.162.32-1.052 1.26-2.69 3.02-4.287 4.59-.97.97-1.516 2.29-1.516 3.64 0 1.38.54 2.69 1.51 3.64.85.85 1.92 2.14 2.61 3.14-1.74 1.74-4.43 4.82-4.43 10.4 0 3.58 1.21 6.39 2.4 9.12 1.57 3.66 3.37 7.79 3.37 16.02 0 7.38-3.84 9.52-17.15 9.52h-27.13c-18.58.08-28.84 11.25-30.43 33.16-.65 8.84-1.3 16.62-1.8 22.39L72.93 285.3l-5.72 8.552 96.007 64.218.142.08-.15-.08c.02.02.04.02.06.04l9.73 6.75-16.18 23.335-130.21-90.32 16.52-23.82c.93.122 1.9-.02 2.79-.424 1.66-.76 2.79-2.32 2.98-4.14 1.09-10.55 1.92-20.8 2.4-30.47.08-1.74-.71-3.4-2.11-4.43-1.42-1.03-3.24-1.27-4.88-.64l-1.5.57c-.55-10.51-3.9-30.27-19.15-54.87-20.89-33.66-13.75-73.47-2.91-83.91.97-.95 1.54-2.22 1.58-3.58.18-7.92 9.44-25.98 23.37-30.57 12.73-4.19 13.7-10.54 13.15-13.95-.26-1.6-.95-3.05-2-4.29 1.29-.28 2.48-.36 3.62-.36 1.9 0 3.9.25 6.04.51 1.94.24 3.94.48 6.1.58.97.04 1.92.06 2.83.06 17.59 0 19.49-8.39 19.49-11.99 0-2.71-1.19-4.91-3.5-6.55.32-.02.62-.02.95-.02 3.96 0 7.78 1.5 11.36 4.47 1.7 1.4 4.08 1.58 5.94.43 1.74-1.05 2.69-3.03 2.45-5.03.04-.26.14-.59.3-.99 1.216 1.56 2.69 3.17 4.51 4.79 1.235 1.11 2.934 1.54 4.55 1.17 5.26-1.19 10.576-1.8 15.81-1.8 11.02 0 18.06 2.71 18.12 2.71 1.86.75 3.984.35 5.44-1.03 1.456-1.37 1.98-3.46 1.375-5.36-.02-.04-.586-1.8-1.15-4.75 11.16 9.24 22.704 10.15 26.77 10.15.95 0 1.535-.04 1.696-.06 1.74-.16 3.28-1.17 4.09-2.71.81-1.53.79-3.37-.04-4.89-.04-.06-.41-.71-1.12-1.86 4.423 2.36 9.42 6.55 13.42 13.99 1.19 2.23 3.84 3.26 6.22 2.43 2.89-1.01 6.63-2.02 10.37-2.69-5.886 4.41-11.91 10.32-16.056 17.57-.81 1.42-.89 3.12-.24 4.61.65 1.5 1.96 2.59 3.54 2.95 6.27 1.48 11.2 4.88 14.54 7.91-6.7 2.31-15.88 6.55-21.6 13.73-.246.3-.428.63-.59.95-.87 1.62-.81 3.56.16 5.14 6.733 10.94 15.873 27.8 21.19 46.04 3.44 12.11 1.456 17.43-.687 21.45-1.096 2.04-.67 4.57 1.01 6.147 7.074 6.67 27.42 33.95 27.5 39.89z"/>
  </g>
</svg>
