<?xml version="1.0" encoding="utf-8"?>
<!-- Generator: Adobe Illustrator 21.0.0, SVG Export Plug-In . SVG Version: 6.00 Build 0)  -->
<svg version="1.1" id="Layer_1" xmlns="http://www.w3.org/2000/svg" xmlns:xlink="http://www.w3.org/1999/xlink" x="0px" y="0px"
	 viewBox="0 0 358.7 358.7" style="enable-background:new 0 0 358.7 358.7;" xml:space="preserve">
<style type="text/css">
	.st0{fill:#BCD632;}
</style>
<path class="st0" d="M179.3,300c-9.8,0-19.6-1.2-29.1-3.5c-2.1-0.5-4.1-1.1-6.1-1.7c-5.3-1.6-10.6-3.6-15.7-6.1
	c-1.2-0.5-2.3-1.1-3.5-1.7c-3.6-1.8-7.2-3.8-10.6-6.1c-0.9-0.5-1.7-1.1-2.6-1.7c-2.8-1.9-5.5-3.9-8.2-6.1c-0.7-0.5-1.4-1.1-2.1-1.7
	c-2.2-1.9-4.5-3.9-6.6-6c-0.6-0.5-1.1-1.1-1.7-1.7c-1.9-1.9-3.8-3.9-5.5-6c-0.5-0.5-1-1.1-1.4-1.7c-1.6-1.9-3.2-4-4.7-6
	c-0.4-0.5-0.8-1.1-1.2-1.7c-1.4-1.9-2.7-4-4-6c-0.3-0.6-0.7-1.1-1-1.7c-1.2-1.9-2.3-4-3.3-6c-0.3-0.6-0.6-1.1-0.9-1.7
	c-1-1.9-1.9-3.9-2.8-6c-0.2-0.6-0.5-1.1-0.7-1.7c-0.8-2-1.6-4-2.3-6c-0.2-0.5-0.4-1.1-0.6-1.7c-0.6-1.9-1.3-4-1.8-6
	c-0.2-0.5-0.3-1.1-0.5-1.7c-0.5-2.1-1-4.1-1.4-6.1c-0.1-0.6-0.2-1.2-0.3-1.7c-0.4-1.9-0.7-3.9-1-6c-0.1-0.5-0.2-1.1-0.2-1.6
	c-0.2-2-0.4-4-0.6-6.1c0-0.6-0.1-1.1-0.1-1.7c-0.1-2.1-0.2-4.1-0.2-6.1c0-0.3,0-0.6,0-0.9c0-0.3,0-0.5,0-0.8c0-1.9,0.1-3.8,0.2-6
	c0-0.6,0.1-1.1,0.1-1.7c0.1-2,0.3-4.1,0.6-6c0.1-0.5,0.1-1.1,0.2-1.7c0.3-2,0.6-4.1,1-6.1c0.1-0.5,0.2-1.1,0.3-1.7
	c0.4-1.9,0.8-3.9,1.4-6.1c0.2-0.6,0.3-1.2,0.5-1.7c0.5-1.9,1.1-4,1.8-6l0.6-1.7c0.7-2.1,1.5-4.1,2.3-6.1c0.2-0.5,0.5-1.1,0.7-1.7
	c1-2.2,1.9-4.2,2.8-6.1c0.2-0.4,0.4-0.7,0.6-1.1l0.3-0.5c1.1-2.2,2.2-4.2,3.4-6.1c0.3-0.5,0.6-1.1,1-1.7c1.2-2,2.6-4.1,4-6
	c0.4-0.6,0.8-1.1,1.2-1.7c1.5-2.1,3.1-4.1,4.6-6c0.5-0.6,0.9-1.1,1.4-1.7c1.8-2.1,3.6-4.1,5.5-6c0.5-0.6,1.1-1.1,1.7-1.7
	c2.2-2.2,4.4-4.2,6.6-6.1c0.6-0.6,1.3-1.1,2-1.7c2.5-2.1,5.2-4.1,8.1-6c0.8-0.6,1.7-1.1,2.5-1.7c3.3-2.2,6.9-4.2,10.5-6.1
	c1.2-0.6,2.3-1.2,3.4-1.7c5-2.4,10.2-4.4,15.5-6c2-0.6,4-1.2,6-1.7c19.5-5,40.3-5,59.8,0c2,0.5,4,1.1,6,1.7
	c5.3,1.6,10.5,3.7,15.5,6.1c1.1,0.5,2.3,1.1,3.4,1.7c3.6,1.9,7.2,3.9,10.5,6.1c0.9,0.6,1.7,1.1,2.5,1.7c2.8,1.9,5.6,4,8.1,6.1
	c0.7,0.5,1.4,1.1,2,1.7c2.2,1.8,4.4,3.9,6.6,6c0.6,0.5,1.1,1.1,1.7,1.7c1.9,1.9,3.7,3.9,5.5,6c0.5,0.5,1,1.1,1.4,1.7
	c1.6,2,3.2,4,4.7,6c0.4,0.5,0.8,1.1,1.2,1.7c1.3,1.9,2.6,3.9,3.9,6l0.2,0.4c0.3,0.4,0.5,0.9,0.8,1.3c1.1,1.9,2.2,3.9,3.3,6
	c0.3,0.6,0.6,1.1,0.9,1.7c0.9,1.8,1.8,3.8,2.8,6c0.2,0.6,0.5,1.1,0.7,1.7c0.8,2,1.6,4,2.3,6.1c0.2,0.6,0.4,1.1,0.6,1.7
	c0.7,2,1.3,4,1.8,6c0.2,0.5,0.3,1.1,0.4,1.7c0.5,1.9,1,4,1.4,6.1c0.1,0.5,0.2,1.1,0.3,1.7c0.4,2,0.7,4,1,6c0.1,0.6,0.2,1.1,0.2,1.7
	c0.2,1.9,0.4,4,0.6,6c0,0.5,0.1,1.1,0.1,1.7c0.1,2.2,0.2,4.2,0.2,6.1c0,0.2,0,0.5,0,0.7c0,0.3,0,0.7,0,1c0,1.9-0.1,4-0.2,6
	c0,0.6-0.1,1.1-0.1,1.7c-0.1,1.9-0.3,3.9-0.6,6c-0.1,0.6-0.1,1.2-0.2,1.7c-0.3,2-0.6,4.1-1,6c-0.1,0.5-0.2,1.1-0.3,1.7
	c-0.4,2-0.9,4-1.4,6.1c-0.1,0.6-0.3,1.1-0.5,1.7c-0.6,2.2-1.2,4.2-1.8,6.1c-0.2,0.6-0.4,1.1-0.6,1.7c-0.7,2-1.5,4-2.3,6
	c-0.2,0.6-0.5,1.1-0.7,1.7c-0.9,2.1-1.8,4.1-2.8,6.1c-0.2,0.5-0.5,1.1-0.8,1.7c-1,2-2.2,4.1-3.3,6l-1,1.7c-1.4,2.3-2.7,4.3-4,6.1
	c-0.4,0.6-0.8,1.1-1.2,1.7c-1.5,2-3,4.1-4.7,6c-0.5,0.6-1,1.1-1.4,1.7c-1.8,2.1-3.6,4.1-5.6,6.1c-0.6,0.6-1.1,1.2-1.7,1.7
	c-2.2,2.1-4.4,4.2-6.6,6c-0.7,0.6-1.4,1.1-2.1,1.7c-2.6,2.1-5.3,4.1-8.2,6.1c-0.8,0.6-1.7,1.1-2.6,1.7c-3.4,2.2-7,4.3-10.6,6.1
	c-1.1,0.6-2.3,1.2-3.5,1.7c-5.1,2.4-10.4,4.4-15.7,6.1c-2,0.6-4.1,1.2-6.1,1.7C198.9,298.8,189.2,300,179.3,300z M179.3,61.7
	c-9.8,0-19.6,1.2-29.1,3.7c-1.9,0.5-3.9,1-5.8,1.6l0,0c-5.2,1.6-10.2,3.6-15.1,5.9c-1.1,0.5-2.2,1-3.3,1.6c-3.5,1.8-7,3.8-10.2,5.9
	c-0.8,0.5-1.7,1.1-2.5,1.6c-2.8,1.9-5.4,3.9-7.9,5.9c-0.7,0.5-1.3,1.1-2,1.6c-2.2,1.8-4.3,3.8-6.5,5.9c-0.6,0.5-1.1,1.1-1.6,1.6
	c-1.8,1.9-3.7,3.9-5.4,5.9c-0.5,0.5-0.9,1.1-1.4,1.6c-1.5,1.9-3.1,3.9-4.6,5.9c-0.4,0.6-0.8,1.1-1.1,1.6c-1.4,2-2.7,4-3.9,5.9
	c-0.3,0.5-0.7,1.1-1,1.6c-1.1,1.9-2.2,3.9-3.3,5.9l-0.3,0.5c-0.2,0.4-0.4,0.7-0.5,1.1c-0.9,1.8-1.8,3.8-2.7,5.9
	c-0.2,0.5-0.5,1.1-0.7,1.6c-0.8,1.9-1.5,3.9-2.2,5.9l-0.6,1.7c-0.7,2-1.3,4-1.8,5.9c-0.2,0.6-0.3,1.1-0.5,1.7
	c-0.5,2.1-1,4.1-1.3,5.9c-0.1,0.5-0.2,1.1-0.3,1.6c-0.4,2-0.7,3.9-1,5.9c-0.1,0.6-0.2,1.1-0.2,1.6c-0.2,2-0.4,3.9-0.6,5.9
	c0,0.6-0.1,1.1-0.1,1.7c-0.1,2.1-0.2,4-0.2,5.9c0,0.3,0,0.5,0,0.7c0,0.3,0,0.6,0,0.9c0,2,0.1,3.9,0.2,6c0,0.5,0.1,1.1,0.1,1.6
	c0.1,2.1,0.3,4,0.6,5.9c0.1,0.6,0.1,1.1,0.2,1.6c0.3,2.1,0.6,4,1,5.9c0.1,0.6,0.2,1.1,0.3,1.7c0.4,1.9,0.8,3.8,1.4,5.9
	c0.1,0.5,0.3,1.1,0.4,1.6c0.6,2.1,1.2,4,1.8,5.9c0.2,0.6,0.4,1.1,0.6,1.6c0.7,2,1.4,4,2.2,5.9c0.2,0.6,0.4,1.1,0.7,1.6
	c0.9,2.1,1.8,4.1,2.7,5.9c0.3,0.6,0.5,1.1,0.8,1.6c1,2,2.1,4,3.3,5.9c0.3,0.6,0.7,1.1,1,1.6c1.2,2,2.5,4,3.9,5.9
	c0.4,0.6,0.8,1.1,1.2,1.6c1.5,2.1,3,4,4.6,5.9c0.5,0.6,0.9,1.1,1.4,1.6c1.8,2.1,3.6,4,5.4,5.9c0.5,0.6,1.1,1.1,1.6,1.6
	c2.1,2.1,4.3,4.1,6.5,5.9c0.7,0.6,1.3,1.1,2,1.6c2.6,2.1,5.3,4.1,8,5.9c0.8,0.6,1.7,1.1,2.5,1.6c3.3,2.2,6.8,4.1,10.3,5.9
	c1.1,0.6,2.3,1.1,3.4,1.6c5,2.3,10.2,4.3,15.4,5.9c1.9,0.6,3.9,1.2,5.9,1.6c18.4,4.6,38.2,4.6,56.7,0c2-0.5,4-1,5.9-1.6
	c5.2-1.6,10.4-3.6,15.4-5.9c1.1-0.5,2.3-1.1,3.4-1.6c3.5-1.8,6.9-3.7,10.3-5.9c0.8-0.5,1.7-1.1,2.5-1.6c2.8-1.9,5.5-3.9,8-5.9
	c0.7-0.5,1.3-1.1,2-1.6c2.2-1.8,4.4-3.8,6.5-5.9c0.6-0.5,1.1-1.1,1.6-1.6c1.9-1.9,3.7-3.9,5.5-6c0.5-0.5,0.9-1.1,1.4-1.6
	c1.6-1.9,3.1-3.9,4.5-5.9c0.4-0.5,0.8-1.1,1.2-1.6c1.3-1.8,2.5-3.7,3.9-5.9l1-1.7c1.1-1.9,2.2-3.9,3.3-5.9c0.3-0.5,0.6-1.1,0.8-1.6
	c1-1.9,1.9-3.9,2.8-5.9c0.2-0.6,0.5-1.1,0.7-1.6c0.8-2,1.6-3.9,2.2-5.9c0.2-0.5,0.4-1.1,0.6-1.6c0.6-1.9,1.2-3.8,1.8-5.9
	c0.2-0.6,0.3-1.1,0.4-1.6c0.5-2,1-4,1.4-5.9c0.1-0.5,0.2-1.1,0.3-1.6c0.4-1.9,0.7-3.9,1-5.9c0.1-0.6,0.1-1.1,0.2-1.6
	c0.3-2.2,0.5-4.1,0.6-6c0-0.6,0.1-1.1,0.1-1.7c0.1-2,0.2-4,0.2-5.9c0-0.3,0-0.6,0-0.9c0-0.2,0-0.4,0-0.7c0-1.9-0.1-3.9-0.2-6
	c0-0.5-0.1-1.1-0.1-1.6c-0.1-2-0.3-4-0.6-5.9c-0.1-0.6-0.1-1.1-0.2-1.6c-0.3-2-0.6-4-1-5.9c-0.1-0.6-0.2-1.1-0.3-1.6
	c-0.4-2-0.9-4-1.4-5.9c-0.1-0.5-0.3-1.1-0.4-1.6c-0.5-2-1.1-4-1.8-5.9c-0.2-0.6-0.4-1.1-0.6-1.6c-0.7-2-1.5-4-2.2-5.9
	c-0.2-0.6-0.5-1.1-0.7-1.7c-0.9-2.2-1.8-4.1-2.7-5.9c-0.3-0.6-0.5-1.1-0.8-1.6c-1.1-2.1-2.2-4-3.3-5.9c-0.3-0.5-0.5-0.9-0.8-1.3
	l-0.2-0.4c-1.3-2.1-2.6-4.1-3.9-5.9c-0.4-0.6-0.8-1.1-1.2-1.6c-1.4-2-3-4-4.6-5.9c-0.5-0.6-0.9-1.1-1.4-1.6c-1.8-2.1-3.6-4-5.4-5.9
	c-0.5-0.6-1.1-1.1-1.6-1.6c-2.2-2.1-4.3-4.1-6.5-5.9c-0.7-0.6-1.3-1.1-2-1.6c-2.5-2-5.2-4-7.9-5.9c-0.8-0.6-1.6-1.1-2.5-1.6
	c-3.2-2.1-6.7-4.1-10.2-5.9c-1.1-0.6-2.2-1.1-3.3-1.6c-4.9-2.3-10-4.3-15.1-5.9c-1.9-0.6-3.9-1.2-5.8-1.6
	C199,62.9,189.2,61.7,179.3,61.7z"/>
<path class="st0" d="M356.6,151.9c-0.1-0.4-0.1-0.8-0.2-1.2c-1.4-9-3.5-17.7-6.3-26.2c-0.1-0.4-0.2-0.8-0.4-1.1
	c-2.8-8.6-6.3-16.9-10.3-24.9c-0.2-0.4-0.4-0.7-0.5-1.1c-4.1-8-8.9-15.7-14.1-23c-0.2-0.3-0.5-0.6-0.7-1
	c-5.3-7.3-11.2-14.1-17.5-20.5c-0.3-0.3-0.6-0.6-0.8-0.8c-6.4-6.3-13.2-12.2-20.5-17.5c-0.3-0.2-0.6-0.5-1-0.7h0
	c-7.3-5.3-14.9-10-23-14.1c-0.4-0.2-0.7-0.4-1.1-0.5c-8-4-16.3-7.5-24.9-10.3c-0.4-0.1-0.8-0.3-1.1-0.4C225.7,5.8,217,3.7,208,2.3
	c-0.4-0.1-0.8-0.1-1.2-0.2C198,0.7,189.1,0,179.9,0h-1.2c-9.1,0-18.1,0.7-26.9,2.1c-0.4,0.1-0.8,0.1-1.2,0.2
	c-9,1.4-17.7,3.5-26.2,6.3c-0.4,0.1-0.8,0.2-1.1,0.4c-8.6,2.8-16.9,6.3-24.9,10.3c-0.4,0.2-0.7,0.4-1.1,0.5c-8,4.1-15.7,8.9-23,14.1
	c-0.3,0.2-0.6,0.5-1,0.7c-7.3,5.3-14.1,11.2-20.5,17.5c-0.3,0.3-0.6,0.6-0.8,0.8c-6.3,6.4-12.2,13.2-17.5,20.5
	c-0.2,0.3-0.5,0.6-0.7,1c-5.2,7.3-10,14.9-14.1,23c-0.2,0.4-0.4,0.7-0.5,1.1c-4,8-7.5,16.3-10.3,24.9c-0.1,0.4-0.3,0.8-0.4,1.1
	c-2.7,8.5-4.8,17.2-6.3,26.2c-0.1,0.4-0.1,0.8-0.2,1.2C0.7,160.6,0,169.6,0,178.7v1.2c0,9.1,0.7,18.1,2.1,26.9
	c0.1,0.4,0.1,0.8,0.2,1.2c1.4,9,3.5,17.7,6.3,26.2c0.1,0.4,0.2,0.8,0.4,1.1c2.8,8.6,6.3,16.9,10.3,24.9c0.2,0.4,0.4,0.7,0.5,1.1
	c4.1,8,8.9,15.7,14.1,23c0.2,0.3,0.5,0.6,0.7,1c5.3,7.3,11.2,14.1,17.5,20.5c0.3,0.3,0.6,0.6,0.8,0.8c6.4,6.3,13.2,12.2,20.5,17.5
	c0.3,0.2,0.6,0.5,1,0.7c7.3,5.2,14.9,10,23,14.1c0.3,0.2,0.7,0.4,1.1,0.5c8,4,16.3,7.5,24.9,10.3c0.4,0.1,0.8,0.3,1.1,0.4
	c8.5,2.7,17.2,4.8,26.2,6.3c0.4,0.1,0.8,0.1,1.2,0.2c8.8,1.3,17.7,2.1,26.9,2.1h1.2c9.1,0,18.1-0.7,26.9-2.1
	c0.4-0.1,0.8-0.1,1.2-0.2c9-1.4,17.7-3.5,26.2-6.3c0.4-0.1,0.8-0.2,1.1-0.4c8.6-2.8,16.9-6.3,24.9-10.3c0.4-0.2,0.7-0.4,1.1-0.5
	c8-4.1,15.7-8.9,23-14.1c0.3-0.2,0.6-0.5,1-0.7c7.3-5.3,14.1-11.2,20.5-17.5c0.3-0.3,0.6-0.6,0.8-0.8c6.3-6.4,12.2-13.2,17.5-20.5
	c0.2-0.3,0.5-0.6,0.7-1c5.3-7.3,10-14.9,14.1-23c0.2-0.3,0.4-0.7,0.5-1.1c4-8,7.5-16.3,10.3-24.9c0.1-0.4,0.3-0.8,0.4-1.1
	c2.7-8.5,4.8-17.2,6.3-26.2c0.1-0.4,0.1-0.8,0.2-1.2c1.3-8.8,2.1-17.7,2.1-26.9v-1.2C358.6,169.6,357.9,160.6,356.6,151.9z
	 M352.6,180c0,8.8-0.7,17.4-2,25.9c-0.1,0.4-0.1,0.8-0.2,1.2c-1.4,8.6-3.4,17.1-6,25.3c-0.1,0.4-0.3,0.8-0.4,1.2
	c-2.7,8.3-6.1,16.3-9.9,24c-0.2,0.4-0.4,0.7-0.6,1.1c-4,7.7-8.5,15.1-13.6,22.1c-0.2,0.3-0.5,0.7-0.7,1c-5.1,7-10.8,13.6-16.9,19.7
	l-0.9,0.9c-6.1,6.1-12.7,11.7-19.7,16.9c-0.3,0.3-0.7,0.5-1,0.7c-7,5.1-14.4,9.6-22.1,13.6c-0.4,0.2-0.7,0.4-1.1,0.6
	c-7.7,3.9-15.7,7.2-24,9.9c-0.4,0.1-0.8,0.3-1.2,0.4c-8.2,2.6-16.6,4.7-25.2,6c-0.4,0.1-0.8,0.1-1.2,0.2c-8.4,1.3-17.1,2-25.9,2
	h-1.2c-8.8,0-17.4-0.7-25.9-2c-0.4-0.1-0.8-0.1-1.2-0.2c-8.6-1.4-17.1-3.4-25.3-6c-0.4-0.1-0.8-0.2-1.2-0.4c-8.3-2.7-16.3-6-24-9.9
	c-0.4-0.2-0.7-0.4-1.1-0.6c-7.7-4-15.1-8.5-22.1-13.6c-0.3-0.2-0.7-0.5-1-0.7c-7-5.1-13.6-10.8-19.7-16.9c-0.3-0.3-0.6-0.6-0.9-0.9
	c-6.1-6.1-11.7-12.7-16.9-19.7c-0.3-0.3-0.5-0.7-0.7-1c-5.1-7-9.6-14.4-13.6-22.1c-0.2-0.4-0.4-0.7-0.6-1.1
	c-3.9-7.7-7.2-15.7-9.9-24c-0.1-0.4-0.3-0.8-0.4-1.2c-2.6-8.2-4.7-16.6-6-25.3c-0.1-0.4-0.1-0.8-0.2-1.2c-1.3-8.5-2-17.1-2-25.9
	v-1.2c0-8.8,0.7-17.4,2-25.9c0.1-0.4,0.1-0.8,0.2-1.2c1.4-8.6,3.4-17.1,6-25.2c0.1-0.4,0.2-0.8,0.4-1.2c2.7-8.3,6-16.3,9.9-24
	c0.2-0.4,0.4-0.7,0.6-1.1c4-7.7,8.5-15.1,13.6-22.1c0.2-0.3,0.5-0.7,0.7-1c5.1-7,10.8-13.6,16.9-19.7c0.3-0.3,0.6-0.6,0.9-0.9
	C63.4,50.3,70,44.6,77,39.5c0.3-0.3,0.7-0.5,1-0.7c7-5.1,14.4-9.6,22.1-13.6c0.4-0.2,0.7-0.4,1.1-0.6c7.7-3.9,15.7-7.2,24-9.9
	c0.4-0.1,0.8-0.3,1.2-0.4c8.2-2.6,16.6-4.6,25.3-6c0.4-0.1,0.8-0.1,1.2-0.2c8.4-1.3,17.1-2,25.9-2h1.2c8.8,0,17.4,0.7,25.9,2
	c0.4,0.1,0.8,0.1,1.2,0.2c8.6,1.4,17.1,3.4,25.3,6c0.4,0.1,0.8,0.3,1.2,0.4c8.3,2.7,16.3,6.1,24,9.9c0.4,0.2,0.7,0.4,1.1,0.6
	c7.7,4,15.1,8.5,22.1,13.6c0.3,0.2,0.7,0.5,1,0.7c7,5.1,13.6,10.8,19.7,16.9c0.3,0.3,0.6,0.6,0.9,0.9C308.4,63.4,314,70,319.2,77
	c0.2,0.3,0.5,0.7,0.7,1c5.1,7,9.6,14.4,13.6,22.1c0.2,0.4,0.4,0.7,0.6,1.1c3.9,7.7,7.2,15.7,9.9,24c0.1,0.4,0.3,0.8,0.4,1.2
	c2.6,8.2,4.6,16.6,6,25.3c0.1,0.4,0.1,0.8,0.2,1.2c1.3,8.4,2,17.1,2,25.9V180z"/>
<g>
	<path class="st0" d="M98.6,294.2l8.8,5.7l-2.1,3.2l-5.3-3.5l-1.1,1.7l5.1,3.3l-2.1,3.2l-5.1-3.3l-1.3,2l5.3,3.5l-2.1,3.2l-8.8-5.7
		L98.6,294.2z"/>
	<path class="st0" d="M107,316.4l3.3-2c0.6,1,1.8,2.1,3.4,2.9c1.5,0.7,2,0.5,2.3-0.2c0.5-1,0-1.2-2.1-2.9c-2.5-2-3.1-3.8-2-6.2
		c1.5-3.1,4.1-3.6,7.5-2c2.2,1,3.4,2.1,4.3,3.3l-3.2,2.4c-0.5-0.6-1.3-1.4-2.7-2.1c-1.3-0.6-1.8-0.7-2.2,0.1
		c-0.4,0.8,0.1,1.1,1.4,2.2c3.2,2.6,4,4.1,2.6,7c-1.3,2.6-3.6,3.6-7.5,1.7C109.7,319.4,108,318.1,107,316.4z"/>
	<path class="st0" d="M133.3,316l-3.9-1.3l1.2-3.7l12,3.8l-1.2,3.7l-3.9-1.3l-3.6,11.4l-4.1-1.3L133.3,316z"/>
	<path class="st0" d="M149.5,316.6l5.2,0.9c5,0.9,7.1,2.6,6,9.1c-1.1,6.6-3.7,7.4-8.6,6.6l-5.2-0.9L149.5,316.6z M153.1,329.6
		c1.6,0.3,2.7,0.2,3.4-3.7c0.7-3.9-0.4-4.2-2.2-4.5l-1.3-0.2l-1.4,8.2L153.1,329.6z"/>
	<path class="st0" d="M179.5,324.9l4.6-0.1l0.1,4.7l-4.5,0.1L179.5,324.9z"/>
	<path class="st0" d="M203.5,330.5l3.4-5c1.5-2.2,1.8-2.7,1.6-3.6c-0.2-1-0.7-1.4-2.1-1.1c-1,0.2-2.2,0.8-2.9,1.3l-2.4-3
		c1.1-0.9,2.6-1.8,5.3-2.3c3.6-0.7,5.4,0.5,6,3.4c0.5,2.6-0.2,3.8-2.3,6.9l-1.3,1.9l5.4-1.1l0.7,3.5l-10.7,2.1L203.5,330.5z"/>
	<path class="st0" d="M222,321.5c-1.5-4.4-2.1-7.9,3.3-9.7c5.4-1.9,7.1,1.2,8.6,5.6c1.6,4.7,2.1,7.8-3.3,9.7
		C225.3,329,223.6,326.1,222,321.5z M229.9,318.8c-1-2.8-1.6-3.9-3.3-3.3c-1.8,0.6-1.6,1.8-0.6,4.6c1,2.9,1.7,4,3.4,3.4
		C231.1,323,230.9,321.6,229.9,318.8z"/>
	<path class="st0" d="M241.7,309.3l-1.9,0.9l-1.6-3.3l5.5-2.7l7,14.2l-3.6,1.8L241.7,309.3z"/>
	<path class="st0" d="M256,307.4c-3.2-4.9-4.1-7.7,1.8-11.6l1.9-1.3l2,3.1l-2.1,1.4c-2.3,1.5-2.4,2.3-1.7,3.7
		c0.1-0.8,0.8-1.7,2.5-2.8c3.2-2.1,5.1-0.6,6.8,2.1c2.1,3.2,1.9,5.5-1.9,8.1C260.5,313.1,258.4,311.1,256,307.4z M263.8,304.2
		c-0.9-1.4-1.7-1.5-2.7-0.8c-1.1,0.8-1.6,1.6-0.7,3c0.8,1.3,1.5,1.6,3,0.6C264.6,306.2,264.6,305.4,263.8,304.2z"/>
</g>
<g>
	<path class="st0" d="M18.2,202.2l-1.6-19.9l7.3-0.6l1,11.9l4.6-0.4l-0.9-11.4l7.1-0.6l0.9,11.4l11-0.9l0.7,8L18.2,202.2z"/>
	<path class="st0" d="M38.2,165.4l-0.3,2.7l9.3,0.9l-0.8,7.9l-29.9-3l1.2-12.4c0.8-7.8,4.9-10.1,11-9.5c4.2,0.4,7.5,2,8.9,5.6
		l11-3.5l-0.8,8.3L38.2,165.4z M31.8,163.2c0.2-2.2-0.7-3-3.2-3.3c-2.6-0.3-3.7,0.4-3.9,2.6l-0.4,4.3l7.1,0.7L31.8,163.2z"/>
	<path class="st0" d="M34.6,148c-7.7-2.4-14.1-6.5-10.8-17.2c3.3-10.7,10.9-10.4,18.6-8c7.7,2.4,14.1,6.5,10.8,17.1
		C49.9,150.7,42.3,150.4,34.6,148z M40.3,130.7c-4.7-1.5-7.8-1.8-9.1,2.4c-1.3,4.2,1.4,5.7,6.1,7.2c4.7,1.5,7.8,1.8,9.1-2.4
		C47.7,133.7,45,132.2,40.3,130.7z"/>
	<path class="st0" d="M54.5,126.4l-3.5-6.5c1.9-1,4.2-3.1,5.8-6.1c1.5-2.8,1.1-3.7-0.1-4.3c-1.8-1-2.4-0.1-5.8,3.7
		c-4.1,4.5-7.5,5.6-12,3.2c-5.8-3.1-6.4-8.2-3-14.5c2.2-4.1,4.2-6.2,6.6-7.9l4.3,6.3c-1.2,0.9-2.8,2.3-4.2,5
		c-1.2,2.3-1.5,3.4-0.1,4.1c1.4,0.7,2.1-0.1,4.3-2.5c5.2-5.8,8.1-7.3,13.5-4.3c4.9,2.6,6.4,7.2,2.6,14.3
		C60.5,121.4,57.9,124.6,54.5,126.4z"/>
	<path class="st0" d="M55.3,86l-4.9,6.2l-5.7-4.6l14.8-18.7l5.7,4.6l-4.9,6.2l17.8,14.1l-5,6.3L55.3,86z"/>
	<path class="st0" d="M71.2,57.4l6.3-4.8l6.7,8.7l-0.6-13.4l7.2-5.5l0.1,14.8l18.2,8.9l-7,5.4L91,66l0.2,4.4l4.7,6.1l-6.3,4.8
		L71.2,57.4z"/>
	<path class="st0" d="M101.9,53.1c-3.6-7.2-5.1-14.7,4.9-19.7c10-5,15,0.7,18.6,7.9c3.6,7.2,5.1,14.6-4.9,19.6
		C110.5,65.9,105.5,60.2,101.9,53.1z M118.3,45.2c-2.2-4.4-4.1-6.8-8-4.9c-4,2-3.1,5-1,9.4c2.2,4.4,4.1,6.9,8.1,4.9
		C121.3,52.6,120.5,49.6,118.3,45.2z"/>
	<path class="st0" d="M127.4,24.5l10-2.4l8.3,14.6l1-16.8l10-2.4l6.9,29.2l-7.6,1.8l-3.8-16.3l-1.1,17.5l-5,1.2l-8.8-15.2l3.8,16.3
		l-6.9,1.6L127.4,24.5z"/>
	<path class="st0" d="M167.7,16.5l10.3,0.2l4.4,16.2l5.2-16l10.3,0.2l-0.6,30l-7.8-0.2l0.3-16.8l-5.4,16.7l-5.1-0.1l-4.8-16.9
		l-0.3,16.8l-7.1-0.1L167.7,16.5z"/>
	<path class="st0" d="M203.2,37.3l4.7-18.5l7.8,2l-4.5,17.8c-0.9,3.5-0.5,5,2.9,5.9c3.3,0.8,4.5-0.1,5.4-3.8l4.5-17.8l7.6,1.9
		l-4.7,18.5c-1.9,7.3-5.8,10.3-14.7,8C203.5,49.1,201.4,44.5,203.2,37.3z"/>
	<path class="st0" d="M240.8,28.3l7.6,3.8l1.2,16.1l6.2-12.5l6.9,3.4L249.2,66l-6.6-3.3l-1.4-18.1l-7,14l-6.8-3.4L240.8,28.3z"/>
	<path class="st0" d="M270,44.3l6.5,4.6l-17.4,24.5l-6.5-4.6L270,44.3z"/>
	<path class="st0" d="M283.9,54.3l5.7,5.5l-7.6,7.9l13.2-2.5l6.5,6.3l-14.6,2.3l-6.2,19.3l-6.4-6.2l3.9-11.9l-4.3,0.8l-5.3,5.5
		l-5.7-5.5L283.9,54.3z"/>
	<path class="st0" d="M311.1,83.6l4.9,7.1l-19.6,24.9l-4.7-6.8l2.4-2.9l-5.2-7.5l-3.5,1.2l-4.6-6.6L311.1,83.6z M298.7,100.5
		l5.9-7.4l-9,2.8L298.7,100.5z"/>
	<path class="st0" d="M318.8,110.8l-3.3-7.1l6.7-3.1l10,21.7l-6.7,3.1l-3.3-7.1l-20.6,9.5l-3.4-7.4L318.8,110.8z"/>
	<path class="st0" d="M334,128.9l2.3,7.7l-28.8,8.6l-2.3-7.7L334,128.9z"/>
	<path class="st0" d="M323.7,146.2c8-1.1,15.5-0.1,17,11c1.5,11.1-5.5,14-13.5,15.1c-8,1.1-15.5,0.1-17-10.9
		C308.8,150.2,315.8,147.3,323.7,146.2z M325.9,164.2c4.9-0.7,7.8-1.7,7.2-6c-0.6-4.4-3.7-4.6-8.5-3.9c-4.9,0.7-7.8,1.7-7.2,6.1
		C317.9,164.7,321,164.9,325.9,164.2z"/>
	<path class="st0" d="M342.4,179l-0.6,8.4l-14.5,7.2l13.9,1l-0.6,7.6l-30-2.2l0.5-7.4l16.2-8.2l-15.6-1.1l0.5-7.6L342.4,179z"/>
</g>
<g>
	<path class="st0" d="M243.7,199.5c-0.7-1.7-1.2-2.9-1.2-4.4v-19.9c0-3.3-2.7-6.1-6.1-6.1c-0.7,0-1.3,0.1-2,0.3v-7.4
		c0-3.3-2.7-6.1-6.1-6.1c-0.7,0-1.5,0.1-2.2,0.4c-0.4-3-3-5.2-6-5.2h-0.1c-3.3,0-6.1,2.7-6.1,6.1v1.3c-0.7-0.3-1.4-0.4-2.1-0.4
		c-3.3,0-6.1,2.7-6.1,6.1v0.2h4v-0.2c0-1.2,1-2.1,2.1-2.1s2.1,1,2.1,2.1v30.6h4v-37.7c0-1.2,1-2.1,2.1-2.1h0.1c1.2,0,2.1,1,2.1,2.1
		v38h4v-33.2c0-1.2,1-2.1,2.1-2.1c1.2,0,2.1,1,2.1,2.1v11.9c-0.1,0.4-0.1,0.8-0.1,1.2v22.7h4.1v-23.5c0.3-0.8,1.1-1.4,2-1.4
		c1.2,0,2.1,1,2.1,2.1v19.9c0,2.3,0.7,4,1.5,5.9c1.2,3,2.7,6.7,2.7,14.9c0,7.3-2.1,11.4-3.9,15.1c-1.5,3.1-3,6.1-3,10.2v0.2h4v-0.2
		c0-3.2,1.1-5.5,2.6-8.4c1.9-3.9,4.3-8.7,4.3-16.9C246.7,206.9,244.9,202.7,243.7,199.5z"/>
	<path class="st0" d="M195.6,224.5c-0.5,0-0.9,0-1.2-0.1c-1.2-0.1-2.9-0.2-5-0.2c-1.7,0-3.5,0-4.7,0.1c0.1-0.4,0.3-0.6,0.5-0.9
		c0.5-0.5,1.2-0.8,2.2-0.8h0.1c1.8,0,3.6,0,5.4,0c2.8,0,4.7,0,5.1,0h0.2l-0.1-4H198c0,0-2,0-5,0c-1.8,0-3.6,0-5.4,0h-0.1
		c-2.7,0-4.3,1.1-5.2,2c-2.1,2.3-1.9,5.5-1.9,5.8c0.1,1.1,1,1.9,2.1,1.8c0,0,3.6-0.2,7-0.2c1.9,0,3.5,0.1,4.5,0.2
		c0.4,0,0.9,0.1,1.5,0.1c4.6,0.2,12.4,0.6,13.2,12.8l0,0.2l4-0.3l0-0.2C211.5,225.3,200.4,224.8,195.6,224.5z"/>
	<path class="st0" d="M176.7,162l2.3,3.2l0.1-0.1c3.3-2.4,6.8-3.6,10.5-3.6c3.3,0,5.5,1,5.6,1l0.2,0.1l1.7-3.6l-0.2-0.1
		c-0.3-0.1-3.2-1.4-7.3-1.4c-4.6,0-8.9,1.5-12.9,4.4L176.7,162z"/>
	<path class="st0" d="M189,161.9c-1.8-0.2-3.4,1.1-3.6,2.8c-0.1,0.9,0.1,1.7,0.7,2.4c0.5,0.7,1.3,1.1,2.2,1.2c0.1,0,0.3,0,0.4,0
		c1.6,0,3-1.2,3.2-2.9C192.1,163.7,190.8,162.1,189,161.9z"/>
	<path class="st0" d="M148.1,154.5c-6.3,0-11.4,5.1-11.4,11.4v6.1c0,6.3,5.1,11.4,11.4,11.4v-4c-4.1,0-7.4-3.3-7.4-7.4v-6.1
		c0-4.1,3.3-7.4,7.4-7.4c4.1,0,7.4,3.3,7.4,7.4h4C159.5,159.6,154.3,154.5,148.1,154.5z"/>
	<path class="st0" d="M212.7,179.6c0-4.1-7.9-13.8-10.8-17.2c0.9-2.2,1.3-5.1,0-9.9c-1.7-6-4.5-11.5-6.9-15.8
		c-0.3-0.6-0.6-1.1-1-1.6c3-2.8,8.2-3.8,8.3-3.8c0.7-0.1,1.2-0.6,1.5-1.2c0.3-0.6,0.2-1.3-0.2-1.9c-0.1-0.2-2.6-4-7.3-6
		c2.8-3.5,6.9-5.8,8.7-6.3c0.7-0.2,1.3-0.9,1.4-1.6c0.1-0.8-0.2-1.5-0.9-1.9c-3.1-2.1-8.7-0.9-11.5,0c-4.9-7.5-12.1-7.2-12.4-7.2
		c-0.8,0-1.4,0.5-1.7,1.2c0,0,0,0,0,0c-0.3,0.7-0.3,1.5,0.2,2.1c0.2,0.3,0.4,0.6,0.6,0.9c-2.3-0.8-5.1-2.5-7.4-6.1
		c-0.5-0.7-1.4-1.1-2.2-0.8c-0.8,0.2-1.4,1-1.5,1.8c-0.1,2.1,0.1,4,0.3,5.5c-1.4-0.2-3.1-0.4-5.1-0.4c-1.9,0-3.9,0.2-5.9,0.6
		c-1.4-1.5-1.8-2.8-1.8-2.8c-0.1-0.4-0.3-0.7-0.6-0.9c-0.3-0.2-0.6-0.4-1-0.5c-0.8-0.1-1.5,0.2-2,0.8c-0.6,0.8-1.1,1.8-1.6,2.7
		c-1.4-0.7-2.9-1-4.5-1c-4.5,0-7.8,3-8,3.2c-0.6,0.5-0.8,1.4-0.5,2.2c0.3,0.8,1,1.2,1.8,1.2c0,0,0,0,0,0h0.1c1.1,0,2,0.1,2.8,0.2
		c-0.6,0.2-1.4,0.3-2.8,0.3c-0.3,0-0.6,0-0.9,0c-0.7,0-1.4-0.1-2.1-0.2c-0.9-0.1-1.8-0.2-2.8-0.2c-2.8,0-5.1,1-7.4,3.1
		c-0.7,0.6-0.8,1.6-0.4,2.4c0.4,0.8,1.3,1.2,2.2,1c0.3-0.1,0.5-0.1,0.7,0c-0.4,0.2-1,0.6-2,0.9c-6.6,2.2-11.1,9.8-11.7,14.6
		c-5.2,6-7.5,22.9,1.1,36.7c7.8,12.6,6.8,21.6,6.7,21.6c-0.1,0.7,0.2,1.4,0.7,1.8c0.5,0.4,1.3,0.5,1.9,0.3l0.4-0.2
		c-0.1,2.1-0.3,4.1-0.5,6.3c-0.3,0.1-0.5,0.4-0.7,0.7l-8.5,12.2c-0.6,0.9-0.4,2.1,0.5,2.8l53.4,37c0.3,0.2,0.7,0.4,1.1,0.4
		c0.6,0,1.2-0.3,1.6-0.8l8.5-12.2c0.6-0.9,0.4-2.1-0.5-2.8l-4.4-3.1c0.2-2.2,0.6-6.1,0.9-10.9c0.6-8,4.3-9.1,7.8-9.1h10.4
		c3.2,0,10.6,0,10.6-7.6c0-4-0.9-6.2-1.6-7.7c-0.4-0.9-0.6-1.4-0.6-1.9c0-0.7,0.2-0.9,0.7-1.3c0.5-0.5,1.2-1.2,1.2-2.5
		c0-0.9-0.5-1.9-1.1-2.8c1.8-2,1.8-2.6,1.8-3.1c0-0.7-0.3-1.2-0.8-2.1c-0.4-0.8-1-1.9-1.2-2.9c0.3-0.1,0.7-0.2,1-0.3
		C209,184.7,212.7,183.6,212.7,179.6z M205.9,181.5c-1.5,0.5-3.9,1.2-3.9,3.5c0,1.9,1.1,4,1.8,5.3c0,0,0,0.1,0.1,0.1
		c-0.4,0.5-1,1.2-1.7,1.8c-0.4,0.4-0.6,0.9-0.6,1.4c0,0.5,0.2,1,0.6,1.4c0.3,0.3,0.7,0.8,1,1.2c-0.7,0.7-1.7,1.8-1.7,4
		c0,1.4,0.5,2.5,0.9,3.5c0.6,1.4,1.3,3,1.3,6.2c0,2.8-1.5,3.7-6.6,3.7h-10.4c-7.1,0-11.1,4.3-11.7,12.8c-0.3,3.4-0.5,6.4-0.7,8.6
		l0,0l0,0v0l0,0l0,0v0L140,212.1l-2.2,3.3l36.9,24.7l0,0l0,0l0,0l0,0l3.7,2.6l-6.2,9l-50.1-34.8l6.4-9.2c0.4,0,0.7,0,1.1-0.2
		c0.6-0.3,1.1-0.9,1.1-1.6c0.4-4.1,0.7-8,0.9-11.7c0-0.7-0.3-1.3-0.8-1.7c-0.5-0.4-1.2-0.5-1.9-0.3l-0.6,0.2
		c-0.2-4-1.5-11.7-7.4-21.1c-8-13-5.3-28.3-1.1-32.3c0.4-0.4,0.6-0.9,0.6-1.4c0.1-3,3.6-10,9-11.8c4.9-1.6,5.3-4.1,5.1-5.4
		c-0.1-0.6-0.4-1.2-0.8-1.7c0.5-0.1,1-0.1,1.4-0.1c0.7,0,1.5,0.1,2.3,0.2c0.7,0.1,1.5,0.2,2.3,0.2c0.4,0,0.7,0,1.1,0
		c6.8,0,7.5-3.2,7.5-4.6c0-1-0.5-1.9-1.4-2.5c0.1,0,0.2,0,0.4,0c1.5,0,3,0.6,4.4,1.7c0.7,0.5,1.6,0.6,2.3,0.2c0.7-0.4,1-1.2,0.9-1.9
		c0-0.1,0.1-0.2,0.1-0.4c0.5,0.6,1,1.2,1.7,1.8c0.5,0.4,1.1,0.6,1.8,0.4c2-0.5,4.1-0.7,6.1-0.7c4.2,0,7,1,7,1
		c0.7,0.3,1.5,0.1,2.1-0.4c0.6-0.5,0.8-1.3,0.5-2.1c0,0-0.2-0.7-0.4-1.8c4.3,3.6,8.7,3.9,10.3,3.9c0.4,0,0.6,0,0.7,0
		c0.7-0.1,1.3-0.5,1.6-1c0.3-0.6,0.3-1.3,0-1.9c0,0-0.1-0.3-0.4-0.7c1.7,0.9,3.6,2.5,5.2,5.4c0.5,0.9,1.5,1.2,2.4,0.9
		c1.1-0.4,2.6-0.8,4-1c-2.3,1.7-4.6,4-6.2,6.8c-0.3,0.5-0.3,1.2-0.1,1.8c0.3,0.6,0.8,1,1.4,1.1c2.4,0.6,4.3,1.9,5.6,3
		c-2.6,0.9-6.1,2.5-8.3,5.3c-0.1,0.1-0.2,0.2-0.2,0.4c-0.2,0.3-0.2,0.6-0.2,0.9c0,0.4,0.1,0.7,0.3,1c2.6,4.2,6.1,10.7,8.1,17.7
		c1.3,4.7,0.6,6.7-0.3,8.2c-0.4,0.8-0.3,1.8,0.4,2.4c2.7,2.6,10.6,13.1,10.6,15.4C208.7,180.5,208.2,180.8,205.9,181.5z"/>
</g>
<g>
	<g>
		<path class="st0" d="M51.8,235.6c-0.8,2.3-2.6,3.9-4.8,4.3c-1.6-1.8-2.2-4.5-1.3-6.8c0.8-2.3,2.8-3.8,5-4
			C52.1,230.9,52.6,233.3,51.8,235.6z"/>
		<path class="st0" d="M39.7,241.4c2.4,1,4.8,0.5,6.4-1c-0.5-2.4-2.1-4.5-4.4-5.5c-2.3-1-4.7-0.8-6.5,0.7
			C35.7,238.1,37.3,240.4,39.7,241.4z"/>
		<path class="st0" d="M56.2,244c-0.6,2.4-2.3,4.1-4.5,4.7c-1.7-1.7-2.5-4.3-1.8-6.7c0.6-2.4,2.5-4,4.7-4.4
			C56.1,239.2,56.8,241.6,56.2,244z"/>
		<path class="st0" d="M44.5,250.6c2.4,0.9,4.8,0.1,6.3-1.5c-0.7-2.3-2.4-4.3-4.8-5.2c-2.4-0.9-4.8-0.4-6.4,1.2
			C40.3,247.6,42.1,249.8,44.5,250.6z"/>
		<path class="st0" d="M61.2,252c-0.4,2.4-2,4.3-4.1,5c-1.8-1.6-2.8-4.1-2.3-6.6c0.5-2.4,2.2-4.1,4.4-4.7
			C60.7,247.3,61.6,249.6,61.2,252z"/>
		<path class="st0" d="M50,259.5c2.5,0.7,4.8-0.2,6.2-1.9c-0.9-2.3-2.8-4.2-5.2-4.9c-2.4-0.7-4.8-0.1-6.3,1.6
			C45.5,256.8,47.5,258.9,50,259.5z"/>
		<path class="st0" d="M66.8,259.7c-0.2,2.4-1.7,4.4-3.7,5.3c-1.9-1.5-3.1-4-2.8-6.4c0.3-2.5,1.9-4.3,4-5
			C66,255,67,257.3,66.8,259.7z"/>
		<path class="st0" d="M56.2,268c2.5,0.5,4.8-0.5,6-2.4c-1-2.2-3.1-4-5.5-4.5c-2.5-0.5-4.8,0.3-6.2,2.1
			C51.5,265.6,53.7,267.5,56.2,268z"/>
		<path class="st0" d="M72.9,267.1c0,2.4-1.3,4.5-3.3,5.5c-2.1-1.3-3.4-3.7-3.3-6.2c0.1-2.5,1.6-4.4,3.6-5.3
			C71.8,262.4,73,264.6,72.9,267.1z"/>
		<path class="st0" d="M63,276.1c2.6,0.3,4.7-0.9,5.9-2.8c-1.2-2.2-3.4-3.8-5.9-4.1c-2.5-0.4-4.8,0.6-6,2.5
			C58.1,274,60.4,275.8,63,276.1z"/>
		<path class="st0" d="M79.7,273.9c0.1,2.5-1,4.6-2.9,5.8c-2.2-1.2-3.7-3.5-3.8-6c-0.1-2.5,1.3-4.6,3.2-5.6
			C78.2,269.4,79.5,271.5,79.7,273.9z"/>
		<path class="st0" d="M70.4,283.7c2.6,0.1,4.7-1.2,5.6-3.2c-1.4-2.1-3.7-3.5-6.2-3.7c-2.5-0.2-4.7,0.9-5.8,2.9
			C65.4,281.9,67.8,283.5,70.4,283.7z"/>
	</g>
	<g>
		<path class="st0" d="M309,235.6c0.8,2.3,2.6,3.9,4.8,4.3c1.6-1.8,2.2-4.5,1.3-6.8c-0.8-2.3-2.8-3.8-5-4
			C308.7,230.9,308.2,233.3,309,235.6z"/>
		<path class="st0" d="M321.1,241.4c-2.4,1-4.8,0.5-6.4-1c0.5-2.4,2.1-4.5,4.4-5.5c2.3-1,4.7-0.8,6.5,0.7
			C325.1,238.1,323.5,240.4,321.1,241.4z"/>
		<path class="st0" d="M304.6,244c0.6,2.4,2.3,4.1,4.5,4.7c1.7-1.7,2.5-4.3,1.8-6.7c-0.6-2.4-2.5-4-4.7-4.4
			C304.7,239.2,304,241.6,304.6,244z"/>
		<path class="st0" d="M316.3,250.6c-2.4,0.9-4.8,0.1-6.3-1.5c0.7-2.3,2.4-4.3,4.8-5.2c2.4-0.9,4.8-0.4,6.4,1.2
			C320.5,247.6,318.7,249.8,316.3,250.6z"/>
		<path class="st0" d="M299.6,252c0.4,2.4,2,4.3,4.1,5c1.8-1.6,2.8-4.1,2.3-6.6c-0.5-2.4-2.2-4.1-4.4-4.7
			C300.1,247.3,299.2,249.6,299.6,252z"/>
		<path class="st0" d="M310.8,259.5c-2.5,0.7-4.8-0.2-6.2-1.9c0.9-2.3,2.8-4.2,5.2-4.9c2.4-0.7,4.8-0.1,6.3,1.6
			C315.2,256.8,313.3,258.9,310.8,259.5z"/>
		<path class="st0" d="M294,259.7c0.2,2.4,1.7,4.4,3.7,5.3c1.9-1.5,3.1-4,2.8-6.4c-0.3-2.5-1.9-4.3-4-5
			C294.8,255,293.8,257.3,294,259.7z"/>
		<path class="st0" d="M304.6,268c-2.5,0.5-4.8-0.5-6-2.4c1-2.2,3.1-4,5.5-4.5c2.5-0.5,4.8,0.3,6.2,2.1
			C309.3,265.6,307.1,267.5,304.6,268z"/>
		<path class="st0" d="M287.9,267.1c0,2.4,1.3,4.5,3.3,5.5c2.1-1.3,3.4-3.7,3.3-6.2c-0.1-2.5-1.6-4.4-3.6-5.3
			C289,262.4,287.8,264.6,287.9,267.1z"/>
		<path class="st0" d="M297.8,276.1c-2.6,0.3-4.7-0.9-5.9-2.8c1.2-2.2,3.4-3.8,5.9-4.1c2.5-0.4,4.8,0.6,6,2.5
			C302.7,274,300.4,275.8,297.8,276.1z"/>
		<path class="st0" d="M281.1,273.9c-0.1,2.5,1,4.6,2.9,5.8c2.2-1.2,3.7-3.5,3.8-6c0.1-2.5-1.3-4.6-3.2-5.6
			C282.6,269.4,281.3,271.5,281.1,273.9z"/>
		<path class="st0" d="M290.4,283.7c-2.6,0.1-4.7-1.2-5.6-3.2c1.4-2.1,3.7-3.5,6.2-3.7c2.5-0.2,4.7,0.9,5.8,2.9
			C295.4,281.9,293,283.5,290.4,283.7z"/>
	</g>
</g>
</svg>
