<?xml version="1.0" encoding="UTF-8" standalone="no"?>
<svg width="350px" height="401px" viewBox="0 0 350 401" version="1.1" xmlns="http://www.w3.org/2000/svg" xmlns:xlink="http://www.w3.org/1999/xlink">
    <!-- Generator: Sketch 41.1 (35376) - http://www.bohemiancoding.com/sketch -->
    <title>logo_hvid</title>
    <desc>Created with Sketch.</desc>
    <defs></defs>
    <g id="Page-1" stroke="none" stroke-width="1" fill="none" fill-rule="evenodd">
        <g id="logo_hvid" fill="#FFFFFF">
            <g id="Group">
                <path d="M342.276,252.643 C340.496,248.195 339.203,245 339.203,241.118 L339.203,189.438 C339.203,180.742 332.126,173.645 323.411,173.645 C321.681,173.645 319.941,173.949 318.281,174.515 L318.281,155.347 C318.281,146.652 311.211,139.555 302.491,139.555 C300.551,139.555 298.651,139.899 296.851,140.607 C295.801,132.782 289.191,126.957 281.221,126.957 L281.041,126.957 C272.351,126.957 265.251,134.035 265.251,142.75 L265.251,146.207 C263.491,145.56 261.651,145.217 259.771,145.217 C251.081,145.217 243.981,152.293 243.981,161.007 L243.981,161.473 L254.271,161.473 L254.271,161.008 C254.271,157.975 256.741,155.528 259.751,155.528 C262.791,155.528 265.231,157.995 265.231,161.008 L265.231,240.612 L275.521,240.612 L275.521,142.75 C275.521,139.717 277.991,137.27 281.001,137.27 L281.191,137.27 C284.231,137.27 286.671,139.737 286.671,142.75 L286.671,241.603 L296.961,241.603 L296.961,155.367 C296.961,152.334 299.431,149.887 302.441,149.887 C305.481,149.887 307.921,152.354 307.921,155.367 L307.921,186.181 C307.701,187.281 307.581,188.371 307.581,189.441 L307.581,248.501 L318.211,248.501 L318.211,187.541 C319.001,185.401 321.061,183.941 323.351,183.941 C326.391,183.941 328.831,186.411 328.831,189.421 L328.831,241.101 C328.831,246.971 330.611,251.371 332.651,256.471 C335.791,264.261 339.691,273.961 339.691,295.231 C339.691,314.121 334.291,325.001 329.521,334.581 C325.481,342.711 321.681,350.371 321.681,360.971 L321.681,361.441 L331.981,361.441 L331.981,360.981 C331.981,352.811 334.971,346.791 338.751,339.181 C343.761,329.091 349.991,316.561 349.991,295.251 C350.091,272.021 345.581,260.841 342.311,252.671 L342.276,252.643 Z M217.218,317.65 C215.965,317.588 214.873,317.527 214.024,317.447 C210.93,317.143 206.604,316.982 201.144,316.982 C196.634,316.982 192.106,317.082 188.911,317.184 C189.281,316.274 189.741,315.504 190.311,314.899 C191.571,313.559 193.471,312.909 196.101,312.909 L196.371,312.909 C201.041,312.989 205.771,313.009 210.491,313.009 C217.851,313.009 222.811,312.929 223.761,312.909 L224.231,312.909 L224.001,302.619 L223.541,302.639 C223.501,302.639 218.431,302.739 210.521,302.739 C205.871,302.739 201.161,302.699 196.551,302.639 L196.271,302.639 C189.241,302.639 185.091,305.489 182.851,307.869 C177.331,313.729 177.801,322.039 177.881,322.969 C178.111,325.759 180.451,327.859 183.261,327.719 C183.361,327.719 192.541,327.289 201.341,327.289 C206.391,327.289 210.331,327.429 213.061,327.689 C214.171,327.789 215.391,327.849 216.821,327.929 C228.891,328.529 249.071,329.519 251.151,361.309 L251.191,361.769 L261.461,361.099 L261.441,360.639 C258.751,319.669 229.741,318.239 217.261,317.609 L217.218,317.65 Z M202.074,143.538 C190.224,143.538 178.984,147.38 168.671,154.962 L168.291,155.246 L174.401,163.536 L174.791,163.252 C183.301,156.984 192.521,153.81 202.191,153.81 C210.751,153.81 216.571,156.418 216.831,156.52 L217.261,156.7 L221.611,147.36 L221.191,147.158 C220.371,146.834 212.991,143.538 202.111,143.538 L202.074,143.538 Z" id="Shape"></path>
                <path d="M200.194,154.942 C195.524,154.396 191.378,157.772 190.832,162.342 C190.569,164.587 191.196,166.792 192.592,168.55 C193.986,170.31 195.988,171.44 198.232,171.704 C198.556,171.744 198.899,171.764 199.222,171.764 C203.489,171.764 207.088,168.57 207.594,164.304 C208.14,159.674 204.824,155.488 200.194,154.942 Z M93.738,135.754 C77.4,135.754 64.096,149.038 64.096,165.396 L64.096,181.248 C64.096,197.585 77.38,210.89 93.738,210.89 L93.738,200.598 C83.082,200.598 74.408,191.924 74.408,181.268 L74.408,165.396 C74.408,154.74 83.082,146.066 93.738,146.066 C104.393,146.066 113.068,154.74 113.068,165.396 L123.358,165.396 C123.38,149.058 110.075,135.754 93.738,135.754 L93.738,135.754 Z" id="Shape"></path>
                <path d="M233.333,130.497 C228.803,114.967 221.748,100.511 215.5,89.471 C214.69,88.021 213.82,86.601 212.992,85.271 C220.919,77.971 234.445,75.341 234.587,75.301 C236.285,74.981 237.701,73.851 238.387,72.251 C239.055,70.681 238.894,68.861 237.964,67.401 C237.64,66.921 231.109,57.151 219.038,51.851 C226.438,42.651 237.074,36.851 241.542,35.441 C243.422,34.841 244.818,33.221 245.082,31.261 C245.364,29.301 244.495,27.361 242.837,26.251 C234.789,20.871 220.272,23.991 212.811,26.131 C200.121,6.501 181.471,7.331 180.641,7.391 C178.641,7.511 176.961,8.771 176.221,10.491 C176.221,10.511 176.201,10.511 176.201,10.531 C175.291,12.291 175.491,14.421 176.691,15.991 C177.281,16.781 177.851,17.511 178.351,18.241 C172.491,16.201 165.211,11.811 159.151,2.391 C157.921,0.501 155.621,-0.389 153.451,0.201 C151.291,0.791 149.751,2.731 149.671,4.971 C149.451,10.531 149.911,15.491 150.541,19.391 C147.031,18.771 142.581,18.241 137.381,18.241 C132.311,18.241 127.171,18.731 122.061,19.721 C118.521,15.921 117.431,12.461 117.431,12.461 C116.891,10.541 115.291,9.091 113.311,8.761 C111.331,8.441 109.351,9.291 108.221,10.931 C106.791,13.031 105.271,15.481 104.081,17.951 C100.381,16.151 96.501,15.221 92.461,15.221 C80.751,15.221 72.141,23.071 71.781,23.411 C70.221,24.871 69.701,27.131 70.511,29.091 C71.301,31.051 73.201,32.331 75.301,32.331 L75.591,32.331 C78.321,32.331 80.891,32.601 82.751,32.981 C81.301,33.431 78.991,33.811 75.561,33.811 C74.791,33.811 74.031,33.791 73.221,33.751 C71.421,33.671 69.601,33.451 67.861,33.231 C65.518,32.951 63.111,32.661 60.581,32.661 C53.406,32.661 47.441,35.121 41.231,40.661 C39.491,42.211 39.011,44.761 40.081,46.841 C41.157,48.931 43.501,50.041 45.787,49.511 C46.452,49.371 47.177,49.351 47.727,49.411 C46.817,50.041 45.237,50.891 42.59,51.761 C25.42,57.401 13.73,77.198 12.28,89.791 C-1.35,105.401 -7.11,149.379 15.01,185.047 C35.35,217.861 32.58,241.077 32.54,241.277 C32.28,243.077 33.002,244.897 34.42,246.027 C35.832,247.157 37.753,247.462 39.472,246.817 L40.622,246.367 C40.259,251.683 39.812,257.142 39.289,262.723 C38.519,263.108 37.829,263.673 37.349,264.403 L15.249,296.253 C13.629,298.603 14.214,301.793 16.539,303.413 L155.199,399.593 C156.089,400.223 157.119,400.503 158.129,400.503 C159.769,400.503 161.362,399.733 162.353,398.281 L184.413,366.499 C186.033,364.149 185.443,360.959 183.123,359.339 L171.641,351.379 C172.165,345.679 173.071,335.405 173.961,323.149 C175.481,302.345 185.121,299.535 194.341,299.535 L221.297,299.535 C229.507,299.535 248.737,299.535 248.737,279.72 C248.737,269.36 246.287,263.72 244.507,259.62 C243.497,257.27 242.95,255.98 242.95,254.6 C242.95,252.86 243.49,252.334 244.71,251.14 C245.92,249.947 247.94,247.966 247.94,244.75 C247.94,242.325 246.62,239.777 245.07,237.613 C249.7,232.516 249.7,230.919 249.7,229.603 C249.7,227.883 248.95,226.453 247.74,224.083 C246.7,222.103 245.11,219.013 244.54,216.583 C245.304,216.303 246.32,216.003 247.083,215.779 C252.175,214.243 261.663,211.412 261.663,200.899 C261.663,190.363 241.243,165.049 233.473,156.273 C235.818,150.553 236.913,143.033 233.373,130.533 L233.333,130.497 Z M251.308,200.901 C251.308,203.231 249.954,204.161 244.07,205.941 C240.046,207.161 233.98,208.961 233.98,215.121 C233.98,220.121 236.71,225.391 238.53,228.871 C238.59,228.971 238.63,229.071 238.692,229.191 C237.64,230.451 236.002,232.211 234.405,233.781 C233.435,234.751 232.889,236.071 232.889,237.421 C232.889,238.801 233.429,240.111 234.399,241.061 C235.249,241.911 236.319,243.201 237.009,244.201 C235.269,245.941 232.579,249.021 232.579,254.601 C232.579,258.181 233.789,260.991 234.979,263.721 C236.549,267.381 238.349,271.511 238.349,279.741 C238.349,287.121 234.509,289.261 221.199,289.261 L194.069,289.261 C175.489,289.341 165.229,300.511 163.639,322.421 C162.989,331.261 162.339,339.041 161.839,344.811 L72.93,285.3 L67.21,293.852 L163.217,358.07 L163.359,358.15 L163.209,358.07 C163.229,358.09 163.249,358.09 163.269,358.11 L172.999,364.86 L156.819,388.195 L26.609,297.875 L43.129,274.055 C44.059,274.177 45.029,274.035 45.919,273.631 C47.579,272.871 48.709,271.311 48.899,269.491 C49.989,258.941 50.819,248.691 51.299,239.021 C51.379,237.281 50.589,235.621 49.189,234.591 C47.769,233.561 45.949,233.321 44.309,233.951 L42.809,234.521 C42.259,224.011 38.909,204.251 23.659,179.651 C2.769,145.991 9.909,106.181 20.749,95.741 C21.719,94.791 22.289,93.521 22.329,92.161 C22.509,84.241 31.769,66.181 45.699,61.591 C58.429,57.401 59.399,51.051 58.849,47.641 C58.589,46.041 57.899,44.591 56.849,43.351 C58.139,43.071 59.329,42.991 60.469,42.991 C62.369,42.991 64.369,43.241 66.509,43.501 C68.449,43.741 70.449,43.981 72.609,44.081 C73.579,44.121 74.529,44.141 75.439,44.141 C93.029,44.141 94.929,35.751 94.929,32.151 C94.929,29.441 93.739,27.241 91.429,25.601 C91.749,25.581 92.049,25.581 92.379,25.581 C96.339,25.581 100.159,27.081 103.739,30.051 C105.439,31.451 107.819,31.631 109.679,30.481 C111.419,29.431 112.369,27.451 112.129,25.451 C112.169,25.191 112.269,24.861 112.429,24.461 C113.645,26.021 115.119,27.631 116.939,29.251 C118.174,30.361 119.873,30.791 121.489,30.421 C126.749,29.231 132.065,28.621 137.299,28.621 C148.319,28.621 155.359,31.331 155.419,31.331 C157.279,32.081 159.403,31.681 160.859,30.301 C162.315,28.931 162.839,26.841 162.234,24.941 C162.214,24.901 161.648,23.141 161.084,20.191 C172.244,29.431 183.788,30.341 187.854,30.341 C188.804,30.341 189.389,30.301 189.55,30.281 C191.29,30.121 192.83,29.111 193.64,27.571 C194.45,26.041 194.43,24.201 193.6,22.681 C193.56,22.621 193.19,21.971 192.48,20.821 C196.903,23.181 201.9,27.371 205.9,34.811 C207.09,37.041 209.74,38.071 212.12,37.241 C215.01,36.231 218.75,35.221 222.49,34.551 C216.604,38.961 210.58,44.871 206.434,52.121 C205.624,53.541 205.544,55.241 206.194,56.731 C206.844,58.231 208.154,59.321 209.734,59.681 C216.004,61.161 220.934,64.561 224.274,67.591 C217.574,69.901 208.394,74.141 202.674,81.321 C202.428,81.621 202.246,81.951 202.084,82.271 C201.214,83.891 201.274,85.831 202.244,87.411 C208.977,98.351 218.117,115.211 223.434,133.451 C226.874,145.561 224.89,150.881 222.747,154.901 C221.651,156.941 222.077,159.471 223.757,161.048 C230.831,167.718 251.177,194.998 251.257,200.938 L251.308,200.901 Z" id="Shape"></path>
            </g>
        </g>
    </g>
</svg>