<?xml version="1.0" encoding="utf-8"?>
<!-- Generator: Adobe Illustrator 21.0.0, SVG Export Plug-In . SVG Version: 6.00 Build 0)  -->
<svg version="1.1" id="Layer_1" xmlns="http://www.w3.org/2000/svg" xmlns:xlink="http://www.w3.org/1999/xlink" x="0px" y="0px"
	 viewBox="0 0 321.5 325" style="enable-background:new 0 0 321.5 325;" xml:space="preserve">
<style type="text/css">
	.st0{fill:#FFFFFF;}
</style>
<path class="st0" d="M160.4,272.6c-8.9,0-17.7-1.1-26.2-3.2c-1.9-0.5-3.7-1-5.5-1.5c-4.8-1.5-9.6-3.3-14.2-5.5c-1-0.5-2.1-1-3.1-1.5
	c-3.2-1.6-6.4-3.5-9.5-5.5c-0.8-0.5-1.5-1-2.3-1.5c-2.5-1.7-5-3.5-7.4-5.5c-0.6-0.5-1.2-1-1.9-1.5c-2-1.7-4-3.5-6-5.4
	c-0.5-0.5-1-1-1.5-1.5c-1.7-1.7-3.4-3.5-5-5.4c-0.4-0.5-0.9-1-1.3-1.5c-1.4-1.7-2.9-3.6-4.2-5.4c-0.4-0.5-0.7-1-1.1-1.5
	c-1.2-1.7-2.4-3.6-3.6-5.4c-0.3-0.5-0.6-1-0.9-1.5c-1-1.7-2.1-3.6-3-5.4c-0.3-0.5-0.5-1-0.8-1.5c-0.9-1.7-1.7-3.5-2.5-5.4
	c-0.2-0.5-0.4-1-0.6-1.5c-0.7-1.8-1.4-3.6-2.1-5.4c-0.2-0.5-0.4-1-0.5-1.5c-0.6-1.7-1.1-3.6-1.6-5.4c-0.1-0.5-0.3-1-0.4-1.5
	c-0.5-1.9-0.9-3.7-1.3-5.5c-0.1-0.5-0.2-1-0.3-1.6c-0.3-1.7-0.6-3.5-0.9-5.4c-0.1-0.5-0.1-1-0.2-1.5c-0.2-1.7-0.4-3.6-0.5-5.5
	c0-0.5-0.1-1-0.1-1.4c-0.1-1.9-0.2-3.8-0.2-5.5c0-0.3,0-0.6,0-0.8c0-0.2,0-0.5,0-0.7c0-1.7,0.1-3.5,0.2-5.4c0-0.5,0.1-1,0.1-1.5
	c0.1-1.8,0.3-3.7,0.5-5.4c0-0.5,0.1-1,0.2-1.5c0.2-1.8,0.5-3.6,0.9-5.5c0.1-0.5,0.2-1,0.3-1.5c0.3-1.7,0.7-3.5,1.2-5.5
	c0.1-0.5,0.3-1,0.4-1.6c0.5-1.7,1-3.6,1.6-5.4l0.5-1.5c0.6-1.9,1.3-3.7,2.1-5.5c0.2-0.5,0.4-1,0.6-1.5c0.9-2,1.7-3.8,2.5-5.5
	c0.2-0.3,0.3-0.7,0.5-1l0.2-0.5c1-1.9,2-3.8,3-5.5c0.3-0.5,0.6-1,0.9-1.5c1.1-1.8,2.3-3.7,3.6-5.5c0.3-0.5,0.7-1,1.1-1.5
	c1.3-1.9,2.8-3.7,4.2-5.4c0.4-0.5,0.8-1,1.3-1.5c1.6-1.9,3.3-3.7,5-5.4c0.5-0.5,1-1,1.5-1.5c2-1.9,4-3.8,6-5.5
	c0.6-0.5,1.2-1,1.8-1.5c2.3-1.9,4.7-3.7,7.3-5.4c0.8-0.5,1.5-1,2.3-1.5c3-2,6.2-3.8,9.5-5.5c1.1-0.6,2.1-1.1,3.1-1.5
	c4.5-2.1,9.2-4,14-5.5c1.8-0.6,3.6-1.1,5.4-1.5c17.6-4.5,36.3-4.5,53.9,0c1.8,0.4,3.6,1,5.4,1.5c4.8,1.5,9.5,3.3,14,5.5
	c1,0.5,2.1,1,3.1,1.5c3.3,1.7,6.4,3.5,9.4,5.5c0.8,0.5,1.5,1,2.3,1.5c2.6,1.7,5,3.6,7.3,5.5c0.6,0.5,1.2,1,1.8,1.5
	c2,1.6,4,3.5,6,5.4c0.5,0.5,1,1,1.5,1.5c1.7,1.7,3.4,3.5,5,5.4c0.4,0.5,0.9,1,1.3,1.5c1.5,1.8,2.9,3.6,4.2,5.5
	c0.4,0.5,0.7,1,1.1,1.5c1.2,1.7,2.4,3.5,3.6,5.4l0.2,0.3c0.2,0.4,0.5,0.8,0.7,1.2c1,1.7,2,3.5,3,5.4c0.3,0.5,0.5,1,0.8,1.5
	c0.8,1.7,1.6,3.4,2.5,5.4c0.2,0.5,0.4,1,0.6,1.5c0.7,1.8,1.4,3.6,2.1,5.5c0.2,0.5,0.4,1,0.5,1.5c0.6,1.8,1.1,3.6,1.6,5.4
	c0.1,0.5,0.3,1,0.4,1.5c0.5,1.8,0.9,3.6,1.2,5.5c0.1,0.5,0.2,1,0.3,1.5c0.3,1.8,0.6,3.6,0.9,5.4c0.1,0.5,0.1,1,0.2,1.5
	c0.2,1.8,0.4,3.6,0.5,5.4c0,0.5,0.1,1,0.1,1.5c0.1,1.9,0.2,3.7,0.2,5.5c0,0.2,0,0.4,0,0.7c0,0.3,0,0.6,0,0.9c0,1.7-0.1,3.6-0.2,5.4
	c0,0.6-0.1,1-0.1,1.5c-0.1,1.7-0.3,3.5-0.5,5.4c-0.1,0.5-0.1,1-0.2,1.6c-0.2,1.8-0.5,3.7-0.9,5.4c-0.1,0.5-0.2,1-0.3,1.5
	c-0.4,1.8-0.8,3.6-1.3,5.5c-0.1,0.5-0.3,1-0.4,1.5c-0.5,1.9-1.1,3.7-1.7,5.5c-0.2,0.5-0.3,1-0.5,1.5c-0.6,1.8-1.3,3.6-2.1,5.4
	c-0.2,0.5-0.4,1-0.6,1.5c-0.8,1.9-1.7,3.7-2.5,5.5c-0.2,0.5-0.5,1-0.8,1.5c-0.9,1.8-1.9,3.7-3,5.5l-0.9,1.5
	c-1.3,2.1-2.4,3.8-3.6,5.5c-0.3,0.5-0.7,1-1.1,1.5c-1.3,1.8-2.7,3.7-4.2,5.4c-0.4,0.5-0.9,1-1.3,1.5c-1.6,1.9-3.3,3.7-5,5.5
	c-0.5,0.5-1,1-1.5,1.5c-1.9,1.9-4,3.7-6,5.4c-0.6,0.5-1.2,1-1.9,1.5c-2.3,1.9-4.8,3.7-7.3,5.5c-0.8,0.5-1.5,1-2.3,1.5
	c-3.1,2-6.3,3.8-9.5,5.5c-1,0.5-2.1,1-3.1,1.5c-4.6,2.2-9.4,4-14.2,5.5c-1.8,0.6-3.7,1.1-5.5,1.5C178,271.6,169.2,272.6,160.4,272.6
	z M160.4,58.2c-8.8,0-17.7,1.1-26.2,3.3c-1.7,0.4-3.5,0.9-5.2,1.5l0,0c-4.6,1.4-9.2,3.2-13.6,5.3c-1,0.4-1.9,0.9-3,1.5
	c-3.2,1.6-6.3,3.4-9.2,5.3c-0.8,0.5-1.5,1-2.2,1.5c-2.5,1.7-4.9,3.5-7.1,5.3c-0.6,0.5-1.2,1-1.8,1.5c-1.9,1.6-3.9,3.4-5.8,5.3
	c-0.5,0.5-1,1-1.5,1.5c-1.7,1.7-3.3,3.5-4.8,5.3c-0.4,0.5-0.8,1-1.2,1.5c-1.4,1.7-2.8,3.5-4.1,5.3c-0.4,0.5-0.7,1-1,1.5
	c-1.2,1.8-2.4,3.6-3.5,5.3c-0.3,0.5-0.6,1-0.9,1.4c-1,1.7-2,3.5-3,5.3l-0.2,0.5c-0.2,0.3-0.3,0.6-0.5,1c-0.8,1.6-1.6,3.4-2.5,5.3
	c-0.2,0.5-0.4,1-0.6,1.5c-0.7,1.7-1.4,3.5-2,5.3l-0.5,1.5c-0.6,1.8-1.1,3.6-1.6,5.3c-0.2,0.5-0.3,1-0.4,1.5
	c-0.5,1.9-0.9,3.7-1.2,5.3c-0.1,0.5-0.2,1-0.3,1.5c-0.3,1.8-0.6,3.6-0.9,5.3c-0.1,0.5-0.1,1-0.2,1.5c-0.2,1.8-0.4,3.6-0.5,5.3
	c0,0.5-0.1,1-0.1,1.5c-0.1,1.9-0.2,3.6-0.2,5.3c0,0.3,0,0.5,0,0.7c0,0.3,0,0.5,0,0.8c0,1.8,0.1,3.5,0.2,5.4c0,0.5,0.1,1,0.1,1.5
	c0.1,1.9,0.3,3.6,0.5,5.3c0.1,0.5,0.1,1,0.2,1.4c0.2,1.9,0.5,3.6,0.9,5.3c0.1,0.5,0.2,1,0.3,1.5c0.4,1.7,0.8,3.5,1.2,5.3
	c0.1,0.5,0.2,1,0.4,1.4c0.5,1.9,1,3.6,1.6,5.3c0.2,0.5,0.3,1,0.5,1.5c0.6,1.8,1.3,3.6,2,5.3c0.2,0.5,0.4,1,0.6,1.5
	c0.8,1.9,1.6,3.7,2.5,5.3c0.2,0.5,0.5,1,0.7,1.5c0.9,1.8,1.9,3.6,2.9,5.3c0.3,0.5,0.6,1,0.9,1.5c1.1,1.8,2.3,3.6,3.5,5.3
	c0.3,0.5,0.7,1,1,1.5c1.3,1.8,2.7,3.6,4.1,5.3c0.4,0.5,0.8,1,1.2,1.5c1.6,1.9,3.2,3.6,4.9,5.3c0.5,0.5,1,1,1.5,1.5
	c1.9,1.9,3.9,3.7,5.8,5.3c0.6,0.5,1.2,1,1.8,1.5c2.3,1.9,4.7,3.7,7.2,5.3c0.7,0.5,1.5,1,2.2,1.5c3,1.9,6.1,3.7,9.3,5.3
	c1,0.5,2,1,3,1.5c4.5,2.1,9.1,3.9,13.8,5.3c1.7,0.5,3.5,1,5.3,1.5c16.6,4.1,34.4,4.1,50.9,0c1.8-0.4,3.6-0.9,5.3-1.5
	c4.7-1.4,9.3-3.2,13.8-5.3c1-0.5,2-1,3-1.5c3.1-1.6,6.2-3.4,9.3-5.3c0.8-0.5,1.5-1,2.2-1.5c2.5-1.7,4.9-3.5,7.2-5.3
	c0.6-0.5,1.2-1,1.8-1.5c2-1.7,3.9-3.4,5.8-5.3c0.5-0.5,1-1,1.5-1.5c1.7-1.7,3.3-3.5,4.9-5.3c0.4-0.5,0.8-1,1.3-1.5
	c1.4-1.7,2.8-3.5,4.1-5.3c0.4-0.5,0.7-1,1-1.5c1.1-1.6,2.3-3.4,3.5-5.3l0.9-1.5c1-1.7,2-3.5,2.9-5.3c0.3-0.5,0.5-1,0.7-1.4
	c0.9-1.7,1.7-3.5,2.5-5.3c0.2-0.5,0.4-1,0.6-1.5c0.7-1.8,1.4-3.5,2-5.3c0.2-0.5,0.3-1,0.5-1.5c0.6-1.7,1.1-3.4,1.6-5.3
	c0.1-0.5,0.3-1,0.4-1.5c0.5-1.8,0.9-3.6,1.2-5.3c0.1-0.5,0.2-1,0.3-1.4c0.3-1.7,0.6-3.5,0.9-5.3c0.1-0.5,0.1-1,0.2-1.5
	c0.2-1.9,0.4-3.6,0.5-5.3c0-0.5,0.1-1,0.1-1.4c0.1-1.9,0.2-3.7,0.2-5.4c0-0.3,0-0.6,0-0.8c0-0.2,0-0.4,0-0.6c0-1.7-0.1-3.5-0.2-5.4
	c0-0.5-0.1-1-0.1-1.5c-0.1-1.8-0.3-3.6-0.5-5.3c-0.1-0.5-0.1-1-0.2-1.4c-0.2-1.8-0.5-3.6-0.9-5.3c-0.1-0.5-0.2-1-0.3-1.5
	c-0.4-1.8-0.8-3.6-1.2-5.3c-0.1-0.5-0.3-1-0.4-1.5c-0.5-1.8-1-3.6-1.6-5.3c-0.2-0.5-0.3-1-0.5-1.5c-0.6-1.8-1.3-3.6-2-5.3
	c-0.2-0.5-0.4-1-0.6-1.5c-0.8-1.9-1.6-3.7-2.4-5.3c-0.2-0.5-0.5-1-0.7-1.5c-1-1.8-1.9-3.6-2.9-5.3c-0.2-0.4-0.5-0.8-0.7-1.2
	l-0.2-0.3c-1.1-1.9-2.3-3.7-3.5-5.3c-0.3-0.5-0.7-1-1-1.5c-1.3-1.8-2.6-3.6-4.1-5.3c-0.4-0.5-0.8-1-1.2-1.5
	c-1.6-1.9-3.2-3.6-4.9-5.3c-0.5-0.5-1-1-1.5-1.5c-1.9-1.9-3.9-3.7-5.8-5.3c-0.6-0.5-1.2-1-1.8-1.5c-2.2-1.8-4.6-3.6-7.1-5.3
	c-0.7-0.5-1.5-1-2.2-1.5c-2.9-1.9-6-3.7-9.2-5.3c-1-0.5-2-1-3-1.5c-4.4-2.1-9-3.9-13.6-5.3c-1.7-0.5-3.5-1-5.2-1.5
	C178,59.3,169.2,58.2,160.4,58.2z"/>
<path class="st0" d="M318.9,139.4c-0.1-0.4-0.1-0.7-0.2-1.1c-1.3-8-3.2-15.9-5.6-23.4c-0.1-0.3-0.2-0.7-0.3-1
	c-2.5-7.7-5.6-15.1-9.2-22.3c-0.2-0.3-0.3-0.6-0.5-1c-3.7-7.2-7.9-14-12.6-20.5c-0.2-0.3-0.4-0.6-0.6-0.9
	c-4.8-6.5-10-12.6-15.7-18.3c-0.3-0.2-0.5-0.5-0.8-0.8c-5.7-5.7-11.8-10.9-18.3-15.6c-0.3-0.2-0.6-0.4-0.9-0.6h0
	c-6.5-4.7-13.3-8.9-20.5-12.6c-0.3-0.2-0.6-0.3-1-0.5c-7.1-3.6-14.6-6.7-22.3-9.2c-0.3-0.1-0.7-0.2-1-0.3C201.8,8.8,194,6.9,186,5.6
	c-0.4-0.1-0.7-0.1-1.1-0.2c-7.8-1.2-15.9-1.8-24-1.9h-1.1c-8.2,0-16.2,0.7-24,1.9c-0.4,0-0.7,0.1-1.1,0.2c-8,1.3-15.9,3.2-23.4,5.6
	c-0.3,0.1-0.7,0.2-1,0.3c-7.7,2.5-15.1,5.6-22.3,9.2c-0.3,0.2-0.6,0.3-1,0.5c-7.2,3.7-14,7.9-20.5,12.6c-0.3,0.2-0.6,0.4-0.9,0.6
	c-6.5,4.8-12.6,10-18.3,15.7c-0.3,0.2-0.5,0.5-0.8,0.8c-5.7,5.7-10.9,11.8-15.7,18.3c-0.2,0.3-0.4,0.6-0.6,0.9
	c-4.7,6.5-8.9,13.4-12.6,20.5c-0.2,0.3-0.3,0.6-0.5,1c-3.6,7.1-6.7,14.6-9.2,22.3c-0.1,0.3-0.2,0.7-0.3,1
	c-2.4,7.6-4.3,15.4-5.6,23.4c-0.1,0.3-0.1,0.7-0.2,1.1c-1.2,7.8-1.8,15.9-1.9,24v1.1c0,8.2,0.7,16.2,1.9,24c0,0.3,0.1,0.7,0.2,1
	c1.3,8,3.2,15.9,5.6,23.4c0.1,0.3,0.2,0.7,0.3,1c2.5,7.7,5.6,15.1,9.2,22.3c0.2,0.3,0.3,0.6,0.5,1c3.7,7.2,7.9,14,12.6,20.5
	c0.2,0.3,0.4,0.6,0.6,0.9c4.8,6.5,10,12.6,15.7,18.3c0.3,0.2,0.5,0.5,0.8,0.8c5.7,5.7,11.8,10.9,18.3,15.7c0.3,0.2,0.6,0.4,0.9,0.6
	c6.5,4.7,13.3,8.9,20.5,12.6c0.3,0.2,0.6,0.3,1,0.5c7.1,3.6,14.6,6.7,22.3,9.2c0.3,0.1,0.7,0.2,1,0.3c7.6,2.4,15.4,4.3,23.4,5.6
	c0.4,0.1,0.7,0.1,1.1,0.2c7.8,1.2,15.9,1.8,24,1.9h1.1c8.2,0,16.2-0.7,24-1.9c0.4,0,0.7-0.1,1.1-0.2c8-1.3,15.8-3.2,23.4-5.6
	c0.3-0.1,0.7-0.2,1-0.3c7.7-2.5,15.1-5.6,22.3-9.2c0.3-0.2,0.6-0.3,1-0.5c7.2-3.7,14-7.9,20.5-12.6c0.3-0.2,0.6-0.4,0.9-0.6
	c6.5-4.8,12.6-10,18.3-15.7c0.3-0.2,0.5-0.5,0.8-0.8c5.7-5.7,10.9-11.8,15.7-18.3c0.2-0.3,0.4-0.6,0.6-0.9
	c4.7-6.5,8.9-13.4,12.6-20.5c0.2-0.3,0.3-0.6,0.5-1c3.6-7.1,6.7-14.6,9.2-22.3c0.1-0.3,0.2-0.7,0.3-1c2.4-7.6,4.3-15.4,5.6-23.4
	c0.1-0.3,0.1-0.7,0.2-1c1.2-7.8,1.8-15.9,1.9-24v-1.1C320.7,155.2,320.1,147.2,318.9,139.4z M315.3,164.5c0,7.9-0.6,15.6-1.8,23.1
	c-0.1,0.4-0.1,0.7-0.2,1.1c-1.2,7.7-3.1,15.3-5.4,22.6c-0.1,0.4-0.2,0.7-0.3,1.1c-2.4,7.4-5.4,14.6-8.9,21.4c-0.2,0.3-0.3,0.7-0.5,1
	c-3.6,6.9-7.6,13.5-12.2,19.8c-0.2,0.3-0.4,0.6-0.7,0.9c-4.6,6.2-9.6,12.1-15.1,17.6l-0.8,0.8c-5.5,5.5-11.4,10.5-17.6,15.1
	c-0.3,0.2-0.6,0.4-0.9,0.7c-6.3,4.5-12.9,8.6-19.8,12.2c-0.3,0.2-0.7,0.3-1,0.5c-6.9,3.5-14,6.5-21.4,8.9c-0.4,0.1-0.7,0.2-1.1,0.3
	c-7.3,2.3-14.8,4.2-22.6,5.4c-0.4,0.1-0.7,0.1-1.1,0.2c-7.5,1.2-15.3,1.8-23.2,1.8h-1.1c-7.9,0-15.6-0.6-23.2-1.8
	c-0.4-0.1-0.7-0.1-1.1-0.2c-7.7-1.2-15.3-3.1-22.6-5.4c-0.4-0.1-0.7-0.2-1.1-0.3c-7.4-2.4-14.6-5.4-21.4-8.9c-0.3-0.2-0.7-0.3-1-0.5
	c-6.9-3.6-13.5-7.6-19.8-12.1c-0.3-0.2-0.6-0.4-0.9-0.7c-6.3-4.6-12.2-9.6-17.6-15.1c-0.3-0.3-0.5-0.5-0.8-0.8
	c-5.4-5.5-10.5-11.4-15.1-17.6c-0.2-0.3-0.4-0.6-0.7-0.9c-4.5-6.3-8.6-12.9-12.1-19.8c-0.2-0.3-0.3-0.7-0.5-1
	c-3.5-6.9-6.5-14-8.9-21.4c-0.1-0.4-0.2-0.7-0.3-1.1c-2.3-7.3-4.2-14.8-5.4-22.6c-0.1-0.4-0.1-0.7-0.2-1.1
	c-1.2-7.6-1.8-15.3-1.8-23.2v-1.1c0-7.9,0.6-15.6,1.8-23.2c0.1-0.4,0.1-0.7,0.2-1.1c1.2-7.7,3.1-15.3,5.4-22.6
	c0.1-0.4,0.2-0.7,0.3-1.1c2.4-7.4,5.4-14.6,8.9-21.4c0.2-0.3,0.3-0.7,0.5-1c3.6-6.9,7.6-13.5,12.1-19.8c0.2-0.3,0.4-0.6,0.7-0.9
	c4.6-6.3,9.6-12.2,15.1-17.7c0.3-0.3,0.5-0.5,0.8-0.8c5.5-5.4,11.4-10.5,17.6-15.1c0.3-0.2,0.6-0.4,0.9-0.7
	c6.3-4.5,12.9-8.6,19.8-12.2c0.3-0.2,0.7-0.3,1-0.5c6.9-3.5,14-6.5,21.4-8.9c0.4-0.1,0.7-0.2,1.1-0.3c7.3-2.3,14.9-4.2,22.6-5.4
	c0.4-0.1,0.7-0.1,1.1-0.2c7.5-1.2,15.3-1.8,23.1-1.8h1.1c7.9,0,15.6,0.6,23.1,1.8c0.4,0.1,0.7,0.1,1.1,0.2
	c7.7,1.2,15.3,3.1,22.6,5.4c0.4,0.1,0.7,0.2,1.1,0.3c7.4,2.4,14.6,5.4,21.4,8.9c0.3,0.2,0.7,0.3,1,0.5c6.9,3.6,13.5,7.6,19.8,12.1
	c0.3,0.2,0.6,0.4,0.9,0.7c6.3,4.6,12.2,9.6,17.6,15.1c0.3,0.3,0.5,0.5,0.8,0.8c5.5,5.5,10.5,11.4,15.1,17.6c0.2,0.3,0.4,0.6,0.7,0.9
	c4.5,6.3,8.6,12.9,12.2,19.8c0.2,0.3,0.3,0.7,0.5,1c3.5,6.9,6.5,14,8.9,21.4c0.1,0.4,0.2,0.7,0.3,1.1c2.3,7.3,4.2,14.8,5.4,22.6
	c0.1,0.4,0.1,0.7,0.2,1.1c1.2,7.5,1.8,15.3,1.8,23.1V164.5z"/>
<g>
	<path class="st0" d="M88.7,265.9l7.8,5.1l-1.9,2.9l-4.7-3.1l-1,1.5l4.5,3l-1.8,2.8l-4.5-3l-1.1,1.8l4.7,3.1l-1.8,2.8l-7.8-5.1
		L88.7,265.9z"/>
	<path class="st0" d="M96.1,285.5l2.9-1.8c0.5,0.9,1.6,1.9,3,2.6c1.3,0.6,1.7,0.4,2-0.1c0.4-0.9,0-1.1-1.9-2.6
		c-2.2-1.8-2.8-3.4-1.8-5.5c1.3-2.8,3.7-3.2,6.7-1.7c2,0.9,3,1.8,3.8,2.9l-2.8,2.1c-0.5-0.6-1.2-1.3-2.4-1.9c-1.1-0.5-1.6-0.6-1.9,0
		c-0.3,0.7,0.1,1,1.3,2c2.8,2.3,3.6,3.6,2.3,6.2c-1.1,2.3-3.2,3.2-6.6,1.5C98.6,288.2,97,287.1,96.1,285.5z"/>
	<path class="st0" d="M119.5,285.2l-3.5-1.1l1-3.3l10.6,3.4l-1,3.3l-3.5-1.1l-3.2,10.1l-3.6-1.2L119.5,285.2z"/>
	<path class="st0" d="M133.9,285.8l4.6,0.8c4.4,0.8,6.3,2.3,5.3,8c-1,5.8-3.3,6.6-7.7,5.8l-4.7-0.8L133.9,285.8z M137,297.3
		c1.4,0.2,2.4,0.2,3-3.3c0.6-3.5-0.3-3.7-1.9-4l-1.1-0.2l-1.2,7.3L137,297.3z"/>
	<path class="st0" d="M160.5,293.1l4-0.1l0.1,4.2l-4,0.1L160.5,293.1z"/>
	<path class="st0" d="M181.9,298.1l3-4.4c1.3-1.9,1.6-2.4,1.4-3.2c-0.2-0.9-0.6-1.3-1.9-1c-0.9,0.2-1.9,0.7-2.5,1.2l-2.1-2.7
		c1-0.8,2.3-1.6,4.7-2c3.2-0.6,4.8,0.5,5.3,3c0.4,2.3-0.1,3.4-2,6.1l-1.2,1.7l4.8-1l0.6,3.1l-9.5,1.9L181.9,298.1z"/>
	<path class="st0" d="M198.3,290.1c-1.4-3.9-1.8-7,3-8.7c4.8-1.7,6.3,1.1,7.6,5c1.4,4.1,1.9,7-2.9,8.6
		C201.2,296.7,199.7,294.2,198.3,290.1z M205.3,287.7c-0.9-2.5-1.4-3.4-3-2.9c-1.6,0.5-1.4,1.6-0.6,4.1c0.9,2.5,1.5,3.6,3,3
		C206.4,291.4,206.2,290.2,205.3,287.7z"/>
	<path class="st0" d="M215.7,279.2l-1.7,0.8l-1.5-3l4.9-2.4l6.2,12.6l-3.2,1.6L215.7,279.2z"/>
	<path class="st0" d="M228.4,277.5c-2.8-4.3-3.6-6.9,1.6-10.3l1.7-1.1l1.8,2.8l-1.9,1.2c-2.1,1.4-2.2,2.1-1.5,3.3
		c0.1-0.7,0.7-1.5,2.2-2.5c2.8-1.9,4.5-0.5,6.1,1.8c1.9,2.8,1.7,4.9-1.7,7.2C232.5,282.6,230.6,280.8,228.4,277.5z M235.4,274.7
		c-0.8-1.2-1.5-1.3-2.4-0.7c-1,0.7-1.4,1.4-0.6,2.6c0.7,1.1,1.3,1.4,2.7,0.6C236.1,276.5,236.1,275.8,235.4,274.7z"/>
</g>
<g>
	<path class="st0" d="M14.1,161.3l1.3-17.9l6.6,0.5l-0.8,10.7l4.1,0.3l0.8-10.2l6.4,0.5l-0.8,10.2l9.8,0.7l-0.5,7.2L14.1,161.3z"/>
	<path class="st0" d="M36.5,133.8l-0.6,2.4l8.1,2l-1.7,6.9l-26.2-6.4l2.7-10.9c1.7-6.9,5.7-8.4,11-7c3.6,0.9,6.4,2.7,7.2,6.1
		l10.2-1.7l-1.8,7.3L36.5,133.8z M31.1,131c0.5-1.9-0.2-2.8-2.4-3.3c-2.3-0.6-3.3-0.1-3.8,1.8l-0.9,3.7l6.2,1.5L31.1,131z"/>
	<path class="st0" d="M34.8,120c-6.6-3-11.9-7.3-7.7-16.5c4.2-9.2,10.9-8,17.5-5c6.6,3,11.8,7.3,7.7,16.5
		C48.1,124,41.3,122.9,34.8,120z M41.7,105.2c-4-1.8-6.7-2.5-8.4,1.1c-1.6,3.6,0.6,5.2,4.6,7.1c4,1.8,6.8,2.5,8.4-1.1
		C48,108.7,45.8,107,41.7,105.2z"/>
	<path class="st0" d="M53.8,104.8l-2.5-6.1c1.8-0.7,4.1-2.4,5.8-4.9c1.6-2.3,1.3-3.2,0.3-3.9c-1.5-1-2.1-0.3-5.5,2.8
		c-4.1,3.6-7.2,4.3-11,1.7c-4.9-3.3-5-7.9-1.3-13.2c2.3-3.4,4.4-5.1,6.6-6.4l3.2,6c-1.2,0.7-2.7,1.8-4.2,4c-1.3,2-1.6,2.9-0.5,3.7
		c1.2,0.8,1.9,0.1,4.1-1.8c5.2-4.7,7.9-5.7,12.5-2.6c4.1,2.8,5.1,7.1,1,13C59.6,100.9,57,103.5,53.8,104.8z"/>
	<path class="st0" d="M56.7,70.5l-4.9,5.1l-4.8-4.5l14.7-15.5l4.8,4.5l-4.9,5.1l14.8,14l-5,5.3L56.7,70.5z"/>
	<path class="st0" d="M69.1,49.4l5.9-4l5.6,8.1l0.1-12.1l6.7-4.6l-0.6,13.3l15.9,8.9l-6.6,4.5L86.5,58l-0.1,3.9l3.9,5.7l-5.9,4
		L69.1,49.4z"/>
	<path class="st0" d="M94.8,48.1c-3-6.6-4.1-13.3,5-17.5c9.2-4.2,13.5,1.1,16.5,7.7c3,6.6,4.1,13.3-5,17.5
		C102.2,59.9,97.8,54.6,94.8,48.1z M109.8,41.5c-1.8-4-3.5-6.3-7-4.6c-3.6,1.6-3,4.4-1.2,8.4c1.8,4,3.5,6.3,7.1,4.7
		C112.3,48.3,111.6,45.6,109.8,41.5z"/>
	<path class="st0" d="M116.2,24l9-2l7.2,13.2l1.2-15l9-2l5.7,26.4l-6.9,1.5l-3.2-14.7l-1.2,15.7l-4.5,1L125,34.3l3.2,14.7l-6.2,1.3
		L116.2,24z"/>
	<path class="st0" d="M149.9,17.6l9.3,0.2l4,14.5l4.6-14.4l9.3,0.2l-0.6,27l-7-0.1l0.3-15.1l-4.8,15l-4.6-0.1l-4.3-15.2l-0.3,15.1
		l-6.4-0.1L149.9,17.6z"/>
	<path class="st0" d="M179.6,35.9l4-16.7l7.1,1.7l-3.8,16c-0.8,3.2-0.3,4.5,2.7,5.2c2.9,0.7,4-0.1,4.8-3.5l3.8-16l6.8,1.6L201,41
		c-1.6,6.6-5.1,9.4-13.1,7.5C180,46.6,178.1,42.5,179.6,35.9z"/>
	<path class="st0" d="M210.8,26.3l6.9,3.1l1.6,14.4l5.2-11.4l6.3,2.8l-11.2,24.6l-6-2.7l-1.8-16.2l-5.8,12.8l-6.2-2.8L210.8,26.3z"
		/>
	<path class="st0" d="M235.4,38.5l6.1,3.9l-14.4,22.8l-6.1-3.9L235.4,38.5z"/>
	<path class="st0" d="M246.2,45.2l5.5,4.6l-6.3,7.6l11.7-3.1l6.3,5.2l-13,3L246,80.2l-6.1-5.1l2.7-10.9l-3.8,1l-4.4,5.3l-5.5-4.6
		L246.2,45.2z"/>
	<path class="st0" d="M270.8,67.9l5,6l-15.6,23.8l-4.7-5.8l1.9-2.7l-5.2-6.4l-3.1,1.3l-4.6-5.6L270.8,67.9z M261.1,84l4.7-7
		l-7.8,3.3L261.1,84z"/>
	<path class="st0" d="M278.5,89.5l-3.6-6.1l5.7-3.4l10.9,18.4l-5.7,3.4l-3.6-6.1l-17.5,10.4L261,100L278.5,89.5z"/>
	<path class="st0" d="M292.8,101.9l2.9,6.6l-24.7,10.8l-2.9-6.6L292.8,101.9z"/>
	<path class="st0" d="M284.7,116.3c7-2,13.8-2.1,16.5,7.6c2.7,9.7-3.1,13.2-10.1,15.1c-6.9,2-13.8,2-16.5-7.6
		C271.9,121.7,277.8,118.2,284.7,116.3z M288.9,132c4.2-1.2,6.7-2.5,5.6-6.3c-1.1-3.8-3.9-3.6-8.1-2.4c-4.3,1.2-6.8,2.5-5.7,6.3
		C281.9,133.5,284.7,133.2,288.9,132z"/>
	<path class="st0" d="M305,140.6l0.6,7.6l-11.8,8.4l12.5-1.1l0.6,6.9l-26.9,2.3l-0.6-6.6l13.3-9.5l-14,1.2l-0.6-6.8L305,140.6z"/>
</g>
<g>
	<path class="st0" d="M224.7,184.1c-0.7-1.7-1.2-2.9-1.2-4.4v-19.9c0-3.3-2.7-6.1-6.1-6.1c-0.7,0-1.3,0.1-2,0.3v-7.4
		c0-3.3-2.7-6.1-6.1-6.1c-0.7,0-1.5,0.1-2.2,0.4c-0.4-3-3-5.2-6-5.2h-0.1c-3.3,0-6.1,2.7-6.1,6.1v1.3c-0.7-0.3-1.4-0.4-2.1-0.4
		c-3.3,0-6.1,2.7-6.1,6.1v0.2h4v-0.2c0-1.2,1-2.1,2.1-2.1s2.1,1,2.1,2.1v30.6h4v-37.7c0-1.2,1-2.1,2.1-2.1h0.1c1.2,0,2.1,1,2.1,2.1
		v38h4v-33.2c0-1.2,1-2.1,2.1-2.1c1.2,0,2.1,1,2.1,2.1v11.9c-0.1,0.4-0.1,0.8-0.1,1.2v22.7h4.1V159c0.3-0.8,1.1-1.4,2-1.4
		c1.2,0,2.1,1,2.1,2.1v19.9c0,2.3,0.7,4,1.5,5.9c1.2,3,2.7,6.7,2.7,14.9c0,7.3-2.1,11.4-3.9,15.1c-1.5,3.1-3,6.1-3,10.2v0.2h4v-0.2
		c0-3.2,1.1-5.5,2.6-8.4c1.9-3.9,4.3-8.7,4.3-16.9C227.7,191.5,226,187.2,224.7,184.1z"/>
	<path class="st0" d="M176.6,209.1c-0.5,0-0.9,0-1.2-0.1c-1.2-0.1-2.9-0.2-5-0.2c-1.7,0-3.5,0-4.7,0.1c0.1-0.4,0.3-0.6,0.5-0.9
		c0.5-0.5,1.2-0.8,2.2-0.8h0.1c1.8,0,3.6,0,5.4,0c2.8,0,4.7,0,5.1,0h0.2l-0.1-4H179c0,0-2,0-5,0c-1.8,0-3.6,0-5.4,0h-0.1
		c-2.7,0-4.3,1.1-5.2,2c-2.1,2.3-1.9,5.5-1.9,5.8c0.1,1.1,1,1.9,2.1,1.8c0,0,3.6-0.2,7-0.2c1.9,0,3.5,0.1,4.5,0.2
		c0.4,0,0.9,0.1,1.5,0.1c4.6,0.2,12.4,0.6,13.2,12.8l0,0.2l4-0.3l0-0.2C192.6,209.9,181.4,209.3,176.6,209.1z"/>
	<path class="st0" d="M157.8,146.6l2.3,3.2l0.1-0.1c3.3-2.4,6.8-3.6,10.5-3.6c3.3,0,5.5,1,5.6,1l0.2,0.1l1.7-3.6l-0.2-0.1
		c-0.3-0.1-3.2-1.4-7.3-1.4c-4.6,0-8.9,1.5-12.9,4.4L157.8,146.6z"/>
	<path class="st0" d="M170.1,146.5c-1.8-0.2-3.4,1.1-3.6,2.8c-0.1,0.9,0.1,1.7,0.7,2.4c0.5,0.7,1.3,1.1,2.2,1.2c0.1,0,0.3,0,0.4,0
		c1.6,0,3-1.2,3.2-2.9C173.1,148.3,171.8,146.7,170.1,146.5z"/>
	<path class="st0" d="M129.1,139.1c-6.3,0-11.4,5.1-11.4,11.4v6.1c0,6.3,5.1,11.4,11.4,11.4v-4c-4.1,0-7.4-3.3-7.4-7.4v-6.1
		c0-4.1,3.3-7.4,7.4-7.4c4.1,0,7.4,3.3,7.4,7.4h4C140.5,144.2,135.4,139.1,129.1,139.1z"/>
	<path class="st0" d="M193.7,164.2c0-4.1-7.9-13.8-10.8-17.2c0.9-2.2,1.3-5.1,0-9.9c-1.7-6-4.5-11.5-6.9-15.8
		c-0.3-0.6-0.6-1.1-1-1.6c3-2.8,8.2-3.8,8.3-3.8c0.7-0.1,1.2-0.6,1.5-1.2c0.3-0.6,0.2-1.3-0.2-1.9c-0.1-0.2-2.6-4-7.3-6
		c2.8-3.5,6.9-5.8,8.7-6.3c0.7-0.2,1.3-0.9,1.4-1.6c0.1-0.8-0.2-1.5-0.9-1.9c-3.1-2.1-8.7-0.9-11.5,0c-4.9-7.5-12.1-7.2-12.4-7.2
		c-0.8,0-1.4,0.5-1.7,1.2c0,0,0,0,0,0c-0.3,0.7-0.3,1.5,0.2,2.1c0.2,0.3,0.4,0.6,0.6,0.9c-2.3-0.8-5.1-2.5-7.4-6.1
		c-0.5-0.7-1.4-1.1-2.2-0.8c-0.8,0.2-1.4,1-1.5,1.8c-0.1,2.1,0.1,4,0.3,5.5c-1.4-0.2-3.1-0.4-5.1-0.4c-1.9,0-3.9,0.2-5.9,0.6
		c-1.4-1.5-1.8-2.8-1.8-2.8c-0.1-0.4-0.3-0.7-0.6-0.9c-0.3-0.2-0.6-0.4-1-0.5c-0.8-0.1-1.5,0.2-2,0.8c-0.6,0.8-1.1,1.8-1.6,2.7
		c-1.4-0.7-2.9-1-4.5-1c-4.5,0-7.8,3-8,3.2c-0.6,0.5-0.8,1.4-0.5,2.2c0.3,0.8,1,1.2,1.8,1.2c0,0,0,0,0,0h0.1c1.1,0,2,0.1,2.8,0.2
		c-0.6,0.2-1.4,0.3-2.8,0.3c-0.3,0-0.6,0-0.9,0c-0.7,0-1.4-0.1-2.1-0.2c-0.9-0.1-1.8-0.2-2.8-0.2c-2.8,0-5.1,1-7.4,3.1
		c-0.7,0.6-0.8,1.6-0.4,2.4c0.4,0.8,1.3,1.2,2.2,1c0.3-0.1,0.5-0.1,0.7,0c-0.4,0.2-1,0.6-2,0.9c-6.6,2.2-11.1,9.8-11.7,14.6
		c-5.2,6-7.5,22.9,1.1,36.7c7.8,12.6,6.8,21.6,6.7,21.6c-0.1,0.7,0.2,1.4,0.7,1.8c0.5,0.4,1.3,0.5,1.9,0.3l0.4-0.2
		c-0.1,2.1-0.3,4.1-0.5,6.3c-0.3,0.1-0.5,0.4-0.7,0.7l-8.5,12.2c-0.6,0.9-0.4,2.1,0.5,2.8l53.4,37c0.3,0.2,0.7,0.4,1.1,0.4
		c0.6,0,1.2-0.3,1.6-0.8l8.5-12.2c0.6-0.9,0.4-2.1-0.5-2.8l-4.4-3.1c0.2-2.2,0.6-6.1,0.9-10.9c0.6-8,4.3-9.1,7.8-9.1h10.4
		c3.2,0,10.6,0,10.6-7.6c0-4-0.9-6.2-1.6-7.7c-0.4-0.9-0.6-1.4-0.6-1.9c0-0.7,0.2-0.9,0.7-1.3c0.5-0.5,1.2-1.2,1.2-2.5
		c0-0.9-0.5-1.9-1.1-2.8c1.8-2,1.8-2.6,1.8-3.1c0-0.7-0.3-1.2-0.8-2.1c-0.4-0.8-1-1.9-1.2-2.9c0.3-0.1,0.7-0.2,1-0.3
		C190,169.3,193.7,168.2,193.7,164.2z M186.9,166.1c-1.5,0.5-3.9,1.2-3.9,3.5c0,1.9,1.1,4,1.8,5.3c0,0,0,0.1,0.1,0.1
		c-0.4,0.5-1,1.2-1.7,1.8c-0.4,0.4-0.6,0.9-0.6,1.4c0,0.5,0.2,1,0.6,1.4c0.3,0.3,0.7,0.8,1,1.2c-0.7,0.7-1.7,1.8-1.7,4
		c0,1.4,0.5,2.5,0.9,3.5c0.6,1.4,1.3,3,1.3,6.2c0,2.8-1.5,3.7-6.6,3.7h-10.4c-7.1,0-11.1,4.3-11.7,12.8c-0.3,3.4-0.5,6.4-0.7,8.6
		l0,0l0,0v0l0,0l0,0v0l-34.2-22.9l-2.2,3.3l36.9,24.7l0,0l0,0l0,0l0,0l3.7,2.6l-6.2,9l-50.1-34.8l6.4-9.2c0.4,0,0.7,0,1.1-0.2
		c0.6-0.3,1.1-0.9,1.1-1.6c0.4-4.1,0.7-8,0.9-11.7c0-0.7-0.3-1.3-0.8-1.7c-0.5-0.4-1.2-0.5-1.9-0.3l-0.6,0.2
		c-0.2-4-1.5-11.7-7.4-21.1c-8-13-5.3-28.3-1.1-32.3c0.4-0.4,0.6-0.9,0.6-1.4c0.1-3,3.6-10,9-11.8c4.9-1.6,5.3-4.1,5.1-5.4
		c-0.1-0.6-0.4-1.2-0.8-1.7c0.5-0.1,1-0.1,1.4-0.1c0.7,0,1.5,0.1,2.3,0.2c0.7,0.1,1.5,0.2,2.3,0.2c0.4,0,0.7,0,1.1,0
		c6.8,0,7.5-3.2,7.5-4.6c0-1-0.5-1.9-1.4-2.5c0.1,0,0.2,0,0.4,0c1.5,0,3,0.6,4.4,1.7c0.7,0.5,1.6,0.6,2.3,0.2c0.7-0.4,1-1.2,0.9-1.9
		c0-0.1,0.1-0.2,0.1-0.4c0.5,0.6,1,1.2,1.7,1.8c0.5,0.4,1.1,0.6,1.8,0.4c2-0.5,4.1-0.7,6.1-0.7c4.2,0,7,1,7,1
		c0.7,0.3,1.5,0.1,2.1-0.4c0.6-0.5,0.8-1.3,0.5-2.1c0,0-0.2-0.7-0.4-1.8c4.3,3.6,8.7,3.9,10.3,3.9c0.4,0,0.6,0,0.7,0
		c0.7-0.1,1.3-0.5,1.6-1c0.3-0.6,0.3-1.3,0-1.9c0,0-0.1-0.3-0.4-0.7c1.7,0.9,3.6,2.5,5.2,5.4c0.5,0.9,1.5,1.2,2.4,0.9
		c1.1-0.4,2.6-0.8,4-1c-2.3,1.7-4.6,4-6.2,6.8c-0.3,0.5-0.3,1.2-0.1,1.8c0.3,0.6,0.8,1,1.4,1.1c2.4,0.6,4.3,1.9,5.6,3
		c-2.6,0.9-6.1,2.5-8.3,5.3c-0.1,0.1-0.2,0.2-0.2,0.4c-0.2,0.3-0.2,0.6-0.2,0.9c0,0.4,0.1,0.7,0.3,1c2.6,4.2,6.1,10.7,8.1,17.7
		c1.3,4.7,0.6,6.7-0.3,8.2c-0.4,0.8-0.3,1.8,0.4,2.4c2.7,2.6,10.6,13.1,10.6,15.4C189.7,165.1,189.2,165.4,186.9,166.1z"/>
</g>
<g>
	<g>
		<path class="st0" d="M35.6,179.9c-1.4,2-3.6,3-5.8,2.8c-1-2.2-0.8-4.9,0.7-6.9c1.5-2,3.8-2.8,6-2.5
			C37.2,175.4,37,177.9,35.6,179.9z"/>
		<path class="st0" d="M22.3,182c2,1.7,4.4,1.8,6.4,0.8c0.2-2.4-0.7-4.9-2.6-6.6c-1.9-1.7-4.3-2.1-6.4-1.2
			C19.4,177.6,20.3,180.4,22.3,182z"/>
		<path class="st0" d="M37.4,189.2c-1.2,2.1-3.4,3.3-5.6,3.2c-1.1-2.1-1.1-4.8,0.2-7c1.3-2.1,3.6-3.1,5.8-2.9
			C38.7,184.6,38.6,187.1,37.4,189.2z"/>
		<path class="st0" d="M24.3,192.3c2.1,1.5,4.5,1.5,6.5,0.4c0-2.4-1.1-4.8-3.1-6.4c-2-1.5-4.5-1.8-6.5-0.7
			C21.1,188.1,22.2,190.8,24.3,192.3z"/>
		<path class="st0" d="M39.9,198.3c-1.1,2.2-3.1,3.5-5.4,3.6c-1.3-2-1.5-4.7-0.3-6.9c1.1-2.2,3.3-3.3,5.6-3.3
			C40.8,193.7,41,196.1,39.9,198.3z"/>
		<path class="st0" d="M27,202.3c2.2,1.4,4.6,1.2,6.5-0.1c-0.2-2.4-1.4-4.7-3.6-6.1c-2.1-1.4-4.6-1.4-6.5-0.2
			C23.5,198.4,24.9,201,27,202.3z"/>
		<path class="st0" d="M43,207.2c-0.9,2.2-2.9,3.7-5.1,4c-1.4-2-1.8-4.6-0.8-6.9c1-2.3,3.1-3.6,5.3-3.7
			C43.6,202.5,43.9,205,43,207.2z"/>
		<path class="st0" d="M30.5,212.1c2.3,1.2,4.7,0.8,6.5-0.6c-0.4-2.4-1.8-4.6-4-5.8c-2.2-1.2-4.7-1.1-6.5,0.2
			C26.7,208.5,28.2,211,30.5,212.1z"/>
		<path class="st0" d="M46.8,215.9c-0.8,2.3-2.6,3.9-4.8,4.3c-1.6-1.8-2.2-4.5-1.3-6.8c0.8-2.3,2.8-3.8,5-4
			C47,211.1,47.5,213.6,46.8,215.9z"/>
		<path class="st0" d="M34.6,221.7c2.4,1,4.8,0.5,6.4-1c-0.5-2.4-2.1-4.5-4.4-5.5c-2.3-1-4.7-0.8-6.5,0.7
			C30.6,218.3,32.3,220.7,34.6,221.7z"/>
		<path class="st0" d="M51.1,224.3c-0.6,2.4-2.3,4.1-4.5,4.7c-1.7-1.7-2.5-4.3-1.8-6.7c0.6-2.4,2.5-4,4.7-4.4
			C51.1,219.5,51.7,221.9,51.1,224.3z"/>
		<path class="st0" d="M39.5,230.9c2.4,0.9,4.8,0.1,6.3-1.5c-0.7-2.3-2.4-4.3-4.8-5.2c-2.4-0.9-4.8-0.4-6.4,1.2
			C35.2,227.9,37.1,230.1,39.5,230.9z"/>
		<path class="st0" d="M56.1,232.3c-0.4,2.4-2,4.3-4.1,5c-1.8-1.6-2.8-4.1-2.3-6.6c0.5-2.4,2.2-4.1,4.4-4.7
			C55.7,227.6,56.6,229.9,56.1,232.3z"/>
		<path class="st0" d="M45,239.8c2.5,0.7,4.8-0.2,6.2-1.9c-0.9-2.3-2.8-4.2-5.2-4.9c-2.4-0.7-4.8-0.1-6.3,1.6
			C40.5,237,42.5,239.1,45,239.8z"/>
		<path class="st0" d="M61.7,240c-0.2,2.4-1.7,4.4-3.7,5.3c-1.9-1.5-3.1-4-2.8-6.4c0.3-2.5,1.9-4.3,4-5
			C60.9,235.3,62,237.6,61.7,240z"/>
		<path class="st0" d="M51.2,248.3c2.5,0.5,4.8-0.5,6-2.4c-1-2.2-3.1-4-5.5-4.5c-2.5-0.5-4.8,0.3-6.2,2.1
			C46.5,245.9,48.6,247.8,51.2,248.3z"/>
		<path class="st0" d="M67.9,247.3c0,2.4-1.3,4.5-3.3,5.5c-2.1-1.3-3.4-3.7-3.3-6.2c0.1-2.5,1.6-4.4,3.6-5.3
			C66.8,242.7,67.9,244.9,67.9,247.3z"/>
		<path class="st0" d="M58,256.4c2.6,0.3,4.7-0.9,5.9-2.8c-1.2-2.2-3.4-3.8-5.9-4.1c-2.5-0.4-4.8,0.6-6,2.5
			C53.1,254.3,55.4,256,58,256.4z"/>
		<path class="st0" d="M74.7,254.2c0.1,2.5-1,4.6-2.9,5.8c-2.2-1.2-3.7-3.5-3.8-6c-0.1-2.5,1.3-4.6,3.2-5.6
			C73.1,249.6,74.5,251.8,74.7,254.2z"/>
		<path class="st0" d="M65.4,264c2.6,0.1,4.7-1.2,5.6-3.2c-1.4-2.1-3.7-3.5-6.2-3.7c-2.5-0.2-4.7,0.9-5.8,2.9
			C60.4,262.2,62.8,263.8,65.4,264z"/>
	</g>
	<g>
		<path class="st0" d="M285.2,179.9c1.4,2,3.6,3,5.8,2.8c1-2.2,0.8-4.9-0.7-6.9c-1.5-2-3.8-2.8-6-2.5
			C283.6,175.4,283.8,177.9,285.2,179.9z"/>
		<path class="st0" d="M298.4,182c-2,1.7-4.4,1.8-6.4,0.8c-0.2-2.4,0.7-4.9,2.6-6.6c1.9-1.7,4.3-2.1,6.4-1.2
			C301.3,177.6,300.4,180.4,298.4,182z"/>
		<path class="st0" d="M283.3,189.2c1.2,2.1,3.4,3.3,5.6,3.2c1.1-2.1,1.1-4.8-0.2-7c-1.3-2.1-3.6-3.1-5.8-2.9
			C282.1,184.6,282.1,187.1,283.3,189.2z"/>
		<path class="st0" d="M296.4,192.3c-2.1,1.5-4.5,1.5-6.5,0.4c0-2.4,1.1-4.8,3.1-6.4c2-1.5,4.5-1.8,6.5-0.7
			C299.6,188.1,298.5,190.8,296.4,192.3z"/>
		<path class="st0" d="M280.9,198.3c1.1,2.2,3.1,3.5,5.4,3.6c1.3-2,1.5-4.7,0.3-6.9c-1.1-2.2-3.3-3.3-5.6-3.3
			C279.9,193.7,279.8,196.1,280.9,198.3z"/>
		<path class="st0" d="M293.7,202.3c-2.2,1.4-4.6,1.2-6.5-0.1c0.2-2.4,1.4-4.7,3.6-6.1c2.1-1.4,4.6-1.4,6.5-0.2
			C297.2,198.4,295.9,201,293.7,202.3z"/>
		<path class="st0" d="M277.7,207.2c0.9,2.2,2.9,3.7,5.1,4c1.4-2,1.8-4.6,0.8-6.9c-1-2.3-3.1-3.6-5.3-3.7
			C277.1,202.5,276.8,205,277.7,207.2z"/>
		<path class="st0" d="M290.2,212.1c-2.3,1.2-4.7,0.8-6.5-0.6c0.4-2.4,1.8-4.6,4-5.8c2.2-1.2,4.7-1.1,6.5,0.2
			C294,208.5,292.5,211,290.2,212.1z"/>
		<path class="st0" d="M274,215.9c0.8,2.3,2.6,3.9,4.8,4.3c1.6-1.8,2.2-4.5,1.3-6.8c-0.8-2.3-2.8-3.8-5-4
			C273.7,211.1,273.2,213.6,274,215.9z"/>
		<path class="st0" d="M286.1,221.7c-2.4,1-4.8,0.5-6.4-1c0.5-2.4,2.1-4.5,4.4-5.5c2.3-1,4.7-0.8,6.5,0.7
			C290.1,218.3,288.4,220.7,286.1,221.7z"/>
		<path class="st0" d="M269.6,224.3c0.6,2.4,2.3,4.1,4.5,4.7c1.7-1.7,2.5-4.3,1.8-6.7c-0.6-2.4-2.5-4-4.7-4.4
			C269.7,219.5,269,221.9,269.6,224.3z"/>
		<path class="st0" d="M281.2,230.9c-2.4,0.9-4.8,0.1-6.3-1.5c0.7-2.3,2.4-4.3,4.8-5.2c2.4-0.9,4.8-0.4,6.4,1.2
			C285.5,227.9,283.7,230.1,281.2,230.9z"/>
		<path class="st0" d="M264.6,232.3c0.4,2.4,2,4.3,4.1,5c1.8-1.6,2.8-4.1,2.3-6.6c-0.5-2.4-2.2-4.1-4.4-4.7
			C265,227.6,264.2,229.9,264.6,232.3z"/>
		<path class="st0" d="M275.7,239.8c-2.5,0.7-4.8-0.2-6.2-1.9c0.9-2.3,2.8-4.2,5.2-4.9c2.4-0.7,4.8-0.1,6.3,1.6
			C280.2,237,278.2,239.1,275.7,239.8z"/>
		<path class="st0" d="M259,240c0.2,2.4,1.7,4.4,3.7,5.3c1.9-1.5,3.1-4,2.8-6.4c-0.3-2.5-1.9-4.3-4-5
			C259.8,235.3,258.8,237.6,259,240z"/>
		<path class="st0" d="M269.6,248.3c-2.5,0.5-4.8-0.5-6-2.4c1-2.2,3.1-4,5.5-4.5c2.5-0.5,4.8,0.3,6.2,2.1
			C274.2,245.9,272.1,247.8,269.6,248.3z"/>
		<path class="st0" d="M252.8,247.3c0,2.4,1.3,4.5,3.3,5.5c2.1-1.3,3.4-3.7,3.3-6.2c-0.1-2.5-1.6-4.4-3.6-5.3
			C254,242.7,252.8,244.9,252.8,247.3z"/>
		<path class="st0" d="M262.8,256.4c-2.6,0.3-4.7-0.9-5.9-2.8c1.2-2.2,3.4-3.8,5.9-4.1c2.5-0.4,4.8,0.6,6,2.5
			C267.6,254.3,265.3,256,262.8,256.4z"/>
		<path class="st0" d="M246.1,254.2c-0.1,2.5,1,4.6,2.9,5.8c2.2-1.2,3.7-3.5,3.8-6c0.1-2.5-1.3-4.6-3.2-5.6
			C247.6,249.6,246.2,251.8,246.1,254.2z"/>
		<path class="st0" d="M255.3,264c-2.6,0.1-4.7-1.2-5.6-3.2c1.4-2.1,3.7-3.5,6.2-3.7c2.5-0.2,4.7,0.9,5.8,2.9
			C260.4,262.2,257.9,263.8,255.3,264z"/>
	</g>
</g>
</svg>
