<?xml version="1.0" encoding="utf-8"?>
<!-- Generator: Adobe Illustrator 21.0.0, SVG Export Plug-In . SVG Version: 6.00 Build 0)  -->
<svg version="1.1" id="Layer_1" xmlns="http://www.w3.org/2000/svg" xmlns:xlink="http://www.w3.org/1999/xlink" x="0px" y="0px"
	 viewBox="0 0 500 500" style="enable-background:new 0 0 500 500;" xml:space="preserve">
<style type="text/css">
	.st0{fill:#282829;}
</style>
<g>
	<path class="st0" d="M124.8,198.4c-0.1,0.6-0.2,1.5-0.2,2.3v8.9c0,0.4,0,1.3,0.2,2.4v1.2l0.2,0.9c0.1,0.6,0.2,1.3,0.3,1.8
		c0.1,1.7,0.5,3.3,0.8,4.9l0.4,1.7c0.7,2.8,1.5,5.6,2.4,8.3c0.7,2.1,1.5,4.1,2.1,5.3c0.8,1.8,1.6,3.3,2.6,5.6
		c0.9,1.5,1.8,2.9,2.5,4.3c1.2,1.8,2.2,3.6,3,5.5l0.8,1.3l0.4,1.1l1.3,2.7c1.1,2.6,2.2,5.6,2.9,8.7c0.7,2.6,1.2,4.8,1.2,6.7v1.3
		l0.2,0.8v1.5l-0.1,1l-0.4,3.1l0.8,1.5l0.2,0.6c0.8,2.3,2.1,4.3,3.8,5.8c-0.8,1.2-1.6,2.2-2.3,3.4c-0.5,0.7-8.4,12-8.4,12
		c-1,1.3-1.9,2.5-2.6,3.8c-0.4,0.5-0.7,1.1-1.4,2.3c-3.1,5.3-1.8,12.4,3.7,16.9l3.5,2.4c1.7,1.1,3.2,2.2,4.5,3.1
		c2.3,1.7,4.6,3.2,6.5,4.4c1.5,1.1,3,2.2,4.5,3.2l1.6,1.1c1.7,1.2,3.2,2.2,4.9,3.3l2.1,1.4c1.3,0.9,2.5,1.9,3.8,2.7l2.3,1.7
		c2.2,1.4,4.2,2.8,6.4,4.3l13.4,9.3c0.3,0.2,0.7,0.5,1.1,0.7c1.8,1.3,7.4,5.3,7.4,5.3l4.8,3.2c2.7,1.8,5.4,3.7,8.3,5.8l4.1,2.7
		c2.4,1.9,5.1,3.6,7.3,5.2c0.9,0.7,5.3,3.8,5.3,3.8l0.6,0.3c0.8,0.5,3.4,2,6.9,2c2,0,3.6-0.3,5.2-0.9h2.5l4.3-5.8l9.4-13.7
		c0.8-1.1,1.5-2.1,2.2-3c1-1.4,2-2.8,2.7-4.1c3.6-6.1,1.8-14.2-4.1-17.9l-2.5-1.8c0,0,0-0.7,0.1-0.8c0.3,0,2.1,0,2.1,0l0.4-0.1h3
		l3.4-0.2h0.3l0.6,0.1l3.4,0.1l1.1-0.1l1.9,0.4c0,0,2.1,0,2.3,0c0.4,0,0.8,0,1.1,0.1l0.5,0.1h0.8c0.6,0.1,1.2,0.1,2.3,0.2
		c0.4,0.1,0.8,0.1,1.7,0.3c0.8,0.2,1.6,0.4,2.5,1l0.7,0.6l0.7,0.4l0.4,0.4c0.4,0.6,0.8,1.2,1.3,2.2c0.3,0.8,0.6,1.7,0.8,2.2
		c0.3,1.6,0.7,3.2,0.7,4.5l0.1,1.7v6.6l7.6,1.7c1.2,0.3,2.3,0.5,3.5,0.5c0.7,0,1.4-0.1,2.1-0.2h50.1l3.4-0.1l6.5-0.4V357l0.2-1.4
		l-0.1-1c0-0.5,0.2-0.9,0.4-1.6c0.2-1.2,0.7-2.3,1.7-4.2c0.5-1.2,1.1-2.3,1.7-3.5c0.7-1.5,1.5-2.8,2.2-4.5c0.8-2.1,1.7-4.2,2.4-6.4
		c1-3,1.8-6.2,2.4-9.7c0.3-1.1,0.5-2.2,0.6-3.4l0.3-0.3v-4l0.1-1.3v-7l0.2-2.2l-0.5-1.7h0.1c0-0.6,0-1.6-0.2-2.8l-0.3-2.2
		c-0.1-2-0.5-3.9-0.9-6c-0.6-2.4-1.1-4.8-2-7.3c-0.6-1.8-1.3-3.4-2-5.2c-0.4-1-0.8-2-1-2.4c-0.2-0.7-0.6-1.7-0.6-2V244
		c0-2-0.2-4-0.8-6.6c-0.9-3.4-2.7-6.5-5.8-9.6c-2.2-1.9-4.6-3.3-7.2-4.2v-2.2c0-1.8-0.1-3.5-0.4-4.8c-1-5.1-3.7-9.5-8.1-12.7
		c-2.5-2-5.7-3.1-9.4-3.6c-1.2-1.7-2.6-3.1-4.3-4.4c-3-2.2-6.5-3.6-9.8-3.9c-0.9-0.1-1.8-0.2-2.6-0.2c-3.1,0-6.3,0.8-8.8,2.1
		c-2.2,1.1-4.4,2.6-5.9,4.3c-1.9,2-3.2,4-4.2,6.3c-0.7,0.2-1.4,0.4-2.1,0.7c-0.5-2.3-1.1-4.5-1.9-6.6c-0.9-2.9-2.1-6.1-3.2-8.8
		c-1.2-2.9-2.5-5.8-3.8-8.6c-0.5-1-1-1.9-1.5-2.8c0.7-0.2,1.4-0.4,2.2-0.6c0.9-0.2,1.9-0.5,2.8-0.9c4.8-1.8,8-6.4,8.4-12.2
		c0-2.6-0.8-5.3-2.2-7.4c-0.9-1.6-3.6-4.6-4.5-5.5c0.2-0.1,0.3-0.1,0.4-0.2l0.8-0.1l2.2-1.2c5-2.4,7.8-7.2,7.4-12v-1.3
		c-0.4-4-2.4-7.4-5.7-9.7c-3-2.1-6.6-3.2-10.5-3.5c-0.9-0.1-2.2-0.2-3.4-0.2c-2.2,0-4.8,0.2-6.7,0.5c-0.3,0.1-0.6,0.2-0.9,0.3
		c-2.3-2.4-4.8-4.5-7.1-5.9c-1.2-0.8-2.5-1.5-3.9-2.2c-1.5-0.8-2.9-1.3-4.1-1.6c-2.9-1.1-5.8-1.6-8.5-1.6h-1.3c-2.1,0-4,0.4-5.9,1.2
		l-0.2,0.1l-1.5-2.1l-0.8-0.6c-2.6-2.3-5.7-3.5-9-3.5c-3.2,0-6.1,1-8.7,3l-1,0.8l-0.7,0.9c-1.8,2.2-2.7,4.8-3,7.2
		c-1,0-2,0.1-2.9,0.2c-0.1,0-0.2,0-0.2,0c-2.3-3.9-6.7-6.5-11.4-6.5c-2.1,0-4.2,0.5-6.1,1.5c-1.6,0.8-2.9,1.9-4,3
		c-1.2-0.1-2.3-0.2-3.6-0.2c0,0,0,0-0.1,0c-1.3,0-2.6,0.1-4,0.4c-1.7,0.2-3.4,0.7-5.3,1.4c-3.1,1.1-5.7,2.5-8,4.2
		c-1.4,1-2.6,2.2-3.6,3.2c-0.7,0.8-1.2,1.6-1.7,2.3c-0.3,0.1-0.7,0.1-1,0.2c-1.7,0.1-3.2,0.4-4.6,0.8c-3.1,0.9-6.2,2.4-9,4.6
		c-0.3,0.2-0.6,0.4-0.7,0.5l-0.9,0.6c-3.5,2.6-5.5,6.6-5.6,10.9c-1.9,1.3-3.6,2.7-5.3,4.4c-1,0.9-2.3,2.2-3.4,3.8
		c-0.6,0.7-1.1,1.3-1.8,2.2c-1.6,2.4-3.5,5.6-5,9.2c-0.9,2.1-1.5,4.1-2,6.3l-0.3,0.4c-1.8,2.5-3.2,5.4-4.5,8.7 M371.3,308.7v6.9
		l-0.1,1l0.1,1.9l-0.2,0.2c0,0.6-0.3,2.7-0.3,2.7c0,0.7-0.2,2-0.6,3.1c-0.4,2.5-1.2,5.7-2.2,8.7c-0.8,2.1-1.6,4.1-2.3,6.1
		c-0.7,1.5-1.4,2.7-2.1,4.1c-0.9,1.7-1.4,2.7-1.9,3.8c-1,2.1-1.6,3.5-1.9,5c-0.3,1.2-0.5,2-0.5,2.5l-0.1,1.3v5.9h-1.8l-1,0.2
		l-2.9,0.3h-50.7c-0.6,0.1-1.3,0.1-1.7,0.1c-0.9,0-1.8-0.1-2.6-0.3l-4.6-1v-4.7c-0.1-2.1-0.5-4-0.9-5.9c-0.3-0.9-0.7-2-1.1-2.9
		c-0.5-1.2-1-2.1-1.7-2.9c-0.4-0.4-0.7-0.8-1-1.1l-2.1-1.5c-1-0.5-2.3-1-3.7-1.3c-0.7-0.2-1.3-0.3-1.9-0.3l-1.3-0.2l-1-0.1
		c-1.8-0.2-2.6-0.2-3.5-0.2l-1.4-0.1l-1.1-0.2h-2.2l-2.5-0.1l-1.3-0.1c-1,0-1.8,0.1-2.4,0.1c-0.7,0.1-1.3,0.1-1.5,0.1h-3.3L259,340
		c-0.7,0-1.5,0-2.2-0.1l-1.3,0.2h-1.1c-0.1,0.5-0.2,1-0.3,1.5c0.1,0.8,0.1,1.7-0.2,2.5c0.1,0.6,0,1.2-0.1,1.9l-0.1,0.6l4.6,3.1
		c4.1,2.7,5.5,8.3,2.9,12.6c-0.8,1.3-1.7,2.6-2.5,3.8c-0.8,1.1-1.6,2.1-2.2,3.1l-9.1,13.3c-0.6,0.7-2.4,3.2-2.4,3.2l-0.8,0.4
		c-1.9,1.8-4.8,1.8-5.9,1.8c-2.2,0-3.9-0.9-5.1-1.5l-5.4-3.8c-2.3-1.7-4.9-3.4-7.4-5.2l-4.2-2.8c-2.8-2.1-5.6-4-8.2-5.8l-4.8-3.2
		c-0.1-0.1-5.4-3.8-7.6-5.4l-1-0.6l-8.1-5.7c-1.4-0.9-2.7-1.9-4.1-2.8l-1.1-0.8c-2.2-1.5-4.3-2.9-6.6-4.4l-2.1-1.5
		c-1.4-1-2.6-2-4-2.8l-2.1-1.4c-1.6-1.1-3.1-2.2-4.7-3.3l-1.7-1.1c-1.5-1.1-2.9-2.1-4.4-3.1c-2-1.3-4.2-2.8-6.5-4.5
		c-1.4-0.9-3-2-4.6-3.1l-3.4-2.3c-3.8-3.1-4.9-8.1-2.7-11.8c0.9-1.5,1.1-1.9,1.4-2.2c0.6-1.1,1.4-2.2,2.2-3.3
		c0.2-0.3,8.1-11.7,8.6-12.3c1.1-1.6,2-2.9,2.8-4.2c0.3-0.5,0.7-0.9,1.1-1.2l-0.5-0.1l-0.1-0.7l0.3-0.6v-0.6c-2.1-1.2-3.7-3-4.5-5.4
		l-0.4-1.4l-0.6-1.1l0.6-1.4l0.1-0.9v-2.4l-0.2-1.1c-0.1-3-0.7-5.7-1.4-8.1c-0.8-3.3-2-6.5-3-9.1l-1.3-2.8l-0.5-1.1l-0.8-1.5
		c-1.1-2.1-2.1-3.9-3.2-5.8c-0.8-1.4-1.7-2.7-2.4-4.1c-1-2.1-1.8-3.5-2.3-5.2c-0.7-1.3-1.4-3.2-2.1-5.1c-1-2.6-1.8-5.3-2.3-7.9
		l-0.4-1.7c-0.3-1.4-0.6-2.8-0.7-4.3l-0.4-2.2c0-0.2-0.1-1.7-0.2-2.4c-0.1-0.5-0.1-1.1-0.1-1.4v-8.9c0-1,0.2-1.7,0.3-2.2
		c0.2-4.8,1.3-9.8,3.2-15.2c1.1-3,2.4-5.6,4-7.8l0.7-1c0.4-2.2,1.1-4.3,2-6.5c1.4-3.3,3.3-6.5,4.6-8.4c0.5-0.7,1-1.3,1.5-1.8
		c1.3-1.8,2.2-2.7,3.2-3.7c2.1-2.1,4.2-3.7,6.6-5.2c-0.1-0.4-0.1-0.8-0.2-1.2c-0.2-3.4,1.3-6.5,4-8.5c1.2-0.9,1.6-1.1,1.9-1.3
		c2-1.6,4.6-2.9,7.3-3.7c1.3-0.4,2.6-0.6,4-0.8c1.2-0.1,2-0.2,2.7-0.2h0.5c0.4-1.3,1.1-2.5,2-3.5c0.8-1,1.8-1.9,2.9-2.7
		c2.1-1.5,4.4-2.6,7.1-3.7c1.8-0.7,3.4-1,5-1.2c0.4-0.2,1.9-0.3,2.9-0.3c2,0,3.7,0.2,5.5,0.6l0.2-0.3c0.8-1.5,2.2-2.7,3.8-3.6
		c1.4-0.7,2.8-1,4.3-1c3.9,0,7.4,2.4,8.8,6.1c0,0.2,0.2,0.5,0.3,0.7c1.1-0.2,2.2-0.3,3.3-0.3c0,0,1-0.2,3.1-0.2h2.9V122
		c-0.2-2.2,0.6-4.6,2.2-6.6c2.7-2.3,4.9-3.2,7.3-3.2c2.3,0,4.5,0.9,6.5,2.5l1.7,2.1c0.7,0.9,1.2,1.6,1.8,2.2
		c0.1,0.1,0.4,0.4,0.6,0.8c0.5-0.6,1.1-1.1,1.6-1.4c2.2-1,3.6-1.4,5.3-1.4h1.2c2.4,0,4.8,0.4,7.3,1.3c1.1,0.4,2.3,0.8,3.6,1.4
		c1.3,0.7,2.4,1.3,3.5,2c2.2,1.4,4.7,3.4,6.8,5.8c0.3,0.4,0.7,0.8,1,1.2l3.2-0.8c1.6-0.2,3.8-0.4,5.9-0.4c1.1,0,2.2,0.1,2.9,0.1
		c1.3,0.2,5.1,0.5,8.7,2.9c2.3,1.6,3.7,4,4,6.8c0.3,4.2-1.7,7.6-5.3,9.5l-1.3,0.5l-1.4,0.3c0,0.2-1.3,1-2.4,1.7c-1,0.6-2,1.3-2.9,2
		c0.7,0.6,1.4,1.2,2.1,1.9l1.2,0.9c0.5,0.5,3.6,3.9,4.4,5.3c1.1,1.6,1.6,3.4,1.6,5.4c-0.2,4.1-2.5,7.3-5.9,8.6
		c-0.8,0.3-1.6,0.5-2.3,0.7c-2.2,0.5-3.8,1.2-5.4,1.8c-0.5,0.2-1,0.4-1.4,0.6l0.7,1.4c1.1,2,1.9,3.5,2.6,5.2
		c1.4,2.7,2.7,5.6,3.8,8.4c1.1,2.7,2.2,5.7,3.1,8.5c0.8,2.2,1.4,4.3,1.8,6.6c0.3,1.2,0.7,2.9,0.8,5c0.5-0.5,1.1-0.9,1.4-1.1
		c2.2-1.3,4.4-2.1,6.6-2.2c0.7-2.5,2.1-5,4.1-7c1.3-1.5,2.8-2.6,4.6-3.5c2.2-1.1,4.7-1.7,7.2-1.7c0.7,0,1.4,0.1,2.2,0.2
		c2.7,0.2,5.6,1.4,7.9,3.1c1.9,1.4,3.3,3,4.4,4.9c0.6,0.1,1.1,0.1,1.5,0.2c2.9,0.3,5.7,1.3,7.8,2.9c3.6,2.6,5.9,6.2,6.6,10.3
		c0.3,1.2,0.4,2.5,0.4,4.1v5.3c0.9,0.1,1.6,0.3,2.1,0.5c2.3,0.7,4.6,2,6.5,3.6c2.4,2.4,3.9,4.9,4.6,7.6c0.5,2.2,0.7,3.9,0.7,5.6
		v33.1c0,0.9,0.4,1.9,0.7,3.1l1.2,2.7c0.7,1.7,1.3,3.3,1.9,5c0.8,2.4,1.4,4.6,1.9,6.9c0.4,1.9,0.7,3.5,0.8,5.4l0.4,2.8
		c0.1,0.2,0.1,1,0.1,1.9v1.2l0.2,0.5l0.1,0.8L371.3,308.7z"/>
	<path class="st0" d="M181.9,305.9c2.2,1.2,4,2.7,5.9,3.9c2,1.3,3.9,2.6,5.8,3.9c1.9,1.3,3.8,2.6,5.7,3.8c1.9,1.3,3.9,2.6,5.8,3.9
		c1.9,1.3,3.9,2.6,5.8,3.9c1.9,1.3,3.9,2.6,5.8,3.9c1.9,1.3,3.9,2.6,5.8,3.9c1.9,1.3,3.8,2.6,5.7,3.8c1.9,1.3,3.9,2.6,5.8,3.9
		c1.9,1.3,3.8,2.6,5.8,3.9c0.4-0.6,0.5-1.1,0.5-1.7c0-0.5-0.1-1,0.1-1.4c0.2-0.6,0.2-1.3,0.2-1.9c0-0.3,0-0.6,0-0.8
		c0.3-0.8,0.2-1.7,0.2-2.5c0-0.2,0-0.5,0-0.7c0.2-0.7,0.2-1.4,0.2-2.2c0-0.3,0-0.7,0-1c0.2-0.8,0.2-1.5,0.2-2.3c0-0.3,0-0.6,0.1-1
		c0.1-0.8,0.3-1.7,0.4-2.5c0.2-1.1,0.3-2.1,0.6-3.2c0.5-2.2,1.4-4.3,2.5-6.3c0.7-1.2,1.5-2.4,2.5-3.4c1.6-1.6,3.4-2.9,5.6-3.8
		c2.2-0.9,4.5-1.5,6.9-1.5c0.3,0,0.7,0,1-0.1c0.5-0.2,1-0.1,1.6-0.1c6.5,0,12.9,0,19.4,0c1.2,0,2.5,0,3.7-0.3
		c1.2-0.2,2.3-0.6,3.3-1.2c0.4-0.3,0.8-0.6,1-1c0.8-1.2,0.8-2.5,0.8-3.8c0-0.7-0.1-1.4-0.1-2c0-1-0.2-2-0.4-3
		c-0.4-1.9-1.1-3.8-1.9-5.6c-0.9-2-1.5-4-1.4-6.2c0.1-2.2,0.8-4.1,2.3-5.7c0.2-0.2,0.3-0.4,0.4-0.5c0-0.2,0-0.3,0-0.3
		c-0.4-0.6-0.8-1.2-1.4-1.7c-1.4-1.3-1.4-4,0-5.2c0.6-0.6,1.2-1.2,1.8-1.8c0.3-0.3,0.7-0.7,0.7-1.2c-0.6-1.4-1.2-2.7-1.8-4
		c-0.9-1.9-1.1-3.9-1-5.9c0-0.2,0.1-0.5,0.1-0.7c0.3-1.4,1.3-2.2,2.4-2.9c1.2-0.8,2.6-1.3,4-1.7c0.6-0.2,1.3-0.3,1.8-0.6
		c0.9-0.4,1.9-0.6,2.5-1.3c0.6-1.1,0.6-1.1,0.2-2.3c-0.1-0.4-0.3-0.8-0.5-1.2c-0.8-1.8-1.9-3.6-3-5.3c-1.8-2.8-3.7-5.6-5.8-8.3
		c-1.2-1.6-2.6-3.2-3.8-4.9c-0.5-0.7-1.1-1.2-1.6-1.8c-1-1.2-1.9-2.4-3-3.4c-1.1-1.1-1.1-1.1-1.4-2.6c0-0.1,0-0.2-0.1-0.3
		c0.1-0.4,0.2-0.9,0.4-1.3c0.2-0.6,0.5-1.2,0.8-1.8c0.6-1.5,1-3,1-4.7c0-1,0-2-0.2-3c-0.2-0.9-0.3-1.7-0.5-2.6
		c-0.7-3.3-1.8-6.5-3.1-9.7c-1.2-3-2.5-6-3.9-9c-1.1-2.4-2.4-4.8-3.7-7.2c-0.5-1-1.1-2-1.7-2.9c-0.7-1.2-1.5-2.4-2.2-3.6
		c-0.8-1.3-0.8-2.7,0.1-4c0.5-0.7,1.1-1.3,1.6-1.9c0.8-0.9,1.8-1.5,2.7-2.2c2.2-1.8,4.8-3,7.4-4.1c0.8-0.3,1.6-0.5,2.4-1.1
		c-0.2-0.2-0.3-0.3-0.4-0.5c-0.3-0.3-0.6-0.5-1-0.7c-1.8-1.3-3.7-2.4-5.8-3.1c-0.6-0.2-1.3-0.4-2-0.6c-0.5-0.2-1.1-0.4-1.5-0.8
		c-1.3-1.2-1.4-3.2-0.8-4.2c0.5-0.9,1-1.7,1.6-2.6c0.6-0.9,1.3-1.7,2-2.6c1.4-1.7,2.9-3.2,4.6-4.6c0.2-0.2,0.5-0.4,0.7-0.7
		c0.3-0.2,0.5-0.4,0.9-0.7c-0.3-0.2-0.5-0.1-0.7-0.1c-1.7,0.4-3.4,0.8-5,1.4c-0.7,0.3-1.3,0.2-2,0c-1.2-0.3-1.9-1.1-2.5-2.1
		c-1-1.9-2.4-3.6-3.8-5.2c-1-1.1-2.3-1.9-3.5-2.8c-0.1-0.1-0.2-0.3-0.4-0.1c0.1,0.2,0.2,0.4,0.3,0.6c0.4,0.8,0.4,1.6,0.2,2.5
		c-0.4,1.4-1.6,2.4-3.1,2.5c-2.1,0-4.1,0-6.1-0.4c-1.9-0.4-3.7-1-5.5-1.7c-2-0.8-3.8-1.9-5.6-3.1c-0.4-0.3-0.7-0.6-1.1-0.9
		c-0.1,0.1-0.1,0.1-0.1,0.1c0.1,0.5,0.2,1.1,0.4,1.6c0.2,0.6,0.2,1.3,0.3,1.9c0.1,1.7-1.8,3.6-3.5,3.5c-0.6,0-1.2-0.2-1.8-0.3
		c-2.3-0.7-4.6-1.3-7-1.4c-0.1,0-0.3,0-0.4,0c-0.7-0.3-1.4-0.2-2-0.2c-1.5,0-2.9,0-4.4,0c-1.3,0-2.5,0.2-3.7,0.3
		c-1.5,0.2-2.9,0.4-4.4,0.8c-1,0.3-1.9,0.1-2.8-0.5c-1.1-0.8-2.1-1.8-2.9-2.9c-0.1-0.1-0.2-0.3-0.4-0.2c0,0.1,0,0.3,0,0.5
		c0.1,1.4-0.6,2.4-1.8,3.2c-1.3,0.8-2.9,0.6-3.9-0.3c-1.5-1.3-3.3-2.1-5.2-2.7c-0.7-0.2-1.4-0.1-1.9,0.1c0.3,0.4,0.6,0.8,0.8,1.2
		c0.6,1,0.7,2,0.7,3.1c-0.1,1.1-0.3,2.1-0.9,3.1c-0.8,1.2-1.8,2.1-3.1,2.8c-2.3,1.2-4.7,1.6-7.2,1.7c-1.2,0.1-2.5,0-3.8,0
		c-0.3,0-0.6,0-0.8-0.1c-0.5-0.1-1-0.1-1.4-0.2c-0.3,0-0.6,0-1-0.1c-0.9-0.1-1.8-0.3-2.7-0.4c-1.1-0.1-2.2,0-3.3,0
		c-0.1,0-0.2,0.1-0.4,0.1c0,0.1,0,0.3,0,0.4c0.3,0.5,0.5,1,0.6,1.6c0.4,1.3,0.4,2.6-0.2,3.9c-0.3,0.8-0.8,1.6-1.5,2.2
		c-1.5,1.6-3.4,2.6-5.4,3.4c-0.8,0.3-1.7,0.6-2.5,0.9c-1.9,0.7-3.6,1.8-5,3.1c-1.4,1.2-2.7,2.5-3.8,4c-1.2,1.5-2.2,3.2-3.1,4.9
		c-0.9,1.6-1.4,3.2-2,4.9c-0.1,0.5-0.2,0.9-0.3,1.4c-0.1,0.7-0.2,1.4-0.3,2.1c0,0.2-0.1,0.5-0.3,0.7c-0.3,0.5-0.6,1-1,1.3
		c-1.2,1.2-2.1,2.7-2.8,4.2c-0.9,1.9-1.6,3.9-2.1,6c-0.6,2.5-1.2,4.9-1.3,7.5c0,0.2-0.1,0.3-0.1,0.5c-0.1,0.4-0.1,0.8-0.1,1.2
		c0.1,3.3-0.3,6.7,0.2,10c0.1,1,0.1,2,0.3,3c0.3,1.8,0.7,3.6,1.1,5.3c0.5,1.9,1.1,3.9,1.7,5.8c0.7,1.9,1.4,3.7,2.2,5.5
		c0.9,2,2,3.8,3.1,5.7c0.9,1.6,1.9,3.2,2.8,4.8c1.2,2.2,2.3,4.5,3.4,6.8c0.4,0.8,0.7,1.6,1,2.4c0.5,1.4,1,2.8,1.6,4.2
		c0.7,1.6,1.1,3.4,1.6,5.1c0.5,1.9,1,3.9,1.4,5.9c0.2,1.2,0.4,2.4,0.5,3.6c0.1,1,0.2,2,0.3,3c0,0,0,0.1,0.1,0.2
		c0.3-0.1,0.7-0.2,1-0.3c2.1-0.6,4.4,1.2,4.4,3.2c0,1,0,2,0,3c0,0.2,0,0.5-0.1,0.7c-0.1,0.5-0.1,1-0.2,1.4c0,0.6,0.1,1.3-0.1,1.9
		c-0.2,0.9-0.2,1.8-0.2,2.6c0,0.2,0,0.5-0.1,0.7c-0.2,0.5-0.2,1.1-0.2,1.7c0,0.3,0.1,0.7,0,1c-0.4,1.2-0.1,2.5-0.4,3.7
		c-0.2,1.1-0.2,2.2-0.3,3.4c-0.1,1.6-1.2,3-2.8,3.4c-0.4,0.1-0.9,0.2-1.3,0.3c-1.4,2-2.8,3.9-4.1,5.9c-1.8,2.5-3.5,5.1-5.3,7.7
		c-0.2,0.3-0.4,0.6-0.6,0.9c-0.2,0.3-0.4,0.5-0.3,1c0.2,0.1,0.4,0.3,0.6,0.5c0.6,0.4,1.2,0.7,1.7,1.1c2.5,1.8,5.1,3.6,7.6,5.3
		c1.8,1.3,3.7,2.6,5.5,3.9c2.4,1.6,4.8,3.3,7.2,4.9c1.6,1.1,3.2,2.2,4.8,3.3c2.8,1.9,5.5,3.9,8.3,5.8c1.4,1,2.9,1.9,4.3,2.9
		c2.1,1.5,4.3,3,6.4,4.5c2,1.4,4.1,2.9,6.1,4.3c2.2,1.5,4.3,3,6.5,4.5c2.1,1.4,4.1,2.9,6.1,4.3c2.1,1.5,4.3,3,6.5,4.5
		c2.1,1.4,4.1,2.9,6.1,4.3c1.6,1.1,3.3,2.2,4.9,3.3c0.4,0.3,0.8,0.6,1.2,0.9c0.5,0.3,0.9,0.7,1.5,0.8c1.1-1,1.7-2.4,2.6-3.6
		c0.9-1.2,1.8-2.5,2.6-3.8c0.8-1.2,1.7-2.4,2.5-3.7c0.9-1.3,1.8-2.4,2.6-3.8c-0.1-0.1-0.2-0.3-0.4-0.4c-1.6-1.2-3.3-2.3-4.9-3.5
		c-10-6.7-19.9-13.4-29.9-20c-6.9-4.6-13.7-9.2-20.6-13.7c-4.3-2.9-8.6-5.8-13-8.7c-0.3-0.2-0.5-0.4-0.8-0.6
		c0.2-0.3,0.3-0.6,0.4-0.8c0.3-0.4,0.6-0.8,0.9-1.3c0.7-1,1.3-2,2-3C181.4,306.4,181.6,306.2,181.9,305.9 M250.5,129.4
		c-0.1-0.2-0.2-0.5-0.3-0.6c-1.1-1.5-1-3.5,0.3-4.8c0.2-0.3,0.5-0.6,0.7-0.8c0.7-0.3,1.3-0.4,2-0.3c0.2,0,0.4,0,0.6,0
		c2-0.1,4,0.3,5.9,1c1,0.3,2,0.6,3,1.1c1,0.4,1.9,1,2.9,1.6c2.1,1.3,4.1,2.9,5.7,4.8c0.8,0.9,1.5,1.9,2.2,2.8
		c0.2,0.3,0.4,0.6,0.6,0.8c0.6,0.1,1.1-0.2,1.7-0.3c1.8-0.3,3.5-0.8,5.3-1.1c1.7-0.3,5.2-0.4,6.9-0.3c2.1,0.2,4.2,0.7,6,1.9
		c0.9,0.6,1.4,1.4,1.5,2.5c0,0.1,0,0.2,0,0.4c0.1,1.6-0.7,2.7-2.1,3.4c-0.2,0.1-0.4,0.2-0.7,0.3c-1.8,0.5-3.3,1.5-4.9,2.4
		c-1.1,0.7-2.2,1.4-3.3,2.2c-0.8,0.6-1.5,1.2-2.2,1.8c-0.5,0.4-0.9,0.8-1.4,1.2c-0.2,0.2-0.4,0.4-0.6,0.6c-0.6,0.7-1.1,1.4-1.8,2.1
		c0.1,0.1,0.3,0.3,0.4,0.4c1.7,0.8,3.2,1.8,4.7,2.8c0.8,0.6,1.6,1.1,2.3,1.8c0.5,0.5,1,0.8,1.5,1.2c0.4,0.3,2.9,3.3,3.2,3.8
		c0.5,0.8,0.8,1.6,0.8,2.5c0,1.3-0.9,2.6-2.2,3.1c-0.7,0.3-1.5,0.4-2.2,0.6c-1.9,0.5-3.7,1.1-5.5,1.9c-1.5,0.6-2.9,1.3-4.3,2.2
		c-0.8,0.5-1.5,1.1-2.3,1.6c-0.2,0.1-0.3,0.3-0.5,0.5c0.4,0.6,0.7,1.3,1.1,1.9c0.5,0.8,1,1.6,1.4,2.4c1.2,2.2,2.4,4.4,3.4,6.7
		c1.3,2.6,2.5,5.2,3.5,7.9c1.1,2.7,2.1,5.5,3.1,8.3c0.6,1.9,1.2,3.8,1.6,5.8c0.3,1.7,0.7,3.5,0.6,5.3c0,0.6,0,1.1,0,1.7
		c0.1,2-0.3,3.8-0.9,5.7c-0.1,0.3-0.2,0.6-0.3,1c0.3,0.4,0.6,0.9,1,1.3c0.6,0.8,1.3,1.5,2,2.3c0.8,1,1.6,1.9,2.3,2.9
		c1.4,1.9,2.9,3.8,4.3,5.7c1.5,2,2.9,4,4.2,6.2c0.9,1.6,1.9,3.2,2.7,4.8c0.7,1.5,1.5,3,1.7,4.6c0.5,2.9,0,5.6-2.1,7.8
		c-1.3,1.4-2.9,2.2-4.6,2.9c-1.2,0.5-2.4,0.8-3.5,1.2c-0.2,0.1-0.4,0.2-0.6,0.3c-0.1,0.5,0.1,0.8,0.3,1.2c0.4,0.9,0.8,1.8,1.2,2.8
		c0.4,0.8,0.7,1.5,1.1,2.3c0.3,0.6,0.4,1.2,0.6,1.8c0.1,0.4,0,0.8-0.1,1.2c-0.4,1.3-1.2,2.5-2.1,3.5c-0.3,0.3-0.5,0.6-0.8,0.9
		c0.4,0.9,0.9,1.7,1.3,2.5c0.3,0.7,0.5,1.4,0.5,2.1c0.1,1.4-0.5,2.6-1.4,3.6c-0.3,0.4-0.7,0.7-1,1c-0.2,0.3-0.4,0.6-0.6,0.9
		c-0.3,0.5-0.4,1.1-0.2,1.7c0.2,0.8,0.5,1.5,0.8,2.3c1,2.1,1.7,4.3,2.2,6.6c0.2,1.1,0.3,2.2,0.5,3.3c0.3,1.6,0.2,3.1,0.2,4.7
		c-0.1,2.6-0.8,5-2.4,7.2c-1.2,1.6-2.8,2.6-4.6,3.4c-1.6,0.7-3.2,1-4.9,1.3c-0.8,0.1-1.5,0.2-2.3,0.2c-0.1,0-0.3,0-0.4,0
		c-1.1,0.3-2.2,0.2-3.2,0.2c-6.5,0-13.1,0-19.6,0c-1.8,0-3.4,0.4-5,1.2c-1.9,0.9-3.3,2.3-4.3,4.1c-1.1,1.9-1.7,4-2.1,6.1
		c-0.2,0.9-0.4,1.8-0.3,2.8c0,0.3-0.1,0.6-0.1,0.8c0,0.2-0.1,0.3-0.1,0.5c0.1,1.5-0.3,3-0.3,4.5c0,0.5,0,1-0.2,1.6
		c-0.1,0.3-0.1,0.6-0.1,0.8c0,0.8,0,1.5-0.2,2.3c-0.1,0.3,0,0.6,0,1c0,0.6,0.1,1.2-0.2,1.8c0,0,0,0.1,0,0.1c0,1.1-0.2,2.2-0.3,3.2
		c-0.1,0.8,0,1.6-0.2,2.4c-0.1,0.2,0,0.5,0,0.7c0.7,0.5,1.4,1.1,2.2,1.6c1.7,1.2,3.4,2.4,5.2,3.5c1.6,1.1,2,3.2,1.2,4.7
		c-0.7,1.2-1.5,2.3-2.2,3.4c-0.7,1.1-1.5,2.2-2.3,3.2c-1.8,2.5-3.5,5.1-5.3,7.7c-1.3,1.9-2.6,3.7-3.9,5.5c-0.4,0.6-0.9,1.2-1.4,2
		c0,0-0.1,0.1-0.2,0.1c-0.7,0.6-1.6,0.8-2.6,0.8c-0.8,0-1.5-0.3-2.1-0.7c-1.6-1.1-3.2-2.3-4.8-3.4c-2.5-1.8-5-3.5-7.5-5.3
		c-1.5-1-2.9-2-4.4-3c-2.7-1.9-5.5-3.8-8.2-5.7c-1.6-1.1-3.2-2.2-4.8-3.3c-2.6-1.8-5.1-3.6-7.7-5.4c-0.3-0.2-0.7-0.4-1-0.7
		c-2.6-1.8-5.2-3.6-7.9-5.4c-1.8-1.2-3.5-2.5-5.2-3.7c-2.2-1.5-4.4-3-6.6-4.5c-2.1-1.4-4.1-2.9-6.1-4.3c-2.2-1.5-4.3-3-6.5-4.5
		c-2-1.4-4-2.8-6-4.2c-2.2-1.5-4.4-3-6.6-4.5c-2-1.4-4-2.8-6-4.2c-0.7-0.5-1.3-0.9-2-1.4c-1.2-1-1.7-3-1-4.1c0.3-0.6,0.7-1.2,1-1.8
		c1.1-1.7,2.3-3.3,3.5-4.9c1.6-2.3,3.2-4.5,4.8-6.8c0.9-1.2,1.7-2.5,2.5-3.7c1-1.4,1.9-2.9,2.9-4.3c0.4-0.5,0.9-0.9,1.3-1.4
		c0.2-1,0.4-2.1,0.3-3.2c0.4-1.3,0.1-2.6,0.4-3.9c0.2-0.9,0.1-1.9,0-2.9c-0.6,0-1.2,0.1-1.7,0.1c-1.5,0-2.8-0.9-3.2-2.4
		c-0.1-0.3-0.2-0.7-0.2-0.9c0.1-0.8,0.1-1.4,0.1-2c0-0.8,0-1.6,0-2.4c0-0.5-0.1-1-0.2-1.4c0-0.1-0.1-0.2-0.1-0.4
		c-0.1-3-0.8-6-1.5-8.9c-0.8-3.3-2-6.6-3.3-9.7c-0.4-1.1-1-2.1-1.5-3.2c-0.3-0.6-0.5-1.3-0.8-1.9c-1.3-2.4-2.5-4.8-4-7.1
		c-0.9-1.4-1.6-2.8-2.4-4.2c-0.8-1.3-1.4-2.7-2-4.1c-0.7-1.6-1.4-3.3-2-4.9c-0.9-2.4-1.6-4.8-2.1-7.3c-0.3-1.6-0.8-3.2-0.9-4.9
		c-0.1-0.8-0.3-1.6-0.4-2.4c0-0.3,0-0.6-0.1-1c0-0.5-0.1-1-0.2-1.4c0-0.3-0.1-0.6-0.1-1c0-2.9,0-5.9,0-8.8c0-0.4,0.1-0.9,0.2-1.3
		c0-0.2,0.1-0.3,0.1-0.5c0.3-4.7,1.4-9.2,3-13.6c0.8-2.3,1.9-4.4,3.3-6.4c0.4-0.7,0.9-1.3,1.5-2c0.3-2.2,0.9-4.3,1.8-6.4
		c1.1-2.7,2.5-5.1,4.1-7.5c0.5-0.7,1.1-1.3,1.6-2c0.8-1.1,1.8-2,2.8-3c2.4-2.4,5.1-4.1,8.2-5.5c1-0.4,2-0.7,3.1-1.1
		c0.3-0.1,0.6-0.3,0.8-0.5c0.1,0,0.2,0,0.3-0.1c-0.2-0.2-0.2,0-0.3,0.1c-0.7,0-1.4,0-2.1-0.3c-1.3-0.5-2.2-1.7-2.2-3.2
		c-0.1-1.5,0.5-2.6,1.7-3.4c0.5-0.3,0.9-0.7,1.3-1c1.8-1.4,3.7-2.4,5.9-3c1-0.3,1.9-0.5,3-0.6c0.9-0.1,1.8-0.3,2.8-0.2
		c0.4,0,0.8,0.1,1.2,0.1c0.2,0,0.4,0.1,0.6,0.1c1.1-0.1,2.1,0.3,3.2,0.3c2.3,0.5,4.7,0.1,7,0.2c0.1,0,0.2-0.1,0.3-0.1
		c0-0.3-0.3-0.3-0.5-0.3c-0.8,0-1.5,0-2.3,0c-0.6,0-1.2-0.1-1.8-0.3c-1.3-0.4-1.9-1.4-2.2-2.6c-0.3-1,0.1-2,0.7-2.8
		c0.6-0.7,1.2-1.3,2-1.8c1.8-1.3,3.7-2.2,5.8-3c1.1-0.4,2.2-0.7,3.4-0.8c0.8-0.1,1.7-0.2,2.5-0.3c2.6-0.1,5.1,0.5,7.5,1.4
		c0.1,0.1,0.3,0.1,0.5,0.2c0.1-0.2,0.3-0.4,0.4-0.6c0.7-1.2,1.4-2.4,2.1-3.5c0.4-0.6,0.9-1.1,1.6-1.5c2-1,4.2,0,4.9,1.9
		c0.5,1.2,1,2.3,1.7,3.3c0.4,0.6,0.7,1.2,1.4,1.7c2-0.2,4-0.8,6.1-0.7c2-0.4,4-0.3,6-0.2c2,0.1,4.1,0.4,6.2,0.6
		c0-0.2,0.2-0.3,0.1-0.5c-0.3-1.7-0.5-3.5-0.5-5.3c0-0.9,0-1.9,0-2.8c-0.1-1.1,0.2-2.2,0.9-3c0.8-0.7,1.6-1,2.7-1c1,0,1.8,0.4,2.5,1
		c1,1.3,1.9,2.7,3,4c0.5,0.6,1,1.2,1.5,1.7c1.9,1.8,4,3.3,6.4,4.4C249.8,129.3,250.2,129.3,250.5,129.4
		C250.5,129.4,250.6,129.4,250.5,129.4C250.6,129.4,250.5,129.4,250.5,129.4"/>
	<path class="st0" d="M347,239.4c-0.3,0.1-0.5,0.2-0.7,0.2c-0.6,0.1-1,0.4-1.5,0.8c-0.7,0.7-1.1,1.4-1.1,2.4c0,12.5,0,25,0,37.5
		c0,0.5,0.1,1-0.1,1.5c-0.2,0-0.3,0.1-0.5,0.1c-2,0-4,0-6.1,0c-0.1,0-0.2,0-0.4-0.1c-0.1-0.2-0.1-0.4-0.2-0.7c0-0.3,0-0.6,0-0.8
		c0-12.5,0-24.9,0-37.4c0-0.6,0-1.3,0.2-1.9c0.1-0.3,0.1-0.6,0.1-1c0-6.5,0-12.9,0-19.4c0-1.6-0.7-2.7-2.1-3.4
		c-2.1-1-4.7,0.5-4.7,2.9c0,0.4,0,0.7,0,1.1c0,18.1,0,36.3,0,54.4c0,0.5,0.1,1-0.1,1.6c-0.6,0.2-1.2,0.1-1.8,0.1c-0.6,0-1.1,0-1.7,0
		c-0.6,0-1.2,0-1.8,0c-0.6,0-1.1,0.1-1.7-0.1c0-0.3-0.1-0.5-0.1-0.7c0-0.4,0-0.7,0-1.1c0-20.8,0-41.6,0-62.4c0-0.4,0-0.7,0-1.1
		c-0.1-1.3-0.9-2.8-2.5-3.2c-0.3-0.1-0.6-0.1-1-0.2c-0.1,0-0.3,0.1-0.5,0.1c-1.8,0.4-2.9,1.8-3,3.6c0,0.3,0,0.6,0,1
		c0,20.6,0,41.2,0,61.8c0,0.5,0.1,1-0.1,1.6c-0.1,0.1-0.3,0.1-0.4,0.1c-2,0-4,0-6.1,0c-0.1,0-0.1,0-0.3-0.1c0-0.2-0.1-0.4-0.2-0.6
		c0-0.4,0-0.7,0-1.1c0-16.7,0-33.3,0-50c0-0.9-0.1-1.7-0.5-2.5c-0.9-1.8-3-2.4-4.7-1.4c-0.7,0.4-1.1,0.9-1.4,1.6
		c-0.2,0.5-0.4,1.1-0.5,1.7c-1.1,0.2-2.2,0.1-3.3,0.1c-1.1,0-2.2,0.1-3.4-0.1c-0.2-0.7-0.2-1.5-0.1-2.2c0.2-1.5,1-2.8,1.7-4.1
		c0.7-0.6,1-1.5,1.9-2c0.5-0.3,1-0.8,1.6-1.1c1.5-0.9,3.2-1.4,4.9-1.4c1.2,0,2.3,0,3.5,0.4c0.1,0,0.2,0,0.4,0c0-0.3,0.1-0.6,0.1-0.8
		c0-0.5,0-1,0-1.5c0-2.7,1.1-4.9,2.9-6.8c0.8-0.9,1.8-1.6,2.9-2.2c1.9-1,4-1.4,6.1-1.1c1.9,0.2,3.6,0.9,5.2,2.1
		c2,1.5,3.3,3.5,3.9,5.9c0.1,0.3,0.2,0.5,0.3,0.8c0.9-0.2,1.7-0.4,2.5-0.5c0.5-0.1,1.1-0.1,1.6-0.1c2,0.2,3.9,0.7,5.5,1.9
		c2.2,1.7,3.8,3.8,4.3,6.5c0.2,1,0.3,2.1,0.3,3.1c0,3.4,0,6.7,0,10.1c0,0.4,0,0.8,0,1.2c0.4,0,0.7,0,1-0.1c1-0.3,2-0.2,3-0.2
		c0.7,0,1.4,0.2,2,0.4c1.6,0.5,3.1,1.2,4.3,2.4c1.4,1.3,2.4,2.9,2.9,4.8c0.3,1.3,0.5,2.7,0.5,4.1c0,11.1,0,22.1,0,33.2
		c0,1.7,0.4,3.3,1,4.8c0.9,2.7,2.2,5.2,3,7.9c0.7,2.1,1.2,4.2,1.6,6.3c0.3,1.5,0.6,3,0.7,4.5c0.1,1,0.3,2.1,0.4,3.1
		c0,0.4,0,0.8,0.1,1.2c0,0.8-0.1,1.7,0.2,2.5c0.1,0.3,0,0.6,0,0.8c0,2.3,0,4.7,0,7c0,0.4-0.1,0.9-0.1,1.3c0,0.2-0.1,0.3-0.1,0.5
		c0.1,1.2-0.2,2.4-0.3,3.6c0,0.6-0.2,1.2-0.3,1.8c-0.5,3-1.2,5.9-2.2,8.8c-0.7,1.9-1.5,3.8-2.3,5.7c-1.2,2.7-2.6,5.2-3.8,7.8
		c-0.9,1.9-1.7,3.9-2.2,6c-0.3,1.4-0.7,2.8-0.6,4.3c0,0.3,0,0.6-0.1,1c-0.2,0.1-0.3,0.2-0.5,0.2c-2.1,0-4.2,0-6.3,0
		c-0.1,0-0.2,0-0.3-0.1c-0.3-0.4-0.2-0.8-0.1-1.2c0.1-0.4,0.2-0.8,0.1-1.2c0-1.3,0.2-2.5,0.5-3.7c0.5-2.3,1.3-4.6,2.2-6.8
		c1-2.3,2.2-4.5,3.3-6.7c1.5-3.1,2.8-6.2,3.8-9.5c0.6-2.1,1.1-4.2,1.4-6.4c0.3-2.1,0.5-4.2,0.5-6.4c0-2.3,0-4.6,0-6.9
		c0-0.7,0.1-1.4-0.2-2c-0.1-0.1-0.1-0.3,0-0.5c0.1-1.1-0.2-2.2-0.3-3.4c-0.1-1.5-0.5-3-0.8-4.5c-0.4-2.1-1-4.2-1.8-6.3
		c-0.6-1.5-1.2-2.9-1.7-4.4c-0.7-1.8-1.4-3.6-1.8-5.5c-0.2-1.1-0.4-2.2-0.4-3.3c0-11.4,0-22.8,0-34.2c0-0.8-0.2-1.5-0.5-2.2
		c-0.4-0.9-1.1-1.3-2-1.6C347.7,239.5,347.4,239.5,347,239.4"/>
	<path class="st0" d="M306.4,355.4c0.1,0.3,0,0.6-0.4,0.8c-0.2,0-0.6,0-0.9,0.1c-1.1,0-2.2,0-3.3,0.2c-0.8,0.1-1.7,0.1-2.5,0
		c-0.1-0.2-0.1-0.4-0.1-0.5c-0.1-2.2-0.5-4.5-1-6.7c-0.2-1-0.6-2.1-1-3c0,0,0-0.1,0-0.1c-0.1-0.3-0.3-0.6-0.4-0.9
		c-0.6-1.4-1.4-2.8-2.4-4c-0.9-1.1-1.9-2.1-3-2.9c-0.5-0.4-1-0.8-1.6-1.1c-1.8-0.9-3.6-1.7-5.5-2.1c-0.8-0.2-1.6-0.3-2.3-0.4
		c-0.5-0.1-1-0.2-1.5-0.2h-0.1c-4.8-0.8-9.7-0.8-13.6-0.7c-0.7,0-1.4,0-2.1,0.1c0,0-2.6,0.1-3.6,0.1c-0.8,0-1.7,0-2.6,0
		c-4.5,0-5.5-0.3-5.5-0.3c-0.9-0.3-1.4-1-1.8-1.9c-0.1-0.3-0.1-0.5-0.2-0.8c-0.1-0.4-0.1-0.7-0.2-1.1c0-0.4,0.1-0.8,0.2-1.3
		c0-1.8,0.5-3.4,1.2-5c0.6-1.2,1.3-2.4,2.3-3.3c1-1,2.2-1.7,3.6-2.2c1.1-0.4,2.2-0.7,3.4-0.8c0.3-0.1,0.6,0,0.8,0
		c6.1,0,12.2,0,18.3,0c0.3,0,0.6,0,1,0.1c0.1,0.2,0.1,0.3,0.1,0.5c0.1,1.8,0,5.4-0.1,6.3c-0.2,0.1-0.4,0.1-0.7,0.1
		c-0.5,0-0.9,0-1.4,0v0H265c-0.5,0-1,0-1.6,0H263c-0.6,0-1.3,0.1-1.9,0.3c-1,0.3-1.8,0.9-2.2,1.9c0.3,0.3,0.7,0.2,0.9,0.2h11.5
		c0.6,0,1.1,0,1.7,0.2c0.4,0.1,0.9,0.1,1.3,0.1c0.7,0,1.4,0,2.2,0.2c0.6,0.1,1.2,0.1,1.8,0.1c0.7,0,1.4-0.1,2,0.2c0.1,0,0.3,0,0.4,0
		c3.2,0.1,6.2,0.9,9.2,1.9c2.2,0.7,4.2,1.9,6.1,3.2c1.4,1,2.6,2.2,3.7,3.5c1.1,1.3,2,2.7,2.8,4.2c1.3,2.6,2.3,5.3,2.9,8.2
		c0.3,1.2,0.3,2.5,0.6,3.7C306.3,353.2,306.1,354.3,306.4,355.4z"/>
	<path class="st0" d="M164,151c0.1-0.1,0.1-0.3,0.3-0.1C164.2,150.9,164.1,150.9,164,151z"/>
	<path class="st0" d="M250.5,129.4C250.5,129.4,250.6,129.4,250.5,129.4C250.6,129.4,250.5,129.4,250.5,129.4z"/>
	<path class="st0" d="M208.2,227.1c-0.1-0.9-0.1-1.7-0.3-2.5c-0.4-1.8-1.1-3.4-2.2-4.9c-0.7-1.1-1.6-2-2.7-2.7
		c-1.8-1.2-3.7-2.1-5.9-2.3c-0.2,0-0.4-0.1-0.6-0.1c-0.4,0-0.9-0.2-1.3-0.1c-1.2,0.2-2.5,0.2-3.7,0.7c-1.1,0.4-2.1,1-3.1,1.6
		c-0.6,0.4-1.1,1-1.6,1.4c-1.4,1.2-2.3,2.8-3,4.5c-0.2,0.5-0.4,1.1-0.5,1.6c-0.2,1-0.4,2-0.4,3.1c0,3.3,0,6.6,0,9.9
		c0.1,2.9,0.9,5.5,2.7,7.9c1.9,2.4,4.3,3.8,7.2,4.6c0.7,0.2,1.3,0.3,2,0.3c0.2,0,0.5,0,0.8,0.1c0.1,0.2,0.2,0.4,0.2,0.5
		c0,2,0,4,0,6.1c0,0.2-0.1,0.3-0.1,0.5c-0.4,0.2-0.8,0.2-1.2,0.1c-0.3-0.1-0.6-0.2-0.9-0.1c-1.1,0-2.1-0.3-3.1-0.5
		c-1.1-0.3-2.2-0.6-3.2-1.2c-1.4-0.7-2.8-1.4-4-2.5c-0.4-0.3-0.8-0.6-1.2-1c-2.3-2.3-4.1-5-5.2-8.1c-0.4-1.1-0.6-2.2-0.8-3.3
		c-0.2-1-0.2-2-0.2-3c0-3.7,0-7.4,0-11.1c0-1.4,0.2-2.8,0.5-4.2c0.8-2.8,1.9-5.4,3.8-7.6c1.1-1.3,2.2-2.4,3.6-3.4
		c1.8-1.2,3.6-2.3,5.7-2.9c2.6-0.8,5.2-1.1,7.9-0.9c1.3,0.1,2.7,0.3,4,0.8c1.1,0.4,2.3,0.7,3.4,1.3c1.3,0.7,2.5,1.5,3.6,2.5
		c0.4,0.3,0.8,0.6,1.1,0.9c0.7,0.7,1.2,1.5,1.9,2.2c1.4,1.6,2.2,3.6,3,5.5c0.3,0.8,0.5,1.6,0.6,2.4c0.1,0.7,0.3,1.5,0.3,2.3
		c0,0.3,0.1,0.6,0.2,0.9c0.1,0.3,0,0.6-0.3,0.8c-0.1,0-0.2,0.1-0.4,0.1c-2,0-4,0-6.1,0C208.5,227.2,208.4,227.2,208.2,227.1"/>
	<path class="st0" d="M280.1,215.2c-1,2.2-2,4.2-2.9,6.3c-0.4-0.1-0.7-0.2-1-0.3c-1.6-0.6-3.3-1-5-1.2c-0.7-0.1-1.4-0.2-2-0.2
		c-0.3,0-0.6,0-1-0.1c-0.8-0.2-1.5-0.2-2.3,0c-0.3,0.1-0.6,0.1-0.8,0.1c-2,0-3.9,0.5-5.8,1c-2.4,0.6-4.5,1.7-6.7,2.8
		c-1,0.5-1.9,1-2.7,1.8c-0.3,0.3-0.7,0.4-1.1,0.7c-0.3-0.3-0.6-0.6-0.8-0.9c-1-1.3-1.9-2.6-2.9-3.9c-0.2-0.3-0.3-0.6-0.4-0.8
		c0.3-0.5,0.7-0.8,1.1-1c2.2-1.6,4.7-2.9,7.2-4c1.3-0.6,2.8-1.1,4.2-1.5c1.7-0.5,3.5-0.8,5.3-1.1c0.2,0,0.5,0,0.7,0
		c0.2,0,0.5,0,0.7,0c1.8-0.4,3.5-0.3,5.3-0.2c1.8,0.1,3.6,0.3,5.4,0.7c1.6,0.4,3.3,0.9,4.9,1.5C279.6,214.8,279.8,215,280.1,215.2"
		/>
	<path class="st0" d="M265.3,231.4c-3.3,0.1-5.8-2.6-5.8-5.6c0-3.2,2.5-5.8,5.7-5.8c2.9,0,5.8,2.4,5.7,5.7
		C271.2,228.6,268,231.7,265.3,231.4"/>
	<path class="st0" d="M265,324.4c-0.5,0-1,0-1.6,0v0H265z"/>
	<path class="st0" d="M297.2,346.3c-0.1-0.4-0.3-0.7-0.4-1.1c-0.6-1.4-1.4-2.8-2.4-4c-0.9-1.1-1.9-2.1-3-2.9c2.9,1.8,5,4.3,5.8,7.9
		C297.2,346.2,297.2,346.3,297.2,346.3z"/>
	<path class="st0" d="M181.9,305.9c2.2,1.2,4,2.7,5.9,3.9c2,1.3,3.9,2.6,5.8,3.9c1.9,1.3,3.8,2.6,5.7,3.8c1.9,1.3,3.9,2.6,5.8,3.9
		c1.9,1.3,3.9,2.6,5.8,3.9c1.9,1.3,3.9,2.6,5.8,3.9c1.9,1.3,3.9,2.6,5.8,3.9c1.9,1.3,3.8,2.6,5.7,3.8c1.9,1.3,3.9,2.6,5.8,3.9
		c1.9,1.3,3.8,2.6,5.8,3.9c0.4-0.6,0.5-1.1,0.5-1.7c0-0.5-0.1-1,0.1-1.4c0.2-0.6,0.2-1.3,0.2-1.9c0-0.3,0-0.6,0-0.8
		c0.3-0.8,0.2-1.7,0.2-2.5c0-0.2,0-0.5,0-0.7c0.2-0.7,0.2-1.4,0.2-2.2c0-0.3,0-0.7,0-1c0.2-0.8,0.2-1.5,0.2-2.3c0-0.3,0-0.6,0.1-1
		c0.1-0.8,0.3-1.7,0.4-2.5c0.2-1.1,0.3-2.1,0.6-3.2c0.5-2.2,1.4-4.3,2.5-6.3c0.7-1.2,1.5-2.4,2.5-3.4c1.6-1.6,3.4-2.9,5.6-3.8
		c2.2-0.9,4.5-1.5,6.9-1.5c0.3,0,0.7,0,1-0.1c0.5-0.2,1-0.1,1.6-0.1c6.5,0,12.9,0,19.4,0c1.2,0,2.5,0,3.7-0.3
		c1.2-0.2,2.3-0.6,3.3-1.2c0.4-0.3,0.8-0.6,1-1c0.8-1.2,0.8-2.5,0.8-3.8c0-0.7-0.1-1.4-0.1-2c0-1-0.2-2-0.4-3
		c-0.4-1.9-1.1-3.8-1.9-5.6c-0.9-2-1.5-4-1.4-6.2c0.1-2.2,0.8-4.1,2.3-5.7c0.2-0.2,0.3-0.4,0.4-0.5c0-0.2,0-0.3,0-0.3
		c-0.4-0.6-0.8-1.2-1.4-1.7c-1.4-1.3-1.4-4,0-5.2c0.6-0.6,1.2-1.2,1.8-1.8c0.3-0.3,0.7-0.7,0.7-1.2c-0.6-1.4-1.2-2.7-1.8-4
		c-0.9-1.9-1.1-3.9-1-5.9c0-0.2,0.1-0.5,0.1-0.7c0.3-1.4,1.3-2.2,2.4-2.9c1.2-0.8,2.6-1.3,4-1.7c0.6-0.2,1.3-0.3,1.8-0.6
		c0.9-0.4,1.9-0.6,2.5-1.3c0.6-1.1,0.6-1.1,0.2-2.3c-0.1-0.4-0.3-0.8-0.5-1.2c-0.8-1.8-1.9-3.6-3-5.3c-1.8-2.8-3.7-5.6-5.8-8.3
		c-1.2-1.6-2.6-3.2-3.8-4.9c-0.5-0.7-1.1-1.2-1.6-1.8c-1-1.2-1.9-2.4-3-3.4c-1.1-1.1-1.1-1.1-1.4-2.6c0-0.1,0-0.2-0.1-0.3
		c0.1-0.4,0.2-0.9,0.4-1.3c0.2-0.6,0.5-1.2,0.8-1.8c0.6-1.5,1-3,1-4.7c0-1,0-2-0.2-3c-0.2-0.9-0.3-1.7-0.5-2.6
		c-0.7-3.3-1.8-6.5-3.1-9.7c-1.2-3-2.5-6-3.9-9c-1.1-2.4-2.4-4.8-3.7-7.2c-0.5-1-1.1-2-1.7-2.9c-0.7-1.2-1.5-2.4-2.2-3.6
		c-0.8-1.3-0.8-2.7,0.1-4c0.5-0.7,1.1-1.3,1.6-1.9c0.8-0.9,1.8-1.5,2.7-2.2c2.2-1.8,4.8-3,7.4-4.1c0.8-0.3,1.6-0.5,2.4-1.1
		c-0.2-0.2-0.3-0.3-0.4-0.5c-0.3-0.3-0.6-0.5-1-0.7c-1.8-1.3-3.7-2.4-5.8-3.1c-0.6-0.2-1.3-0.4-2-0.6c-0.5-0.2-1.1-0.4-1.5-0.8
		c-1.3-1.2-1.4-3.2-0.8-4.2c0.5-0.9,1-1.7,1.6-2.6c0.6-0.9,1.3-1.7,2-2.6c1.4-1.7,2.9-3.2,4.6-4.6c0.2-0.2,0.5-0.4,0.7-0.7
		c0.3-0.2,0.5-0.4,0.9-0.7c-0.3-0.2-0.5-0.1-0.7-0.1c-1.7,0.4-3.4,0.8-5,1.4c-0.7,0.3-1.3,0.2-2,0c-1.2-0.3-1.9-1.1-2.5-2.1
		c-1-1.9-2.4-3.6-3.8-5.2c-1-1.1-2.3-1.9-3.5-2.8c-0.1-0.1-0.2-0.3-0.4-0.1c0.1,0.2,0.2,0.4,0.3,0.6c0.4,0.8,0.4,1.6,0.2,2.5
		c-0.4,1.4-1.6,2.4-3.1,2.5c-2.1,0-4.1,0-6.1-0.4c-1.9-0.4-3.7-1-5.5-1.7c-2-0.8-3.8-1.9-5.6-3.1c-0.4-0.3-0.7-0.6-1.1-0.9
		c-0.1,0.1-0.1,0.1-0.1,0.1c0.1,0.5,0.2,1.1,0.4,1.6c0.2,0.6,0.2,1.3,0.3,1.9c0.1,1.7-1.8,3.6-3.5,3.5c-0.6,0-1.2-0.2-1.8-0.3
		c-2.3-0.7-4.6-1.3-7-1.4c-0.1,0-0.3,0-0.4,0c-0.7-0.3-1.4-0.2-2-0.2c-1.5,0-2.9,0-4.4,0c-1.3,0-2.5,0.2-3.7,0.3
		c-1.5,0.2-2.9,0.4-4.4,0.8c-1,0.3-1.9,0.1-2.8-0.5c-1.1-0.8-2.1-1.8-2.9-2.9c-0.1-0.1-0.2-0.3-0.4-0.2c0,0.1,0,0.3,0,0.5
		c0.1,1.4-0.6,2.4-1.8,3.2c-1.3,0.8-2.9,0.6-3.9-0.3c-1.5-1.3-3.3-2.1-5.2-2.7c-0.7-0.2-1.4-0.1-1.9,0.1c0.3,0.4,0.6,0.8,0.8,1.2
		c0.6,1,0.7,2,0.7,3.1c-0.1,1.1-0.3,2.1-0.9,3.1c-0.8,1.2-1.8,2.1-3.1,2.8c-2.3,1.2-4.7,1.6-7.2,1.7c-1.2,0.1-2.5,0-3.8,0
		c-0.3,0-0.6,0-0.8-0.1c-0.5-0.1-1-0.1-1.4-0.2c-0.3,0-0.6,0-1-0.1c-0.9-0.1-1.8-0.3-2.7-0.4c-1.1-0.1-2.2,0-3.3,0
		c-0.1,0-0.2,0.1-0.4,0.1c0,0.1,0,0.3,0,0.4c0.3,0.5,0.5,1,0.6,1.6c0.4,1.3,0.4,2.6-0.2,3.9c-0.3,0.8-0.8,1.6-1.5,2.2
		c-1.5,1.6-3.4,2.6-5.4,3.4c-0.8,0.3-1.7,0.6-2.5,0.9c-1.9,0.7-3.6,1.8-5,3.1c-1.4,1.2-2.7,2.5-3.8,4c-1.2,1.5-2.2,3.2-3.1,4.9
		c-0.9,1.6-1.4,3.2-2,4.9c-0.1,0.5-0.2,0.9-0.3,1.4c-0.1,0.7-0.2,1.4-0.3,2.1c0,0.2-0.1,0.5-0.3,0.7c-0.3,0.5-0.6,1-1,1.3
		c-1.2,1.2-2.1,2.7-2.8,4.2c-0.9,1.9-1.6,3.9-2.1,6c-0.6,2.5-1.2,4.9-1.3,7.5c0,0.2-0.1,0.3-0.1,0.5c-0.1,0.4-0.1,0.8-0.1,1.2
		c0.1,3.3-0.3,6.7,0.2,10c0.1,1,0.1,2,0.3,3c0.3,1.8,0.7,3.6,1.1,5.3c0.5,1.9,1.1,3.9,1.7,5.8c0.7,1.9,1.4,3.7,2.2,5.5
		c0.9,2,2,3.8,3.1,5.7c0.9,1.6,1.9,3.2,2.8,4.8c1.2,2.2,2.3,4.5,3.4,6.8c0.4,0.8,0.7,1.6,1,2.4c0.5,1.4,1,2.8,1.6,4.2
		c0.7,1.6,1.1,3.4,1.6,5.1c0.5,1.9,1,3.9,1.4,5.9c0.2,1.2,0.4,2.4,0.5,3.6c0.1,1,0.2,2,0.3,3c0,0,0,0.1,0.1,0.2
		c0.3-0.1,0.7-0.2,1-0.3c2.1-0.6,4.4,1.2,4.4,3.2c0,1,0,2,0,3c0,0.2,0,0.5-0.1,0.7c-0.1,0.5-0.1,1-0.2,1.4c0,0.6,0.1,1.3-0.1,1.9
		c-0.2,0.9-0.2,1.8-0.2,2.6c0,0.2,0,0.5-0.1,0.7c-0.2,0.5-0.2,1.1-0.2,1.7c0,0.3,0.1,0.7,0,1c-0.4,1.2-0.1,2.5-0.4,3.7
		c-0.2,1.1-0.2,2.2-0.3,3.4c-0.1,1.6-1.2,3-2.8,3.4c-0.4,0.1-0.9,0.2-1.3,0.3c-1.4,2-2.8,3.9-4.1,5.9c-1.8,2.5-3.5,5.1-5.3,7.7
		c-0.2,0.3-0.4,0.6-0.6,0.9c-0.2,0.3-0.4,0.5-0.3,1c0.2,0.1,0.4,0.3,0.6,0.5c0.6,0.4,1.2,0.7,1.7,1.1c2.5,1.8,5.1,3.6,7.6,5.3
		c1.8,1.3,3.7,2.6,5.5,3.9c2.4,1.6,4.8,3.3,7.2,4.9c1.6,1.1,3.2,2.2,4.8,3.3c2.8,1.9,5.5,3.9,8.3,5.8c1.4,1,2.9,1.9,4.3,2.9
		c2.1,1.5,4.3,3,6.4,4.5c2,1.4,4.1,2.9,6.1,4.3c2.2,1.5,4.3,3,6.5,4.5c2.1,1.4,4.1,2.9,6.1,4.3c2.1,1.5,4.3,3,6.5,4.5
		c2.1,1.4,4.1,2.9,6.1,4.3c1.6,1.1,3.3,2.2,4.9,3.3c0.4,0.3,0.8,0.6,1.2,0.9c0.5,0.3,0.9,0.7,1.5,0.8c1.1-1,1.7-2.4,2.6-3.6
		c0.9-1.2,1.8-2.5,2.6-3.8c0.8-1.2,1.7-2.4,2.5-3.7c0.9-1.3,1.8-2.4,2.6-3.8c-0.1-0.1-0.2-0.3-0.4-0.4c-1.6-1.2-3.3-2.3-4.9-3.5
		c-10-6.7-19.9-13.4-29.9-20c-6.9-4.6-13.7-9.2-20.6-13.7c-4.3-2.9-8.6-5.8-13-8.7c-0.3-0.2-0.5-0.4-0.8-0.6
		c0.2-0.3,0.3-0.6,0.4-0.8c0.3-0.4,0.6-0.8,0.9-1.3c0.7-1,1.3-2,2-3C181.4,306.4,181.6,306.2,181.9,305.9 M250.5,129.4
		c-0.1-0.2-0.2-0.5-0.3-0.6c-1.1-1.5-1-3.5,0.3-4.8c0.2-0.3,0.5-0.6,0.7-0.8c0.7-0.3,1.3-0.4,2-0.3c0.2,0,0.4,0,0.6,0
		c2-0.1,4,0.3,5.9,1c1,0.3,2,0.6,3,1.1c1,0.4,1.9,1,2.9,1.6c2.1,1.3,4.1,2.9,5.7,4.8c0.8,0.9,1.5,1.9,2.2,2.8
		c0.2,0.3,0.4,0.6,0.6,0.8c0.6,0.1,1.1-0.2,1.7-0.3c1.8-0.3,3.5-0.8,5.3-1.1c1.7-0.3,5.2-0.4,6.9-0.3c2.1,0.2,4.2,0.7,6,1.9
		c0.9,0.6,1.4,1.4,1.5,2.5c0,0.1,0,0.2,0,0.4c0.1,1.6-0.7,2.7-2.1,3.4c-0.2,0.1-0.4,0.2-0.7,0.3c-1.8,0.5-3.3,1.5-4.9,2.4
		c-1.1,0.7-2.2,1.4-3.3,2.2c-0.8,0.6-1.5,1.2-2.2,1.8c-0.5,0.4-0.9,0.8-1.4,1.2c-0.2,0.2-0.4,0.4-0.6,0.6c-0.6,0.7-1.1,1.4-1.8,2.1
		c0.1,0.1,0.3,0.3,0.4,0.4c1.7,0.8,3.2,1.8,4.7,2.8c0.8,0.6,1.6,1.1,2.3,1.8c0.5,0.5,1,0.8,1.5,1.2c0.4,0.3,2.9,3.3,3.2,3.8
		c0.5,0.8,0.8,1.6,0.8,2.5c0,1.3-0.9,2.6-2.2,3.1c-0.7,0.3-1.5,0.4-2.2,0.6c-1.9,0.5-3.7,1.1-5.5,1.9c-1.5,0.6-2.9,1.3-4.3,2.2
		c-0.8,0.5-1.5,1.1-2.3,1.6c-0.2,0.1-0.3,0.3-0.5,0.5c0.4,0.6,0.7,1.3,1.1,1.9c0.5,0.8,1,1.6,1.4,2.4c1.2,2.2,2.4,4.4,3.4,6.7
		c1.3,2.6,2.5,5.2,3.5,7.9c1.1,2.7,2.1,5.5,3.1,8.3c0.6,1.9,1.2,3.8,1.6,5.8c0.3,1.7,0.7,3.5,0.6,5.3c0,0.6,0,1.1,0,1.7
		c0.1,2-0.3,3.8-0.9,5.7c-0.1,0.3-0.2,0.6-0.3,1c0.3,0.4,0.6,0.9,1,1.3c0.6,0.8,1.3,1.5,2,2.3c0.8,1,1.6,1.9,2.3,2.9
		c1.4,1.9,2.9,3.8,4.3,5.7c1.5,2,2.9,4,4.2,6.2c0.9,1.6,1.9,3.2,2.7,4.8c0.7,1.5,1.5,3,1.7,4.6c0.5,2.9,0,5.6-2.1,7.8
		c-1.3,1.4-2.9,2.2-4.6,2.9c-1.2,0.5-2.4,0.8-3.5,1.2c-0.2,0.1-0.4,0.2-0.6,0.3c-0.1,0.5,0.1,0.8,0.3,1.2c0.4,0.9,0.8,1.8,1.2,2.8
		c0.4,0.8,0.7,1.5,1.1,2.3c0.3,0.6,0.4,1.2,0.6,1.8c0.1,0.4,0,0.8-0.1,1.2c-0.4,1.3-1.2,2.5-2.1,3.5c-0.3,0.3-0.5,0.6-0.8,0.9
		c0.4,0.9,0.9,1.7,1.3,2.5c0.3,0.7,0.5,1.4,0.5,2.1c0.1,1.4-0.5,2.6-1.4,3.6c-0.3,0.4-0.7,0.7-1,1c-0.2,0.3-0.4,0.6-0.6,0.9
		c-0.3,0.5-0.4,1.1-0.2,1.7c0.2,0.8,0.5,1.5,0.8,2.3c1,2.1,1.7,4.3,2.2,6.6c0.2,1.1,0.3,2.2,0.5,3.3c0.3,1.6,0.2,3.1,0.2,4.7
		c-0.1,2.6-0.8,5-2.4,7.2c-1.2,1.6-2.8,2.6-4.6,3.4c-1.6,0.7-3.2,1-4.9,1.3c-0.8,0.1-1.5,0.2-2.3,0.2c-0.1,0-0.3,0-0.4,0
		c-1.1,0.3-2.2,0.2-3.2,0.2c-6.5,0-13.1,0-19.6,0c-1.8,0-3.4,0.4-5,1.2c-1.9,0.9-3.3,2.3-4.3,4.1c-1.1,1.9-1.7,4-2.1,6.1
		c-0.2,0.9-0.4,1.8-0.3,2.8c0,0.3-0.1,0.6-0.1,0.8c0,0.2-0.1,0.3-0.1,0.5c0.1,1.5-0.3,3-0.3,4.5c0,0.5,0,1-0.2,1.6
		c-0.1,0.3-0.1,0.6-0.1,0.8c0,0.8,0,1.5-0.2,2.3c-0.1,0.3,0,0.6,0,1c0,0.6,0.1,1.2-0.2,1.8c0,0,0,0.1,0,0.1c0,1.1-0.2,2.2-0.3,3.2
		c-0.1,0.8,0,1.6-0.2,2.4c-0.1,0.2,0,0.5,0,0.7c0.7,0.5,1.4,1.1,2.2,1.6c1.7,1.2,3.4,2.4,5.2,3.5c1.6,1.1,2,3.2,1.2,4.7
		c-0.7,1.2-1.5,2.3-2.2,3.4c-0.7,1.1-1.5,2.2-2.3,3.2c-1.8,2.5-3.5,5.1-5.3,7.7c-1.3,1.9-2.6,3.7-3.9,5.5c-0.4,0.6-0.9,1.2-1.4,2
		c0,0-0.1,0.1-0.2,0.1c-0.7,0.6-1.6,0.8-2.6,0.8c-0.8,0-1.5-0.3-2.1-0.7c-1.6-1.1-3.2-2.3-4.8-3.4c-2.5-1.8-5-3.5-7.5-5.3
		c-1.5-1-2.9-2-4.4-3c-2.7-1.9-5.5-3.8-8.2-5.7c-1.6-1.1-3.2-2.2-4.8-3.3c-2.6-1.8-5.1-3.6-7.7-5.4c-0.3-0.2-0.7-0.4-1-0.7
		c-2.6-1.8-5.2-3.6-7.9-5.4c-1.8-1.2-3.5-2.5-5.2-3.7c-2.2-1.5-4.4-3-6.6-4.5c-2.1-1.4-4.1-2.9-6.1-4.3c-2.2-1.5-4.3-3-6.5-4.5
		c-2-1.4-4-2.8-6-4.2c-2.2-1.5-4.4-3-6.6-4.5c-2-1.4-4-2.8-6-4.2c-0.7-0.5-1.3-0.9-2-1.4c-1.2-1-1.7-3-1-4.1c0.3-0.6,0.7-1.2,1-1.8
		c1.1-1.7,2.3-3.3,3.5-4.9c1.6-2.3,3.2-4.5,4.8-6.8c0.9-1.2,1.7-2.5,2.5-3.7c1-1.4,1.9-2.9,2.9-4.3c0.4-0.5,0.9-0.9,1.3-1.4
		c0.2-1,0.4-2.1,0.3-3.2c0.4-1.3,0.1-2.6,0.4-3.9c0.2-0.9,0.1-1.9,0-2.9c-0.6,0-1.2,0.1-1.7,0.1c-1.5,0-2.8-0.9-3.2-2.4
		c-0.1-0.3-0.2-0.7-0.2-0.9c0.1-0.8,0.1-1.4,0.1-2c0-0.8,0-1.6,0-2.4c0-0.5-0.1-1-0.2-1.4c0-0.1-0.1-0.2-0.1-0.4
		c-0.1-3-0.8-6-1.5-8.9c-0.8-3.3-2-6.6-3.3-9.7c-0.4-1.1-1-2.1-1.5-3.2c-0.3-0.6-0.5-1.3-0.8-1.9c-1.3-2.4-2.5-4.8-4-7.1
		c-0.9-1.4-1.6-2.8-2.4-4.2c-0.8-1.3-1.4-2.7-2-4.1c-0.7-1.6-1.4-3.3-2-4.9c-0.9-2.4-1.6-4.8-2.1-7.3c-0.3-1.6-0.8-3.2-0.9-4.9
		c-0.1-0.8-0.3-1.6-0.4-2.4c0-0.3,0-0.6-0.1-1c0-0.5-0.1-1-0.2-1.4c0-0.3-0.1-0.6-0.1-1c0-2.9,0-5.9,0-8.8c0-0.4,0.1-0.9,0.2-1.3
		c0-0.2,0.1-0.3,0.1-0.5c0.3-4.7,1.4-9.2,3-13.6c0.8-2.3,1.9-4.4,3.3-6.4c0.4-0.7,0.9-1.3,1.5-2c0.3-2.2,0.9-4.3,1.8-6.4
		c1.1-2.7,2.5-5.1,4.1-7.5c0.5-0.7,1.1-1.3,1.6-2c0.8-1.1,1.8-2,2.8-3c2.4-2.4,5.1-4.1,8.2-5.5c1-0.4,2-0.7,3.1-1.1
		c0.3-0.1,0.6-0.3,0.8-0.5c0.1,0,0.2,0,0.3-0.1c-0.2-0.2-0.2,0-0.3,0.1c-0.7,0-1.4,0-2.1-0.3c-1.3-0.5-2.2-1.7-2.2-3.2
		c-0.1-1.5,0.5-2.6,1.7-3.4c0.5-0.3,0.9-0.7,1.3-1c1.8-1.4,3.7-2.4,5.9-3c1-0.3,1.9-0.5,3-0.6c0.9-0.1,1.8-0.3,2.8-0.2
		c0.4,0,0.8,0.1,1.2,0.1c0.2,0,0.4,0.1,0.6,0.1c1.1-0.1,2.1,0.3,3.2,0.3c2.3,0.5,4.7,0.1,7,0.2c0.1,0,0.2-0.1,0.3-0.1
		c0-0.3-0.3-0.3-0.5-0.3c-0.8,0-1.5,0-2.3,0c-0.6,0-1.2-0.1-1.8-0.3c-1.3-0.4-1.9-1.4-2.2-2.6c-0.3-1,0.1-2,0.7-2.8
		c0.6-0.7,1.2-1.3,2-1.8c1.8-1.3,3.7-2.2,5.8-3c1.1-0.4,2.2-0.7,3.4-0.8c0.8-0.1,1.7-0.2,2.5-0.3c2.6-0.1,5.1,0.5,7.5,1.4
		c0.1,0.1,0.3,0.1,0.5,0.2c0.1-0.2,0.3-0.4,0.4-0.6c0.7-1.2,1.4-2.4,2.1-3.5c0.4-0.6,0.9-1.1,1.6-1.5c2-1,4.2,0,4.9,1.9
		c0.5,1.2,1,2.3,1.7,3.3c0.4,0.6,0.7,1.2,1.4,1.7c2-0.2,4-0.8,6.1-0.7c2-0.4,4-0.3,6-0.2c2,0.1,4.1,0.4,6.2,0.6
		c0-0.2,0.2-0.3,0.1-0.5c-0.3-1.7-0.5-3.5-0.5-5.3c0-0.9,0-1.9,0-2.8c-0.1-1.1,0.2-2.2,0.9-3c0.8-0.7,1.6-1,2.7-1c1,0,1.8,0.4,2.5,1
		c1,1.3,1.9,2.7,3,4c0.5,0.6,1,1.2,1.5,1.7c1.9,1.8,4,3.3,6.4,4.4C249.8,129.3,250.2,129.3,250.5,129.4
		C250.5,129.4,250.6,129.4,250.5,129.4C250.6,129.4,250.5,129.4,250.5,129.4"/>
	<path class="st0" d="M347,239.4c-0.3,0.1-0.5,0.2-0.7,0.2c-0.6,0.1-1,0.4-1.5,0.8c-0.7,0.7-1.1,1.4-1.1,2.4c0,12.5,0,25,0,37.5
		c0,0.5,0.1,1-0.1,1.5c-0.2,0-0.3,0.1-0.5,0.1c-2,0-4,0-6.1,0c-0.1,0-0.2,0-0.4-0.1c-0.1-0.2-0.1-0.4-0.2-0.7c0-0.3,0-0.6,0-0.8
		c0-12.5,0-24.9,0-37.4c0-0.6,0-1.3,0.2-1.9c0.1-0.3,0.1-0.6,0.1-1c0-6.5,0-12.9,0-19.4c0-1.6-0.7-2.7-2.1-3.4
		c-2.1-1-4.7,0.5-4.7,2.9c0,0.4,0,0.7,0,1.1c0,18.1,0,36.3,0,54.4c0,0.5,0.1,1-0.1,1.6c-0.6,0.2-1.2,0.1-1.8,0.1c-0.6,0-1.1,0-1.7,0
		c-0.6,0-1.2,0-1.8,0c-0.6,0-1.1,0.1-1.7-0.1c0-0.3-0.1-0.5-0.1-0.7c0-0.4,0-0.7,0-1.1c0-20.8,0-41.6,0-62.4c0-0.4,0-0.7,0-1.1
		c-0.1-1.3-0.9-2.8-2.5-3.2c-0.3-0.1-0.6-0.1-1-0.2c-0.1,0-0.3,0.1-0.5,0.1c-1.8,0.4-2.9,1.8-3,3.6c0,0.3,0,0.6,0,1
		c0,20.6,0,41.2,0,61.8c0,0.5,0.1,1-0.1,1.6c-0.1,0.1-0.3,0.1-0.4,0.1c-2,0-4,0-6.1,0c-0.1,0-0.1,0-0.3-0.1c0-0.2-0.1-0.4-0.2-0.6
		c0-0.4,0-0.7,0-1.1c0-16.7,0-33.3,0-50c0-0.9-0.1-1.7-0.5-2.5c-0.9-1.8-3-2.4-4.7-1.4c-0.7,0.4-1.1,0.9-1.4,1.6
		c-0.2,0.5-0.4,1.1-0.5,1.7c-1.1,0.2-2.2,0.1-3.3,0.1c-1.1,0-2.2,0.1-3.4-0.1c-0.2-0.7-0.2-1.5-0.1-2.2c0.2-1.5,1-2.8,1.7-4.1
		c0.7-0.6,1-1.5,1.9-2c0.5-0.3,1-0.8,1.6-1.1c1.5-0.9,3.2-1.4,4.9-1.4c1.2,0,2.3,0,3.5,0.4c0.1,0,0.2,0,0.4,0c0-0.3,0.1-0.6,0.1-0.8
		c0-0.5,0-1,0-1.5c0-2.7,1.1-4.9,2.9-6.8c0.8-0.9,1.8-1.6,2.9-2.2c1.9-1,4-1.4,6.1-1.1c1.9,0.2,3.6,0.9,5.2,2.1
		c2,1.5,3.3,3.5,3.9,5.9c0.1,0.3,0.2,0.5,0.3,0.8c0.9-0.2,1.7-0.4,2.5-0.5c0.5-0.1,1.1-0.1,1.6-0.1c2,0.2,3.9,0.7,5.5,1.9
		c2.2,1.7,3.8,3.8,4.3,6.5c0.2,1,0.3,2.1,0.3,3.1c0,3.4,0,6.7,0,10.1c0,0.4,0,0.8,0,1.2c0.4,0,0.7,0,1-0.1c1-0.3,2-0.2,3-0.2
		c0.7,0,1.4,0.2,2,0.4c1.6,0.5,3.1,1.2,4.3,2.4c1.4,1.3,2.4,2.9,2.9,4.8c0.3,1.3,0.5,2.7,0.5,4.1c0,11.1,0,22.1,0,33.2
		c0,1.7,0.4,3.3,1,4.8c0.9,2.7,2.2,5.2,3,7.9c0.7,2.1,1.2,4.2,1.6,6.3c0.3,1.5,0.6,3,0.7,4.5c0.1,1,0.3,2.1,0.4,3.1
		c0,0.4,0,0.8,0.1,1.2c0,0.8-0.1,1.7,0.2,2.5c0.1,0.3,0,0.6,0,0.8c0,2.3,0,4.7,0,7c0,0.4-0.1,0.9-0.1,1.3c0,0.2-0.1,0.3-0.1,0.5
		c0.1,1.2-0.2,2.4-0.3,3.6c0,0.6-0.2,1.2-0.3,1.8c-0.5,3-1.2,5.9-2.2,8.8c-0.7,1.9-1.5,3.8-2.3,5.7c-1.2,2.7-2.6,5.2-3.8,7.8
		c-0.9,1.9-1.7,3.9-2.2,6c-0.3,1.4-0.7,2.8-0.6,4.3c0,0.3,0,0.6-0.1,1c-0.2,0.1-0.3,0.2-0.5,0.2c-2.1,0-4.2,0-6.3,0
		c-0.1,0-0.2,0-0.3-0.1c-0.3-0.4-0.2-0.8-0.1-1.2c0.1-0.4,0.2-0.8,0.1-1.2c0-1.3,0.2-2.5,0.5-3.7c0.5-2.3,1.3-4.6,2.2-6.8
		c1-2.3,2.2-4.5,3.3-6.7c1.5-3.1,2.8-6.2,3.8-9.5c0.6-2.1,1.1-4.2,1.4-6.4c0.3-2.1,0.5-4.2,0.5-6.4c0-2.3,0-4.6,0-6.9
		c0-0.7,0.1-1.4-0.2-2c-0.1-0.1-0.1-0.3,0-0.5c0.1-1.1-0.2-2.2-0.3-3.4c-0.1-1.5-0.5-3-0.8-4.5c-0.4-2.1-1-4.2-1.8-6.3
		c-0.6-1.5-1.2-2.9-1.7-4.4c-0.7-1.8-1.4-3.6-1.8-5.5c-0.2-1.1-0.4-2.2-0.4-3.3c0-11.4,0-22.8,0-34.2c0-0.8-0.2-1.5-0.5-2.2
		c-0.4-0.9-1.1-1.3-2-1.6C347.7,239.5,347.4,239.5,347,239.4"/>
	<path class="st0" d="M306.1,356.3c-0.2,0-0.6,0-1,0.1c-1.1,0-2.2,0-3.2,0.2c-0.8,0.2-1.7,0.1-2.5,0c-0.1-0.2-0.1-0.3-0.1-0.5
		c-0.1-2.3-0.5-4.5-1-6.7c-0.3-1.4-0.8-2.8-1.4-4.1c-0.6-1.5-1.4-2.8-2.4-4c-1.3-1.6-2.8-3-4.6-4c-1.7-0.9-3.6-1.7-5.5-2.1
		c-0.8-0.1-1.6-0.3-2.4-0.4c-1.1-0.2-2.2-0.1-3.2-0.3c-1.2-0.2-2.3-0.2-3.5-0.2c-0.1,0-0.2,0-0.4,0c-1.6-0.4-3.3-0.2-4.9-0.2
		c-0.6,0-1.3-0.1-1.9-0.2c-1.2-0.1-2.3,0-3.5,0c-0.5,0-1,0.1-1.4,0.1c-1.9,0-3.9,0-5.8,0c-0.7,0-1.4,0-2.2,0.2
		c-0.7,0.2-1.4-0.1-2.1-0.4c-0.9-0.4-1.5-1-1.8-1.9c-0.1-0.3-0.1-0.5-0.2-0.8c-0.1-0.4-0.1-0.7-0.2-1.1c0.1-0.4,0.1-0.9,0.2-1.3
		c0.1-1.8,0.5-3.4,1.3-5c0.6-1.3,1.3-2.4,2.3-3.3c1-1,2.2-1.7,3.6-2.2c1.1-0.4,2.2-0.6,3.4-0.8c0.3-0.1,0.6,0,0.8,0
		c6.1,0,12.2,0,18.3,0c0.3,0,0.6,0,1,0.1c0.1,0.2,0.1,0.3,0.1,0.5c0.1,1.8,0,5.5-0.1,6.3c-0.2,0-0.4,0.1-0.7,0.1c-1,0-1.9,0-2.9,0
		c-0.6,0-1.3,0-1.9,0.2c-0.3,0.1-0.6,0.1-1,0.1c-1.9,0-3.7,0-5.6,0c-0.6,0-1.3,0.1-1.9-0.2c-0.2-0.1-0.4,0-0.6,0c-1.4,0-2.7,0-4.1,0
		c-0.6,0-1.3,0.1-1.9,0.3c-1,0.3-1.8,0.9-2.2,1.9c0.3,0.3,0.6,0.2,0.9,0.2c3.8,0,7.7,0,11.5,0c0.6,0,1.1,0,1.7,0.2
		c0.4,0.1,0.9,0.1,1.3,0.1c0.7,0,1.4,0,2.2,0.2c0.6,0.1,1.2,0.1,1.8,0.1c0.7,0,1.4-0.1,2,0.2c0.1,0,0.2,0,0.4,0
		c3.2,0.1,6.2,0.9,9.2,1.9c2.2,0.7,4.2,1.9,6.1,3.2c1.4,1,2.6,2.2,3.7,3.5c1.1,1.3,2,2.7,2.8,4.2c1.3,2.6,2.3,5.3,3,8.2
		c0.3,1.2,0.3,2.5,0.6,3.7c0.3,1.1,0,2.3,0.4,3.3C306.5,355.7,306.4,356,306.1,356.3"/>
	<path class="st0" d="M164,151c0.1-0.1,0.1-0.3,0.3-0.1C164.2,150.9,164.1,150.9,164,151z"/>
	<path class="st0" d="M250.5,129.4C250.5,129.4,250.6,129.4,250.5,129.4C250.6,129.4,250.5,129.4,250.5,129.4z"/>
	<path class="st0" d="M208.2,227.1c-0.1-0.9-0.1-1.7-0.3-2.5c-0.4-1.8-1.1-3.4-2.2-4.9c-0.7-1.1-1.6-2-2.7-2.7
		c-1.8-1.2-3.7-2.1-5.9-2.3c-0.2,0-0.4-0.1-0.6-0.1c-0.4,0-0.9-0.2-1.3-0.1c-1.2,0.2-2.5,0.2-3.7,0.7c-1.1,0.4-2.1,1-3.1,1.6
		c-0.6,0.4-1.1,1-1.6,1.4c-1.4,1.2-2.3,2.8-3,4.5c-0.2,0.5-0.4,1.1-0.5,1.6c-0.2,1-0.4,2-0.4,3.1c0,3.3,0,6.6,0,9.9
		c0.1,2.9,0.9,5.5,2.7,7.9c1.9,2.4,4.3,3.8,7.2,4.6c0.7,0.2,1.3,0.3,2,0.3c0.2,0,0.5,0,0.8,0.1c0.1,0.2,0.2,0.4,0.2,0.5
		c0,2,0,4,0,6.1c0,0.2-0.1,0.3-0.1,0.5c-0.4,0.2-0.8,0.2-1.2,0.1c-0.3-0.1-0.6-0.2-0.9-0.1c-1.1,0-2.1-0.3-3.1-0.5
		c-1.1-0.3-2.2-0.6-3.2-1.2c-1.4-0.7-2.8-1.4-4-2.5c-0.4-0.3-0.8-0.6-1.2-1c-2.3-2.3-4.1-5-5.2-8.1c-0.4-1.1-0.6-2.2-0.8-3.3
		c-0.2-1-0.2-2-0.2-3c0-3.7,0-7.4,0-11.1c0-1.4,0.2-2.8,0.5-4.2c0.8-2.8,1.9-5.4,3.8-7.6c1.1-1.3,2.2-2.4,3.6-3.4
		c1.8-1.2,3.6-2.3,5.7-2.9c2.6-0.8,5.2-1.1,7.9-0.9c1.3,0.1,2.7,0.3,4,0.8c1.1,0.4,2.3,0.7,3.4,1.3c1.3,0.7,2.5,1.5,3.6,2.5
		c0.4,0.3,0.8,0.6,1.1,0.9c0.7,0.7,1.2,1.5,1.9,2.2c1.4,1.6,2.2,3.6,3,5.5c0.3,0.8,0.5,1.6,0.6,2.4c0.1,0.7,0.3,1.5,0.3,2.3
		c0,0.3,0.1,0.6,0.2,0.9c0.1,0.3,0,0.6-0.3,0.8c-0.1,0-0.2,0.1-0.4,0.1c-2,0-4,0-6.1,0C208.5,227.2,208.4,227.2,208.2,227.1"/>
	<path class="st0" d="M280.1,215.2c-1,2.2-2,4.2-2.9,6.3c-0.4-0.1-0.7-0.2-1-0.3c-1.6-0.6-3.3-1-5-1.2c-0.7-0.1-1.4-0.2-2-0.2
		c-0.3,0-0.6,0-1-0.1c-0.8-0.2-1.5-0.2-2.3,0c-0.3,0.1-0.6,0.1-0.8,0.1c-2,0-3.9,0.5-5.8,1c-2.4,0.6-4.5,1.7-6.7,2.8
		c-1,0.5-1.9,1-2.7,1.8c-0.3,0.3-0.7,0.4-1.1,0.7c-0.3-0.3-0.6-0.6-0.8-0.9c-1-1.3-1.9-2.6-2.9-3.9c-0.2-0.3-0.3-0.6-0.4-0.8
		c0.3-0.5,0.7-0.8,1.1-1c2.2-1.6,4.7-2.9,7.2-4c1.3-0.6,2.8-1.1,4.2-1.5c1.7-0.5,3.5-0.8,5.3-1.1c0.2,0,0.5,0,0.7,0
		c0.2,0,0.5,0,0.7,0c1.8-0.4,3.5-0.3,5.3-0.2c1.8,0.1,3.6,0.3,5.4,0.7c1.6,0.4,3.3,0.9,4.9,1.5C279.6,214.8,279.8,215,280.1,215.2"
		/>
	<path class="st0" d="M265.3,231.4c-3.3,0.1-5.8-2.6-5.8-5.6c0-3.2,2.5-5.8,5.7-5.8c2.9,0,5.8,2.4,5.7,5.7
		C271.2,228.6,268,231.7,265.3,231.4"/>
</g>
<path class="st0" d="M250,478.6C124,478.6,21.5,376,21.5,250S124,21.5,250,21.5S478.6,124,478.6,250S376,478.6,250,478.6z M250,26.3
	C126.6,26.3,26.3,126.6,26.3,250c0,123.4,100.4,223.7,223.7,223.7c123.4,0,223.7-100.4,223.7-223.7C473.7,126.6,373.4,26.3,250,26.3
	z"/>
<path class="st0" d="M250,500C112.1,500,0,387.9,0,250C0,112.1,112.1,0,250,0c137.8,0,250,112.1,250,250
	C500,387.9,387.9,500,250,500z M250,14.5C120.1,14.5,14.5,120.1,14.5,250c0,129.9,105.7,235.5,235.5,235.5
	c129.9,0,235.5-105.7,235.5-235.5C485.5,120.1,379.9,14.5,250,14.5z"/>
<g>
	<path class="st0" d="M210,440.7l-7.1-1.8l-0.7,2.9l6.6,1.6l-0.6,2.3l-6.6-1.6l-0.9,3.5l7.5,1.9l-0.6,2.4l-10.2-2.5l3.4-13.5
		l9.9,2.5L210,440.7z"/>
	<path class="st0" d="M213.1,448.6c0,0.6,0.1,1.1,0.3,1.5c0.4,0.7,1.1,1.1,2.3,1.3c0.7,0.1,1.3,0.2,1.7,0.1c0.9-0.1,1.4-0.6,1.5-1.4
		c0.1-0.5-0.1-0.8-0.4-1.2c-0.4-0.3-1-0.6-1.8-1l-1.4-0.6c-1.4-0.6-2.3-1.1-2.8-1.6c-0.8-0.8-1.1-1.9-0.9-3.2
		c0.2-1.2,0.8-2.2,1.9-2.8c1-0.7,2.4-0.8,4.2-0.5c1.5,0.3,2.6,0.9,3.5,1.8c0.9,0.9,1.2,2.2,1,3.6l-2.7-0.5c0.1-0.8-0.2-1.5-0.8-2
		c-0.4-0.3-1-0.5-1.6-0.6c-0.8-0.1-1.4-0.1-1.9,0.1c-0.5,0.2-0.8,0.6-0.9,1.1c-0.1,0.5,0.1,0.9,0.5,1.2c0.3,0.2,0.8,0.5,1.7,0.9
		l2.3,1c1,0.4,1.7,0.9,2.2,1.4c0.7,0.8,0.9,1.8,0.7,3c-0.2,1.2-0.9,2.2-2,2.9c-1.1,0.7-2.6,0.8-4.3,0.5c-1.8-0.3-3.1-1-4-2
		c-0.9-1-1.2-2.2-1-3.6L213.1,448.6z"/>
	<path class="st0" d="M235.1,441.9l-0.3,2.4l-4.1-0.5l-1.3,11.4l-2.9-0.3l1.3-11.4l-4.2-0.5l0.3-2.4L235.1,441.9z"/>
	<path class="st0" d="M244.5,442.7c1,0.4,1.7,1,2.3,1.9c0.5,0.7,0.8,1.5,0.9,2.3c0.1,0.8,0.2,1.6,0.2,2.3c-0.1,1.8-0.5,3.4-1.3,4.6
		c-1.1,1.7-2.7,2.5-4.8,2.4l-6-0.3l0.6-13.9l6,0.3C243.2,442.3,243.9,442.5,244.5,442.7z M239.1,444.6l-0.4,9.1l2.7,0.1
		c1.4,0.1,2.4-0.6,3-1.9c0.3-0.7,0.5-1.6,0.6-2.6c0.1-1.4-0.1-2.5-0.5-3.3c-0.4-0.8-1.3-1.2-2.6-1.2L239.1,444.6z"/>
	<path class="st0" d="M249.8,453.5l2.9,0l0,2.8l-2.9,0L249.8,453.5z"/>
	<path class="st0" d="M260.9,453.4c0.3-0.9,1.1-2,2.5-3.1c1.2-1,1.9-1.7,2.3-2.1c0.5-0.6,0.7-1.3,0.7-2c0-0.6-0.2-1-0.6-1.4
		s-0.8-0.5-1.4-0.5c-0.8,0.1-1.3,0.4-1.6,1c-0.1,0.4-0.2,0.9-0.2,1.7l-2.6,0.2c0-1.2,0.1-2.1,0.4-2.9c0.6-1.4,1.8-2.2,3.7-2.3
		c1.4-0.1,2.6,0.2,3.5,0.9c0.9,0.7,1.4,1.8,1.5,3.1c0.1,1-0.2,1.9-0.7,2.8c-0.4,0.5-1,1.2-1.8,1.9l-1,0.8c-0.6,0.5-1.1,0.9-1.3,1.1
		c-0.2,0.2-0.4,0.5-0.6,0.8l6-0.5l0.2,2.4l-9.3,0.7C260.4,455.1,260.5,454.2,260.9,453.4z"/>
	<path class="st0" d="M278.3,442.3c0.9,1.1,1.4,2.8,1.7,5c0.3,2.2,0.2,4-0.4,5.3c-0.5,1.3-1.7,2.1-3.4,2.3c-1.7,0.2-3-0.2-3.9-1.3
		c-0.9-1.1-1.4-2.8-1.7-5c-0.3-2.2-0.2-4,0.4-5.3c0.5-1.3,1.7-2.1,3.4-2.3S277.4,441.2,278.3,442.3z M274.2,451.8
		c0.4,0.8,0.9,1.1,1.7,1c0.8-0.1,1.3-0.6,1.4-1.4c0.1-0.9,0.1-2.1-0.1-3.6c-0.2-1.6-0.5-2.8-0.9-3.6s-0.9-1.1-1.7-1
		c-0.8,0.1-1.3,0.6-1.4,1.4c-0.2,0.8-0.1,2,0.1,3.7C273.6,449.8,273.9,451,274.2,451.8z"/>
	<path class="st0" d="M281.5,444.3l-0.3-1.8c0.8-0.2,1.4-0.4,1.7-0.5c0.5-0.2,0.9-0.5,1.2-1c0.2-0.3,0.3-0.6,0.3-1.1
		c0-0.3,0-0.4,0-0.6l2.2-0.4l2.6,13.4l-2.7,0.5l-1.8-9.3L281.5,444.3z"/>
	<path class="st0" d="M297.4,440.1c-0.1-0.2-0.2-0.4-0.4-0.6c-0.4-0.3-0.9-0.4-1.4-0.3c-0.8,0.2-1.3,0.8-1.5,1.9
		c-0.1,0.6,0,1.4,0.2,2.4c0.2-0.5,0.5-0.8,0.9-1.1c0.4-0.3,0.8-0.5,1.4-0.6c1.2-0.3,2.2-0.1,3.2,0.5c1,0.6,1.6,1.5,1.9,2.8
		c0.3,1.2,0.2,2.4-0.3,3.6c-0.5,1.1-1.5,1.9-3.1,2.3c-1.7,0.4-3.1,0-4.2-1.2c-0.9-0.9-1.6-2.3-2-4c-0.3-1-0.4-1.8-0.5-2.5
		c-0.1-1.2-0.1-2.2,0.2-3c0.2-0.7,0.6-1.4,1.1-1.9c0.5-0.5,1.2-0.9,2.1-1.1c1.2-0.3,2.3-0.2,3.2,0.2c0.9,0.4,1.5,1.2,1.9,2.2
		L297.4,440.1z M296.2,448.3c0.5,0.4,1,0.5,1.6,0.3c0.6-0.1,1-0.5,1.2-1c0.2-0.5,0.2-1.1,0.1-1.8c-0.2-0.8-0.5-1.3-1-1.6
		c-0.5-0.3-1-0.4-1.5-0.3c-0.4,0.1-0.8,0.3-1.1,0.7c-0.4,0.5-0.5,1.2-0.3,2.1C295.3,447.4,295.7,448,296.2,448.3z"/>
</g>
<g>
	<path class="st0" d="M130.9,84l8.4-5.8l1.4,2.1l-6,4.1l1.9,2.7l5.2-3.6l1.4,2.1l-5.2,3.6l3.4,5l-2.5,1.7L130.9,84z"/>
	<path class="st0" d="M149.7,72.4c0.6-0.1,1.1,0,1.7,0.2c0.4,0.2,0.9,0.4,1.2,0.7c0.4,0.3,0.7,0.7,1,1.2c0.3,0.6,0.5,1.2,0.6,2
		s-0.2,1.4-0.8,2.1c0.7-0.1,1.3,0,1.8,0.3c0.5,0.3,1,0.9,1.5,1.7l0.5,0.8c0.3,0.6,0.6,0.9,0.7,1.1c0.3,0.3,0.6,0.4,0.9,0.4l0.2,0.3
		l-2.8,1.7c-0.2-0.2-0.4-0.4-0.6-0.6c-0.3-0.3-0.5-0.6-0.7-1l-0.7-1.1c-0.5-0.8-0.9-1.2-1.3-1.3c-0.4-0.1-1,0-1.7,0.5l-2.5,1.5
		l2.9,4.8l-2.5,1.5l-7.3-12.3l5.9-3.5C148.4,72.8,149.1,72.5,149.7,72.4z M145.4,77.4l2,3.3l2.8-1.6c0.5-0.3,0.9-0.6,1.1-0.9
		c0.4-0.5,0.3-1.1-0.1-1.8c-0.4-0.7-1-1.1-1.6-1.1c-0.4,0-0.8,0.2-1.3,0.5L145.4,77.4z"/>
	<path class="st0" d="M170.2,76.1c-0.5,1.5-1.6,2.7-3.5,3.6c-1.8,0.9-3.5,1.1-4.9,0.6c-1.9-0.6-3.4-2-4.6-4.3
		c-1.2-2.4-1.4-4.4-0.6-6.3c0.5-1.5,1.6-2.7,3.5-3.6c1.8-0.9,3.5-1.1,4.9-0.6c1.9,0.5,3.4,2,4.5,4.4
		C170.7,72.2,170.9,74.2,170.2,76.1z M167.6,75c0.2-1.1,0-2.4-0.7-3.8c-0.7-1.4-1.6-2.4-2.6-2.9s-2-0.5-3.1,0.1
		c-1.1,0.5-1.7,1.3-2,2.4c-0.2,1.1,0,2.4,0.7,3.8s1.6,2.4,2.6,2.9c1,0.5,2.1,0.5,3.1-0.1C166.7,76.9,167.4,76.1,167.6,75z"/>
	<path class="st0" d="M175,70.6c0.3,0.6,0.7,1,1.1,1.2c0.7,0.4,1.6,0.3,2.7-0.1c0.7-0.3,1.2-0.6,1.5-0.9c0.7-0.6,0.9-1.3,0.6-2
		c-0.2-0.4-0.5-0.7-1-0.8c-0.5-0.1-1.2,0-2.1,0.1l-1.6,0.3c-1.5,0.3-2.6,0.3-3.3,0.1c-1.1-0.3-2-1-2.5-2.3c-0.5-1.2-0.4-2.4,0.1-3.5
		s1.7-2,3.4-2.7c1.4-0.6,2.8-0.7,4.1-0.3c1.3,0.3,2.3,1.2,2.9,2.6l-2.7,1.1c-0.4-0.8-1-1.2-1.8-1.3c-0.5,0-1.1,0.1-1.8,0.3
		c-0.7,0.3-1.3,0.7-1.6,1.1c-0.3,0.5-0.4,1-0.2,1.5c0.2,0.5,0.5,0.7,1.1,0.8c0.3,0,1,0,2-0.2l2.6-0.4c1.1-0.2,2-0.2,2.7,0
		c1,0.3,1.8,1.1,2.3,2.2c0.5,1.2,0.4,2.4-0.2,3.6c-0.6,1.2-1.8,2.1-3.5,2.8c-1.7,0.7-3.3,0.9-4.6,0.5c-1.3-0.4-2.3-1.3-2.8-2.7
		L175,70.6z"/>
	<path class="st0" d="M192.3,53.9l0.8,2.4l-4.1,1.3l3.6,11.2l-2.9,0.9l-3.6-11.2l-4.1,1.3l-0.8-2.4L192.3,53.9z"/>
	<path class="st0" d="M200.3,51.8l2.9-0.6l1.3,5.8l4.1-7l3.8-0.8l-4.5,7l7.9,6.9l-3.8,0.8l-5.7-5.2l-1.1,1.7l1,4.7l-2.9,0.6
		L200.3,51.8z"/>
	<path class="st0" d="M227.9,60c-0.9,1.3-2.4,2-4.4,2.3c-2,0.3-3.7,0-4.9-1c-1.6-1.2-2.6-3-3-5.5c-0.4-2.6,0.1-4.6,1.3-6.2
		c0.9-1.3,2.4-2,4.4-2.3c2-0.3,3.7,0,4.9,1c1.6,1.1,2.6,2.9,3,5.5C229.6,56.4,229.1,58.4,227.9,60z M225.7,58.1
		c0.6-1,0.7-2.2,0.5-3.8c-0.2-1.6-0.7-2.8-1.6-3.5c-0.8-0.8-1.8-1.1-3-0.9s-2,0.7-2.6,1.7c-0.6,1-0.8,2.2-0.5,3.8
		c0.2,1.6,0.7,2.8,1.6,3.5c0.8,0.8,1.8,1.1,3,0.9C224.3,59.6,225.2,59.1,225.7,58.1z"/>
	<path class="st0" d="M240.8,45.9l4.3-0.2l0.8,14.3l-2.8,0.2l-0.6-9.7c0-0.3,0-0.7-0.1-1.2c0-0.5,0-0.9-0.1-1.2l-2,12.2l-2.9,0.2
		l-3.4-11.8c0,0.3,0,0.7,0.1,1.2c0,0.5,0.1,0.9,0.1,1.2l0.6,9.7l-2.8,0.2l-0.8-14.3l4.3-0.2l3.3,11.1L240.8,45.9z"/>
	<path class="st0" d="M258.2,45.9l4.3,0.1l-0.4,14.3l-2.8-0.1l0.3-9.7c0-0.3,0-0.7,0-1.2c0-0.5,0-0.9,0-1.2l-3,11.9l-2.9-0.1
		L251.3,48c0,0.3,0,0.7,0,1.2c0,0.5,0,0.9,0,1.2L251,60l-2.8-0.1l0.4-14.3l4.3,0.1l2.3,11.3L258.2,45.9z"/>
	<path class="st0" d="M266,46.3l3,0.3l-0.9,8.7c-0.1,1-0.1,1.7,0.1,2.2c0.3,0.8,1,1.3,2.2,1.4c1.2,0.1,2-0.2,2.5-1
		c0.3-0.4,0.5-1.1,0.6-2.1l0.9-8.7l3,0.3l-0.9,8.8c-0.2,1.5-0.5,2.7-1.1,3.5c-1,1.5-2.8,2-5.2,1.8c-2.5-0.3-4.1-1.2-4.8-2.8
		c-0.4-0.9-0.5-2.1-0.3-3.6L266,46.3z"/>
	<path class="st0" d="M281.1,48l3.1,0.6l3.8,10.8l1.8-9.8l2.7,0.5L290,64.2l-2.9-0.5l-3.9-11l-1.8,10l-2.7-0.5L281.1,48z"/>
	<path class="st0" d="M295.2,65.5l-2.9-0.7l3.3-13.9l2.9,0.7L295.2,65.5z"/>
	<path class="st0" d="M301.7,52.3l2.8,0.8l-1.7,5.7l7-4.1l3.7,1.1l-7.3,4l3.6,9.8l-3.7-1.1l-2.5-7.2l-1.8,1l-1.3,4.6l-2.8-0.8
		L301.7,52.3z"/>
	<path class="st0" d="M320.1,58.1l3.2,1.2L323,74.5l-3-1.1l0.1-3.1l-4.9-1.8l-1.9,2.4l-2.9-1.1L320.1,58.1z M316.8,66.4l3.4,1.3
		l0.3-5.9L316.8,66.4z"/>
	<path class="st0" d="M338.4,65.7l-1,2.3l-3.9-1.7l-4.8,10.8l-2.7-1.2l4.8-10.8l-3.9-1.8l1-2.3L338.4,65.7z"/>
	<path class="st0" d="M336.4,80.8l-2.7-1.3l6.4-12.8l2.7,1.3L336.4,80.8z"/>
	<path class="st0" d="M348.9,86.2c-1.5,0.4-3.1,0.1-4.9-0.9c-1.8-1-2.9-2.3-3.2-3.8c-0.6-1.9-0.2-4,1-6.2c1.3-2.3,2.9-3.6,4.8-4
		c1.5-0.4,3.1-0.1,4.9,0.9c1.8,1,2.9,2.3,3.2,3.8c0.6,1.9,0.3,3.9-1,6.2C352.4,84.4,350.8,85.8,348.9,86.2z M348.3,83.4
		c1-0.4,2-1.3,2.8-2.7c0.8-1.4,1.1-2.6,0.9-3.8c-0.2-1.1-0.8-2-1.8-2.5c-1-0.6-2.1-0.7-3.1-0.3c-1,0.4-2,1.3-2.8,2.7
		c-0.8,1.4-1.1,2.7-0.9,3.8c0.2,1.1,0.8,2,1.8,2.5C346.2,83.7,347.3,83.8,348.3,83.4z"/>
	<path class="st0" d="M359.9,77.7l2.6,1.8l-0.9,11.5l5.6-8.3l2.3,1.6l-8,11.8l-2.5-1.7l0.9-11.7l-5.7,8.4l-2.3-1.6L359.9,77.7z"/>
</g>
</svg>
