<svg id="Layer_1" xmlns="http://www.w3.org/2000/svg" viewBox="0 0 103.5 103.5">
  <style>
    .st0{fill:#FFFFFF;}
  </style>
  <path class="st0" d="M25.8 41.1v3.2c0 .1 0 .3.1.4 0 .3.1.7.2 1l.1.3c.1.6.3 1.2.5 1.7.1.4.3.9.4 1.1.2.4.3.7.5 1.2.2.3.4.6.5.9.2.4.4.7.6 1.1l.2.3.1.2.3.6c.2.5.4 1.2.6 1.8.1.5.2 1 .2 1.4v.9l-.1.6.2.3v.1c.2.5.4.9.8 1.2-.2.2-.3.5-.5.7-.1.1-1.7 2.5-1.7 2.5-.2.3-.4.5-.5.8-.1.1-.1.2-.3.5-.6 1.1-.4 2.6.8 3.5l.7.5c.3.2.7.5.9.6.5.3 1 .7 1.3.9.3.2.6.4.9.7l.3.2c.3.2.7.5 1 .7l.4.3c.3.2.5.4.8.6l.5.3c.4.3.9.6 1.3.9l2.8 1.9c.1 0 .1.1.2.1.4.3 1.5 1.1 1.5 1.1l1 .7c.6.4 1.1.8 1.7 1.2l.9.6c.5.4 1.1.7 1.5 1.1.2.1 1.1.8 1.1.8l.1.1c.2.1.7.4 1.4.4.4 0 .7-.1 1.1-.2h.8l.9-1.2 1.9-2.8c.2-.2.3-.4.4-.6l.6-.9c.7-1.3.4-2.9-.9-3.7l-.5-.4v-.2h2.9l.4.1h1.5c.1 0 .2 0 .3.1.2 0 .3.1.5.2l.1.1.1.1.1.1c.1.1.2.2.3.5.1.2.1.3.2.4.1.3.1.7.1.9v1.7l1.6.3c.2.1.5.1.7.1h11.5l1.3-.1v-2.3c0-.1 0-.2.1-.3 0-.2.1-.5.3-.9.1-.2.2-.5.3-.7.1-.3.3-.6.5-.9.2-.4.3-.9.5-1.3.2-.6.4-1.3.5-2 .1-.2.1-.5.1-.7l.1-.1v-2.8l-.1-.3v-.6l-.1-.4c0-.4-.1-.8-.2-1.2-.1-.5-.2-1-.4-1.5-.1-.4-.3-.7-.4-1.1-.1-.2-.2-.4-.2-.5 0-.1-.1-.3-.1-.4v-6.9c0-.4 0-.8-.2-1.4-.2-.7-.6-1.3-1.2-2-.4-.4-1-.7-1.5-.9v-.5c0-.4 0-.7-.1-1-.2-1.1-.8-2-1.7-2.6-.5-.4-1.2-.6-1.9-.7-.2-.3-.5-.6-.9-.9-.6-.5-1.3-.7-2-.8h-.5c-.6 0-1.3.2-1.8.4s-.9.5-1.2.9c-.4.4-.7.8-.9 1.3-.1 0-.3.1-.4.1-.1-.5-.2-.9-.4-1.4-.2-.6-.4-1.3-.7-1.8-.2-.6-.5-1.2-.8-1.8l-.3-.6c.1 0 .3-.1.4-.1.2 0 .4-.1.6-.2 1-.4 1.7-1.3 1.7-2.5 0-.5-.2-1.1-.4-1.5-.2-.3-.7-1-.9-1.1h.3l.4-.2c1-.5 1.6-1.5 1.5-2.5v-.3c-.1-.8-.5-1.5-1.2-2-.6-.4-1.4-.7-2.2-.7h-.7c-.5 0-1 0-1.4.1-.1 0-.1 0-.2.1-.5-.5-1-.9-1.5-1.2-.2-.2-.5-.3-.8-.4-.3-.2-.6-.3-.9-.3-.6-.2-1.2-.3-1.8-.3H52c-.4 0-.8.1-1.2.2l.2-.8-.2-.1c-.5-.5-1.2-.7-1.9-.7s-1.3.2-1.8.6l-.1.1-.1.2c-.4.5-.6 1-.6 1.5h-.6c-.5-.8-1.4-1.3-2.4-1.3-.4 0-.9.1-1.3.3-.3.2-.6.4-.8.6h-.7c-.3 0-.5 0-.8.1-.3 0-.7.1-1.1.3-.6.2-1.2.5-1.7.9-.3.2-.5.4-.7.7-.1.2-.2.3-.3.5h-.2c-.3 0-.7.1-1 .2-.6.2-1.3.5-1.9 1-.1 0-.1.1-.1.1l-.2.1c-.7.5-1.1 1.4-1.2 2.2-.4.3-.7.6-1.1.9-.2.2-.5.5-.7.8-.1.1-.2.3-.4.4-.3.5-.7 1.2-1 1.9-.2.4-.3.9-.4 1.3l-.1.1c-.4.5-.7 1.1-.9 1.8l-.9 3.3zm51.1 22.8v2c0 .1-.1.6-.1.6 0 .1 0 .4-.1.6-.1.5-.2 1.2-.4 1.8-.2.4-.3.9-.5 1.3-.1.3-.3.6-.4.9-.2.3-.3.6-.4.8-.2.4-.3.7-.4 1-.1.2-.1.4-.1.5v1.5h-.6l-.7.1H62.4c-.2 0-.4 0-.5-.1l-1-.2v-1c0-.4-.1-.8-.2-1.2-.1-.2-.1-.4-.2-.6l-.3-.6c-.1-.1-.1-.2-.2-.2l-.4-.3c-.2-.1-.5-.2-.8-.3-.1 0-.3-.1-.4-.1h-5.7c0 .1 0 .2-.1.3v1l1 .6c.9.6 1.1 1.7.6 2.6-.2.3-.3.5-.5.8-.2.2-.3.4-.5.6l-1.9 2.8c-.1.1-.5.7-.5.7l-.2.2c-.4.4-1 .4-1.2.4-.5 0-.8-.2-1.1-.3l-1.1-.8c-.5-.3-1-.7-1.5-1.1l-.9-.6c-.6-.4-1.2-.8-1.7-1.2l-1-.7s-1.1-.8-1.6-1.1l-.2-.1-1.7-1.2-.9-.6-.2-.2c-.4-.3-.9-.6-1.4-.9l-.4-.3c-.3-.2-.5-.4-.8-.6l-.4-.3c-.3-.2-.6-.4-1-.7l-.3-.2-.9-.6c-.4-.3-.9-.6-1.3-.9-.3-.2-.6-.4-1-.6l-.7-.5c-.8-.6-1-1.7-.6-2.5.2-.3.3-.4.3-.4.1-.2.3-.4.5-.7 0-.1 1.7-2.4 1.8-2.6l.6-.9c.1-.1.1-.2.2-.2H32v-.1l.1-.1v-.1c-.4-.2-.8-.6-.9-1.1l-.2-.4-.1-.2.1-.3v-.9c0-.6-.1-1.2-.3-1.7-.2-.7-.4-1.3-.6-1.9l-.3-.6-.1-.2-.2-.3c-.2-.4-.4-.8-.7-1.2-.2-.3-.3-.6-.5-.9-.2-.4-.4-.7-.5-1.1-.1-.3-.3-.7-.4-1.1-.2-.5-.4-1.1-.5-1.6l-.1-.3c-.1-.3-.1-.6-.1-.9l-.1-.4v-2.6c0-.2 0-.3.1-.4 0-1 .3-2 .7-3.1.2-.6.5-1.2.8-1.6l.1-.2c.1-.4.2-.9.4-1.3.3-.7.7-1.3 1-1.7.1-.1.2-.3.3-.4.3-.4.5-.6.7-.8.4-.4.9-.8 1.4-1.1v-.2c0-.7.3-1.3.8-1.8.2-.2.3-.2.4-.3.4-.3 1-.6 1.5-.8.3-.1.5-.1.8-.2h.7c.1-.3.2-.5.4-.7l.6-.6c.4-.3.9-.5 1.5-.8.4-.1.7-.2 1-.2.1 0 .4-.1.6-.1.4 0 .8 0 1.1.1v-.1c.2-.3.4-.6.8-.7.3-.1.6-.2.9-.2.8 0 1.5.5 1.8 1.3 0 0 0 .1.1.1.2 0 .5-.1.7-.1H47v-.4c0-.4.1-1 .4-1.4.6-.5 1-.7 1.5-.7s.9.2 1.3.5l.3.4c.1.2.2.3.4.5 0 0 .1.1.1.2l.3-.3c.4-.2.7-.3 1.1-.3h.2c.5 0 1 .1 1.5.3.2.1.5.2.7.3.3.1.5.3.7.4.5.3 1 .7 1.4 1.2.1.1.1.2.2.2l.7-.2c.3 0 .8-.1 1.2-.1h.6c.3 0 1.1.1 1.8.6.5.3.8.8.8 1.4.1.9-.3 1.6-1.1 2l-.3.1-.3.1s-.3.2-.5.3c-.2.1-.4.3-.6.4.1.1.3.2.4.4l.2.2c.1.1.7.8.9 1.1.2.3.3.7.3 1.1 0 .9-.5 1.5-1.2 1.8-.2.1-.3.1-.5.1-.4.1-.8.2-1.1.4-.1 0-.2.1-.3.1l.1.3c.2.4.4.7.5 1.1.3.6.6 1.2.8 1.7.2.6.5 1.2.6 1.8.2.4.3.9.4 1.4.1.2.1.6.2 1 .1-.1.2-.2.3-.2.4-.3.9-.4 1.4-.5.1-.5.4-1 .9-1.5.3-.3.6-.5 1-.7.5-.2 1-.3 1.5-.3h.4c.6 0 1.2.3 1.6.6.4.3.7.6.9 1h.3c.6.1 1.2.3 1.6.6.7.5 1.2 1.3 1.4 2.1.1.2.1.5.1.9v1.1c.2 0 .3.1.4.1.5.1 1 .4 1.3.7.5.5.8 1 1 1.6.1.4.1.8.1 1.2v6.9c0 .2.1.4.1.6l.2.6c.1.3.3.7.4 1 .2.5.3 1 .4 1.4.1.4.1.7.2 1.1l.1.6v.9l.6.4z"/>
  <path class="st0" d="M37.7 63.4c.4.2.8.6 1.2.8.4.3.8.5 1.2.8.4.3.8.5 1.2.8.4.3.8.5 1.2.8.4.3.8.5 1.2.8.4.3.8.5 1.2.8.4.3.8.5 1.2.8.4.3.8.5 1.2.8.4.3.8.5 1.2.8.4.3.8.5 1.2.8.1-.1.1-.2.1-.3v-.9c.1-.2 0-.3 0-.5v-1.4c0-.2.1-.3.1-.5s.1-.4.1-.7c.1-.5.3-.9.5-1.3.1-.3.3-.5.5-.7.3-.3.7-.6 1.2-.8.5-.2.9-.3 1.4-.3h4.5c.3 0 .5 0 .8-.1.2 0 .5-.1.7-.2.1-.1.2-.1.2-.2.2-.2.2-.5.2-.8v-.4c0-.2 0-.4-.1-.6-.1-.4-.2-.8-.4-1.2-.2-.4-.3-.8-.3-1.3 0-.4.2-.8.5-1.2l.1-.1v-.1c-.1-.1-.2-.2-.3-.4-.3-.3-.3-.8 0-1.1l.4-.4c.1-.1.1-.1.1-.2-.1-.3-.3-.6-.4-.8-.2-.4-.2-.8-.2-1.2v-.1c.1-.3.3-.5.5-.6.2-.2.5-.3.8-.3.1 0 .3-.1.4-.1.2-.1.4-.1.5-.3.1-.2.1-.2 0-.5 0-.1-.1-.2-.1-.3-.2-.4-.4-.7-.6-1.1-.4-.6-.8-1.2-1.2-1.7-.3-.3-.5-.7-.8-1-.1-.1-.2-.2-.3-.4-.2-.2-.4-.5-.6-.7-.2-.2-.2-.2-.3-.5V46c0-.1 0-.2.1-.3 0-.1.1-.2.2-.4.1-.3.2-.6.2-1v-.6c0-.2-.1-.4-.1-.5-.2-.7-.4-1.3-.6-2-.2-.6-.5-1.2-.8-1.9-.2-.5-.5-1-.8-1.5l-.3-.6c-.1-.3-.3-.5-.4-.8-.2-.3-.2-.6 0-.8.1-.1.2-.3.3-.4.2-.2.4-.3.6-.5.5-.4 1-.6 1.5-.9.2-.1.3-.1.5-.2l-.1-.1-.2-.2c-.4-.3-.8-.5-1.2-.7-.1 0-.3-.1-.4-.1-.1 0-.2-.1-.3-.2-.3-.2-.3-.7-.2-.9.1-.2.2-.4.3-.5.1-.2.3-.4.4-.5.3-.4.6-.7 1-1 .1 0 .1-.1.1-.1.1 0 .1-.1.2-.1h-.2c-.3.1-.7.2-1 .3-.1.1-.3 0-.4 0-.2-.1-.4-.2-.5-.4-.2-.4-.5-.8-.8-1.1-.2-.2-.5-.4-.7-.6 0 0 0-.1-.1 0 0 0 0 .1.1.1.1.2.1.3 0 .5-.1.3-.3.5-.6.5-.4 0-.8 0-1.3-.1-.4-.1-.8-.2-1.1-.4l-1.2-.6c-.1-.1-.2-.1-.2-.2 0 .1 0 .2.1.3 0 .1.1.3.1.4 0 .3-.4.7-.7.7-.1 0-.2 0-.4-.1-.5-.1-.9-.3-1.4-.3h-.1c-.1-.1-.3 0-.4 0H46c-.3 0-.5 0-.8.1-.3 0-.6.1-.9.2-.2.1-.4 0-.6-.1l-.6-.6s0-.1-.1 0v.1c0 .3-.1.5-.4.7-.3.2-.6.1-.8-.1-.3-.3-.7-.4-1.1-.6h-.4c.1.1.1.2.2.2.1.2.2.4.1.7 0 .2-.1.4-.2.6-.2.3-.4.4-.6.6-.5.2-1 .3-1.5.4h-1.5c-.2 0-.4-.1-.6-.1h-.8v.1c.1.1.1.2.1.3.1.3.1.5 0 .8-.1.2-.2.3-.3.5-.3.3-.7.5-1.1.7-.2.1-.3.1-.5.2-.4.1-.7.4-1 .6-.3.3-.6.5-.8.8-.2.3-.5.7-.6 1-.2.3-.3.7-.4 1 0 .1 0 .2-.1.3 0 .1 0 .3-.1.4 0 0 0 .1-.1.1-.1.1-.1.2-.2.3-.2.3-.4.5-.6.9-.2.4-.3.8-.4 1.2L29 41v.3c0 .7-.1 1.4 0 2.1 0 .2 0 .4.1.6.1.4.1.7.2 1.1.1.4.2.8.4 1.2.1.4.3.8.5 1.1.2.4.4.8.7 1.2.2.3.4.7.6 1 .2.5.5.9.7 1.4.1.2.2.3.2.5l.3.9c.1.3.2.7.3 1l.3 1.2c.1.2.1.5.1.7 0 .2 0 .4.1.6.1 0 .1 0 .2-.1.4-.1.9.2.9.7V59c-.1.3 0 .5-.1.8 0 .2 0 .5-.1.7 0 .3-.3.6-.6.7-.1 0-.2 0-.3.1l-.9 1.2c-.4.5-.7 1.1-1.1 1.6 0 .1-.1.1-.1.2s-.1.1-.1.2l.1.1c.1.1.2.2.4.2.5.4 1.1.7 1.6 1.1.4.3.8.5 1.1.8.5.3 1 .7 1.5 1 .3.2.7.4 1 .7.6.4 1.1.8 1.7 1.2l.9.6c.4.3.9.6 1.3.9.4.3.8.6 1.3.9.4.3.9.6 1.3.9.4.3.8.6 1.3.9.4.3.9.6 1.3.9.4.3.8.6 1.3.9.3.2.7.5 1 .7.1.1.2.1.2.2.1.1.2.2.3.2.2-.2.4-.5.5-.7.2-.3.4-.5.5-.8.2-.3.4-.5.5-.8.2-.3.4-.5.5-.8 0 0 0-.1-.1-.1-.3-.2-.7-.5-1-.7-2.1-1.4-4.1-2.8-6.2-4.1-1.4-1-2.8-1.9-4.3-2.8l-2.7-1.8c-.1 0-.1-.1-.2-.1 0-.1.1-.1.1-.2.1-.1.1-.2.2-.3.1-.2.3-.4.4-.6.5.6.5.5.6.5m14.2-36.6s0-.1-.1-.1c-.2-.3-.2-.7.1-1l.2-.2c.1-.1.3-.1.4-.1h.1c.4 0 .8.1 1.2.2.2.1.4.1.6.2l.6.3c.4.3.8.6 1.2 1 .2.2.3.4.5.6 0 .1.1.1.1.2.1 0 .2 0 .4-.1.4-.1.7-.2 1.1-.2.4-.1 1.1-.1 1.4-.1.4 0 .9.2 1.2.4.2.1.3.3.3.5v.1c0 .3-.1.6-.4.7 0 0-.1 0-.1.1-.4.1-.7.3-1 .5-.2.1-.5.3-.7.5-.2.1-.3.3-.5.4-.1.1-.2.2-.3.2l-.1.1c-.1.1-.2.3-.4.4l.1.1c.3.2.7.4 1 .6.2.1.3.2.5.4l.3.3c.1.1.6.7.7.8.1.2.2.3.2.5 0 .3-.2.5-.4.6-.1.1-.3.1-.5.1-.4.1-.8.2-1.1.4-.3.1-.6.3-.9.5-.2.1-.3.2-.5.3l-.1.1c.1.1.2.3.2.4.1.2.2.3.3.5.2.5.5.9.7 1.4.3.5.5 1.1.7 1.6.2.6.4 1.1.6 1.7l.3 1.2c.1.4.2.7.1 1.1v.4c0 .4-.1.8-.2 1.2 0 .1 0 .1-.1.2.1.1.1.2.2.3.1.2.3.3.4.5.2.2.3.4.5.6l.9 1.2c.3.4.6.8.9 1.3.2.3.4.7.6 1 .2.3.3.6.4 1 .1.6 0 1.2-.4 1.6-.3.3-.6.5-.9.6-.2.1-.5.2-.7.2 0 0-.1 0-.1.1s0 .2.1.2l.3.6c.1.2.1.3.2.5.1.1.1.3.1.4v.2c-.1.3-.2.5-.4.7l-.2.2c.1.2.2.4.3.5.1.1.1.3.1.4 0 .3-.1.5-.3.8l-.2.2c0 .1-.1.1-.1.2-.1.1-.1.2 0 .4 0 .2.1.3.2.5.2.4.4.9.5 1.4 0 .2.1.5.1.7.1.3 0 .7 0 1 0 .5-.2 1-.5 1.5-.3.3-.6.5-1 .7-.3.1-.7.2-1 .3H59c-.2.1-.4 0-.7 0h-4.1c-.4 0-.7.1-1 .2-.4.2-.7.5-.9.9-.2.4-.4.8-.4 1.3 0 .2-.1.4-.1.6v.3c0 .3-.1.6-.1.9v1.6c0 .2 0 .4-.1.7v.7c.2.1.3.2.4.3.4.2.7.5 1.1.7.3.2.4.7.2 1-.1.2-.3.5-.5.7-.2.2-.3.4-.5.7-.4.5-.7 1.1-1.1 1.6-.3.4-.5.8-.8 1.1-.1.1-.2.3-.3.4-.2.1-.3.2-.5.2s-.3-.1-.4-.1c-.3-.2-.7-.5-1-.7-.5-.4-1-.7-1.6-1.1l-.9-.6c-.6-.4-1.1-.8-1.7-1.2-.3-.2-.7-.4-1-.7-.5-.4-1.1-.7-1.6-1.1-.1 0-.1-.1-.2-.1-.5-.4-1.1-.7-1.6-1.1-.4-.3-.7-.5-1.1-.8-.5-.3-.9-.6-1.4-.9-.4-.3-.8-.6-1.3-.9-.4-.3-.9-.6-1.3-.9-.4-.3-.8-.6-1.3-.9-.5-.3-.9-.6-1.4-.9-.4-.3-.8-.6-1.3-.9-.3-.6-.5-.6-.6-.7-.3-.2-.4-.6-.2-.9.1-.1.1-.2.2-.4.2-.3.5-.7.7-1 .3-.5.7-.9 1-1.4.2-.3.3-.5.5-.8l.6-.9.3-.3c0-.2.1-.4.1-.7.1-.3 0-.5.1-.8v-.6h-.4c-.3 0-.6-.2-.7-.5v-1.5c0-.6-.2-1.2-.3-1.8-.2-.7-.4-1.4-.7-2-.1-.2-.2-.4-.3-.7-.1-.1-.1-.3-.2-.4-.3-.5-.5-1-.8-1.5-.2-.3-.3-.6-.5-.9-.2-.3-.3-.6-.4-.9-.2-.3-.3-.7-.4-1-.2-.5-.3-1-.4-1.5-.1-.3-.2-.7-.2-1 0-.2-.1-.3-.1-.5V41c.1-1 .3-1.9.6-2.8.2-.5.4-.9.7-1.3.1-.1.2-.3.3-.4.1-.5.2-.9.4-1.3.2-.6.5-1.1.9-1.6.1-.1.2-.3.3-.4l.6-.6c.5-.5 1.1-.9 1.7-1.1.2-.1.4-.2.6-.2.1 0 .1-.1.2-.1-.1 0-.3 0-.4-.1-.3-.1-.4-.4-.5-.7 0-.3.1-.5.4-.7.1-.1.2-.1.3-.2.4-.3.8-.5 1.2-.6.2-.1.4-.1.6-.1.2 0 .4-.1.6 0h.3c.2 0 .4.1.7.1.5.1 1 0 1.4 0h.1c0-.1-.1-.1-.1-.1h-.5c-.1 0-.2 0-.4-.1-.3-.1-.4-.3-.5-.5-.1-.2 0-.4.2-.6l.4-.4c.4-.3.8-.5 1.2-.6.2-.1.5-.1.7-.2.2 0 .3 0 .5-.1.5 0 1.1.1 1.6.3h.1l.1-.1c.1-.2.3-.5.4-.7l.3-.3c.4-.2.9 0 1 .4.1.2.2.5.4.7.1.1.2.3.3.3.4 0 .8-.2 1.3-.1.4-.1.8-.1 1.2 0 .4 0 .8.1 1.3.1v-.1c-.1-.4-.1-.7-.1-1.1v-.6c0-.2 0-.4.2-.6.2-.1.3-.2.6-.2.2 0 .4.1.5.2.2.3.4.6.6.8.1.1.2.2.3.4.4.4.8.7 1.3.9 0 .2.1.2.2.2"/>
  <path class="st0" d="M71.9 49.6h-.2c-.1 0-.2.1-.3.2-.2.1-.2.3-.2.5v8.1h-1.5V45.8c0-.3-.1-.6-.4-.7-.4-.2-1 .1-1 .6v11.8h-1.6V44.1c0-.3-.2-.6-.5-.7h-.3c-.4.1-.6.4-.6.7v13.3h-1.5V46.7c0-.2 0-.3-.1-.5-.2-.4-.6-.5-1-.3l-.3.3c0 .1-.1.2-.1.3h-1.4c-.1-.2 0-.3 0-.4l.3-.9c.1-.1.2-.3.4-.4.1-.1.2-.2.3-.2.3-.2.7-.3 1-.3.2 0 .5 0 .7.1h.1v-.5c0-.6.2-1 .6-1.4.2-.2.4-.3.6-.5.4-.2.8-.3 1.3-.2.4 0 .8.2 1.1.4.4.3.7.7.8 1.2 0 .1 0 .1.1.2.2 0 .4-.1.5-.1h.3c.4 0 .8.1 1.1.4.5.3.8.8.9 1.3 0 .2.1.4.1.6v2.3h.2c.2-.1.4 0 .6 0 .1 0 .3 0 .4.1.3.1.6.3.9.5.3.3.5.6.6 1 .1.3.1.6.1.8v6.9c0 .3.1.7.2 1 .2.6.4 1.1.6 1.6.1.4.2.9.3 1.3.1.3.1.6.1.9 0 .2.1.4.1.6v2.9c0 .3 0 .5-.1.7 0 .1 0 .2-.1.4-.1.6-.2 1.2-.5 1.8-.1.4-.3.8-.5 1.2-.2.6-.5 1.1-.8 1.6-.2.4-.4.8-.5 1.2-.1.3-.1.6-.1.9v.2h-1.5c-.1-.1 0-.2 0-.3v-.2c0-.3 0-.5.1-.8.1-.5.3-.9.5-1.4.2-.5.5-.9.7-1.4.3-.6.6-1.3.8-2 .1-.4.2-.9.3-1.3.1-.4.1-.9.1-1.3v-1.9c0-.2 0-.5-.1-.7 0-.3-.1-.6-.2-.9-.1-.4-.2-.9-.4-1.3-.1-.3-.2-.6-.4-.9-.1-.4-.3-.7-.4-1.1 0-.2-.1-.5-.1-.7v-7.1c0-.2 0-.3-.1-.5s-.2-.3-.4-.3h.4m-8.4 24c0 .1 0 .1-.1.2H62v-.1c0-.5-.1-.9-.2-1.4 0-.2-.1-.4-.2-.6 0-.1-.1-.1-.1-.2-.1-.3-.3-.6-.5-.8l-.6-.6c-.1-.1-.2-.2-.3-.2-.4-.2-.7-.4-1.1-.4-.2 0-.3-.1-.5-.1h-.3c-1-.2-2-.2-2.8-.2h-1.6c-.9 0-1.1-.1-1.1-.1-.2-.1-.3-.2-.4-.4V68c0-.4.1-.7.3-1 .1-.3.3-.5.5-.7.2-.2.5-.4.7-.5.2-.1.5-.1.7-.2h4.2V67h-3.8c-.1 0-.3 0-.4.1-.2.1-.4.2-.5.4.1.1.1 0 .2 0h4.5c.7 0 1.3.2 1.9.4.5.1.9.4 1.3.7.3.2.5.5.8.7l.6.9c.3.5.5 1.1.6 1.7.1.3.1.5.1.8-.6.4-.6.7-.5.9zM34 31.3c0-.1 0-.1 0 0zm17.9-4.5zM43.1 47c0-.2 0-.3-.1-.5-.1-.4-.2-.7-.5-1-.2-.2-.3-.4-.6-.6-.4-.3-.8-.4-1.2-.5h-.4c-.3 0-.5 0-.8.1l-.6.3-.3.3c-.3.2-.5.6-.6.9 0 .1-.1.2-.1.3 0 .2-.1.4-.1.6V49c0 .6.2 1.1.6 1.6.4.5.9.8 1.5 1 .1 0 .3.1.4.1h.2v1.5H40c-.2 0-.4-.1-.6-.1-.2-.1-.4-.1-.7-.2-.3-.1-.6-.3-.8-.5-.1-.1-.2-.1-.3-.2-.5-.5-.8-1-1.1-1.7-.1-.2-.1-.4-.2-.7v-2.9c0-.3 0-.6.1-.9.2-.6.4-1.1.8-1.6.2-.3.5-.5.7-.7.4-.3.7-.5 1.2-.6.5-.2 1.1-.2 1.6-.2.3 0 .6.1.8.2.2.1.5.2.7.3.3.2.5.3.7.5.1.1.2.1.2.2.1.1.3.3.4.5.3.3.5.7.6 1.1.1.2.1.3.1.5s.1.3.1.5v.2c0 .1 0 .1-.1.2h-.1c-.1 0-.5 0-1-.1.1.1.1 0 0 0M58 44.6c-.2.4-.4.9-.6 1.3-.1 0-.1 0-.2-.1-.3-.1-.7-.2-1-.3h-1.3c-.4 0-.8.1-1.2.2-.5.1-.9.3-1.4.6-.2.1-.4.2-.6.4-.1.1-.1.1-.2.1l-.2-.2c-.2-.3-.4-.5-.6-.8 0-.1-.1-.1-.1-.2.1-.1.1-.2.2-.2.5-.3 1-.6 1.5-.8l.9-.3c.4-.1.7-.2 1.1-.2h.3c.4-.1.7-.1 1.1 0 .4 0 .7.1 1.1.2.3.1.7.2 1 .3.1-.1.1-.1.2 0"/>
  <path class="st0" d="M54.9 47.9c-.7 0-1.2-.5-1.2-1.2s.5-1.2 1.2-1.2c.6 0 1.2.5 1.2 1.2.1.6-.6 1.3-1.2 1.2m0 19.3h-.3.3zm6.7 4.5c0-.1-.1-.1-.1-.2-.1-.3-.3-.6-.5-.8l-.6-.6c.5.3 1 .9 1.2 1.6-.1 0 0 0 0 0z"/>
  <path class="st0" d="M37.7 63.4c.4.2.8.6 1.2.8.4.3.8.5 1.2.8.4.3.8.5 1.2.8.4.3.8.5 1.2.8.4.3.8.5 1.2.8.4.3.8.5 1.2.8.4.3.8.5 1.2.8.4.3.8.5 1.2.8.4.3.8.5 1.2.8.4.3.8.5 1.2.8.1-.1.1-.2.1-.3v-.9c.1-.2 0-.3 0-.5v-1.4c0-.2.1-.3.1-.5s.1-.4.1-.7c.1-.5.3-.9.5-1.3.1-.3.3-.5.5-.7.3-.3.7-.6 1.2-.8.5-.2.9-.3 1.4-.3h4.5c.3 0 .5 0 .8-.1.2 0 .5-.1.7-.2.1-.1.2-.1.2-.2.2-.2.2-.5.2-.8v-.4c0-.2 0-.4-.1-.6-.1-.4-.2-.8-.4-1.2-.2-.4-.3-.8-.3-1.3 0-.4.2-.8.5-1.2l.1-.1v-.1c-.1-.1-.2-.2-.3-.4-.3-.3-.3-.8 0-1.1l.4-.4c.1-.1.1-.1.1-.2-.1-.3-.3-.6-.4-.8-.2-.4-.2-.8-.2-1.2v-.1c.1-.3.3-.5.5-.6.2-.2.5-.3.8-.3.1 0 .3-.1.4-.1.2-.1.4-.1.5-.3.1-.2.1-.2 0-.5 0-.1-.1-.2-.1-.3-.2-.4-.4-.7-.6-1.1-.4-.6-.8-1.2-1.2-1.7-.3-.3-.5-.7-.8-1-.1-.1-.2-.2-.3-.4-.2-.2-.4-.5-.6-.7-.2-.2-.2-.2-.3-.5V46c0-.1 0-.2.1-.3 0-.1.1-.2.2-.4.1-.3.2-.6.2-1v-.6c0-.2-.1-.4-.1-.5-.2-.7-.4-1.3-.6-2-.2-.6-.5-1.2-.8-1.9-.2-.5-.5-1-.8-1.5l-.3-.6c-.1-.3-.3-.5-.4-.8-.2-.3-.2-.6 0-.8.1-.1.2-.3.3-.4.2-.2.4-.3.6-.5.5-.4 1-.6 1.5-.9.2-.1.3-.1.5-.2l-.1-.1-.2-.2c-.4-.3-.8-.5-1.2-.7-.1 0-.3-.1-.4-.1-.1 0-.2-.1-.3-.2-.3-.2-.3-.7-.2-.9.1-.2.2-.4.3-.5.1-.2.3-.4.4-.5.3-.4.6-.7 1-1 .1 0 .1-.1.1-.1.1 0 .1-.1.2-.1h-.2c-.3.1-.7.2-1 .3-.1.1-.3 0-.4 0-.2-.1-.4-.2-.5-.4-.2-.4-.5-.8-.8-1.1-.2-.2-.5-.4-.7-.6 0 0 0-.1-.1 0 0 0 0 .1.1.1.1.2.1.3 0 .5-.1.3-.3.5-.6.5-.4 0-.8 0-1.3-.1-.4-.1-.8-.2-1.1-.4l-1.2-.6c-.1-.1-.2-.1-.2-.2 0 .1 0 .2.1.3 0 .1.1.3.1.4 0 .3-.4.7-.7.7-.1 0-.2 0-.4-.1-.5-.1-.9-.3-1.4-.3h-.1c-.1-.1-.3 0-.4 0H46c-.3 0-.5 0-.8.1-.3 0-.6.1-.9.2-.2.1-.4 0-.6-.1l-.6-.6s0-.1-.1 0v.1c0 .3-.1.5-.4.7-.3.2-.6.1-.8-.1-.3-.3-.7-.4-1.1-.6h-.4c.1.1.1.2.2.2.1.2.2.4.1.7 0 .2-.1.4-.2.6-.2.3-.4.4-.6.6-.5.2-1 .3-1.5.4h-1.5c-.2 0-.4-.1-.6-.1h-.8v.1c.1.1.1.2.1.3.1.3.1.5 0 .8-.1.2-.2.3-.3.5-.3.3-.7.5-1.1.7-.2.1-.3.1-.5.2-.4.1-.7.4-1 .6-.3.3-.6.5-.8.8-.2.3-.5.7-.6 1-.2.3-.3.7-.4 1 0 .1 0 .2-.1.3 0 .1 0 .3-.1.4 0 0 0 .1-.1.1-.1.1-.1.2-.2.3-.2.3-.4.5-.6.9-.2.4-.3.8-.4 1.2L29 41v.3c0 .7-.1 1.4 0 2.1 0 .2 0 .4.1.6.1.4.1.7.2 1.1.1.4.2.8.4 1.2.1.4.3.8.5 1.1.2.4.4.8.7 1.2.2.3.4.7.6 1 .2.5.5.9.7 1.4.1.2.2.3.2.5l.3.9c.1.3.2.7.3 1l.3 1.2c.1.2.1.5.1.7 0 .2 0 .4.1.6.1 0 .1 0 .2-.1.4-.1.9.2.9.7V59c-.1.3 0 .5-.1.8 0 .2 0 .5-.1.7 0 .3-.3.6-.6.7-.1 0-.2 0-.3.1l-.9 1.2c-.4.5-.7 1.1-1.1 1.6 0 .1-.1.1-.1.2s-.1.1-.1.2l.1.1c.1.1.2.2.4.2.5.4 1.1.7 1.6 1.1.4.3.8.5 1.1.8.5.3 1 .7 1.5 1 .3.2.7.4 1 .7.6.4 1.1.8 1.7 1.2l.9.6c.4.3.9.6 1.3.9.4.3.8.6 1.3.9.4.3.9.6 1.3.9.4.3.8.6 1.3.9.4.3.9.6 1.3.9.4.3.8.6 1.3.9.3.2.7.5 1 .7.1.1.2.1.2.2.1.1.2.2.3.2.2-.2.4-.5.5-.7.2-.3.4-.5.5-.8.2-.3.4-.5.5-.8.2-.3.4-.5.5-.8 0 0 0-.1-.1-.1-.3-.2-.7-.5-1-.7-2.1-1.4-4.1-2.8-6.2-4.1-1.4-1-2.8-1.9-4.3-2.8l-2.7-1.8c-.1 0-.1-.1-.2-.1 0-.1.1-.1.1-.2.1-.1.1-.2.2-.3.1-.2.3-.4.4-.6.5.6.5.5.6.5m14.2-36.6s0-.1-.1-.1c-.2-.3-.2-.7.1-1l.2-.2c.1-.1.3-.1.4-.1h.1c.4 0 .8.1 1.2.2.2.1.4.1.6.2l.6.3c.4.3.8.6 1.2 1 .2.2.3.4.5.6 0 .1.1.1.1.2.1 0 .2 0 .4-.1.4-.1.7-.2 1.1-.2.4-.1 1.1-.1 1.4-.1.4 0 .9.2 1.2.4.2.1.3.3.3.5v.1c0 .3-.1.6-.4.7 0 0-.1 0-.1.1-.4.1-.7.3-1 .5-.2.1-.5.3-.7.5-.2.1-.3.3-.5.4-.1.1-.2.2-.3.2l-.1.1c-.1.1-.2.3-.4.4l.1.1c.3.2.7.4 1 .6.2.1.3.2.5.4l.3.3c.1.1.6.7.7.8.1.2.2.3.2.5 0 .3-.2.5-.4.6-.1.1-.3.1-.5.1-.4.1-.8.2-1.1.4-.3.1-.6.3-.9.5-.2.1-.3.2-.5.3l-.1.1c.1.1.2.3.2.4.1.2.2.3.3.5.2.5.5.9.7 1.4.3.5.5 1.1.7 1.6.2.6.4 1.1.6 1.7l.3 1.2c.1.4.2.7.1 1.1v.4c0 .4-.1.8-.2 1.2 0 .1 0 .1-.1.2.1.1.1.2.2.3.1.2.3.3.4.5.2.2.3.4.5.6l.9 1.2c.3.4.6.8.9 1.3.2.3.4.7.6 1 .2.3.3.6.4 1 .1.6 0 1.2-.4 1.6-.3.3-.6.5-.9.6-.2.1-.5.2-.7.2 0 0-.1 0-.1.1s0 .2.1.2l.3.6c.1.2.1.3.2.5.1.1.1.3.1.4v.2c-.1.3-.2.5-.4.7l-.2.2c.1.2.2.4.3.5.1.1.1.3.1.4 0 .3-.1.5-.3.8l-.2.2c0 .1-.1.1-.1.2-.1.1-.1.2 0 .4 0 .2.1.3.2.5.2.4.4.9.5 1.4 0 .2.1.5.1.7.1.3 0 .7 0 1 0 .5-.2 1-.5 1.5-.3.3-.6.5-1 .7-.3.1-.7.2-1 .3H59c-.2.1-.4 0-.7 0h-4.1c-.4 0-.7.1-1 .2-.4.2-.7.5-.9.9-.2.4-.4.8-.4 1.3 0 .2-.1.4-.1.6v.3c0 .3-.1.6-.1.9v1.6c0 .2 0 .4-.1.7v.7c.2.1.3.2.4.3.4.2.7.5 1.1.7.3.2.4.7.2 1-.1.2-.3.5-.5.7-.2.2-.3.4-.5.7-.4.5-.7 1.1-1.1 1.6-.3.4-.5.8-.8 1.1-.1.1-.2.3-.3.4-.2.1-.3.2-.5.2s-.3-.1-.4-.1c-.3-.2-.7-.5-1-.7-.5-.4-1-.7-1.6-1.1l-.9-.6c-.6-.4-1.1-.8-1.7-1.2-.3-.2-.7-.4-1-.7-.5-.4-1.1-.7-1.6-1.1-.1 0-.1-.1-.2-.1-.5-.4-1.1-.7-1.6-1.1-.4-.3-.7-.5-1.1-.8-.5-.3-.9-.6-1.4-.9-.4-.3-.8-.6-1.3-.9-.4-.3-.9-.6-1.3-.9-.4-.3-.8-.6-1.3-.9-.5-.3-.9-.6-1.4-.9-.4-.3-.8-.6-1.3-.9-.3-.6-.5-.6-.6-.7-.3-.2-.4-.6-.2-.9.1-.1.1-.2.2-.4.2-.3.5-.7.7-1 .3-.5.7-.9 1-1.4.2-.3.3-.5.5-.8l.6-.9.3-.3c0-.2.1-.4.1-.7.1-.3 0-.5.1-.8v-.6h-.4c-.3 0-.6-.2-.7-.5v-1.5c0-.6-.2-1.2-.3-1.8-.2-.7-.4-1.4-.7-2-.1-.2-.2-.4-.3-.7-.1-.1-.1-.3-.2-.4-.3-.5-.5-1-.8-1.5-.2-.3-.3-.6-.5-.9-.2-.3-.3-.6-.4-.9-.2-.3-.3-.7-.4-1-.2-.5-.3-1-.4-1.5-.1-.3-.2-.7-.2-1 0-.2-.1-.3-.1-.5V41c.1-1 .3-1.9.6-2.8.2-.5.4-.9.7-1.3.1-.1.2-.3.3-.4.1-.5.2-.9.4-1.3.2-.6.5-1.1.9-1.6.1-.1.2-.3.3-.4l.6-.6c.5-.5 1.1-.9 1.7-1.1.2-.1.4-.2.6-.2.1 0 .1-.1.2-.1-.1 0-.3 0-.4-.1-.3-.1-.4-.4-.5-.7 0-.3.1-.5.4-.7.1-.1.2-.1.3-.2.4-.3.8-.5 1.2-.6.2-.1.4-.1.6-.1.2 0 .4-.1.6 0h.3c.2 0 .4.1.7.1.5.1 1 0 1.4 0h.1c0-.1-.1-.1-.1-.1h-.5c-.1 0-.2 0-.4-.1-.3-.1-.4-.3-.5-.5-.1-.2 0-.4.2-.6l.4-.4c.4-.3.8-.5 1.2-.6.2-.1.5-.1.7-.2.2 0 .3 0 .5-.1.5 0 1.1.1 1.6.3h.1l.1-.1c.1-.2.3-.5.4-.7l.3-.3c.4-.2.9 0 1 .4.1.2.2.5.4.7.1.1.2.3.3.3.4 0 .8-.2 1.3-.1.4-.1.8-.1 1.2 0 .4 0 .8.1 1.3.1v-.1c-.1-.4-.1-.7-.1-1.1v-.6c0-.2 0-.4.2-.6.2-.1.3-.2.6-.2.2 0 .4.1.5.2.2.3.4.6.6.8.1.1.2.2.3.4.4.4.8.7 1.3.9 0 .2.1.2.2.2"/>
  <path class="st0" d="M71.9 49.6h-.2c-.1 0-.2.1-.3.2-.2.1-.2.3-.2.5v8.1h-1.5V45.8c0-.3-.1-.6-.4-.7-.4-.2-1 .1-1 .6v11.8h-1.6V44.1c0-.3-.2-.6-.5-.7h-.3c-.4.1-.6.4-.6.7v13.3h-1.5V46.7c0-.2 0-.3-.1-.5-.2-.4-.6-.5-1-.3l-.3.3c0 .1-.1.2-.1.3h-1.4c-.1-.2 0-.3 0-.4l.3-.9c.1-.1.2-.3.4-.4.1-.1.2-.2.3-.2.3-.2.7-.3 1-.3.2 0 .5 0 .7.1h.1v-.5c0-.6.2-1 .6-1.4.2-.2.4-.3.6-.5.4-.2.8-.3 1.3-.2.4 0 .8.2 1.1.4.4.3.7.7.8 1.2 0 .1 0 .1.1.2.2 0 .4-.1.5-.1h.3c.4 0 .8.1 1.1.4.5.3.8.8.9 1.3 0 .2.1.4.1.6v2.3h.2c.2-.1.4 0 .6 0 .1 0 .3 0 .4.1.3.1.6.3.9.5.3.3.5.6.6 1 .1.3.1.6.1.8v6.9c0 .3.1.7.2 1 .2.6.4 1.1.6 1.6.1.4.2.9.3 1.3.1.3.1.6.1.9 0 .2.1.4.1.6v2.9c0 .3 0 .5-.1.7 0 .1 0 .2-.1.4-.1.6-.2 1.2-.5 1.8-.1.4-.3.8-.5 1.2-.2.6-.5 1.1-.8 1.6-.2.4-.4.8-.5 1.2-.1.3-.1.6-.1.9v.2h-1.5c-.1-.1 0-.2 0-.3v-.2c0-.3 0-.5.1-.8.1-.5.3-.9.5-1.4.2-.5.5-.9.7-1.4.3-.6.6-1.3.8-2 .1-.4.2-.9.3-1.3.1-.4.1-.9.1-1.3v-1.9c0-.2 0-.5-.1-.7 0-.3-.1-.6-.2-.9-.1-.4-.2-.9-.4-1.3-.1-.3-.2-.6-.4-.9-.1-.4-.3-.7-.4-1.1 0-.2-.1-.5-.1-.7v-7.1c0-.2 0-.3-.1-.5s-.2-.3-.4-.3h.4m-8.5 24.2H62v-.1c0-.5-.1-.9-.2-1.4l-.3-.9c-.1-.3-.3-.6-.5-.8-.3-.3-.6-.6-1-.8-.4-.2-.7-.3-1.1-.4-.2 0-.3-.1-.5-.1s-.4 0-.7-.1h-.8c-.3-.1-.7 0-1 0h-3c-.2 0-.3 0-.4-.1-.2-.1-.3-.2-.4-.4V68c0-.4.1-.7.3-1 .1-.3.3-.5.5-.7.2-.2.5-.4.7-.5.2-.1.5-.1.7-.2h4.2V67h-3.9c-.1 0-.3 0-.4.1-.2.1-.4.2-.5.4.1.1.1 0 .2 0h4.3c.7 0 1.3.2 1.9.4.5.2.9.4 1.3.7.3.2.5.5.8.7l.6.9c.3.5.5 1.1.6 1.7.1.3.1.5.1.8.1.2 0 .5.1.7-.1.3-.1.3-.2.4M34 31.3c0-.1 0-.1 0 0zm17.9-4.5zM43.1 47c0-.2 0-.3-.1-.5-.1-.4-.2-.7-.5-1-.2-.2-.3-.4-.6-.6-.4-.3-.8-.4-1.2-.5h-.4c-.3 0-.5 0-.8.1l-.6.3-.3.3c-.3.2-.5.6-.6.9 0 .1-.1.2-.1.3 0 .2-.1.4-.1.6V49c0 .6.2 1.1.6 1.6.4.5.9.8 1.5 1 .1 0 .3.1.4.1h.2v1.5H40c-.2 0-.4-.1-.6-.1-.2-.1-.4-.1-.7-.2-.3-.1-.6-.3-.8-.5-.1-.1-.2-.1-.3-.2-.5-.5-.8-1-1.1-1.7-.1-.2-.1-.4-.2-.7v-2.9c0-.3 0-.6.1-.9.2-.6.4-1.1.8-1.6.2-.3.5-.5.7-.7.4-.3.7-.5 1.2-.6.5-.2 1.1-.2 1.6-.2.3 0 .6.1.8.2.2.1.5.2.7.3.3.2.5.3.7.5.1.1.2.1.2.2.1.1.3.3.4.5.3.3.5.7.6 1.1.1.2.1.3.1.5s.1.3.1.5v.2c0 .1 0 .1-.1.2h-.1c-.1 0-.5 0-1-.1.1.1.1 0 0 0M58 44.6c-.2.4-.4.9-.6 1.3-.1 0-.1 0-.2-.1-.3-.1-.7-.2-1-.3h-1.3c-.4 0-.8.1-1.2.2-.5.1-.9.3-1.4.6-.2.1-.4.2-.6.4-.1.1-.1.1-.2.1l-.2-.2c-.2-.3-.4-.5-.6-.8 0-.1-.1-.1-.1-.2.1-.1.1-.2.2-.2.5-.3 1-.6 1.5-.8l.9-.3c.4-.1.7-.2 1.1-.2h.3c.4-.1.7-.1 1.1 0 .4 0 .7.1 1.1.2.3.1.7.2 1 .3.1-.1.1-.1.2 0"/>
  <path class="st0" d="M54.9 47.9c-.7 0-1.2-.5-1.2-1.2s.5-1.2 1.2-1.2c.6 0 1.2.5 1.2 1.2.1.6-.6 1.3-1.2 1.2"/>
  <path class="st0" d="M51.8 99.1c-26.1 0-47.3-21.2-47.3-47.3S25.7 4.4 51.8 4.4s47.3 21.2 47.3 47.3-21.2 47.4-47.3 47.4zm0-93.7C26.2 5.4 5.4 26.2 5.4 51.8c0 25.5 20.8 46.3 46.3 46.3C77.2 98.1 98 77.3 98 51.8c.1-25.6-20.7-46.4-46.2-46.4z"/>
  <path class="st0" d="M51.8 103.5C23.2 103.5 0 80.3 0 51.8 0 23.2 23.2 0 51.8 0c28.5 0 51.8 23.2 51.8 51.8-.1 28.5-23.3 51.7-51.8 51.7zM51.8 3C24.9 3 3 24.9 3 51.8s21.9 48.8 48.8 48.8 48.8-21.9 48.8-48.8C100.5 24.9 78.7 3 51.8 3z"/>
  <path class="st0" d="M39.6 89l-2.1-.8-.4.8 2 .8-.3.7-2-.8-.4 1 2.2.9-.3.7-3-1.2 1.6-4 2.9 1.2-.2.7zm.7 2.5v.5c.1.2.3.4.7.5.2.1.4.1.5.1.3 0 .4-.1.5-.4 0-.1 0-.3-.1-.4-.1-.1-.3-.2-.5-.4l-.4-.2c-.4-.2-.7-.4-.8-.6-.2-.3-.3-.6-.2-1 .1-.4.3-.6.7-.8.3-.2.8-.2 1.3 0 .4.1.8.3 1 .7s.3.7.2 1.1l-.8-.2c.1-.3 0-.5-.2-.6-.1-.1-.3-.2-.5-.2-.2-.1-.4-.1-.6 0-.2.1-.3.2-.3.3 0 .1 0 .3.1.4.1.1.2.2.5.3l.7.4c.3.2.5.3.6.5.2.3.2.6.1 1s-.3.7-.7.8c-.4.2-.8.2-1.4 0-.5-.2-.9-.4-1.2-.7-.2-.3-.3-.7-.2-1.2l1 .1zm6.9-1.5l-.1.8-1.3-.2-.6 3.4-.9-.2.6-3.5-1.3-.2.1-.8 3.5.7zm2.9.3c.3.1.5.3.7.6.1.2.2.5.3.7s0 .5 0 .7c0 .6-.2 1.1-.4 1.4-.3.5-.8.8-1.5.7l-1.9-.1.3-4.3 1.9.1c.2 0 .4.1.6.2zm-1.7.5l-.2 2.8.8.1c.4 0 .7-.2.9-.6.1-.2.2-.5.2-.8 0-.4 0-.8-.1-1s-.4-.4-.8-.4l-.8-.1zm3.4 2.8h.9v.9h-.9v-.9zm3.5-.1c.1-.3.3-.6.7-1 .3-.3.6-.5.7-.7.2-.2.2-.4.2-.6 0-.2-.1-.3-.2-.4s-.3-.1-.4-.1c-.3 0-.4.1-.5.3v.5l-.8.1c0-.4 0-.7.1-.9.2-.4.5-.7 1.1-.8.4-.1.8 0 1.1.2.3.2.5.5.5.9 0 .3 0 .6-.2.9-.1.2-.3.4-.5.6l-.3.3-.4.4c-.1.1-.1.2-.2.3l1.8-.2.1.7-2.9.3c-.1-.2 0-.5.1-.8zm5.2-3.7c.3.3.5.8.7 1.5s.1 1.2 0 1.7c-.1.4-.5.7-1 .8-.5.1-.9 0-1.2-.3-.3-.3-.5-.8-.6-1.5s-.1-1.2 0-1.7c.1-.4.5-.7 1-.8.4-.1.8 0 1.1.3zm-1 3c.1.2.3.3.6.3s.4-.2.4-.5 0-.6-.1-1.1c-.1-.5-.2-.9-.3-1.1-.1-.2-.3-.3-.6-.3-.2 0-.4.2-.4.5s0 .6.1 1.1c0 .5.1.9.3 1.1zm2.1-2.5l-.2-.5c.2-.1.4-.2.5-.2.1-.1.3-.2.3-.3 0-.1.1-.2.1-.3v-.2l.7-.2 1.2 4.1-.8.2-.9-2.9-.9.3zm4.7-1.9c0-.1-.1-.1-.2-.2s-.3-.1-.5 0c-.3.1-.4.3-.4.6 0 .2.1.4.2.7 0-.2.1-.3.2-.4.1-.1.2-.2.4-.3.4-.1.7-.1 1 0 .3.1.6.4.7.8.1.4.2.7.1 1.1-.1.4-.4.6-.9.8-.5.2-.9.1-1.3-.2-.3-.3-.6-.6-.8-1.1-.1-.3-.2-.6-.3-.8-.1-.4-.1-.7-.1-.9 0-.2.1-.4.3-.6.1-.2.3-.3.6-.4.4-.1.7-.2 1-.1.3.1.5.3.7.6l-.7.4zm-.1 2.6c.2.1.3.1.5 0s.3-.2.3-.4 0-.4-.1-.6c-.1-.2-.2-.4-.4-.5-.2-.1-.3-.1-.5 0-.1.1-.2.1-.3.3-.1.2-.1.4 0 .7.2.3.4.4.5.5zM13.8 31.9l1.8-3.1.8.4-1.3 2.2 1 .6 1.1-1.9.8.4-1.1 1.9 1.8 1.1-.5.9-4.4-2.5zm4.5-6.6c.2-.1.4-.2.6-.2.2 0 .3 0 .5.1.2 0 .3.1.5.2s.3.3.5.6c.1.2.1.5 0 .8.2-.1.4-.2.6-.2.2 0 .4.1.7.4l.3.2c.2.1.3.2.4.3.1.1.2.1.3 0l.1.1-.7.9c-.1 0-.2-.1-.3-.1-.1-.1-.3-.1-.4-.2l-.4-.3c-.3-.2-.5-.3-.6-.3-.1 0-.3.1-.5.4l-.6.8 1.6 1.2-.6.8-4-3 1.4-1.9c.2-.3.4-.5.6-.6zm-.7 2.2l1.1.8.7-.9c.1-.2.2-.3.2-.5s0-.4-.3-.6c-.2-.2-.5-.2-.7-.1-.1.1-.2.2-.4.3l-.6 1zm8-3.6c0 .5-.2 1.1-.7 1.6-.5.5-1 .8-1.6.8-.7 0-1.4-.3-2-.9-.7-.6-1-1.3-1-2 0-.5.2-1.1.7-1.6s1-.8 1.6-.8c.7 0 1.4.3 2 .9.7.6 1.1 1.3 1 2zm-1-.1c0-.4-.3-.8-.7-1.2-.4-.4-.8-.6-1.2-.7-.4 0-.7.1-1 .4-.3.3-.4.6-.4 1s.3.8.7 1.2c.4.4.8.6 1.2.7s.7-.1 1-.4c.4-.3.5-.6.4-1zm2-2.3c.2.2.3.3.5.3.3.1.6 0 .9-.3l.4-.4c.2-.3.2-.5 0-.7-.1-.1-.2-.2-.4-.2s-.4.1-.7.2l-.5.2c-.5.3-.8.4-1.1.4-.4 0-.8-.2-1.1-.5-.3-.4-.4-.8-.3-1.2s.4-.9.9-1.3c.4-.3.9-.5 1.3-.5.5 0 .9.2 1.2.6l-.7.6c-.2-.2-.4-.3-.7-.3-.2 0-.4.1-.6.3-.2.2-.4.4-.4.5s0 .4.1.5c.1.1.3.2.4.2.1 0 .3-.1.7-.3l.8-.4c.4-.2.7-.3.9-.3.4 0 .7.2 1 .5.3.4.4.8.3 1.2-.1.5-.4.9-.9 1.3s-1 .6-1.5.6-.9-.2-1.2-.6l.7-.4zm4.5-7.2l.5.8-1.3.8 2.2 3.5-.9.6-2.2-3.5-1.3.8-.5-.8 3.5-2.2zm2.9-1.5l1-.4.8 1.9 1-2.7 1.3-.5-1.1 2.7 3.1 1.9-1.3.5-2.3-1.5-.3.7.6 1.6-1 .4-1.8-4.6zm10.1 1.5c-.3.5-.8.8-1.5 1s-1.3.1-1.7-.2c-.6-.3-1-1-1.2-1.8-.2-.9-.1-1.6.2-2.2.3-.5.8-.8 1.5-1 .7-.2 1.3-.1 1.7.2.6.3 1 .9 1.2 1.8.2.9.1 1.6-.2 2.2zm-.9-.6c.2-.4.2-.8 0-1.4-.1-.5-.4-.9-.7-1.2-.3-.2-.7-.3-1.1-.2-.4.1-.7.3-.9.7-.2.4-.2.8 0 1.4.1.6.4.9.7 1.2s.7.3 1.1.2c.5-.1.8-.3.9-.7zm5.2-4.6l1.5-.1.5 5-1 .1-.3-3.4v-.8l-.5 4.3-1 .1-1.4-4.1v.8l.3 3.4-1 .1-.5-5 1.5-.2 1.3 3.8.6-4zm6.3 0l1.5.1-.2 5h-1l.2-3.4V10l-1.1 4.2h-1l-.8-4.3v.8l-.2 3.3h-1l.2-5h1.6l.7 4 1.1-3.9zm3 .2l1.1.2-.6 3c-.1.3-.1.6 0 .8.1.3.3.5.7.6.4.1.7 0 .9-.3.1-.1.2-.4.3-.7l.6-3 1.1.2-.6 3c-.1.5-.3.9-.5 1.2-.4.5-1 .6-1.9.5-.9-.2-1.4-.5-1.6-1.1-.1-.3-.1-.7 0-1.3l.5-3.1zm5.5 1.2l1 .3.8 4 1.1-3.3.9.3-1.6 4.8-1-.3-.8-4-1.1 3.4-.9-.3 1.6-4.9zm4 6.8l-1-.4 2-4.6 1 .4-2 4.6zm3.2-4.1l.9.5-1 1.8 2.7-.9 1.2.6-2.8.8.5 3.6-1.2-.6-.3-2.7-.7.2-.8 1.5-.9-.4 2.4-4.4zm6 3.6l1 .7-1.5 5.1-.9-.7.3-1-1.5-1.1-.9.6-.9-.6 4.4-3zm-1.9 2.5l1 .8.6-2-1.6 1.2zm7.4 2l-.6.7-1.1-1-2.8 3.1-.8-.7 2.8-3.1-1.1-1 .6-.7 3 2.7zm-2.4 4.9l-.7-.8 3.7-3.5.7.8-3.7 3.5zm3.4 3.4c-.5-.1-1-.4-1.5-.9s-.6-1.1-.6-1.7c.1-.7.5-1.3 1.2-1.9.7-.6 1.4-.8 2.1-.7.5.1 1 .4 1.5.9s.6 1.1.6 1.7c-.1.7-.4 1.3-1.2 1.9-.7.5-1.4.8-2.1.7zm.2-1c.4 0 .8-.2 1.3-.5.4-.3.7-.7.8-1.1s0-.7-.2-1.1c-.3-.3-.6-.5-1-.5s-.8.2-1.3.5c-.4.4-.7.7-.8 1.1s0 .7.3 1.1c.2.3.5.5.9.5zm4.6-.1l.6 1-2 3.5 3-1.8.5.8-4.3 2.5-.5-.9 2-3.6-3.1 1.8-.5-.8 4.3-2.5z"/>
</svg>
